999
FreeCAD v1.0 39285 (Git)
  0
SECTION
  2
HEADER
  9
$ACADVER
  1
AC1014
  9
$ACADMAINTVER
 70
     9
  9
$DWGCODEPAGE
  3
ANSI_1252
  9
$TEXTSTYLE
  7
STANDARD
  9
$DIMSTYLE
  2
STANDARD
  9
$DIMTXSTY
  7
STANDARD
  9
$CMLSTYLE
  2
STANDARD
  9
$LUNITS
 70
2
  9
$INSUNITS
 70
4
  9
$PEXTMAX
 10
50
 20
50
 30
50
  9
$PEXTMIN
 10
0
 20
0
 30
0
  9
$HANDSEED
  5
FFFF
  0
ENDSEC
  0
SECTION
  2
CLASSES
  0
CLASS
  1
ACDBDICTIONARYWDFLT
  2
AcDbDictionaryWithDefault
  3
ObjectDBX Classes
 90
        0
280
     0
281
     0
  0
CLASS
  1
XRECORD
  2
AcDbXrecord
  3
ObjectDBX Classes
 90
        0
280
     0
281
     0
  0
CLASS
  1
LWPOLYLINE
  2
AcDbPolyline
  3
ObjectDBX Classes
 90
        0
280
     0
281
     1
  0
ENDSEC
  0
SECTION
  2
TABLES
  0
TABLE
  2
VPORT
  5
20
330
0
100
AcDbSymbolTable
 70
     1
  0
VPORT
  5
21
330
20
100
AcDbSymbolTableRecord
100
AcDbViewportTableRecord
  2
*ACTIVE
 70
     0
  0
ENDTAB
  0
TABLE
  2
LTYPE
  5
22
330
0
100
AcDbSymbolTable
 70
     1
  0
LTYPE
  5
23
330
21
100
AcDbSymbolTableRecord
100
AcDbLinetypeTableRecord
  2
BYBLOCK
 70
     0
  3

 72
    65
 73
     0
 40
0.0
  0
LTYPE
  5
24
330
21
100
AcDbSymbolTableRecord
100
AcDbLinetypeTableRecord
  2
BYLAYER
 70
     0
  3

 72
    65
 73
     0
 40
0.0
  0
LTYPE
  5
25
330
21
100
AcDbSymbolTableRecord
100
AcDbLinetypeTableRecord
  2
CONTINUOUS
 70
     0
  3
Solid line
 72
    65
 73
     0
 40
0.0
  0
ENDTAB
  0
TABLE
  2
LAYER
  5
A33
330
0
100
AcDbSymbolTable
 70
3
  0
LAYER
  5
A34
330
A33
100
AcDbSymbolTableRecord
100
AcDbLayerTableRecord
  2
0
 70
   0
 62
   7
  6
CONTINUOUS
  0
LAYER
  5
A35
330
A33
100
AcDbSymbolTableRecord
100
AcDbLayerTableRecord
  2
none
 70
    0
 62
    7
  6
CONTINUOUS
  0
LAYER
  5
A36
330
A33
100
AcDbSymbolTableRecord
100
AcDbLayerTableRecord
  2
Sketch001
 70
    0
 62
    7
  6
CONTINUOUS
  0
ENDTAB
  0
TABLE
  2
STYLE
  5
70
330
0
100
AcDbSymbolTable
 70
     2
  0
STYLE
  5
71
330
70
100
AcDbSymbolTableRecord
100
AcDbTextStyleTableRecord
  2
STANDARD
 70
     0
 40
0.0
 41
1.0
 50
0.0
 71
     0
 42
2.5
  3
arial.ttf
  4

  0
STYLE
  5
72
330
70
100
AcDbSymbolTableRecord
100
AcDbTextStyleTableRecord
  2
ANNOTATIVE
 70
     0
 40
0.0
 41
1.0
 50
0.0
 71
     0
 42
2.5
  3
arial.ttf
  4

  0
ENDTAB
  0
TABLE
  2
VIEW
  5
73
330
0
100
AcDbSymbolTable
 70
     0
  0
ENDTAB
  0
TABLE
  2
UCS
  5
74
330
0
100
AcDbSymbolTable
 70
     0
  0
ENDTAB
  0
TABLE
  2
APPID
  5
75
330
0
100
AcDbSymbolTable
 70
     2
  0
APPID
  5
76
330
75
100
AcDbSymbolTableRecord
100
AcDbRegAppTableRecord
  2
ACAD
 70
     0
  0
APPID
  5
77
330
75
100
AcDbSymbolTableRecord
100
AcDbRegAppTableRecord
  2
ACADANNOTATIVE
 70
     0
  0
ENDTAB
  0
TABLE
  2
DIMSTYLE
  5
78
330
0
100
AcDbSymbolTable
 70
     2
  0
DIMSTYLE
105
79
330
78
100
AcDbSymbolTableRecord
100
AcDbDimStyleTableRecord
  2
STANDARD
 70
     0
  3

  4

  5

  6

  7

 40
0.0
 41
2.5
 42
0.625
 43
3.75
 44
1.25
 45
0.0
 46
0.0
 47
0.0
 48
0.0
140
2.5
141
2.5
142
0.0
143
0.03937007874016
144
1.0
145
0.0
146
1.0
147
0.625
 71
     0
 72
     0
 73
     0
 74
     0
 75
     0
 76
     0
 77
     1
 78
     8
170
     0
171
     3
172
     1
173
     0
174
     0
175
     0
176
     0
177
     0
178
     0
270
     2
271
     2
272
     2
273
     2
274
     3
340
71
275
     0
280
     0
281
     0
282
     0
283
     0
284
     8
285
     0
286
     0
287
     3
288
     0
  0
ENDTAB
  0
TABLE
  2
BLOCK_RECORD
  5
A01
330
0
100
AcDbSymbolTable
  70
5
  0
BLOCK_RECORD
  5
A02
330
A01
100
AcDbSymbolTableRecord
100
AcDbBlockTableRecord
  2
*MODEL_SPACE
  0
BLOCK_RECORD
  5
A03
330
A01
100
AcDbSymbolTableRecord
100
AcDbBlockTableRecord
  2
*PAPER_SPACE
  0
ENDTAB
  0
ENDSEC
  0
SECTION
  2
BLOCKS
  0
BLOCK
  5
A04
330
A02
100
AcDbEntity
  8
0
100
AcDbBlockBegin
  2
*MODEL_SPACE
 70
   0
 10
0
 20
0
 30
0
  3
*MODEL_SPACE
  1
 
  0
ENDBLK
  5
A05
330
A02
100
AcDbEntity
  8
0
100
AcDbBlockEnd
  0
BLOCK
  5
A06
330
A03
100
AcDbEntity
 67
1
  8
0
100
AcDbBlockBegin
  2
*PAPER_SPACE
 70
   0
 10
0
 20
0
 30
0
  3
*PAPER_SPACE
  1
 
  0
ENDBLK
  5
A07
330
A03
100
AcDbEntity
 67
    1
  8
0
100
AcDbBlockEnd
  0
ENDSEC
  0
SECTION
  2
ENTITIES
  0
LINE
  5
A08
330
A02
100
AcDbEntity
  8
Sketch001
100
AcDbLine
 10
-12.549237482
 20
0.000000000
 30
0.000000000
 11
-9.271915103
 21
2.750000000
 31
0.000000000
  0
LINE
  5
A09
330
A02
100
AcDbEntity
  8
Sketch001
100
AcDbLine
 10
-9.271915103
 20
2.750000000
 30
0.000000000
 11
10.241713497
 21
2.750000000
 31
0.000000000
  0
LINE
  5
A0A
330
A02
100
AcDbEntity
  8
Sketch001
100
AcDbLine
 10
10.241713497
 20
2.750000000
 30
0.000000000
 11
12.549237482
 21
0.000000000
 31
0.000000000
  0
LINE
  5
A0B
330
A02
100
AcDbEntity
  8
Sketch001
100
AcDbLine
 10
12.549237482
 20
0.000000000
 30
0.000000000
 11
9.271915103
 21
-2.750000000
 31
0.000000000
  0
LINE
  5
A0C
330
A02
100
AcDbEntity
  8
Sketch001
100
AcDbLine
 10
9.271915103
 20
-2.750000000
 30
0.000000000
 11
-10.241713497
 21
-2.750000000
 31
0.000000000
  0
LINE
  5
A0D
330
A02
100
AcDbEntity
  8
Sketch001
100
AcDbLine
 10
-10.241713497
 20
-2.750000000
 30
0.000000000
 11
-12.549237482
 21
-0.000000000
 31
0.000000000
  0
CIRCLE
  5
A0E
330
A02
100
AcDbEntity
  8
Sketch001
100
AcDbCircle
 10
17.250000000
 20
-25.150000000
 30
0.000000000
 40
2.750000000
  0
LINE
  5
A0F
330
A02
100
AcDbEntity
  8
Sketch001
100
AcDbLine
 10
-5.794021403
 20
22.900000000
 30
0.000000000
 11
13.719607197
 21
22.900000000
 31
0.000000000
  0
LINE
  5
A10
330
A02
100
AcDbEntity
  8
Sketch001
100
AcDbLine
 10
13.719607197
 20
22.900000000
 30
0.000000000
 11
18.455467782
 21
26.873858870
 31
0.000000000
  0
ARC
  5
A11
330
A02
100
AcDbEntity
  8
Sketch001
100
AcDbCircle
 10
14.653041493
 20
22.900000000
 30
0.000000000
 40
5.500000000
100
AcDbArc
 50
46.262913126
 51
90.000000000
  0
LINE
  5
A12
330
A02
100
AcDbEntity
  8
Sketch001
100
AcDbLine
 10
-6.577265776
 20
28.400000000
 30
0.000000000
 11
14.653041493
 21
28.400000000
 31
0.000000000
  0
ARC
  5
A13
330
A02
100
AcDbEntity
  8
Sketch001
100
AcDbCircle
 10
-6.577265776
 20
22.900000000
 30
0.000000000
 40
5.500000000
100
AcDbArc
 50
90.000000000
 51
123.737086874
  0
LINE
  5
A14
330
A02
100
AcDbEntity
  8
Sketch001
100
AcDbLine
 10
-5.794021403
 20
22.900000000
 30
0.000000000
 11
-9.631871315
 21
27.473771420
 31
0.000000000
  0
LINE
  5
A15
330
A02
100
AcDbEntity
  8
Sketch001
100
AcDbLine
 10
-6.713274735
 20
22.128654868
 30
0.000000000
 11
-9.955125170
 21
3.743207432
 31
0.000000000
  0
LINE
  5
A16
330
A02
100
AcDbEntity
  8
Sketch001
100
AcDbLine
 10
-9.955125170
 20
3.743207432
 30
0.000000000
 11
-13.320582614
 21
0.919253332
 31
0.000000000
  0
LINE
  5
A17
330
A02
100
AcDbEntity
  8
Sketch001
100
AcDbLine
 10
-13.320582614
 20
0.919253332
 30
0.000000000
 11
-15.566051742
 21
3.595299232
 31
0.000000000
  0
LINE
  5
A18
330
A02
100
AcDbEntity
  8
Sketch001
100
AcDbLine
 10
-15.566051742
 20
3.595299232
 30
0.000000000
 11
-11.993708418
 21
23.855064977
 31
0.000000000
  0
ARC
  5
A19
330
A02
100
AcDbEntity
  8
Sketch001
100
AcDbCircle
 10
-6.577265776
 20
22.900000000
 30
0.000000000
 40
5.500000000
100
AcDbArc
 50
136.262913126
 51
170.000000000
  0
LINE
  5
A1A
330
A02
100
AcDbEntity
  8
Sketch001
100
AcDbLine
 10
-6.713274735
 20
22.128654868
 30
0.000000000
 11
-10.551124646
 21
26.702426289
 31
0.000000000
  0
ARC
  5
A1B
330
A02
100
AcDbEntity
  8
Sketch001
100
AcDbCircle
 10
14.653041493
 20
22.900000000
 30
0.000000000
 40
5.500000000
100
AcDbArc
 50
-10.000000000
 51
33.737086874
  0
LINE
  5
A1C
330
A02
100
AcDbEntity
  8
Sketch001
100
AcDbLine
 10
14.490952328
 20
21.980746668
 30
0.000000000
 11
19.226812913
 21
25.954605538
 31
0.000000000
  0
LINE
  5
A1D
330
A02
100
AcDbEntity
  8
Sketch001
100
AcDbLine
 10
11.223021687
 20
3.447391032
 30
0.000000000
 11
14.490952328
 21
21.980746668
 31
0.000000000
  0
LINE
  5
A1E
330
A02
100
AcDbEntity
  8
Sketch001
100
AcDbLine
 10
13.468490814
 20
0.771345132
 30
0.000000000
 11
11.223021687
 21
3.447391032
 31
0.000000000
  0
LINE
  5
A1F
330
A02
100
AcDbEntity
  8
Sketch001
100
AcDbLine
 10
16.833948258
 20
3.595299232
 30
0.000000000
 11
13.468490814
 21
0.771345132
 31
0.000000000
  0
LINE
  5
A20
330
A02
100
AcDbEntity
  8
Sketch001
100
AcDbLine
 10
20.069484134
 20
21.944935023
 30
0.000000000
 11
16.833948258
 21
3.595299232
 31
0.000000000
  0
LINE
  5
A21
330
A02
100
AcDbEntity
  8
Sketch001
100
AcDbLine
 10
-16.833948258
 20
-3.595299232
 30
0.000000000
 11
-13.468490814
 21
-0.771345132
 31
0.000000000
  0
LINE
  5
A22
330
A02
100
AcDbEntity
  8
Sketch001
100
AcDbLine
 10
-13.468490814
 20
-0.771345132
 30
0.000000000
 11
-11.223021687
 21
-3.447391032
 31
0.000000000
  0
LINE
  5
A23
330
A02
100
AcDbEntity
  8
Sketch001
100
AcDbLine
 10
-11.223021687
 20
-3.447391032
 30
0.000000000
 11
-14.477926072
 21
-21.906871099
 31
0.000000000
  0
LINE
  5
A24
330
A02
100
AcDbEntity
  8
Sketch001
100
AcDbLine
 10
-14.477926072
 20
-21.906871099
 30
0.000000000
 11
-19.253588610
 21
-25.914127772
 31
0.000000000
  0
ARC
  5
A25
330
A02
100
AcDbEntity
  8
Sketch001
100
AcDbCircle
 10
-14.653041493
 20
-22.900000000
 30
0.000000000
 40
5.500000000
100
AcDbArc
 50
170.000000000
 51
-146.768496206
  0
LINE
  5
A26
330
A02
100
AcDbEntity
  8
Sketch001
100
AcDbLine
 10
-16.833948258
 20
-3.595299232
 30
0.000000000
 11
-20.069484134
 21
-21.944935023
 31
0.000000000
  0
ARC
  5
A27
330
A02
100
AcDbEntity
  8
Sketch001
100
AcDbCircle
 10
-14.653041493
 20
-22.900000000
 30
0.000000000
 40
5.500000000
100
AcDbArc
 50
-134.242669954
 51
-90.000000000
  0
LINE
  5
A28
330
A02
100
AcDbEntity
  8
Sketch001
100
AcDbLine
 10
-13.794695097
 20
-22.900000000
 30
0.000000000
 11
-18.490384976
 21
-26.840151646
 31
0.000000000
  0
LINE
  5
A29
330
A02
100
AcDbEntity
  8
Sketch001
100
AcDbLine
 10
-13.794695097
 20
-22.900000000
 30
0.000000000
 11
5.718933502
 21
-22.900000000
 31
0.000000000
  0
LINE
  5
A2A
330
A02
100
AcDbEntity
  8
Sketch001
100
AcDbLine
 10
5.718933502
 20
-22.900000000
 30
0.000000000
 11
9.583553151
 21
-27.505674350
 31
0.000000000
  0
ARC
  5
A2B
330
A02
100
AcDbEntity
  8
Sketch001
100
AcDbCircle
 10
6.577265776
 20
-22.900000000
 30
0.000000000
 40
5.500000000
100
AcDbArc
 50
-90.000000000
 51
-56.866087076
  0
LINE
  5
A2C
330
A02
100
AcDbEntity
  8
Sketch001
100
AcDbLine
 10
-14.653041493
 20
-28.400000000
 30
0.000000000
 11
6.577265776
 21
-28.400000000
 31
0.000000000
  0
LINE
  5
A2D
330
A02
100
AcDbEntity
  8
Sketch001
100
AcDbLine
 10
10.510875632
 20
-26.744049103
 30
0.000000000
 11
6.700220784
 21
-22.202687499
 31
0.000000000
  0
LINE
  5
A2E
330
A02
100
AcDbEntity
  8
Sketch001
100
AcDbLine
 10
6.700220784
 20
-22.202687499
 30
0.000000000
 11
9.955125170
 21
-3.743207432
 31
0.000000000
  0
LINE
  5
A2F
330
A02
100
AcDbEntity
  8
Sketch001
100
AcDbLine
 10
9.955125170
 20
-3.743207432
 30
0.000000000
 11
13.320582614
 21
-0.919253332
 31
0.000000000
  0
LINE
  5
A30
330
A02
100
AcDbEntity
  8
Sketch001
100
AcDbLine
 10
13.320582614
 20
-0.919253332
 30
0.000000000
 11
15.566051742
 21
-3.595299232
 31
0.000000000
  0
LINE
  5
A31
330
A02
100
AcDbEntity
  8
Sketch001
100
AcDbLine
 10
15.566051742
 20
-3.595299232
 30
0.000000000
 11
11.993708418
 21
-23.855064977
 31
0.000000000
  0
ARC
  5
A32
330
A02
100
AcDbEntity
  8
Sketch001
100
AcDbCircle
 10
6.577265776
 20
-22.900000000
 30
0.000000000
 40
5.500000000
100
AcDbArc
 50
-44.340260824
 51
-10.000000000
  0
ENDSEC
  0
SECTION
  2
OBJECTS
  0
DICTIONARY
  5
F000
330
0
100
AcDbDictionary
  3
ACAD_GROUP
350
F001
  0
DICTIONARY
  5
F001
330
F000
100
AcDbDictionary
  0
ENDSEC
  0
EOF