%TF.GenerationSoftware,KiCad,Pcbnew,9.0.4*%
%TF.CreationDate,2025-08-31T21:09:01+02:00*%
%TF.ProjectId,n-teller-xl-diy,6e2d7465-6c6c-4657-922d-786c2d646979,1.0*%
%TF.SameCoordinates,Original*%
%TF.FileFunction,Soldermask,Bot*%
%TF.FilePolarity,Negative*%
%FSLAX46Y46*%
G04 Gerber Fmt 4.6, Leading zero omitted, Abs format (unit mm)*
G04 Created by KiCad (PCBNEW 9.0.4) date 2025-08-31 21:09:01*
%MOMM*%
%LPD*%
G01*
G04 APERTURE LIST*
G04 Aperture macros list*
%AMRoundRect*
0 Rectangle with rounded corners*
0 $1 Rounding radius*
0 $2 $3 $4 $5 $6 $7 $8 $9 X,Y pos of 4 corners*
0 Add a 4 corners polygon primitive as box body*
4,1,4,$2,$3,$4,$5,$6,$7,$8,$9,$2,$3,0*
0 Add four circle primitives for the rounded corners*
1,1,$1+$1,$2,$3*
1,1,$1+$1,$4,$5*
1,1,$1+$1,$6,$7*
1,1,$1+$1,$8,$9*
0 Add four rect primitives between the rounded corners*
20,1,$1+$1,$2,$3,$4,$5,0*
20,1,$1+$1,$4,$5,$6,$7,0*
20,1,$1+$1,$6,$7,$8,$9,0*
20,1,$1+$1,$8,$9,$2,$3,0*%
G04 Aperture macros list end*
%ADD10C,2.100000*%
%ADD11RoundRect,0.250000X0.750000X0.750000X-0.750000X0.750000X-0.750000X-0.750000X0.750000X-0.750000X0*%
%ADD12C,2.000000*%
%ADD13C,0.800000*%
%ADD14C,6.400000*%
%ADD15R,2.000000X2.000000*%
%ADD16O,2.000000X1.600000*%
%ADD17RoundRect,0.250000X-0.337500X-0.475000X0.337500X-0.475000X0.337500X0.475000X-0.337500X0.475000X0*%
%ADD18R,1.600000X0.820000*%
%ADD19C,4.000000*%
%ADD20C,1.000000*%
%ADD21RoundRect,0.250000X-1.000000X-0.650000X1.000000X-0.650000X1.000000X0.650000X-1.000000X0.650000X0*%
%ADD22RoundRect,0.250000X-0.400000X-1.450000X0.400000X-1.450000X0.400000X1.450000X-0.400000X1.450000X0*%
G04 APERTURE END LIST*
D10*
%TO.C,M4*%
X-91440000Y30480000D03*
X-91440000Y-30480000D03*
X-53340000Y30480000D03*
X-53340000Y-30480000D03*
%TD*%
D11*
%TO.C,C1*%
X106507677Y-15240000D03*
D12*
X101507677Y-15240000D03*
%TD*%
D13*
%TO.C,H5*%
X-2400000Y-40640000D03*
X-1697056Y-38942944D03*
X-1697056Y-42337056D03*
X0Y-38240000D03*
D14*
X0Y-40640000D03*
D13*
X0Y-43040000D03*
X1697056Y-38942944D03*
X1697056Y-42337056D03*
X2400000Y-40640000D03*
%TD*%
D15*
%TO.C,U1*%
X103144000Y26307687D03*
D16*
X103144000Y23767687D03*
X103144000Y21227687D03*
X103144000Y18687687D03*
X103144000Y16147687D03*
X103144000Y13607687D03*
X103144000Y11067687D03*
X103144000Y8527687D03*
X126004000Y8527687D03*
X126004000Y11067687D03*
X126004000Y13607687D03*
X126004000Y16147687D03*
X126004000Y18687687D03*
X126004000Y21227687D03*
X126004000Y23767687D03*
X126004000Y26307687D03*
%TD*%
D10*
%TO.C,M2*%
X5080000Y30480000D03*
X5080000Y-30480000D03*
X43180000Y30480000D03*
X43180000Y-30480000D03*
%TD*%
D13*
%TO.C,H3*%
X-93205000Y40640000D03*
X-92502056Y42337056D03*
X-92502056Y38942944D03*
X-90805000Y43040000D03*
D14*
X-90805000Y40640000D03*
D13*
X-90805000Y38240000D03*
X-89107944Y42337056D03*
X-89107944Y38942944D03*
X-88405000Y40640000D03*
%TD*%
D10*
%TO.C,M1*%
X53340000Y30480000D03*
X53340000Y-30480000D03*
X91440000Y30480000D03*
X91440000Y-30480000D03*
%TD*%
D11*
%TO.C,C2*%
X106680000Y-27940000D03*
D12*
X101680000Y-27940000D03*
%TD*%
D13*
%TO.C,H1*%
X88405000Y-40640000D03*
X89107944Y-38942944D03*
X89107944Y-42337056D03*
X90805000Y-38240000D03*
D14*
X90805000Y-40640000D03*
D13*
X90805000Y-43040000D03*
X92502056Y-38942944D03*
X92502056Y-42337056D03*
X93205000Y-40640000D03*
%TD*%
D10*
%TO.C,M3*%
X-43180000Y30480000D03*
X-43180000Y-30480000D03*
X-5080000Y30480000D03*
X-5080000Y-30480000D03*
%TD*%
D13*
%TO.C,H2*%
X-93205000Y-40640000D03*
X-92502056Y-38942944D03*
X-92502056Y-42337056D03*
X-90805000Y-38240000D03*
D14*
X-90805000Y-40640000D03*
D13*
X-90805000Y-43040000D03*
X-89107944Y-38942944D03*
X-89107944Y-42337056D03*
X-88405000Y-40640000D03*
%TD*%
%TO.C,H6*%
X-2400000Y40640000D03*
X-1697056Y42337056D03*
X-1697056Y38942944D03*
X0Y43040000D03*
D14*
X0Y40640000D03*
D13*
X0Y38240000D03*
X1697056Y42337056D03*
X1697056Y38942944D03*
X2400000Y40640000D03*
%TD*%
D12*
%TO.C,TP1*%
X99060000Y8890000D03*
%TD*%
D17*
%TO.C,C15*%
X69512500Y30250000D03*
X71587500Y30250000D03*
%TD*%
%TO.C,C59*%
X-79697500Y4600000D03*
X-77622500Y4600000D03*
%TD*%
%TO.C,C44*%
X-14447500Y30250000D03*
X-12372500Y30250000D03*
%TD*%
D18*
%TO.C,D2DP1*%
X38570000Y-24410000D03*
X38570000Y-25910000D03*
X44170000Y-25910000D03*
X44170000Y-24410000D03*
%TD*%
D12*
%TO.C,TP20*%
X99060000Y0D03*
%TD*%
D17*
%TO.C,C5*%
X77622500Y4600000D03*
X79697500Y4600000D03*
%TD*%
%TO.C,C14*%
X73102500Y-21050000D03*
X75177500Y-21050000D03*
%TD*%
%TO.C,C52*%
X-85687500Y11530000D03*
X-83612500Y11530000D03*
%TD*%
D18*
%TO.C,D1E2*%
X52980000Y-17850000D03*
X52980000Y-19350000D03*
X58580000Y-19350000D03*
X58580000Y-17850000D03*
%TD*%
%TO.C,D1E1*%
X55070000Y-5970000D03*
X55070000Y-7470000D03*
X60670000Y-7470000D03*
X60670000Y-5970000D03*
%TD*%
%TO.C,D3C2*%
X-16790000Y-18230000D03*
X-16790000Y-19730000D03*
X-11190000Y-19730000D03*
X-11190000Y-18230000D03*
%TD*%
%TO.C,D3C1*%
X-14670000Y-6190000D03*
X-14670000Y-7690000D03*
X-9070000Y-7690000D03*
X-9070000Y-6190000D03*
%TD*%
D17*
%TO.C,C27*%
X29362500Y4600000D03*
X31437500Y4600000D03*
%TD*%
%TO.C,C29*%
X10832500Y11530000D03*
X12907500Y11530000D03*
%TD*%
D18*
%TO.C,D3B2*%
X-12410000Y7400000D03*
X-12410000Y5900000D03*
X-6810000Y5900000D03*
X-6810000Y7400000D03*
%TD*%
D17*
%TO.C,C62*%
X-84227500Y-21050000D03*
X-82152500Y-21050000D03*
%TD*%
%TO.C,C45*%
X-10647500Y11250000D03*
X-8572500Y11250000D03*
%TD*%
D19*
%TO.C,TP3*%
X62230000Y-40640000D03*
%TD*%
D18*
%TO.C,D4G1*%
X-81460000Y750000D03*
X-81460000Y-750000D03*
X-75860000Y-750000D03*
X-75860000Y750000D03*
%TD*%
D20*
%TO.C,TP6*%
X106375000Y18754937D03*
%TD*%
D17*
%TO.C,C60*%
X-87847500Y-2307350D03*
X-85772500Y-2307350D03*
%TD*%
%TO.C,C55*%
X-67157500Y4600000D03*
X-65082500Y4600000D03*
%TD*%
D12*
%TO.C,TP8*%
X99060000Y15240000D03*
%TD*%
D17*
%TO.C,C11*%
X85872500Y11250000D03*
X87947500Y11250000D03*
%TD*%
D18*
%TO.C,D3F1*%
X-37070000Y19700000D03*
X-37070000Y18200000D03*
X-31470000Y18200000D03*
X-31470000Y19700000D03*
%TD*%
%TO.C,D4F1*%
X-85330000Y19700000D03*
X-85330000Y18200000D03*
X-79730000Y18200000D03*
X-79730000Y19700000D03*
%TD*%
D17*
%TO.C,C48*%
X-18897500Y4600000D03*
X-16822500Y4600000D03*
%TD*%
D18*
%TO.C,D2D1*%
X10530000Y-24900000D03*
X10530000Y-26400000D03*
X16130000Y-26400000D03*
X16130000Y-24900000D03*
%TD*%
D17*
%TO.C,C49*%
X-58907500Y11250000D03*
X-56832500Y11250000D03*
%TD*%
%TO.C,C50*%
X-56797500Y23290000D03*
X-54722500Y23290000D03*
%TD*%
D12*
%TO.C,TP17*%
X50800000Y0D03*
%TD*%
D21*
%TO.C,D6*%
X79280000Y-40640000D03*
X83280000Y-40640000D03*
%TD*%
D18*
%TO.C,D4A2*%
X-64470000Y26400000D03*
X-64470000Y24900000D03*
X-58870000Y24900000D03*
X-58870000Y26400000D03*
%TD*%
%TO.C,D1A2*%
X80310000Y26400000D03*
X80310000Y24900000D03*
X85910000Y24900000D03*
X85910000Y26400000D03*
%TD*%
%TO.C,D4B1*%
X-58560000Y19440000D03*
X-58560000Y17940000D03*
X-52960000Y17940000D03*
X-52960000Y19440000D03*
%TD*%
D17*
%TO.C,C4*%
X87982500Y23290000D03*
X90057500Y23290000D03*
%TD*%
D18*
%TO.C,D2B1*%
X37960000Y19440000D03*
X37960000Y17940000D03*
X43560000Y17940000D03*
X43560000Y19440000D03*
%TD*%
%TO.C,D3A1*%
X-28770000Y26400000D03*
X-28770000Y24900000D03*
X-23170000Y24900000D03*
X-23170000Y26400000D03*
%TD*%
D17*
%TO.C,C6*%
X65082500Y4600000D03*
X67157500Y4600000D03*
%TD*%
D18*
%TO.C,D3A2*%
X-16210000Y26400000D03*
X-16210000Y24900000D03*
X-10610000Y24900000D03*
X-10610000Y26400000D03*
%TD*%
D17*
%TO.C,C37*%
X-37427500Y11530000D03*
X-35352500Y11530000D03*
%TD*%
%TO.C,C63*%
X-90037500Y-14000000D03*
X-87962500Y-14000000D03*
%TD*%
D18*
%TO.C,D2C2*%
X31470000Y-18230000D03*
X31470000Y-19730000D03*
X37070000Y-19730000D03*
X37070000Y-18230000D03*
%TD*%
D17*
%TO.C,C25*%
X12292500Y-21050000D03*
X14367500Y-21050000D03*
%TD*%
D18*
%TO.C,D3E2*%
X-43540000Y-17850000D03*
X-43540000Y-19350000D03*
X-37940000Y-19350000D03*
X-37940000Y-17850000D03*
%TD*%
%TO.C,D2G2*%
X27600000Y750000D03*
X27600000Y-750000D03*
X33200000Y-750000D03*
X33200000Y750000D03*
%TD*%
D17*
%TO.C,C54*%
X-75267500Y30250000D03*
X-73192500Y30250000D03*
%TD*%
D12*
%TO.C,TP14*%
X45720000Y0D03*
%TD*%
D18*
%TO.C,D4D1*%
X-85990000Y-24900000D03*
X-85990000Y-26400000D03*
X-80390000Y-26400000D03*
X-80390000Y-24900000D03*
%TD*%
D17*
%TO.C,C9*%
X61212500Y23550000D03*
X63287500Y23550000D03*
%TD*%
%TO.C,C51*%
X-62707500Y30250000D03*
X-60632500Y30250000D03*
%TD*%
D18*
%TO.C,D3D2*%
X-25180000Y-24900000D03*
X-25180000Y-26400000D03*
X-19580000Y-26400000D03*
X-19580000Y-24900000D03*
%TD*%
%TO.C,D3D1*%
X-37730000Y-24900000D03*
X-37730000Y-26400000D03*
X-32130000Y-26400000D03*
X-32130000Y-24900000D03*
%TD*%
D17*
%TO.C,C16*%
X54742500Y-14000000D03*
X56817500Y-14000000D03*
%TD*%
%TO.C,C7*%
X88592500Y-20560000D03*
X90667500Y-20560000D03*
%TD*%
D18*
%TO.C,D1C2*%
X79730000Y-18230000D03*
X79730000Y-19730000D03*
X85330000Y-19730000D03*
X85330000Y-18230000D03*
%TD*%
%TO.C,D1C1*%
X81850000Y-6190000D03*
X81850000Y-7690000D03*
X87450000Y-7690000D03*
X87450000Y-6190000D03*
%TD*%
D20*
%TO.C,TP11*%
X106377000Y10882937D03*
%TD*%
D18*
%TO.C,D2A2*%
X32050000Y26400000D03*
X32050000Y24900000D03*
X37650000Y24900000D03*
X37650000Y26400000D03*
%TD*%
%TO.C,D4E2*%
X-91800000Y-17850000D03*
X-91800000Y-19350000D03*
X-86200000Y-19350000D03*
X-86200000Y-17850000D03*
%TD*%
D17*
%TO.C,C26*%
X40332500Y-20560000D03*
X42407500Y-20560000D03*
%TD*%
D18*
%TO.C,D4C1*%
X-62930000Y-6190000D03*
X-62930000Y-7690000D03*
X-57330000Y-7690000D03*
X-57330000Y-6190000D03*
%TD*%
D17*
%TO.C,C38*%
X-27007500Y30250000D03*
X-24932500Y30250000D03*
%TD*%
%TO.C,C22*%
X16822500Y4600000D03*
X18897500Y4600000D03*
%TD*%
D18*
%TO.C,D4G2*%
X-68920000Y750000D03*
X-68920000Y-750000D03*
X-63320000Y-750000D03*
X-63320000Y750000D03*
%TD*%
%TO.C,D1B2*%
X84110000Y7400000D03*
X84110000Y5900000D03*
X89710000Y5900000D03*
X89710000Y7400000D03*
%TD*%
%TO.C,D4B2*%
X-60670000Y7400000D03*
X-60670000Y5900000D03*
X-55070000Y5900000D03*
X-55070000Y7400000D03*
%TD*%
%TO.C,D2E2*%
X4720000Y-17850000D03*
X4720000Y-19350000D03*
X10320000Y-19350000D03*
X10320000Y-17850000D03*
%TD*%
D17*
%TO.C,C42*%
X-31437500Y4600000D03*
X-29362500Y4600000D03*
%TD*%
D22*
%TO.C,F1*%
X70165000Y-40640000D03*
X74615000Y-40640000D03*
%TD*%
D18*
%TO.C,D3F2*%
X-39190000Y7680000D03*
X-39190000Y6180000D03*
X-33590000Y6180000D03*
X-33590000Y7680000D03*
%TD*%
%TO.C,D4E1*%
X-89710000Y-5970000D03*
X-89710000Y-7470000D03*
X-84110000Y-7470000D03*
X-84110000Y-5970000D03*
%TD*%
D12*
%TO.C,TP18*%
X2540000Y0D03*
%TD*%
D17*
%TO.C,C31*%
X24842500Y-21050000D03*
X26917500Y-21050000D03*
%TD*%
%TO.C,C46*%
X-7927500Y-20560000D03*
X-5852500Y-20560000D03*
%TD*%
D18*
%TO.C,D3DP1*%
X-9690000Y-24410000D03*
X-9690000Y-25910000D03*
X-4090000Y-25910000D03*
X-4090000Y-24410000D03*
%TD*%
D17*
%TO.C,C53*%
X-83567500Y23550000D03*
X-81492500Y23550000D03*
%TD*%
%TO.C,C57*%
X-63287500Y-14380000D03*
X-61212500Y-14380000D03*
%TD*%
%TO.C,C61*%
X-56187500Y-20560000D03*
X-54112500Y-20560000D03*
%TD*%
%TO.C,C32*%
X33232500Y-14380000D03*
X35307500Y-14380000D03*
%TD*%
D18*
%TO.C,D4F2*%
X-87450000Y7680000D03*
X-87450000Y6180000D03*
X-81850000Y6180000D03*
X-81850000Y7680000D03*
%TD*%
%TO.C,D2F1*%
X11190000Y19700000D03*
X11190000Y18200000D03*
X16790000Y18200000D03*
X16790000Y19700000D03*
%TD*%
D20*
%TO.C,TP7*%
X106375000Y15962937D03*
%TD*%
D18*
%TO.C,D4A1*%
X-77030000Y26400000D03*
X-77030000Y24900000D03*
X-71430000Y24900000D03*
X-71430000Y26400000D03*
%TD*%
D17*
%TO.C,C33*%
X35352500Y-2340000D03*
X37427500Y-2340000D03*
%TD*%
%TO.C,C58*%
X-71677500Y-21050000D03*
X-69602500Y-21050000D03*
%TD*%
D19*
%TO.C,TP10*%
X55880000Y-40640000D03*
%TD*%
D17*
%TO.C,C41*%
X-35967500Y-21050000D03*
X-33892500Y-21050000D03*
%TD*%
%TO.C,C12*%
X81492500Y-14380000D03*
X83567500Y-14380000D03*
%TD*%
D18*
%TO.C,D2B2*%
X35850000Y7400000D03*
X35850000Y5900000D03*
X41450000Y5900000D03*
X41450000Y7400000D03*
%TD*%
%TO.C,D1F2*%
X57330000Y7680000D03*
X57330000Y6180000D03*
X62930000Y6180000D03*
X62930000Y7680000D03*
%TD*%
D12*
%TO.C,TP12*%
X-93980000Y0D03*
%TD*%
D18*
%TO.C,D1A1*%
X67750000Y26400000D03*
X67750000Y24900000D03*
X73350000Y24900000D03*
X73350000Y26400000D03*
%TD*%
D20*
%TO.C,TP4*%
X123137000Y21294937D03*
%TD*%
D17*
%TO.C,C23*%
X12952500Y23550000D03*
X15027500Y23550000D03*
%TD*%
D18*
%TO.C,D3E1*%
X-41450000Y-5970000D03*
X-41450000Y-7470000D03*
X-35850000Y-7470000D03*
X-35850000Y-5970000D03*
%TD*%
%TO.C,D3G1*%
X-33200000Y750000D03*
X-33200000Y-750000D03*
X-27600000Y-750000D03*
X-27600000Y750000D03*
%TD*%
%TO.C,D1D2*%
X71340000Y-24900000D03*
X71340000Y-26400000D03*
X76940000Y-26400000D03*
X76940000Y-24900000D03*
%TD*%
D12*
%TO.C,TP2*%
X98931000Y23868313D03*
%TD*%
D18*
%TO.C,D4C2*%
X-65050000Y-18230000D03*
X-65050000Y-19730000D03*
X-59450000Y-19730000D03*
X-59450000Y-18230000D03*
%TD*%
D17*
%TO.C,C8*%
X83612500Y-2340000D03*
X85687500Y-2340000D03*
%TD*%
D18*
%TO.C,D2F2*%
X9070000Y7680000D03*
X9070000Y6180000D03*
X14670000Y6180000D03*
X14670000Y7680000D03*
%TD*%
D17*
%TO.C,C34*%
X-23417500Y-21050000D03*
X-21342500Y-21050000D03*
%TD*%
D18*
%TO.C,D3B1*%
X-10300000Y19440000D03*
X-10300000Y17940000D03*
X-4700000Y17940000D03*
X-4700000Y19440000D03*
%TD*%
%TO.C,D2C1*%
X33590000Y-6190000D03*
X33590000Y-7690000D03*
X39190000Y-7690000D03*
X39190000Y-6190000D03*
%TD*%
D17*
%TO.C,C19*%
X8572500Y-2120000D03*
X10647500Y-2120000D03*
%TD*%
%TO.C,C21*%
X37612500Y11250000D03*
X39687500Y11250000D03*
%TD*%
D18*
%TO.C,D2G1*%
X15060000Y750000D03*
X15060000Y-750000D03*
X20660000Y-750000D03*
X20660000Y750000D03*
%TD*%
D17*
%TO.C,C43*%
X-35307500Y23550000D03*
X-33232500Y23550000D03*
%TD*%
D18*
%TO.C,D2E1*%
X6810000Y-5970000D03*
X6810000Y-7470000D03*
X12410000Y-7470000D03*
X12410000Y-5970000D03*
%TD*%
%TO.C,D1G2*%
X75860000Y750000D03*
X75860000Y-750000D03*
X81460000Y-750000D03*
X81460000Y750000D03*
%TD*%
%TO.C,D3G2*%
X-20660000Y750000D03*
X-20660000Y-750000D03*
X-15060000Y-750000D03*
X-15060000Y750000D03*
%TD*%
D20*
%TO.C,TP9*%
X106377000Y13420937D03*
%TD*%
D17*
%TO.C,C39*%
X-8537500Y23290000D03*
X-6462500Y23290000D03*
%TD*%
D18*
%TO.C,D2A1*%
X19490000Y26400000D03*
X19490000Y24900000D03*
X25090000Y24900000D03*
X25090000Y26400000D03*
%TD*%
D17*
%TO.C,C56*%
X-61167500Y-2340000D03*
X-59092500Y-2340000D03*
%TD*%
D12*
%TO.C,TP19*%
X-45720000Y0D03*
%TD*%
D17*
%TO.C,C24*%
X21252500Y30250000D03*
X23327500Y30250000D03*
%TD*%
%TO.C,C30*%
X33812500Y30250000D03*
X35887500Y30250000D03*
%TD*%
D18*
%TO.C,D4DP1*%
X-57950000Y-24410000D03*
X-57950000Y-25910000D03*
X-52350000Y-25910000D03*
X-52350000Y-24410000D03*
%TD*%
D17*
%TO.C,C20*%
X6482500Y-14000000D03*
X8557500Y-14000000D03*
%TD*%
D13*
%TO.C,H4*%
X88405000Y40640000D03*
X89107944Y42337056D03*
X89107944Y38942944D03*
X90805000Y43040000D03*
D14*
X90805000Y40640000D03*
D13*
X90805000Y38240000D03*
X92502056Y42337056D03*
X92502056Y38942944D03*
X93205000Y40640000D03*
%TD*%
D17*
%TO.C,C3*%
X59092500Y11530000D03*
X61167500Y11530000D03*
%TD*%
%TO.C,C40*%
X-15027500Y-14380000D03*
X-12952500Y-14380000D03*
%TD*%
D20*
%TO.C,TP5*%
X123137000Y18756937D03*
%TD*%
D18*
%TO.C,D4D2*%
X-73440000Y-24900000D03*
X-73440000Y-26400000D03*
X-67840000Y-26400000D03*
X-67840000Y-24900000D03*
%TD*%
D17*
%TO.C,C13*%
X82072500Y30250000D03*
X84147500Y30250000D03*
%TD*%
D18*
%TO.C,D1F1*%
X59450000Y19700000D03*
X59450000Y18200000D03*
X65050000Y18200000D03*
X65050000Y19700000D03*
%TD*%
%TO.C,D2D2*%
X23080000Y-24900000D03*
X23080000Y-26400000D03*
X28680000Y-26400000D03*
X28680000Y-24900000D03*
%TD*%
D12*
%TO.C,TP15*%
X-2540000Y0D03*
%TD*%
D17*
%TO.C,C10*%
X60552500Y-21050000D03*
X62627500Y-21050000D03*
%TD*%
D18*
%TO.C,D1D1*%
X58790000Y-24900000D03*
X58790000Y-26400000D03*
X64390000Y-26400000D03*
X64390000Y-24900000D03*
%TD*%
D17*
%TO.C,C47*%
X-12907500Y-2340000D03*
X-10832500Y-2340000D03*
%TD*%
D12*
%TO.C,TP13*%
X93980000Y0D03*
%TD*%
D17*
%TO.C,C36*%
X-39687500Y-2120000D03*
X-37612500Y-2120000D03*
%TD*%
D18*
%TO.C,D1B1*%
X86220000Y19440000D03*
X86220000Y17940000D03*
X91820000Y17940000D03*
X91820000Y19440000D03*
%TD*%
D17*
%TO.C,C28*%
X39722500Y23290000D03*
X41797500Y23290000D03*
%TD*%
%TO.C,C17*%
X56832500Y-2120000D03*
X58907500Y-2120000D03*
%TD*%
%TO.C,C35*%
X-41777500Y-14000000D03*
X-39702500Y-14000000D03*
%TD*%
D12*
%TO.C,TP16*%
X-50800000Y0D03*
%TD*%
D18*
%TO.C,D1DP1*%
X86830000Y-24410000D03*
X86830000Y-25910000D03*
X92430000Y-25910000D03*
X92430000Y-24410000D03*
%TD*%
%TO.C,D1G1*%
X63320000Y750000D03*
X63320000Y-750000D03*
X68920000Y-750000D03*
X68920000Y750000D03*
%TD*%
M02*
