%TF.GenerationSoftware,KiCad,Pcbnew,9.0.4*%
%TF.CreationDate,2025-08-31T21:09:01+02:00*%
%TF.ProjectId,n-teller-xl-diy,6e2d7465-6c6c-4657-922d-786c2d646979,1.0*%
%TF.SameCoordinates,Original*%
%TF.FileFunction,Soldermask,Top*%
%TF.FilePolarity,Negative*%
%FSLAX46Y46*%
G04 Gerber Fmt 4.6, Leading zero omitted, Abs format (unit mm)*
G04 Created by KiCad (PCBNEW 9.0.4) date 2025-08-31 21:09:01*
%MOMM*%
%LPD*%
G01*
G04 APERTURE LIST*
G04 Aperture macros list*
%AMRoundRect*
0 Rectangle with rounded corners*
0 $1 Rounding radius*
0 $2 $3 $4 $5 $6 $7 $8 $9 X,Y pos of 4 corners*
0 Add a 4 corners polygon primitive as box body*
4,1,4,$2,$3,$4,$5,$6,$7,$8,$9,$2,$3,0*
0 Add four circle primitives for the rounded corners*
1,1,$1+$1,$2,$3*
1,1,$1+$1,$4,$5*
1,1,$1+$1,$6,$7*
1,1,$1+$1,$8,$9*
0 Add four rect primitives between the rounded corners*
20,1,$1+$1,$2,$3,$4,$5,0*
20,1,$1+$1,$4,$5,$6,$7,0*
20,1,$1+$1,$6,$7,$8,$9,0*
20,1,$1+$1,$8,$9,$2,$3,0*%
%AMFreePoly0*
4,1,6,1.000000,0.000000,0.500000,-0.750000,-0.500000,-0.750000,-0.500000,0.750000,0.500000,0.750000,1.000000,0.000000,1.000000,0.000000,$1*%
%AMFreePoly1*
4,1,6,0.500000,-0.750000,-0.650000,-0.750000,-0.150000,0.000000,-0.650000,0.750000,0.500000,0.750000,0.500000,-0.750000,0.500000,-0.750000,$1*%
G04 Aperture macros list end*
%ADD10C,2.100000*%
%ADD11RoundRect,0.250000X1.000000X0.650000X-1.000000X0.650000X-1.000000X-0.650000X1.000000X-0.650000X0*%
%ADD12RoundRect,0.250000X0.750000X0.750000X-0.750000X0.750000X-0.750000X-0.750000X0.750000X-0.750000X0*%
%ADD13C,2.000000*%
%ADD14RoundRect,0.250000X0.350000X0.450000X-0.350000X0.450000X-0.350000X-0.450000X0.350000X-0.450000X0*%
%ADD15R,1.500000X1.500000*%
%ADD16C,0.800000*%
%ADD17C,6.400000*%
%ADD18R,2.000000X2.000000*%
%ADD19O,2.000000X1.600000*%
%ADD20RoundRect,0.150000X0.825000X0.150000X-0.825000X0.150000X-0.825000X-0.150000X0.825000X-0.150000X0*%
%ADD21RoundRect,0.250000X-0.337500X-0.475000X0.337500X-0.475000X0.337500X0.475000X-0.337500X0.475000X0*%
%ADD22FreePoly0,90.000000*%
%ADD23FreePoly1,90.000000*%
G04 APERTURE END LIST*
%TO.C,JP1*%
G36*
X113511000Y12147000D02*
G01*
X115011000Y12147000D01*
X115011000Y14597000D01*
X113511000Y14597000D01*
X113511000Y12147000D01*
G37*
%TD*%
D10*
%TO.C,M4*%
X-91440000Y30480000D03*
X-91440000Y-30480000D03*
X-53340000Y30480000D03*
X-53340000Y-30480000D03*
%TD*%
D11*
%TO.C,D5*%
X125111000Y3082313D03*
X121111000Y3082313D03*
%TD*%
D12*
%TO.C,C1*%
X106507677Y-15240000D03*
D13*
X101507677Y-15240000D03*
%TD*%
D14*
%TO.C,R1*%
X123279000Y-2363687D03*
X121279000Y-2363687D03*
%TD*%
D15*
%TO.C,SW1*%
X127000000Y-10219000D03*
X127000000Y-2419000D03*
%TD*%
D16*
%TO.C,H5*%
X-2400000Y-40640000D03*
X-1697056Y-38942944D03*
X-1697056Y-42337056D03*
X0Y-38240000D03*
D17*
X0Y-40640000D03*
D16*
X0Y-43040000D03*
X1697056Y-38942944D03*
X1697056Y-42337056D03*
X2400000Y-40640000D03*
%TD*%
D18*
%TO.C,U1*%
X103144000Y26307687D03*
D19*
X103144000Y23767687D03*
X103144000Y21227687D03*
X103144000Y18687687D03*
X103144000Y16147687D03*
X103144000Y13607687D03*
X103144000Y11067687D03*
X103144000Y8527687D03*
X126004000Y8527687D03*
X126004000Y11067687D03*
X126004000Y13607687D03*
X126004000Y16147687D03*
X126004000Y18687687D03*
X126004000Y21227687D03*
X126004000Y23767687D03*
X126004000Y26307687D03*
%TD*%
D10*
%TO.C,M2*%
X5080000Y30480000D03*
X5080000Y-30480000D03*
X43180000Y30480000D03*
X43180000Y-30480000D03*
%TD*%
D20*
%TO.C,U2*%
X116736000Y11397313D03*
X116736000Y12667313D03*
X116736000Y13937313D03*
X116736000Y15207313D03*
X116736000Y16477313D03*
X116736000Y17747313D03*
X116736000Y19017313D03*
X111786000Y19017313D03*
X111786000Y17747313D03*
X111786000Y16477313D03*
X111786000Y15207313D03*
X111786000Y13937313D03*
X111786000Y12667313D03*
X111786000Y11397313D03*
%TD*%
D16*
%TO.C,H3*%
X-93205000Y40640000D03*
X-92502056Y42337056D03*
X-92502056Y38942944D03*
X-90805000Y43040000D03*
D17*
X-90805000Y40640000D03*
D16*
X-90805000Y38240000D03*
X-89107944Y42337056D03*
X-89107944Y38942944D03*
X-88405000Y40640000D03*
%TD*%
D10*
%TO.C,M1*%
X53340000Y30480000D03*
X53340000Y-30480000D03*
X91440000Y30480000D03*
X91440000Y-30480000D03*
%TD*%
D12*
%TO.C,C2*%
X106680000Y-27940000D03*
D13*
X101680000Y-27940000D03*
%TD*%
D16*
%TO.C,H1*%
X88405000Y-40640000D03*
X89107944Y-38942944D03*
X89107944Y-42337056D03*
X90805000Y-38240000D03*
D17*
X90805000Y-40640000D03*
D16*
X90805000Y-43040000D03*
X92502056Y-38942944D03*
X92502056Y-42337056D03*
X93205000Y-40640000D03*
%TD*%
D21*
%TO.C,C18*%
X113326500Y7917687D03*
X115401500Y7917687D03*
%TD*%
D10*
%TO.C,M3*%
X-43180000Y30480000D03*
X-43180000Y-30480000D03*
X-5080000Y30480000D03*
X-5080000Y-30480000D03*
%TD*%
D16*
%TO.C,H2*%
X-93205000Y-40640000D03*
X-92502056Y-38942944D03*
X-92502056Y-42337056D03*
X-90805000Y-38240000D03*
D17*
X-90805000Y-40640000D03*
D16*
X-90805000Y-43040000D03*
X-89107944Y-38942944D03*
X-89107944Y-42337056D03*
X-88405000Y-40640000D03*
%TD*%
%TO.C,H6*%
X-2400000Y40640000D03*
X-1697056Y42337056D03*
X-1697056Y38942944D03*
X0Y43040000D03*
D17*
X0Y40640000D03*
D16*
X0Y38240000D03*
X1697056Y42337056D03*
X1697056Y38942944D03*
X2400000Y40640000D03*
%TD*%
D22*
%TO.C,JP1*%
X114261000Y12647000D03*
D23*
X114261000Y14097000D03*
%TD*%
D16*
%TO.C,H4*%
X88405000Y40640000D03*
X89107944Y42337056D03*
X89107944Y38942944D03*
X90805000Y43040000D03*
D17*
X90805000Y40640000D03*
D16*
X90805000Y38240000D03*
X92502056Y42337056D03*
X92502056Y38942944D03*
X93205000Y40640000D03*
%TD*%
M02*
