M48
; DRILL file {KiCad 9.0.4} date 2025-08-31T21:09:59+0200
; FORMAT={-:-/ absolute / metric / decimal}
; #@! TF.CreationDate,2025-08-31T21:09:59+02:00
; #@! TF.GenerationSoftware,Kicad,Pcbnew,9.0.4
; #@! TF.FileFunction,Plated,1,2,PTH
FMAT,2
METRIC
; #@! TA.AperFunction,Plated,PTH,ViaDrill
T1C0.400
; #@! TA.AperFunction,Plated,PTH,ComponentDrill
T2C0.500
; #@! TA.AperFunction,Plated,PTH,ViaDrill
T3C0.800
; #@! TA.AperFunction,Plated,PTH,ComponentDrill
T4C0.900
; #@! TA.AperFunction,Plated,PTH,ComponentDrill
T5C1.000
; #@! TA.AperFunction,Plated,PTH,ComponentDrill
T6C3.200
%
G90
G05
T1
X-94.742Y-11.43
X-94.488Y-20.574
X-92.964Y-16.256
X-91.44Y7.112
X-90.932Y-10.16
X-89.662Y4.826
X-86.614Y16.256
X-86.614Y-30.48
X-86.36Y-13.97
X-86.106Y-20.828
X-85.344Y28.956
X-84.836Y-28.956
X-84.074Y16.256
X-84.074Y-2.032
X-84.074Y-8.89
X-83.058Y-11.43
X-82.931Y-13.589
X-82.042Y10.922
X-81.534Y-6.35
X-80.518Y-21.844
X-80.264Y6.35
X-80.264Y-19.304
X-80.264Y-27.94
X-80.01Y23.622
X-79.756Y14.478
X-79.756Y7.874
X-79.248Y-10.16
X-78.486Y-14.224
X-78.486Y-17.78
X-78.486Y-29.21
X-78.486Y-30.988
X-77.978Y18.288
X-77.978Y-6.604
X-77.216Y23.622
X-77.216Y19.558
X-76.708Y-12.192
X-76.708Y-16.002
X-76.708Y-21.082
X-76.708Y-24.13
X-76.708Y-30.48
X-75.946Y20.066
X-75.946Y4.572
X-75.819Y-1.905
X-75.692Y2.032
X-75.184Y-19.812
X-75.184Y-25.146
X-75.184Y-27.686
X-74.676Y-15.748
X-74.676Y-22.352
X-74.422Y10.922
X-74.422Y7.62
X-74.41Y0.75
X-74.168Y-10.16
X-73.914Y-13.208
X-73.66Y-7.112
X-72.644Y9.652
X-72.644Y6.35
X-72.644Y3.302
X-72.644Y-3.302
X-72.644Y-4.064
X-71.628Y30.226
X-71.374Y-2.032
X-71.12Y10.668
X-70.866Y7.874
X-70.485Y13.335
X-70.358Y2.178
X-69.85Y24.892
X-69.85Y16.51
X-69.088Y-2.159
X-68.326Y-28.956
X-68.326Y-32.004
X-68.072Y30.226
X-68.072Y27.686
X-68.072Y22.352
X-68.072Y19.05
X-68.072Y-13.208
X-68.072Y-15.748
X-68.072Y-21.082
X-67.564Y13.97
X-66.802Y-16.51
X-66.548Y20.828
X-66.294Y26.162
X-66.294Y-24.892
X-66.04Y23.622
X-66.04Y-26.416
X-65.532Y28.956
X-64.77Y-7.366
X-64.262Y-4.572
X-63.754Y-2.032
X-63.246Y3.556
X-62.738Y-11.43
X-62.738Y-23.622
X-61.976Y10.033
X-61.976Y3.556
X-61.468Y1.016
X-60.96Y-26.416
X-60.706Y12.446
X-59.944Y21.082
X-59.944Y-21.336
X-59.69Y-10.414
X-59.69Y-15.24
X-59.436Y-25.91
X-59.182Y30.226
X-59.182Y27.94
X-58.674Y15.24
X-57.658Y-19.304
X-57.404Y-2.286
X-57.15Y25.146
X-55.88Y4.064
X-55.88Y-4.826
X-55.626Y-7.62
X-55.372Y11.176
X-53.975Y1.016
X-53.34Y23.114
X-53.34Y6.096
X-52.832Y16.51
X-52.832Y-1.397
X-52.578Y2.54
X-52.578Y-15.24
X-52.578Y-17.78
X-52.578Y-20.574
X-52.07Y11.176
X-51.308Y23.368
X-50.927Y2.54
X-50.546Y-16.764
X-50.546Y-25.908
X-50.419Y20.193
X-49.784Y25.908
X-49.784Y4.064
X-49.276Y15.24
X-46.482Y-11.43
X-46.228Y-20.574
X-44.704Y-16.256
X-43.18Y7.112
X-42.672Y-10.16
X-41.402Y4.826
X-38.354Y16.256
X-38.354Y-30.48
X-38.1Y-13.97
X-37.846Y-20.828
X-37.084Y28.956
X-36.576Y-28.956
X-35.814Y16.256
X-35.814Y-2.032
X-35.814Y-8.89
X-34.798Y-11.43
X-34.671Y-13.589
X-33.782Y10.922
X-33.274Y-6.35
X-32.258Y-21.844
X-32.004Y6.35
X-32.004Y-19.304
X-32.004Y-27.94
X-31.75Y23.622
X-31.496Y14.478
X-31.496Y7.874
X-30.988Y-10.16
X-30.226Y-14.224
X-30.226Y-17.78
X-30.226Y-29.21
X-30.226Y-30.988
X-29.718Y18.288
X-29.718Y-6.604
X-28.956Y23.622
X-28.956Y19.558
X-28.448Y-12.192
X-28.448Y-16.002
X-28.448Y-21.082
X-28.448Y-24.13
X-28.448Y-30.48
X-27.686Y20.066
X-27.686Y4.572
X-27.559Y-1.905
X-27.432Y2.032
X-26.924Y-19.812
X-26.924Y-25.146
X-26.924Y-27.686
X-26.416Y-15.748
X-26.416Y-22.352
X-26.162Y10.922
X-26.162Y7.62
X-26.15Y0.75
X-25.908Y-10.16
X-25.654Y-13.208
X-25.4Y-7.112
X-24.384Y9.652
X-24.384Y6.35
X-24.384Y3.302
X-24.384Y-3.302
X-24.384Y-4.064
X-23.368Y30.226
X-23.114Y-2.032
X-22.86Y10.668
X-22.606Y7.874
X-22.225Y13.335
X-22.098Y2.178
X-21.59Y24.892
X-21.59Y16.51
X-20.828Y-2.159
X-20.066Y-28.956
X-20.066Y-32.004
X-19.812Y30.226
X-19.812Y27.686
X-19.812Y22.352
X-19.812Y19.05
X-19.812Y-13.208
X-19.812Y-15.748
X-19.812Y-21.082
X-19.304Y13.97
X-18.542Y-16.51
X-18.288Y20.828
X-18.034Y26.162
X-18.034Y-24.892
X-17.78Y23.622
X-17.78Y-26.416
X-17.272Y28.956
X-16.51Y-7.366
X-16.002Y-4.572
X-15.494Y-2.032
X-14.986Y3.556
X-14.478Y-11.43
X-14.478Y-23.622
X-13.716Y10.033
X-13.716Y3.556
X-13.208Y1.016
X-12.7Y-26.416
X-12.446Y12.446
X-11.684Y21.082
X-11.684Y-21.336
X-11.43Y-10.414
X-11.43Y-15.24
X-11.176Y-25.91
X-10.922Y30.226
X-10.922Y27.94
X-10.414Y15.24
X-9.398Y-19.304
X-9.144Y-2.286
X-8.89Y25.146
X-7.62Y4.064
X-7.62Y-4.826
X-7.366Y-7.62
X-7.112Y11.176
X-5.715Y1.016
X-5.08Y23.114
X-5.08Y6.096
X-4.572Y16.51
X-4.572Y-1.397
X-4.318Y2.54
X-4.318Y-15.24
X-4.318Y-17.78
X-4.318Y-20.574
X-3.81Y11.176
X-3.048Y23.368
X-2.667Y2.54
X-2.286Y-16.764
X-2.286Y-25.908
X-2.159Y20.193
X-1.524Y25.908
X-1.524Y4.064
X-1.016Y15.24
X1.778Y-11.43
X2.032Y-20.574
X3.556Y-16.256
X5.08Y7.112
X5.588Y-10.16
X6.858Y4.826
X9.906Y16.256
X9.906Y-30.48
X10.16Y-13.97
X10.414Y-20.828
X11.176Y28.956
X11.684Y-28.956
X12.446Y16.256
X12.446Y-2.032
X12.446Y-8.89
X13.462Y-11.43
X13.589Y-13.589
X14.478Y10.922
X14.986Y-6.35
X16.002Y-21.844
X16.256Y6.35
X16.256Y-19.304
X16.256Y-27.94
X16.51Y23.622
X16.764Y14.478
X16.764Y7.874
X17.272Y-10.16
X18.034Y-14.224
X18.034Y-17.78
X18.034Y-29.21
X18.034Y-30.988
X18.542Y18.288
X18.542Y-6.604
X19.304Y23.622
X19.304Y19.558
X19.812Y-12.192
X19.812Y-16.002
X19.812Y-21.082
X19.812Y-24.13
X19.812Y-30.48
X20.574Y20.066
X20.574Y4.572
X20.701Y-1.905
X20.828Y2.032
X21.336Y-19.812
X21.336Y-25.146
X21.336Y-27.686
X21.844Y-15.748
X21.844Y-22.352
X22.098Y10.922
X22.098Y7.62
X22.11Y0.75
X22.352Y-10.16
X22.606Y-13.208
X22.86Y-7.112
X23.876Y9.652
X23.876Y6.35
X23.876Y3.302
X23.876Y-3.302
X23.876Y-4.064
X24.892Y30.226
X25.146Y-2.032
X25.4Y10.668
X25.654Y7.874
X26.035Y13.335
X26.162Y2.178
X26.67Y24.892
X26.67Y16.51
X27.432Y-2.159
X28.194Y-28.956
X28.194Y-32.004
X28.448Y30.226
X28.448Y27.686
X28.448Y22.352
X28.448Y19.05
X28.448Y-13.208
X28.448Y-15.748
X28.448Y-21.082
X28.956Y13.97
X29.718Y-16.51
X29.972Y20.828
X30.226Y26.162
X30.226Y-24.892
X30.48Y23.622
X30.48Y-26.416
X30.988Y28.956
X31.75Y-7.366
X32.258Y-4.572
X32.766Y-2.032
X33.274Y3.556
X33.782Y-11.43
X33.782Y-23.622
X34.544Y10.033
X34.544Y3.556
X35.052Y1.016
X35.56Y-26.416
X35.814Y12.446
X36.576Y21.082
X36.576Y-21.336
X36.83Y-10.414
X36.83Y-15.24
X37.084Y-25.91
X37.338Y30.226
X37.338Y27.94
X37.846Y15.24
X38.862Y-19.304
X39.116Y-2.286
X39.37Y25.146
X40.64Y4.064
X40.64Y-4.826
X40.894Y-7.62
X41.148Y11.176
X42.545Y1.016
X43.18Y23.114
X43.18Y6.096
X43.688Y16.51
X43.688Y-1.397
X43.942Y2.54
X43.942Y-15.24
X43.942Y-17.78
X43.942Y-20.574
X44.45Y11.176
X45.212Y23.368
X45.593Y2.54
X45.974Y-16.764
X45.974Y-25.908
X46.101Y20.193
X46.736Y25.908
X46.736Y4.064
X47.244Y15.24
X50.038Y-11.43
X50.292Y-20.574
X51.816Y-16.256
X53.34Y7.112
X53.848Y-10.16
X55.118Y4.826
X58.166Y16.256
X58.166Y-30.48
X58.42Y-13.97
X58.674Y-20.828
X59.436Y28.956
X59.944Y-28.956
X60.706Y16.256
X60.706Y-2.032
X60.706Y-8.89
X61.722Y-11.43
X61.849Y-13.589
X62.738Y10.922
X63.246Y-6.35
X64.262Y-21.844
X64.516Y6.35
X64.516Y-19.304
X64.516Y-27.94
X64.77Y23.622
X65.024Y14.478
X65.024Y7.874
X65.532Y-10.16
X66.294Y-14.224
X66.294Y-17.78
X66.294Y-29.21
X66.294Y-30.988
X66.802Y18.288
X66.802Y-6.604
X67.564Y23.622
X67.564Y19.558
X68.072Y-12.192
X68.072Y-16.002
X68.072Y-21.082
X68.072Y-24.13
X68.072Y-30.48
X68.834Y20.066
X68.834Y4.572
X68.961Y-1.905
X69.088Y2.032
X69.596Y-19.812
X69.596Y-25.146
X69.596Y-27.686
X70.104Y-15.748
X70.104Y-22.352
X70.358Y10.922
X70.358Y7.62
X70.37Y0.75
X70.612Y-10.16
X70.866Y-13.208
X71.12Y-7.112
X72.136Y9.652
X72.136Y6.35
X72.136Y3.302
X72.136Y-3.302
X72.136Y-4.064
X73.152Y30.226
X73.406Y-2.032
X73.66Y10.668
X73.914Y7.874
X74.295Y13.335
X74.422Y2.178
X74.93Y24.892
X74.93Y16.51
X75.692Y-2.159
X76.454Y-28.956
X76.454Y-32.004
X76.708Y30.226
X76.708Y27.686
X76.708Y22.352
X76.708Y19.05
X76.708Y-13.208
X76.708Y-15.748
X76.708Y-21.082
X77.216Y13.97
X77.978Y-16.51
X78.232Y20.828
X78.486Y26.162
X78.486Y-24.892
X78.74Y23.622
X78.74Y-26.416
X79.248Y28.956
X80.01Y-7.366
X80.518Y-4.572
X81.026Y-2.032
X81.534Y3.556
X82.042Y-11.43
X82.042Y-23.622
X82.804Y10.033
X82.804Y3.556
X83.312Y1.016
X83.312Y-43.18
X83.82Y-26.416
X84.074Y12.446
X84.836Y21.082
X84.836Y-21.336
X85.09Y-10.414
X85.09Y-15.24
X85.344Y-25.91
X85.598Y30.226
X85.598Y27.94
X86.106Y15.24
X87.122Y-19.304
X87.376Y-2.286
X87.63Y25.146
X88.9Y4.064
X88.9Y-4.826
X89.154Y-7.62
X89.408Y11.176
X90.805Y1.016
X91.44Y23.114
X91.44Y6.096
X91.948Y16.51
X91.948Y-1.397
X92.202Y2.54
X92.202Y-15.24
X92.202Y-17.78
X92.202Y-20.574
X92.71Y11.176
X93.472Y23.368
X93.853Y2.54
X94.234Y-16.764
X94.234Y-25.908
X94.361Y20.193
X94.996Y25.908
X94.996Y4.064
X95.504Y15.24
X95.758Y11.43
X97.536Y-28.956
X99.06Y26.162
X99.06Y17.272
X99.314Y2.794
X103.632Y-21.336
X104.902Y-8.382
X106.375Y25.908
X107.569Y4.572
X107.696Y-8.636
X108.204Y11.43
X108.712Y-33.274
X109.22Y1.016
X109.22Y-21.844
X110.49Y8.89
X111.506Y-1.27
X112.014Y3.048
X115.824Y1.524
X116.586Y4.318
X118.11Y-2.54
X118.999Y13.97
X119.634Y-4.064
X122.428Y14.478
X123.698Y26.416
X123.952Y12.446
X128.27Y14.478
X128.524Y26.162
T2
X-93.205Y40.64
X-93.205Y-40.64
X-92.502Y42.337
X-92.502Y38.943
X-92.502Y-38.943
X-92.502Y-42.337
X-90.805Y43.04
X-90.805Y38.24
X-90.805Y-38.24
X-90.805Y-43.04
X-89.108Y42.337
X-89.108Y38.943
X-89.108Y-38.943
X-89.108Y-42.337
X-88.405Y40.64
X-88.405Y-40.64
X-2.4Y40.64
X-2.4Y-40.64
X-1.697Y42.337
X-1.697Y38.943
X-1.697Y-38.943
X-1.697Y-42.337
X0.0Y43.04
X0.0Y38.24
X0.0Y-38.24
X0.0Y-43.04
X1.697Y42.337
X1.697Y38.943
X1.697Y-38.943
X1.697Y-42.337
X2.4Y40.64
X2.4Y-40.64
X88.405Y40.64
X88.405Y-40.64
X89.108Y42.337
X89.108Y38.943
X89.108Y-38.943
X89.108Y-42.337
X90.805Y43.04
X90.805Y38.24
X90.805Y-38.24
X90.805Y-43.04
X92.502Y42.337
X92.502Y38.943
X92.502Y-38.943
X92.502Y-42.337
X93.205Y40.64
X93.205Y-40.64
T3
X84.328Y-35.052
X86.36Y-35.052
X88.392Y-35.052
X90.424Y-35.052
X92.456Y-35.052
T4
X103.144Y26.308
X103.144Y23.768
X103.144Y21.228
X103.144Y18.688
X103.144Y16.148
X103.144Y13.608
X103.144Y11.068
X103.144Y8.528
X126.004Y26.308
X126.004Y23.768
X126.004Y21.228
X126.004Y18.688
X126.004Y16.148
X126.004Y13.608
X126.004Y11.068
X126.004Y8.528
T5
X101.508Y-15.24
X101.68Y-27.94
X106.508Y-15.24
X106.68Y-27.94
T6
X-90.805Y40.64
X-90.805Y-40.64
X0.0Y40.64
X0.0Y-40.64
X90.805Y40.64
X90.805Y-40.64
M30
