%TF.GenerationSoftware,KiCad,Pcbnew,9.0.4*%
%TF.CreationDate,2025-08-31T21:09:01+02:00*%
%TF.ProjectId,n-teller-xl-diy,6e2d7465-6c6c-4657-922d-786c2d646979,1.0*%
%TF.SameCoordinates,Original*%
%TF.FileFunction,Profile,NP*%
%FSLAX46Y46*%
G04 Gerber Fmt 4.6, Leading zero omitted, Abs format (unit mm)*
G04 Created by KiCad (PCBNEW 9.0.4) date 2025-08-31 21:09:01*
%MOMM*%
%LPD*%
G01*
G04 APERTURE LIST*
%TA.AperFunction,Profile*%
%ADD10C,0.050000*%
%TD*%
G04 APERTURE END LIST*
D10*
X97790000Y34925000D02*
X130810000Y34925000D01*
X90805000Y45720000D02*
G75*
G02*
X95885000Y40640000I0J-5080000D01*
G01*
X95885000Y-40640000D02*
G75*
G02*
X90805000Y-45720000I-5080000J0D01*
G01*
X-95885000Y40640000D02*
G75*
G02*
X-90805000Y45720000I5080002J-2D01*
G01*
X95885000Y40640000D02*
X95885000Y36830000D01*
X-90805000Y45720000D02*
X90805000Y45720000D01*
X97790000Y-34925000D02*
X130810000Y-34925000D01*
X95885000Y-40640000D02*
X95885000Y-36830000D01*
X90805000Y-45720000D02*
X-90805000Y-45720000D01*
X132715000Y-33020000D02*
X132715000Y33020000D01*
X-90805000Y-45720000D02*
G75*
G02*
X-95885000Y-40640000I2J5080002D01*
G01*
X130810000Y34925000D02*
G75*
G02*
X132715000Y33020000I0J-1905000D01*
G01*
X97790000Y34925000D02*
G75*
G02*
X95885000Y36830000I0J1905000D01*
G01*
X95885000Y-36830000D02*
G75*
G02*
X97790000Y-34925000I1905000J0D01*
G01*
X132715000Y-33020000D02*
G75*
G02*
X130810000Y-34925000I-1905000J0D01*
G01*
X-95885000Y40640000D02*
X-95885000Y-40640000D01*
%TO.C,D2DP1*%
X39570000Y-23960000D02*
X39570000Y-26360000D01*
X42770000Y-23560000D02*
X39970000Y-23560000D01*
X42770000Y-26760000D02*
X39970000Y-26760000D01*
X43170000Y-23960000D02*
X43170000Y-26360000D01*
X39570000Y-23960000D02*
G75*
G02*
X39970000Y-23560000I400000J0D01*
G01*
X39970000Y-26760000D02*
G75*
G02*
X39570000Y-26360000I0J400000D01*
G01*
X42770000Y-23560000D02*
G75*
G02*
X43170000Y-23960000I1J-399999D01*
G01*
X43170000Y-26360000D02*
G75*
G02*
X42770000Y-26760000I-399999J-1D01*
G01*
%TO.C,D1E2*%
X53980000Y-17400000D02*
X53980000Y-19800000D01*
X57180000Y-17000000D02*
X54380000Y-17000000D01*
X57180000Y-20200000D02*
X54380000Y-20200000D01*
X57580000Y-17400000D02*
X57580000Y-19800000D01*
X53980000Y-17400000D02*
G75*
G02*
X54380000Y-17000000I400000J0D01*
G01*
X54380000Y-20200000D02*
G75*
G02*
X53980000Y-19800000I0J400000D01*
G01*
X57180000Y-17000000D02*
G75*
G02*
X57580000Y-17400000I1J-399999D01*
G01*
X57580000Y-19800000D02*
G75*
G02*
X57180000Y-20200000I-399999J-1D01*
G01*
%TO.C,D1E1*%
X56070000Y-5520000D02*
X56070000Y-7920000D01*
X59270000Y-5120000D02*
X56470000Y-5120000D01*
X59270000Y-8320000D02*
X56470000Y-8320000D01*
X59670000Y-5520000D02*
X59670000Y-7920000D01*
X56070000Y-5520000D02*
G75*
G02*
X56470000Y-5120000I400000J0D01*
G01*
X56470000Y-8320000D02*
G75*
G02*
X56070000Y-7920000I0J400000D01*
G01*
X59270000Y-5120000D02*
G75*
G02*
X59670000Y-5520000I1J-399999D01*
G01*
X59670000Y-7920000D02*
G75*
G02*
X59270000Y-8320000I-399999J-1D01*
G01*
%TO.C,D3C2*%
X-15790000Y-17780000D02*
X-15790000Y-20180000D01*
X-12590000Y-17380000D02*
X-15390000Y-17380000D01*
X-12590000Y-20580000D02*
X-15390000Y-20580000D01*
X-12190000Y-17780000D02*
X-12190000Y-20180000D01*
X-15790000Y-17780000D02*
G75*
G02*
X-15390000Y-17380000I400000J0D01*
G01*
X-15390000Y-20580000D02*
G75*
G02*
X-15790000Y-20180000I0J400000D01*
G01*
X-12590000Y-17380000D02*
G75*
G02*
X-12190000Y-17780000I1J-399999D01*
G01*
X-12190000Y-20180000D02*
G75*
G02*
X-12590000Y-20580000I-399999J-1D01*
G01*
%TO.C,D3C1*%
X-13670000Y-5740000D02*
X-13670000Y-8140000D01*
X-10470000Y-5340000D02*
X-13270000Y-5340000D01*
X-10470000Y-8540000D02*
X-13270000Y-8540000D01*
X-10070000Y-5740000D02*
X-10070000Y-8140000D01*
X-13670000Y-5740000D02*
G75*
G02*
X-13270000Y-5340000I400000J0D01*
G01*
X-13270000Y-8540000D02*
G75*
G02*
X-13670000Y-8140000I0J400000D01*
G01*
X-10470000Y-5340000D02*
G75*
G02*
X-10070000Y-5740000I1J-399999D01*
G01*
X-10070000Y-8140000D02*
G75*
G02*
X-10470000Y-8540000I-399999J-1D01*
G01*
%TO.C,D3B2*%
X-11410000Y7850000D02*
X-11410000Y5450000D01*
X-8210000Y8250000D02*
X-11010000Y8250000D01*
X-8210000Y5050000D02*
X-11010000Y5050000D01*
X-7810000Y7850000D02*
X-7810000Y5450000D01*
X-11410000Y7850000D02*
G75*
G02*
X-11010000Y8250000I400000J0D01*
G01*
X-11010000Y5050000D02*
G75*
G02*
X-11410000Y5450000I0J400000D01*
G01*
X-8210000Y8250000D02*
G75*
G02*
X-7810000Y7850000I1J-399999D01*
G01*
X-7810000Y5450000D02*
G75*
G02*
X-8210000Y5050000I-399999J-1D01*
G01*
%TO.C,D4G1*%
X-80460000Y1200000D02*
X-80460000Y-1200000D01*
X-77260000Y1600000D02*
X-80060000Y1600000D01*
X-77260000Y-1600000D02*
X-80060000Y-1600000D01*
X-76860000Y1200000D02*
X-76860000Y-1200000D01*
X-80460000Y1200000D02*
G75*
G02*
X-80060000Y1600000I400000J0D01*
G01*
X-80060000Y-1600000D02*
G75*
G02*
X-80460000Y-1200000I0J400000D01*
G01*
X-77260000Y1600000D02*
G75*
G02*
X-76860000Y1200000I1J-399999D01*
G01*
X-76860000Y-1200000D02*
G75*
G02*
X-77260000Y-1600000I-399999J-1D01*
G01*
%TO.C,D3F1*%
X-36070000Y20150000D02*
X-36070000Y17750000D01*
X-32870000Y20550000D02*
X-35670000Y20550000D01*
X-32870000Y17350000D02*
X-35670000Y17350000D01*
X-32470000Y20150000D02*
X-32470000Y17750000D01*
X-36070000Y20150000D02*
G75*
G02*
X-35670000Y20550000I400000J0D01*
G01*
X-35670000Y17350000D02*
G75*
G02*
X-36070000Y17750000I0J400000D01*
G01*
X-32870000Y20550000D02*
G75*
G02*
X-32470000Y20150000I1J-399999D01*
G01*
X-32470000Y17750000D02*
G75*
G02*
X-32870000Y17350000I-399999J-1D01*
G01*
%TO.C,D4F1*%
X-84330000Y20150000D02*
X-84330000Y17750000D01*
X-81130000Y20550000D02*
X-83930000Y20550000D01*
X-81130000Y17350000D02*
X-83930000Y17350000D01*
X-80730000Y20150000D02*
X-80730000Y17750000D01*
X-84330000Y20150000D02*
G75*
G02*
X-83930000Y20550000I400000J0D01*
G01*
X-83930000Y17350000D02*
G75*
G02*
X-84330000Y17750000I0J400000D01*
G01*
X-81130000Y20550000D02*
G75*
G02*
X-80730000Y20150000I1J-399999D01*
G01*
X-80730000Y17750000D02*
G75*
G02*
X-81130000Y17350000I-399999J-1D01*
G01*
%TO.C,D2D1*%
X11530000Y-24450000D02*
X11530000Y-26850000D01*
X14730000Y-24050000D02*
X11930000Y-24050000D01*
X14730000Y-27250000D02*
X11930000Y-27250000D01*
X15130000Y-24450000D02*
X15130000Y-26850000D01*
X11530000Y-24450000D02*
G75*
G02*
X11930000Y-24050000I400000J0D01*
G01*
X11930000Y-27250000D02*
G75*
G02*
X11530000Y-26850000I0J400000D01*
G01*
X14730000Y-24050000D02*
G75*
G02*
X15130000Y-24450000I1J-399999D01*
G01*
X15130000Y-26850000D02*
G75*
G02*
X14730000Y-27250000I-399999J-1D01*
G01*
%TO.C,D4A2*%
X-63470000Y26850000D02*
X-63470000Y24450000D01*
X-60270000Y27250000D02*
X-63070000Y27250000D01*
X-60270000Y24050000D02*
X-63070000Y24050000D01*
X-59870000Y26850000D02*
X-59870000Y24450000D01*
X-63470000Y26850000D02*
G75*
G02*
X-63070000Y27250000I400000J0D01*
G01*
X-63070000Y24050000D02*
G75*
G02*
X-63470000Y24450000I0J400000D01*
G01*
X-60270000Y27250000D02*
G75*
G02*
X-59870000Y26850000I1J-399999D01*
G01*
X-59870000Y24450000D02*
G75*
G02*
X-60270000Y24050000I-399999J-1D01*
G01*
%TO.C,D1A2*%
X81310000Y26850000D02*
X81310000Y24450000D01*
X84510000Y27250000D02*
X81710000Y27250000D01*
X84510000Y24050000D02*
X81710000Y24050000D01*
X84910000Y26850000D02*
X84910000Y24450000D01*
X81310000Y26850000D02*
G75*
G02*
X81710000Y27250000I400000J0D01*
G01*
X81710000Y24050000D02*
G75*
G02*
X81310000Y24450000I0J400000D01*
G01*
X84510000Y27250000D02*
G75*
G02*
X84910000Y26850000I1J-399999D01*
G01*
X84910000Y24450000D02*
G75*
G02*
X84510000Y24050000I-399999J-1D01*
G01*
%TO.C,D4B1*%
X-57560000Y19890000D02*
X-57560000Y17490000D01*
X-54360000Y20290000D02*
X-57160000Y20290000D01*
X-54360000Y17090000D02*
X-57160000Y17090000D01*
X-53960000Y19890000D02*
X-53960000Y17490000D01*
X-57560000Y19890000D02*
G75*
G02*
X-57160000Y20290000I400000J0D01*
G01*
X-57160000Y17090000D02*
G75*
G02*
X-57560000Y17490000I0J400000D01*
G01*
X-54360000Y20290000D02*
G75*
G02*
X-53960000Y19890000I1J-399999D01*
G01*
X-53960000Y17490000D02*
G75*
G02*
X-54360000Y17090000I-399999J-1D01*
G01*
%TO.C,D2B1*%
X38960000Y19890000D02*
X38960000Y17490000D01*
X42160000Y20290000D02*
X39360000Y20290000D01*
X42160000Y17090000D02*
X39360000Y17090000D01*
X42560000Y19890000D02*
X42560000Y17490000D01*
X38960000Y19890000D02*
G75*
G02*
X39360000Y20290000I400000J0D01*
G01*
X39360000Y17090000D02*
G75*
G02*
X38960000Y17490000I0J400000D01*
G01*
X42160000Y20290000D02*
G75*
G02*
X42560000Y19890000I1J-399999D01*
G01*
X42560000Y17490000D02*
G75*
G02*
X42160000Y17090000I-399999J-1D01*
G01*
%TO.C,D3A1*%
X-27770000Y26850000D02*
X-27770000Y24450000D01*
X-24570000Y27250000D02*
X-27370000Y27250000D01*
X-24570000Y24050000D02*
X-27370000Y24050000D01*
X-24170000Y26850000D02*
X-24170000Y24450000D01*
X-27770000Y26850000D02*
G75*
G02*
X-27370000Y27250000I400000J0D01*
G01*
X-27370000Y24050000D02*
G75*
G02*
X-27770000Y24450000I0J400000D01*
G01*
X-24570000Y27250000D02*
G75*
G02*
X-24170000Y26850000I1J-399999D01*
G01*
X-24170000Y24450000D02*
G75*
G02*
X-24570000Y24050000I-399999J-1D01*
G01*
%TO.C,D3A2*%
X-15210000Y26850000D02*
X-15210000Y24450000D01*
X-12010000Y27250000D02*
X-14810000Y27250000D01*
X-12010000Y24050000D02*
X-14810000Y24050000D01*
X-11610000Y26850000D02*
X-11610000Y24450000D01*
X-15210000Y26850000D02*
G75*
G02*
X-14810000Y27250000I400000J0D01*
G01*
X-14810000Y24050000D02*
G75*
G02*
X-15210000Y24450000I0J400000D01*
G01*
X-12010000Y27250000D02*
G75*
G02*
X-11610000Y26850000I1J-399999D01*
G01*
X-11610000Y24450000D02*
G75*
G02*
X-12010000Y24050000I-399999J-1D01*
G01*
%TO.C,D2C2*%
X32470000Y-17780000D02*
X32470000Y-20180000D01*
X35670000Y-17380000D02*
X32870000Y-17380000D01*
X35670000Y-20580000D02*
X32870000Y-20580000D01*
X36070000Y-17780000D02*
X36070000Y-20180000D01*
X32470000Y-17780000D02*
G75*
G02*
X32870000Y-17380000I400000J0D01*
G01*
X32870000Y-20580000D02*
G75*
G02*
X32470000Y-20180000I0J400000D01*
G01*
X35670000Y-17380000D02*
G75*
G02*
X36070000Y-17780000I1J-399999D01*
G01*
X36070000Y-20180000D02*
G75*
G02*
X35670000Y-20580000I-399999J-1D01*
G01*
%TO.C,D3E2*%
X-42540000Y-17400000D02*
X-42540000Y-19800000D01*
X-39340000Y-17000000D02*
X-42140000Y-17000000D01*
X-39340000Y-20200000D02*
X-42140000Y-20200000D01*
X-38940000Y-17400000D02*
X-38940000Y-19800000D01*
X-42540000Y-17400000D02*
G75*
G02*
X-42140000Y-17000000I400000J0D01*
G01*
X-42140000Y-20200000D02*
G75*
G02*
X-42540000Y-19800000I0J400000D01*
G01*
X-39340000Y-17000000D02*
G75*
G02*
X-38940000Y-17400000I1J-399999D01*
G01*
X-38940000Y-19800000D02*
G75*
G02*
X-39340000Y-20200000I-399999J-1D01*
G01*
%TO.C,D2G2*%
X28600000Y1200000D02*
X28600000Y-1200000D01*
X31800000Y1600000D02*
X29000000Y1600000D01*
X31800000Y-1600000D02*
X29000000Y-1600000D01*
X32200000Y1200000D02*
X32200000Y-1200000D01*
X28600000Y1200000D02*
G75*
G02*
X29000000Y1600000I400000J0D01*
G01*
X29000000Y-1600000D02*
G75*
G02*
X28600000Y-1200000I0J400000D01*
G01*
X31800000Y1600000D02*
G75*
G02*
X32200000Y1200000I1J-399999D01*
G01*
X32200000Y-1200000D02*
G75*
G02*
X31800000Y-1600000I-399999J-1D01*
G01*
%TO.C,D4D1*%
X-84990000Y-24450000D02*
X-84990000Y-26850000D01*
X-81790000Y-24050000D02*
X-84590000Y-24050000D01*
X-81790000Y-27250000D02*
X-84590000Y-27250000D01*
X-81390000Y-24450000D02*
X-81390000Y-26850000D01*
X-84990000Y-24450000D02*
G75*
G02*
X-84590000Y-24050000I400000J0D01*
G01*
X-84590000Y-27250000D02*
G75*
G02*
X-84990000Y-26850000I0J400000D01*
G01*
X-81790000Y-24050000D02*
G75*
G02*
X-81390000Y-24450000I1J-399999D01*
G01*
X-81390000Y-26850000D02*
G75*
G02*
X-81790000Y-27250000I-399999J-1D01*
G01*
%TO.C,D3D2*%
X-24180000Y-24450000D02*
X-24180000Y-26850000D01*
X-20980000Y-24050000D02*
X-23780000Y-24050000D01*
X-20980000Y-27250000D02*
X-23780000Y-27250000D01*
X-20580000Y-24450000D02*
X-20580000Y-26850000D01*
X-24180000Y-24450000D02*
G75*
G02*
X-23780000Y-24050000I400000J0D01*
G01*
X-23780000Y-27250000D02*
G75*
G02*
X-24180000Y-26850000I0J400000D01*
G01*
X-20980000Y-24050000D02*
G75*
G02*
X-20580000Y-24450000I1J-399999D01*
G01*
X-20580000Y-26850000D02*
G75*
G02*
X-20980000Y-27250000I-399999J-1D01*
G01*
%TO.C,D3D1*%
X-36730000Y-24450000D02*
X-36730000Y-26850000D01*
X-33530000Y-24050000D02*
X-36330000Y-24050000D01*
X-33530000Y-27250000D02*
X-36330000Y-27250000D01*
X-33130000Y-24450000D02*
X-33130000Y-26850000D01*
X-36730000Y-24450000D02*
G75*
G02*
X-36330000Y-24050000I400000J0D01*
G01*
X-36330000Y-27250000D02*
G75*
G02*
X-36730000Y-26850000I0J400000D01*
G01*
X-33530000Y-24050000D02*
G75*
G02*
X-33130000Y-24450000I1J-399999D01*
G01*
X-33130000Y-26850000D02*
G75*
G02*
X-33530000Y-27250000I-399999J-1D01*
G01*
%TO.C,D1C2*%
X80730000Y-17780000D02*
X80730000Y-20180000D01*
X83930000Y-17380000D02*
X81130000Y-17380000D01*
X83930000Y-20580000D02*
X81130000Y-20580000D01*
X84330000Y-17780000D02*
X84330000Y-20180000D01*
X80730000Y-17780000D02*
G75*
G02*
X81130000Y-17380000I400000J0D01*
G01*
X81130000Y-20580000D02*
G75*
G02*
X80730000Y-20180000I0J400000D01*
G01*
X83930000Y-17380000D02*
G75*
G02*
X84330000Y-17780000I1J-399999D01*
G01*
X84330000Y-20180000D02*
G75*
G02*
X83930000Y-20580000I-399999J-1D01*
G01*
%TO.C,D1C1*%
X82850000Y-5740000D02*
X82850000Y-8140000D01*
X86050000Y-5340000D02*
X83250000Y-5340000D01*
X86050000Y-8540000D02*
X83250000Y-8540000D01*
X86450000Y-5740000D02*
X86450000Y-8140000D01*
X82850000Y-5740000D02*
G75*
G02*
X83250000Y-5340000I400000J0D01*
G01*
X83250000Y-8540000D02*
G75*
G02*
X82850000Y-8140000I0J400000D01*
G01*
X86050000Y-5340000D02*
G75*
G02*
X86450000Y-5740000I1J-399999D01*
G01*
X86450000Y-8140000D02*
G75*
G02*
X86050000Y-8540000I-399999J-1D01*
G01*
%TO.C,D2A2*%
X33050000Y26850000D02*
X33050000Y24450000D01*
X36250000Y27250000D02*
X33450000Y27250000D01*
X36250000Y24050000D02*
X33450000Y24050000D01*
X36650000Y26850000D02*
X36650000Y24450000D01*
X33050000Y26850000D02*
G75*
G02*
X33450000Y27250000I400000J0D01*
G01*
X33450000Y24050000D02*
G75*
G02*
X33050000Y24450000I0J400000D01*
G01*
X36250000Y27250000D02*
G75*
G02*
X36650000Y26850000I1J-399999D01*
G01*
X36650000Y24450000D02*
G75*
G02*
X36250000Y24050000I-399999J-1D01*
G01*
%TO.C,D4E2*%
X-90800000Y-17400000D02*
X-90800000Y-19800000D01*
X-87600000Y-17000000D02*
X-90400000Y-17000000D01*
X-87600000Y-20200000D02*
X-90400000Y-20200000D01*
X-87200000Y-17400000D02*
X-87200000Y-19800000D01*
X-90800000Y-17400000D02*
G75*
G02*
X-90400000Y-17000000I400000J0D01*
G01*
X-90400000Y-20200000D02*
G75*
G02*
X-90800000Y-19800000I0J400000D01*
G01*
X-87600000Y-17000000D02*
G75*
G02*
X-87200000Y-17400000I1J-399999D01*
G01*
X-87200000Y-19800000D02*
G75*
G02*
X-87600000Y-20200000I-399999J-1D01*
G01*
%TO.C,D4C1*%
X-61930000Y-5740000D02*
X-61930000Y-8140000D01*
X-58730000Y-5340000D02*
X-61530000Y-5340000D01*
X-58730000Y-8540000D02*
X-61530000Y-8540000D01*
X-58330000Y-5740000D02*
X-58330000Y-8140000D01*
X-61930000Y-5740000D02*
G75*
G02*
X-61530000Y-5340000I400000J0D01*
G01*
X-61530000Y-8540000D02*
G75*
G02*
X-61930000Y-8140000I0J400000D01*
G01*
X-58730000Y-5340000D02*
G75*
G02*
X-58330000Y-5740000I1J-399999D01*
G01*
X-58330000Y-8140000D02*
G75*
G02*
X-58730000Y-8540000I-399999J-1D01*
G01*
%TO.C,D4G2*%
X-67920000Y1200000D02*
X-67920000Y-1200000D01*
X-64720000Y1600000D02*
X-67520000Y1600000D01*
X-64720000Y-1600000D02*
X-67520000Y-1600000D01*
X-64320000Y1200000D02*
X-64320000Y-1200000D01*
X-67920000Y1200000D02*
G75*
G02*
X-67520000Y1600000I400000J0D01*
G01*
X-67520000Y-1600000D02*
G75*
G02*
X-67920000Y-1200000I0J400000D01*
G01*
X-64720000Y1600000D02*
G75*
G02*
X-64320000Y1200000I1J-399999D01*
G01*
X-64320000Y-1200000D02*
G75*
G02*
X-64720000Y-1600000I-399999J-1D01*
G01*
%TO.C,D1B2*%
X85110000Y7850000D02*
X85110000Y5450000D01*
X88310000Y8250000D02*
X85510000Y8250000D01*
X88310000Y5050000D02*
X85510000Y5050000D01*
X88710000Y7850000D02*
X88710000Y5450000D01*
X85110000Y7850000D02*
G75*
G02*
X85510000Y8250000I400000J0D01*
G01*
X85510000Y5050000D02*
G75*
G02*
X85110000Y5450000I0J400000D01*
G01*
X88310000Y8250000D02*
G75*
G02*
X88710000Y7850000I1J-399999D01*
G01*
X88710000Y5450000D02*
G75*
G02*
X88310000Y5050000I-399999J-1D01*
G01*
%TO.C,D4B2*%
X-59670000Y7850000D02*
X-59670000Y5450000D01*
X-56470000Y8250000D02*
X-59270000Y8250000D01*
X-56470000Y5050000D02*
X-59270000Y5050000D01*
X-56070000Y7850000D02*
X-56070000Y5450000D01*
X-59670000Y7850000D02*
G75*
G02*
X-59270000Y8250000I400000J0D01*
G01*
X-59270000Y5050000D02*
G75*
G02*
X-59670000Y5450000I0J400000D01*
G01*
X-56470000Y8250000D02*
G75*
G02*
X-56070000Y7850000I1J-399999D01*
G01*
X-56070000Y5450000D02*
G75*
G02*
X-56470000Y5050000I-399999J-1D01*
G01*
%TO.C,D2E2*%
X5720000Y-17400000D02*
X5720000Y-19800000D01*
X8920000Y-17000000D02*
X6120000Y-17000000D01*
X8920000Y-20200000D02*
X6120000Y-20200000D01*
X9320000Y-17400000D02*
X9320000Y-19800000D01*
X5720000Y-17400000D02*
G75*
G02*
X6120000Y-17000000I400000J0D01*
G01*
X6120000Y-20200000D02*
G75*
G02*
X5720000Y-19800000I0J400000D01*
G01*
X8920000Y-17000000D02*
G75*
G02*
X9320000Y-17400000I1J-399999D01*
G01*
X9320000Y-19800000D02*
G75*
G02*
X8920000Y-20200000I-399999J-1D01*
G01*
%TO.C,D3F2*%
X-38190000Y8130000D02*
X-38190000Y5730000D01*
X-34990000Y8530000D02*
X-37790000Y8530000D01*
X-34990000Y5330000D02*
X-37790000Y5330000D01*
X-34590000Y8130000D02*
X-34590000Y5730000D01*
X-38190000Y8130000D02*
G75*
G02*
X-37790000Y8530000I400000J0D01*
G01*
X-37790000Y5330000D02*
G75*
G02*
X-38190000Y5730000I0J400000D01*
G01*
X-34990000Y8530000D02*
G75*
G02*
X-34590000Y8130000I1J-399999D01*
G01*
X-34590000Y5730000D02*
G75*
G02*
X-34990000Y5330000I-399999J-1D01*
G01*
%TO.C,D4E1*%
X-88710000Y-5520000D02*
X-88710000Y-7920000D01*
X-85510000Y-5120000D02*
X-88310000Y-5120000D01*
X-85510000Y-8320000D02*
X-88310000Y-8320000D01*
X-85110000Y-5520000D02*
X-85110000Y-7920000D01*
X-88710000Y-5520000D02*
G75*
G02*
X-88310000Y-5120000I400000J0D01*
G01*
X-88310000Y-8320000D02*
G75*
G02*
X-88710000Y-7920000I0J400000D01*
G01*
X-85510000Y-5120000D02*
G75*
G02*
X-85110000Y-5520000I1J-399999D01*
G01*
X-85110000Y-7920000D02*
G75*
G02*
X-85510000Y-8320000I-399999J-1D01*
G01*
%TO.C,D3DP1*%
X-8690000Y-23960000D02*
X-8690000Y-26360000D01*
X-5490000Y-23560000D02*
X-8290000Y-23560000D01*
X-5490000Y-26760000D02*
X-8290000Y-26760000D01*
X-5090000Y-23960000D02*
X-5090000Y-26360000D01*
X-8690000Y-23960000D02*
G75*
G02*
X-8290000Y-23560000I400000J0D01*
G01*
X-8290000Y-26760000D02*
G75*
G02*
X-8690000Y-26360000I0J400000D01*
G01*
X-5490000Y-23560000D02*
G75*
G02*
X-5090000Y-23960000I1J-399999D01*
G01*
X-5090000Y-26360000D02*
G75*
G02*
X-5490000Y-26760000I-399999J-1D01*
G01*
%TO.C,D4F2*%
X-86450000Y8130000D02*
X-86450000Y5730000D01*
X-83250000Y8530000D02*
X-86050000Y8530000D01*
X-83250000Y5330000D02*
X-86050000Y5330000D01*
X-82850000Y8130000D02*
X-82850000Y5730000D01*
X-86450000Y8130000D02*
G75*
G02*
X-86050000Y8530000I400000J0D01*
G01*
X-86050000Y5330000D02*
G75*
G02*
X-86450000Y5730000I0J400000D01*
G01*
X-83250000Y8530000D02*
G75*
G02*
X-82850000Y8130000I1J-399999D01*
G01*
X-82850000Y5730000D02*
G75*
G02*
X-83250000Y5330000I-399999J-1D01*
G01*
%TO.C,D2F1*%
X12190000Y20150000D02*
X12190000Y17750000D01*
X15390000Y20550000D02*
X12590000Y20550000D01*
X15390000Y17350000D02*
X12590000Y17350000D01*
X15790000Y20150000D02*
X15790000Y17750000D01*
X12190000Y20150000D02*
G75*
G02*
X12590000Y20550000I400000J0D01*
G01*
X12590000Y17350000D02*
G75*
G02*
X12190000Y17750000I0J400000D01*
G01*
X15390000Y20550000D02*
G75*
G02*
X15790000Y20150000I1J-399999D01*
G01*
X15790000Y17750000D02*
G75*
G02*
X15390000Y17350000I-399999J-1D01*
G01*
%TO.C,D4A1*%
X-76030000Y26850000D02*
X-76030000Y24450000D01*
X-72830000Y27250000D02*
X-75630000Y27250000D01*
X-72830000Y24050000D02*
X-75630000Y24050000D01*
X-72430000Y26850000D02*
X-72430000Y24450000D01*
X-76030000Y26850000D02*
G75*
G02*
X-75630000Y27250000I400000J0D01*
G01*
X-75630000Y24050000D02*
G75*
G02*
X-76030000Y24450000I0J400000D01*
G01*
X-72830000Y27250000D02*
G75*
G02*
X-72430000Y26850000I1J-399999D01*
G01*
X-72430000Y24450000D02*
G75*
G02*
X-72830000Y24050000I-399999J-1D01*
G01*
%TO.C,D2B2*%
X36850000Y7850000D02*
X36850000Y5450000D01*
X40050000Y8250000D02*
X37250000Y8250000D01*
X40050000Y5050000D02*
X37250000Y5050000D01*
X40450000Y7850000D02*
X40450000Y5450000D01*
X36850000Y7850000D02*
G75*
G02*
X37250000Y8250000I400000J0D01*
G01*
X37250000Y5050000D02*
G75*
G02*
X36850000Y5450000I0J400000D01*
G01*
X40050000Y8250000D02*
G75*
G02*
X40450000Y7850000I1J-399999D01*
G01*
X40450000Y5450000D02*
G75*
G02*
X40050000Y5050000I-399999J-1D01*
G01*
%TO.C,D1F2*%
X58330000Y8130000D02*
X58330000Y5730000D01*
X61530000Y8530000D02*
X58730000Y8530000D01*
X61530000Y5330000D02*
X58730000Y5330000D01*
X61930000Y8130000D02*
X61930000Y5730000D01*
X58330000Y8130000D02*
G75*
G02*
X58730000Y8530000I400000J0D01*
G01*
X58730000Y5330000D02*
G75*
G02*
X58330000Y5730000I0J400000D01*
G01*
X61530000Y8530000D02*
G75*
G02*
X61930000Y8130000I1J-399999D01*
G01*
X61930000Y5730000D02*
G75*
G02*
X61530000Y5330000I-399999J-1D01*
G01*
%TO.C,D1A1*%
X68750000Y26850000D02*
X68750000Y24450000D01*
X71950000Y27250000D02*
X69150000Y27250000D01*
X71950000Y24050000D02*
X69150000Y24050000D01*
X72350000Y26850000D02*
X72350000Y24450000D01*
X68750000Y26850000D02*
G75*
G02*
X69150000Y27250000I400000J0D01*
G01*
X69150000Y24050000D02*
G75*
G02*
X68750000Y24450000I0J400000D01*
G01*
X71950000Y27250000D02*
G75*
G02*
X72350000Y26850000I1J-399999D01*
G01*
X72350000Y24450000D02*
G75*
G02*
X71950000Y24050000I-399999J-1D01*
G01*
%TO.C,D3E1*%
X-40450000Y-5520000D02*
X-40450000Y-7920000D01*
X-37250000Y-5120000D02*
X-40050000Y-5120000D01*
X-37250000Y-8320000D02*
X-40050000Y-8320000D01*
X-36850000Y-5520000D02*
X-36850000Y-7920000D01*
X-40450000Y-5520000D02*
G75*
G02*
X-40050000Y-5120000I400000J0D01*
G01*
X-40050000Y-8320000D02*
G75*
G02*
X-40450000Y-7920000I0J400000D01*
G01*
X-37250000Y-5120000D02*
G75*
G02*
X-36850000Y-5520000I1J-399999D01*
G01*
X-36850000Y-7920000D02*
G75*
G02*
X-37250000Y-8320000I-399999J-1D01*
G01*
%TO.C,D3G1*%
X-32200000Y1200000D02*
X-32200000Y-1200000D01*
X-29000000Y1600000D02*
X-31800000Y1600000D01*
X-29000000Y-1600000D02*
X-31800000Y-1600000D01*
X-28600000Y1200000D02*
X-28600000Y-1200000D01*
X-32200000Y1200000D02*
G75*
G02*
X-31800000Y1600000I400000J0D01*
G01*
X-31800000Y-1600000D02*
G75*
G02*
X-32200000Y-1200000I0J400000D01*
G01*
X-29000000Y1600000D02*
G75*
G02*
X-28600000Y1200000I1J-399999D01*
G01*
X-28600000Y-1200000D02*
G75*
G02*
X-29000000Y-1600000I-399999J-1D01*
G01*
%TO.C,D1D2*%
X72340000Y-24450000D02*
X72340000Y-26850000D01*
X75540000Y-24050000D02*
X72740000Y-24050000D01*
X75540000Y-27250000D02*
X72740000Y-27250000D01*
X75940000Y-24450000D02*
X75940000Y-26850000D01*
X72340000Y-24450000D02*
G75*
G02*
X72740000Y-24050000I400000J0D01*
G01*
X72740000Y-27250000D02*
G75*
G02*
X72340000Y-26850000I0J400000D01*
G01*
X75540000Y-24050000D02*
G75*
G02*
X75940000Y-24450000I1J-399999D01*
G01*
X75940000Y-26850000D02*
G75*
G02*
X75540000Y-27250000I-399999J-1D01*
G01*
%TO.C,D4C2*%
X-64050000Y-17780000D02*
X-64050000Y-20180000D01*
X-60850000Y-17380000D02*
X-63650000Y-17380000D01*
X-60850000Y-20580000D02*
X-63650000Y-20580000D01*
X-60450000Y-17780000D02*
X-60450000Y-20180000D01*
X-64050000Y-17780000D02*
G75*
G02*
X-63650000Y-17380000I400000J0D01*
G01*
X-63650000Y-20580000D02*
G75*
G02*
X-64050000Y-20180000I0J400000D01*
G01*
X-60850000Y-17380000D02*
G75*
G02*
X-60450000Y-17780000I1J-399999D01*
G01*
X-60450000Y-20180000D02*
G75*
G02*
X-60850000Y-20580000I-399999J-1D01*
G01*
%TO.C,D2F2*%
X10070000Y8130000D02*
X10070000Y5730000D01*
X13270000Y8530000D02*
X10470000Y8530000D01*
X13270000Y5330000D02*
X10470000Y5330000D01*
X13670000Y8130000D02*
X13670000Y5730000D01*
X10070000Y8130000D02*
G75*
G02*
X10470000Y8530000I400000J0D01*
G01*
X10470000Y5330000D02*
G75*
G02*
X10070000Y5730000I0J400000D01*
G01*
X13270000Y8530000D02*
G75*
G02*
X13670000Y8130000I1J-399999D01*
G01*
X13670000Y5730000D02*
G75*
G02*
X13270000Y5330000I-399999J-1D01*
G01*
%TO.C,D3B1*%
X-9300000Y19890000D02*
X-9300000Y17490000D01*
X-6100000Y20290000D02*
X-8900000Y20290000D01*
X-6100000Y17090000D02*
X-8900000Y17090000D01*
X-5700000Y19890000D02*
X-5700000Y17490000D01*
X-9300000Y19890000D02*
G75*
G02*
X-8900000Y20290000I400000J0D01*
G01*
X-8900000Y17090000D02*
G75*
G02*
X-9300000Y17490000I0J400000D01*
G01*
X-6100000Y20290000D02*
G75*
G02*
X-5700000Y19890000I1J-399999D01*
G01*
X-5700000Y17490000D02*
G75*
G02*
X-6100000Y17090000I-399999J-1D01*
G01*
%TO.C,D2C1*%
X34590000Y-5740000D02*
X34590000Y-8140000D01*
X37790000Y-5340000D02*
X34990000Y-5340000D01*
X37790000Y-8540000D02*
X34990000Y-8540000D01*
X38190000Y-5740000D02*
X38190000Y-8140000D01*
X34590000Y-5740000D02*
G75*
G02*
X34990000Y-5340000I400000J0D01*
G01*
X34990000Y-8540000D02*
G75*
G02*
X34590000Y-8140000I0J400000D01*
G01*
X37790000Y-5340000D02*
G75*
G02*
X38190000Y-5740000I1J-399999D01*
G01*
X38190000Y-8140000D02*
G75*
G02*
X37790000Y-8540000I-399999J-1D01*
G01*
%TO.C,D2G1*%
X16060000Y1200000D02*
X16060000Y-1200000D01*
X19260000Y1600000D02*
X16460000Y1600000D01*
X19260000Y-1600000D02*
X16460000Y-1600000D01*
X19660000Y1200000D02*
X19660000Y-1200000D01*
X16060000Y1200000D02*
G75*
G02*
X16460000Y1600000I400000J0D01*
G01*
X16460000Y-1600000D02*
G75*
G02*
X16060000Y-1200000I0J400000D01*
G01*
X19260000Y1600000D02*
G75*
G02*
X19660000Y1200000I1J-399999D01*
G01*
X19660000Y-1200000D02*
G75*
G02*
X19260000Y-1600000I-399999J-1D01*
G01*
%TO.C,D2E1*%
X7810000Y-5520000D02*
X7810000Y-7920000D01*
X11010000Y-5120000D02*
X8210000Y-5120000D01*
X11010000Y-8320000D02*
X8210000Y-8320000D01*
X11410000Y-5520000D02*
X11410000Y-7920000D01*
X7810000Y-5520000D02*
G75*
G02*
X8210000Y-5120000I400000J0D01*
G01*
X8210000Y-8320000D02*
G75*
G02*
X7810000Y-7920000I0J400000D01*
G01*
X11010000Y-5120000D02*
G75*
G02*
X11410000Y-5520000I1J-399999D01*
G01*
X11410000Y-7920000D02*
G75*
G02*
X11010000Y-8320000I-399999J-1D01*
G01*
%TO.C,D1G2*%
X76860000Y1200000D02*
X76860000Y-1200000D01*
X80060000Y1600000D02*
X77260000Y1600000D01*
X80060000Y-1600000D02*
X77260000Y-1600000D01*
X80460000Y1200000D02*
X80460000Y-1200000D01*
X76860000Y1200000D02*
G75*
G02*
X77260000Y1600000I400000J0D01*
G01*
X77260000Y-1600000D02*
G75*
G02*
X76860000Y-1200000I0J400000D01*
G01*
X80060000Y1600000D02*
G75*
G02*
X80460000Y1200000I1J-399999D01*
G01*
X80460000Y-1200000D02*
G75*
G02*
X80060000Y-1600000I-399999J-1D01*
G01*
%TO.C,D3G2*%
X-19660000Y1200000D02*
X-19660000Y-1200000D01*
X-16460000Y1600000D02*
X-19260000Y1600000D01*
X-16460000Y-1600000D02*
X-19260000Y-1600000D01*
X-16060000Y1200000D02*
X-16060000Y-1200000D01*
X-19660000Y1200000D02*
G75*
G02*
X-19260000Y1600000I400000J0D01*
G01*
X-19260000Y-1600000D02*
G75*
G02*
X-19660000Y-1200000I0J400000D01*
G01*
X-16460000Y1600000D02*
G75*
G02*
X-16060000Y1200000I1J-399999D01*
G01*
X-16060000Y-1200000D02*
G75*
G02*
X-16460000Y-1600000I-399999J-1D01*
G01*
%TO.C,D2A1*%
X20490000Y26850000D02*
X20490000Y24450000D01*
X23690000Y27250000D02*
X20890000Y27250000D01*
X23690000Y24050000D02*
X20890000Y24050000D01*
X24090000Y26850000D02*
X24090000Y24450000D01*
X20490000Y26850000D02*
G75*
G02*
X20890000Y27250000I400000J0D01*
G01*
X20890000Y24050000D02*
G75*
G02*
X20490000Y24450000I0J400000D01*
G01*
X23690000Y27250000D02*
G75*
G02*
X24090000Y26850000I1J-399999D01*
G01*
X24090000Y24450000D02*
G75*
G02*
X23690000Y24050000I-399999J-1D01*
G01*
%TO.C,D4DP1*%
X-56950000Y-23960000D02*
X-56950000Y-26360000D01*
X-53750000Y-23560000D02*
X-56550000Y-23560000D01*
X-53750000Y-26760000D02*
X-56550000Y-26760000D01*
X-53350000Y-23960000D02*
X-53350000Y-26360000D01*
X-56950000Y-23960000D02*
G75*
G02*
X-56550000Y-23560000I400000J0D01*
G01*
X-56550000Y-26760000D02*
G75*
G02*
X-56950000Y-26360000I0J400000D01*
G01*
X-53750000Y-23560000D02*
G75*
G02*
X-53350000Y-23960000I1J-399999D01*
G01*
X-53350000Y-26360000D02*
G75*
G02*
X-53750000Y-26760000I-399999J-1D01*
G01*
%TO.C,D4D2*%
X-72440000Y-24450000D02*
X-72440000Y-26850000D01*
X-69240000Y-24050000D02*
X-72040000Y-24050000D01*
X-69240000Y-27250000D02*
X-72040000Y-27250000D01*
X-68840000Y-24450000D02*
X-68840000Y-26850000D01*
X-72440000Y-24450000D02*
G75*
G02*
X-72040000Y-24050000I400000J0D01*
G01*
X-72040000Y-27250000D02*
G75*
G02*
X-72440000Y-26850000I0J400000D01*
G01*
X-69240000Y-24050000D02*
G75*
G02*
X-68840000Y-24450000I1J-399999D01*
G01*
X-68840000Y-26850000D02*
G75*
G02*
X-69240000Y-27250000I-399999J-1D01*
G01*
%TO.C,D1F1*%
X60450000Y20150000D02*
X60450000Y17750000D01*
X63650000Y20550000D02*
X60850000Y20550000D01*
X63650000Y17350000D02*
X60850000Y17350000D01*
X64050000Y20150000D02*
X64050000Y17750000D01*
X60450000Y20150000D02*
G75*
G02*
X60850000Y20550000I400000J0D01*
G01*
X60850000Y17350000D02*
G75*
G02*
X60450000Y17750000I0J400000D01*
G01*
X63650000Y20550000D02*
G75*
G02*
X64050000Y20150000I1J-399999D01*
G01*
X64050000Y17750000D02*
G75*
G02*
X63650000Y17350000I-399999J-1D01*
G01*
%TO.C,D2D2*%
X24080000Y-24450000D02*
X24080000Y-26850000D01*
X27280000Y-24050000D02*
X24480000Y-24050000D01*
X27280000Y-27250000D02*
X24480000Y-27250000D01*
X27680000Y-24450000D02*
X27680000Y-26850000D01*
X24080000Y-24450000D02*
G75*
G02*
X24480000Y-24050000I400000J0D01*
G01*
X24480000Y-27250000D02*
G75*
G02*
X24080000Y-26850000I0J400000D01*
G01*
X27280000Y-24050000D02*
G75*
G02*
X27680000Y-24450000I1J-399999D01*
G01*
X27680000Y-26850000D02*
G75*
G02*
X27280000Y-27250000I-399999J-1D01*
G01*
%TO.C,D1D1*%
X59790000Y-24450000D02*
X59790000Y-26850000D01*
X62990000Y-24050000D02*
X60190000Y-24050000D01*
X62990000Y-27250000D02*
X60190000Y-27250000D01*
X63390000Y-24450000D02*
X63390000Y-26850000D01*
X59790000Y-24450000D02*
G75*
G02*
X60190000Y-24050000I400000J0D01*
G01*
X60190000Y-27250000D02*
G75*
G02*
X59790000Y-26850000I0J400000D01*
G01*
X62990000Y-24050000D02*
G75*
G02*
X63390000Y-24450000I1J-399999D01*
G01*
X63390000Y-26850000D02*
G75*
G02*
X62990000Y-27250000I-399999J-1D01*
G01*
%TO.C,D1B1*%
X87220000Y19890000D02*
X87220000Y17490000D01*
X90420000Y20290000D02*
X87620000Y20290000D01*
X90420000Y17090000D02*
X87620000Y17090000D01*
X90820000Y19890000D02*
X90820000Y17490000D01*
X87220000Y19890000D02*
G75*
G02*
X87620000Y20290000I400000J0D01*
G01*
X87620000Y17090000D02*
G75*
G02*
X87220000Y17490000I0J400000D01*
G01*
X90420000Y20290000D02*
G75*
G02*
X90820000Y19890000I1J-399999D01*
G01*
X90820000Y17490000D02*
G75*
G02*
X90420000Y17090000I-399999J-1D01*
G01*
%TO.C,D1DP1*%
X87830000Y-23960000D02*
X87830000Y-26360000D01*
X91030000Y-23560000D02*
X88230000Y-23560000D01*
X91030000Y-26760000D02*
X88230000Y-26760000D01*
X91430000Y-23960000D02*
X91430000Y-26360000D01*
X87830000Y-23960000D02*
G75*
G02*
X88230000Y-23560000I400000J0D01*
G01*
X88230000Y-26760000D02*
G75*
G02*
X87830000Y-26360000I0J400000D01*
G01*
X91030000Y-23560000D02*
G75*
G02*
X91430000Y-23960000I1J-399999D01*
G01*
X91430000Y-26360000D02*
G75*
G02*
X91030000Y-26760000I-399999J-1D01*
G01*
%TO.C,D1G1*%
X64320000Y1200000D02*
X64320000Y-1200000D01*
X67520000Y1600000D02*
X64720000Y1600000D01*
X67520000Y-1600000D02*
X64720000Y-1600000D01*
X67920000Y1200000D02*
X67920000Y-1200000D01*
X64320000Y1200000D02*
G75*
G02*
X64720000Y1600000I400000J0D01*
G01*
X64720000Y-1600000D02*
G75*
G02*
X64320000Y-1200000I0J400000D01*
G01*
X67520000Y1600000D02*
G75*
G02*
X67920000Y1200000I1J-399999D01*
G01*
X67920000Y-1200000D02*
G75*
G02*
X67520000Y-1600000I-399999J-1D01*
G01*
%TD*%
M02*
