%TF.GenerationSoftware,KiCad,Pcbnew,9.0.4*%
%TF.CreationDate,2025-08-31T21:09:01+02:00*%
%TF.ProjectId,n-teller-xl-diy,6e2d7465-6c6c-4657-922d-786c2d646979,1.0*%
%TF.SameCoordinates,Original*%
%TF.FileFunction,Legend,Top*%
%TF.FilePolarity,Positive*%
%FSLAX46Y46*%
G04 Gerber Fmt 4.6, Leading zero omitted, Abs format (unit mm)*
G04 Created by KiCad (PCBNEW 9.0.4) date 2025-08-31 21:09:01*
%MOMM*%
%LPD*%
G01*
G04 APERTURE LIST*
%ADD10C,0.250000*%
%ADD11C,0.100000*%
%ADD12C,0.150000*%
%ADD13C,0.200000*%
%ADD14C,0.120000*%
G04 APERTURE END LIST*
D10*
X19624760Y-41552238D02*
X19624760Y-39552238D01*
X20481903Y-41552238D02*
X20481903Y-40504619D01*
X20481903Y-40504619D02*
X20386665Y-40314142D01*
X20386665Y-40314142D02*
X20196189Y-40218904D01*
X20196189Y-40218904D02*
X19910474Y-40218904D01*
X19910474Y-40218904D02*
X19719998Y-40314142D01*
X19719998Y-40314142D02*
X19624760Y-40409380D01*
X21148570Y-40218904D02*
X21910474Y-40218904D01*
X21434284Y-39552238D02*
X21434284Y-41266523D01*
X21434284Y-41266523D02*
X21529522Y-41457000D01*
X21529522Y-41457000D02*
X21719998Y-41552238D01*
X21719998Y-41552238D02*
X21910474Y-41552238D01*
X22291427Y-40218904D02*
X23053331Y-40218904D01*
X22577141Y-39552238D02*
X22577141Y-41266523D01*
X22577141Y-41266523D02*
X22672379Y-41457000D01*
X22672379Y-41457000D02*
X22862855Y-41552238D01*
X22862855Y-41552238D02*
X23053331Y-41552238D01*
X23719998Y-40218904D02*
X23719998Y-42218904D01*
X23719998Y-40314142D02*
X23910474Y-40218904D01*
X23910474Y-40218904D02*
X24291427Y-40218904D01*
X24291427Y-40218904D02*
X24481903Y-40314142D01*
X24481903Y-40314142D02*
X24577141Y-40409380D01*
X24577141Y-40409380D02*
X24672379Y-40599857D01*
X24672379Y-40599857D02*
X24672379Y-41171285D01*
X24672379Y-41171285D02*
X24577141Y-41361761D01*
X24577141Y-41361761D02*
X24481903Y-41457000D01*
X24481903Y-41457000D02*
X24291427Y-41552238D01*
X24291427Y-41552238D02*
X23910474Y-41552238D01*
X23910474Y-41552238D02*
X23719998Y-41457000D01*
X25434284Y-41457000D02*
X25624760Y-41552238D01*
X25624760Y-41552238D02*
X26005712Y-41552238D01*
X26005712Y-41552238D02*
X26196189Y-41457000D01*
X26196189Y-41457000D02*
X26291427Y-41266523D01*
X26291427Y-41266523D02*
X26291427Y-41171285D01*
X26291427Y-41171285D02*
X26196189Y-40980809D01*
X26196189Y-40980809D02*
X26005712Y-40885571D01*
X26005712Y-40885571D02*
X25719998Y-40885571D01*
X25719998Y-40885571D02*
X25529522Y-40790333D01*
X25529522Y-40790333D02*
X25434284Y-40599857D01*
X25434284Y-40599857D02*
X25434284Y-40504619D01*
X25434284Y-40504619D02*
X25529522Y-40314142D01*
X25529522Y-40314142D02*
X25719998Y-40218904D01*
X25719998Y-40218904D02*
X26005712Y-40218904D01*
X26005712Y-40218904D02*
X26196189Y-40314142D01*
X27148570Y-41361761D02*
X27243808Y-41457000D01*
X27243808Y-41457000D02*
X27148570Y-41552238D01*
X27148570Y-41552238D02*
X27053332Y-41457000D01*
X27053332Y-41457000D02*
X27148570Y-41361761D01*
X27148570Y-41361761D02*
X27148570Y-41552238D01*
X27148570Y-40314142D02*
X27243808Y-40409380D01*
X27243808Y-40409380D02*
X27148570Y-40504619D01*
X27148570Y-40504619D02*
X27053332Y-40409380D01*
X27053332Y-40409380D02*
X27148570Y-40314142D01*
X27148570Y-40314142D02*
X27148570Y-40504619D01*
X29529522Y-39457000D02*
X27815237Y-42028428D01*
X31624760Y-39457000D02*
X29910475Y-42028428D01*
X32291427Y-41552238D02*
X32291427Y-40218904D01*
X32291427Y-40599857D02*
X32386665Y-40409380D01*
X32386665Y-40409380D02*
X32481903Y-40314142D01*
X32481903Y-40314142D02*
X32672379Y-40218904D01*
X32672379Y-40218904D02*
X32862856Y-40218904D01*
X34291427Y-41457000D02*
X34100951Y-41552238D01*
X34100951Y-41552238D02*
X33719998Y-41552238D01*
X33719998Y-41552238D02*
X33529522Y-41457000D01*
X33529522Y-41457000D02*
X33434284Y-41266523D01*
X33434284Y-41266523D02*
X33434284Y-40504619D01*
X33434284Y-40504619D02*
X33529522Y-40314142D01*
X33529522Y-40314142D02*
X33719998Y-40218904D01*
X33719998Y-40218904D02*
X34100951Y-40218904D01*
X34100951Y-40218904D02*
X34291427Y-40314142D01*
X34291427Y-40314142D02*
X34386665Y-40504619D01*
X34386665Y-40504619D02*
X34386665Y-40695095D01*
X34386665Y-40695095D02*
X33434284Y-40885571D01*
X35053332Y-40218904D02*
X35529522Y-41552238D01*
X35529522Y-41552238D02*
X36005713Y-40218904D01*
X36672380Y-41457000D02*
X36862856Y-41552238D01*
X36862856Y-41552238D02*
X37243808Y-41552238D01*
X37243808Y-41552238D02*
X37434285Y-41457000D01*
X37434285Y-41457000D02*
X37529523Y-41266523D01*
X37529523Y-41266523D02*
X37529523Y-41171285D01*
X37529523Y-41171285D02*
X37434285Y-40980809D01*
X37434285Y-40980809D02*
X37243808Y-40885571D01*
X37243808Y-40885571D02*
X36958094Y-40885571D01*
X36958094Y-40885571D02*
X36767618Y-40790333D01*
X36767618Y-40790333D02*
X36672380Y-40599857D01*
X36672380Y-40599857D02*
X36672380Y-40504619D01*
X36672380Y-40504619D02*
X36767618Y-40314142D01*
X36767618Y-40314142D02*
X36958094Y-40218904D01*
X36958094Y-40218904D02*
X37243808Y-40218904D01*
X37243808Y-40218904D02*
X37434285Y-40314142D01*
X38386666Y-40218904D02*
X38386666Y-42218904D01*
X38386666Y-40314142D02*
X38577142Y-40218904D01*
X38577142Y-40218904D02*
X38958095Y-40218904D01*
X38958095Y-40218904D02*
X39148571Y-40314142D01*
X39148571Y-40314142D02*
X39243809Y-40409380D01*
X39243809Y-40409380D02*
X39339047Y-40599857D01*
X39339047Y-40599857D02*
X39339047Y-41171285D01*
X39339047Y-41171285D02*
X39243809Y-41361761D01*
X39243809Y-41361761D02*
X39148571Y-41457000D01*
X39148571Y-41457000D02*
X38958095Y-41552238D01*
X38958095Y-41552238D02*
X38577142Y-41552238D01*
X38577142Y-41552238D02*
X38386666Y-41457000D01*
X41053333Y-41552238D02*
X41053333Y-40504619D01*
X41053333Y-40504619D02*
X40958095Y-40314142D01*
X40958095Y-40314142D02*
X40767619Y-40218904D01*
X40767619Y-40218904D02*
X40386666Y-40218904D01*
X40386666Y-40218904D02*
X40196190Y-40314142D01*
X41053333Y-41457000D02*
X40862857Y-41552238D01*
X40862857Y-41552238D02*
X40386666Y-41552238D01*
X40386666Y-41552238D02*
X40196190Y-41457000D01*
X40196190Y-41457000D02*
X40100952Y-41266523D01*
X40100952Y-41266523D02*
X40100952Y-41076047D01*
X40100952Y-41076047D02*
X40196190Y-40885571D01*
X40196190Y-40885571D02*
X40386666Y-40790333D01*
X40386666Y-40790333D02*
X40862857Y-40790333D01*
X40862857Y-40790333D02*
X41053333Y-40695095D01*
X42862857Y-41457000D02*
X42672381Y-41552238D01*
X42672381Y-41552238D02*
X42291428Y-41552238D01*
X42291428Y-41552238D02*
X42100952Y-41457000D01*
X42100952Y-41457000D02*
X42005714Y-41361761D01*
X42005714Y-41361761D02*
X41910476Y-41171285D01*
X41910476Y-41171285D02*
X41910476Y-40599857D01*
X41910476Y-40599857D02*
X42005714Y-40409380D01*
X42005714Y-40409380D02*
X42100952Y-40314142D01*
X42100952Y-40314142D02*
X42291428Y-40218904D01*
X42291428Y-40218904D02*
X42672381Y-40218904D01*
X42672381Y-40218904D02*
X42862857Y-40314142D01*
X44481905Y-41457000D02*
X44291429Y-41552238D01*
X44291429Y-41552238D02*
X43910476Y-41552238D01*
X43910476Y-41552238D02*
X43720000Y-41457000D01*
X43720000Y-41457000D02*
X43624762Y-41266523D01*
X43624762Y-41266523D02*
X43624762Y-40504619D01*
X43624762Y-40504619D02*
X43720000Y-40314142D01*
X43720000Y-40314142D02*
X43910476Y-40218904D01*
X43910476Y-40218904D02*
X44291429Y-40218904D01*
X44291429Y-40218904D02*
X44481905Y-40314142D01*
X44481905Y-40314142D02*
X44577143Y-40504619D01*
X44577143Y-40504619D02*
X44577143Y-40695095D01*
X44577143Y-40695095D02*
X43624762Y-40885571D01*
X45434286Y-41361761D02*
X45529524Y-41457000D01*
X45529524Y-41457000D02*
X45434286Y-41552238D01*
X45434286Y-41552238D02*
X45339048Y-41457000D01*
X45339048Y-41457000D02*
X45434286Y-41361761D01*
X45434286Y-41361761D02*
X45434286Y-41552238D01*
X46386667Y-40218904D02*
X46386667Y-41552238D01*
X46386667Y-40409380D02*
X46481905Y-40314142D01*
X46481905Y-40314142D02*
X46672381Y-40218904D01*
X46672381Y-40218904D02*
X46958096Y-40218904D01*
X46958096Y-40218904D02*
X47148572Y-40314142D01*
X47148572Y-40314142D02*
X47243810Y-40504619D01*
X47243810Y-40504619D02*
X47243810Y-41552238D01*
X48481905Y-41552238D02*
X48291429Y-41457000D01*
X48291429Y-41457000D02*
X48196191Y-41266523D01*
X48196191Y-41266523D02*
X48196191Y-39552238D01*
X50672381Y-39457000D02*
X48958096Y-42028428D01*
X51339048Y-39552238D02*
X51339048Y-41171285D01*
X51339048Y-41171285D02*
X51434286Y-41361761D01*
X51434286Y-41361761D02*
X51529524Y-41457000D01*
X51529524Y-41457000D02*
X51720000Y-41552238D01*
X51720000Y-41552238D02*
X52100953Y-41552238D01*
X52100953Y-41552238D02*
X52291429Y-41457000D01*
X52291429Y-41457000D02*
X52386667Y-41361761D01*
X52386667Y-41361761D02*
X52481905Y-41171285D01*
X52481905Y-41171285D02*
X52481905Y-39552238D01*
X53339048Y-41457000D02*
X53529524Y-41552238D01*
X53529524Y-41552238D02*
X53910476Y-41552238D01*
X53910476Y-41552238D02*
X54100953Y-41457000D01*
X54100953Y-41457000D02*
X54196191Y-41266523D01*
X54196191Y-41266523D02*
X54196191Y-41171285D01*
X54196191Y-41171285D02*
X54100953Y-40980809D01*
X54100953Y-40980809D02*
X53910476Y-40885571D01*
X53910476Y-40885571D02*
X53624762Y-40885571D01*
X53624762Y-40885571D02*
X53434286Y-40790333D01*
X53434286Y-40790333D02*
X53339048Y-40599857D01*
X53339048Y-40599857D02*
X53339048Y-40504619D01*
X53339048Y-40504619D02*
X53434286Y-40314142D01*
X53434286Y-40314142D02*
X53624762Y-40218904D01*
X53624762Y-40218904D02*
X53910476Y-40218904D01*
X53910476Y-40218904D02*
X54100953Y-40314142D01*
X55815239Y-41457000D02*
X55624763Y-41552238D01*
X55624763Y-41552238D02*
X55243810Y-41552238D01*
X55243810Y-41552238D02*
X55053334Y-41457000D01*
X55053334Y-41457000D02*
X54958096Y-41266523D01*
X54958096Y-41266523D02*
X54958096Y-40504619D01*
X54958096Y-40504619D02*
X55053334Y-40314142D01*
X55053334Y-40314142D02*
X55243810Y-40218904D01*
X55243810Y-40218904D02*
X55624763Y-40218904D01*
X55624763Y-40218904D02*
X55815239Y-40314142D01*
X55815239Y-40314142D02*
X55910477Y-40504619D01*
X55910477Y-40504619D02*
X55910477Y-40695095D01*
X55910477Y-40695095D02*
X54958096Y-40885571D01*
X56767620Y-41552238D02*
X56767620Y-40218904D01*
X56767620Y-40599857D02*
X56862858Y-40409380D01*
X56862858Y-40409380D02*
X56958096Y-40314142D01*
X56958096Y-40314142D02*
X57148572Y-40218904D01*
X57148572Y-40218904D02*
X57339049Y-40218904D01*
X58005715Y-41361761D02*
X58100953Y-41457000D01*
X58100953Y-41457000D02*
X58005715Y-41552238D01*
X58005715Y-41552238D02*
X57910477Y-41457000D01*
X57910477Y-41457000D02*
X58005715Y-41361761D01*
X58005715Y-41361761D02*
X58005715Y-41552238D01*
X58005715Y-40314142D02*
X58100953Y-40409380D01*
X58100953Y-40409380D02*
X58005715Y-40504619D01*
X58005715Y-40504619D02*
X57910477Y-40409380D01*
X57910477Y-40409380D02*
X58005715Y-40314142D01*
X58005715Y-40314142D02*
X58005715Y-40504619D01*
X58862858Y-40980809D02*
X59815239Y-40980809D01*
X58672382Y-41552238D02*
X59339048Y-39552238D01*
X59339048Y-39552238D02*
X60005715Y-41552238D01*
X60386668Y-40218904D02*
X61148572Y-40218904D01*
X60672382Y-39552238D02*
X60672382Y-41266523D01*
X60672382Y-41266523D02*
X60767620Y-41457000D01*
X60767620Y-41457000D02*
X60958096Y-41552238D01*
X60958096Y-41552238D02*
X61148572Y-41552238D01*
X62100953Y-41552238D02*
X61910477Y-41457000D01*
X61910477Y-41457000D02*
X61815239Y-41361761D01*
X61815239Y-41361761D02*
X61720001Y-41171285D01*
X61720001Y-41171285D02*
X61720001Y-40599857D01*
X61720001Y-40599857D02*
X61815239Y-40409380D01*
X61815239Y-40409380D02*
X61910477Y-40314142D01*
X61910477Y-40314142D02*
X62100953Y-40218904D01*
X62100953Y-40218904D02*
X62386668Y-40218904D01*
X62386668Y-40218904D02*
X62577144Y-40314142D01*
X62577144Y-40314142D02*
X62672382Y-40409380D01*
X62672382Y-40409380D02*
X62767620Y-40599857D01*
X62767620Y-40599857D02*
X62767620Y-41171285D01*
X62767620Y-41171285D02*
X62672382Y-41361761D01*
X62672382Y-41361761D02*
X62577144Y-41457000D01*
X62577144Y-41457000D02*
X62386668Y-41552238D01*
X62386668Y-41552238D02*
X62100953Y-41552238D01*
X63910477Y-41552238D02*
X63720001Y-41457000D01*
X63720001Y-41457000D02*
X63624763Y-41361761D01*
X63624763Y-41361761D02*
X63529525Y-41171285D01*
X63529525Y-41171285D02*
X63529525Y-40599857D01*
X63529525Y-40599857D02*
X63624763Y-40409380D01*
X63624763Y-40409380D02*
X63720001Y-40314142D01*
X63720001Y-40314142D02*
X63910477Y-40218904D01*
X63910477Y-40218904D02*
X64196192Y-40218904D01*
X64196192Y-40218904D02*
X64386668Y-40314142D01*
X64386668Y-40314142D02*
X64481906Y-40409380D01*
X64481906Y-40409380D02*
X64577144Y-40599857D01*
X64577144Y-40599857D02*
X64577144Y-41171285D01*
X64577144Y-41171285D02*
X64481906Y-41361761D01*
X64481906Y-41361761D02*
X64386668Y-41457000D01*
X64386668Y-41457000D02*
X64196192Y-41552238D01*
X64196192Y-41552238D02*
X63910477Y-41552238D01*
X65434287Y-41552238D02*
X65434287Y-40218904D01*
X65434287Y-40409380D02*
X65529525Y-40314142D01*
X65529525Y-40314142D02*
X65720001Y-40218904D01*
X65720001Y-40218904D02*
X66005716Y-40218904D01*
X66005716Y-40218904D02*
X66196192Y-40314142D01*
X66196192Y-40314142D02*
X66291430Y-40504619D01*
X66291430Y-40504619D02*
X66291430Y-41552238D01*
X66291430Y-40504619D02*
X66386668Y-40314142D01*
X66386668Y-40314142D02*
X66577144Y-40218904D01*
X66577144Y-40218904D02*
X66862858Y-40218904D01*
X66862858Y-40218904D02*
X67053335Y-40314142D01*
X67053335Y-40314142D02*
X67148573Y-40504619D01*
X67148573Y-40504619D02*
X67148573Y-41552238D01*
X68100954Y-40218904D02*
X68100954Y-41552238D01*
X68100954Y-40409380D02*
X68196192Y-40314142D01*
X68196192Y-40314142D02*
X68386668Y-40218904D01*
X68386668Y-40218904D02*
X68672383Y-40218904D01*
X68672383Y-40218904D02*
X68862859Y-40314142D01*
X68862859Y-40314142D02*
X68958097Y-40504619D01*
X68958097Y-40504619D02*
X68958097Y-41552238D01*
X70672383Y-41457000D02*
X70481907Y-41552238D01*
X70481907Y-41552238D02*
X70100954Y-41552238D01*
X70100954Y-41552238D02*
X69910478Y-41457000D01*
X69910478Y-41457000D02*
X69815240Y-41266523D01*
X69815240Y-41266523D02*
X69815240Y-40504619D01*
X69815240Y-40504619D02*
X69910478Y-40314142D01*
X69910478Y-40314142D02*
X70100954Y-40218904D01*
X70100954Y-40218904D02*
X70481907Y-40218904D01*
X70481907Y-40218904D02*
X70672383Y-40314142D01*
X70672383Y-40314142D02*
X70767621Y-40504619D01*
X70767621Y-40504619D02*
X70767621Y-40695095D01*
X70767621Y-40695095D02*
X69815240Y-40885571D01*
X71339050Y-40218904D02*
X72100954Y-40218904D01*
X71624764Y-39552238D02*
X71624764Y-41266523D01*
X71624764Y-41266523D02*
X71720002Y-41457000D01*
X71720002Y-41457000D02*
X71910478Y-41552238D01*
X71910478Y-41552238D02*
X72100954Y-41552238D01*
X-84624763Y-41552238D02*
X-84624763Y-39552238D01*
X-83767620Y-41552238D02*
X-83767620Y-40504619D01*
X-83767620Y-40504619D02*
X-83862858Y-40314142D01*
X-83862858Y-40314142D02*
X-84053334Y-40218904D01*
X-84053334Y-40218904D02*
X-84339049Y-40218904D01*
X-84339049Y-40218904D02*
X-84529525Y-40314142D01*
X-84529525Y-40314142D02*
X-84624763Y-40409380D01*
X-83100953Y-40218904D02*
X-82339049Y-40218904D01*
X-82815239Y-39552238D02*
X-82815239Y-41266523D01*
X-82815239Y-41266523D02*
X-82720001Y-41457000D01*
X-82720001Y-41457000D02*
X-82529525Y-41552238D01*
X-82529525Y-41552238D02*
X-82339049Y-41552238D01*
X-81958096Y-40218904D02*
X-81196192Y-40218904D01*
X-81672382Y-39552238D02*
X-81672382Y-41266523D01*
X-81672382Y-41266523D02*
X-81577144Y-41457000D01*
X-81577144Y-41457000D02*
X-81386668Y-41552238D01*
X-81386668Y-41552238D02*
X-81196192Y-41552238D01*
X-80529525Y-40218904D02*
X-80529525Y-42218904D01*
X-80529525Y-40314142D02*
X-80339049Y-40218904D01*
X-80339049Y-40218904D02*
X-79958096Y-40218904D01*
X-79958096Y-40218904D02*
X-79767620Y-40314142D01*
X-79767620Y-40314142D02*
X-79672382Y-40409380D01*
X-79672382Y-40409380D02*
X-79577144Y-40599857D01*
X-79577144Y-40599857D02*
X-79577144Y-41171285D01*
X-79577144Y-41171285D02*
X-79672382Y-41361761D01*
X-79672382Y-41361761D02*
X-79767620Y-41457000D01*
X-79767620Y-41457000D02*
X-79958096Y-41552238D01*
X-79958096Y-41552238D02*
X-80339049Y-41552238D01*
X-80339049Y-41552238D02*
X-80529525Y-41457000D01*
X-78815239Y-41457000D02*
X-78624763Y-41552238D01*
X-78624763Y-41552238D02*
X-78243811Y-41552238D01*
X-78243811Y-41552238D02*
X-78053334Y-41457000D01*
X-78053334Y-41457000D02*
X-77958096Y-41266523D01*
X-77958096Y-41266523D02*
X-77958096Y-41171285D01*
X-77958096Y-41171285D02*
X-78053334Y-40980809D01*
X-78053334Y-40980809D02*
X-78243811Y-40885571D01*
X-78243811Y-40885571D02*
X-78529525Y-40885571D01*
X-78529525Y-40885571D02*
X-78720001Y-40790333D01*
X-78720001Y-40790333D02*
X-78815239Y-40599857D01*
X-78815239Y-40599857D02*
X-78815239Y-40504619D01*
X-78815239Y-40504619D02*
X-78720001Y-40314142D01*
X-78720001Y-40314142D02*
X-78529525Y-40218904D01*
X-78529525Y-40218904D02*
X-78243811Y-40218904D01*
X-78243811Y-40218904D02*
X-78053334Y-40314142D01*
X-77100953Y-41361761D02*
X-77005715Y-41457000D01*
X-77005715Y-41457000D02*
X-77100953Y-41552238D01*
X-77100953Y-41552238D02*
X-77196191Y-41457000D01*
X-77196191Y-41457000D02*
X-77100953Y-41361761D01*
X-77100953Y-41361761D02*
X-77100953Y-41552238D01*
X-77100953Y-40314142D02*
X-77005715Y-40409380D01*
X-77005715Y-40409380D02*
X-77100953Y-40504619D01*
X-77100953Y-40504619D02*
X-77196191Y-40409380D01*
X-77196191Y-40409380D02*
X-77100953Y-40314142D01*
X-77100953Y-40314142D02*
X-77100953Y-40504619D01*
X-74720001Y-39457000D02*
X-76434286Y-42028428D01*
X-72624763Y-39457000D02*
X-74339048Y-42028428D01*
X-71100953Y-40218904D02*
X-71100953Y-41837952D01*
X-71100953Y-41837952D02*
X-71196191Y-42028428D01*
X-71196191Y-42028428D02*
X-71291429Y-42123666D01*
X-71291429Y-42123666D02*
X-71481906Y-42218904D01*
X-71481906Y-42218904D02*
X-71767620Y-42218904D01*
X-71767620Y-42218904D02*
X-71958096Y-42123666D01*
X-71100953Y-41457000D02*
X-71291429Y-41552238D01*
X-71291429Y-41552238D02*
X-71672382Y-41552238D01*
X-71672382Y-41552238D02*
X-71862858Y-41457000D01*
X-71862858Y-41457000D02*
X-71958096Y-41361761D01*
X-71958096Y-41361761D02*
X-72053334Y-41171285D01*
X-72053334Y-41171285D02*
X-72053334Y-40599857D01*
X-72053334Y-40599857D02*
X-71958096Y-40409380D01*
X-71958096Y-40409380D02*
X-71862858Y-40314142D01*
X-71862858Y-40314142D02*
X-71672382Y-40218904D01*
X-71672382Y-40218904D02*
X-71291429Y-40218904D01*
X-71291429Y-40218904D02*
X-71100953Y-40314142D01*
X-70148572Y-41552238D02*
X-70148572Y-40218904D01*
X-70148572Y-39552238D02*
X-70243810Y-39647476D01*
X-70243810Y-39647476D02*
X-70148572Y-39742714D01*
X-70148572Y-39742714D02*
X-70053334Y-39647476D01*
X-70053334Y-39647476D02*
X-70148572Y-39552238D01*
X-70148572Y-39552238D02*
X-70148572Y-39742714D01*
X-69481905Y-40218904D02*
X-68720001Y-40218904D01*
X-69196191Y-39552238D02*
X-69196191Y-41266523D01*
X-69196191Y-41266523D02*
X-69100953Y-41457000D01*
X-69100953Y-41457000D02*
X-68910477Y-41552238D01*
X-68910477Y-41552238D02*
X-68720001Y-41552238D01*
X-68053334Y-41552238D02*
X-68053334Y-39552238D01*
X-67196191Y-41552238D02*
X-67196191Y-40504619D01*
X-67196191Y-40504619D02*
X-67291429Y-40314142D01*
X-67291429Y-40314142D02*
X-67481905Y-40218904D01*
X-67481905Y-40218904D02*
X-67767620Y-40218904D01*
X-67767620Y-40218904D02*
X-67958096Y-40314142D01*
X-67958096Y-40314142D02*
X-68053334Y-40409380D01*
X-65386667Y-40218904D02*
X-65386667Y-41552238D01*
X-66243810Y-40218904D02*
X-66243810Y-41266523D01*
X-66243810Y-41266523D02*
X-66148572Y-41457000D01*
X-66148572Y-41457000D02*
X-65958096Y-41552238D01*
X-65958096Y-41552238D02*
X-65672381Y-41552238D01*
X-65672381Y-41552238D02*
X-65481905Y-41457000D01*
X-65481905Y-41457000D02*
X-65386667Y-41361761D01*
X-64434286Y-41552238D02*
X-64434286Y-39552238D01*
X-64434286Y-40314142D02*
X-64243810Y-40218904D01*
X-64243810Y-40218904D02*
X-63862857Y-40218904D01*
X-63862857Y-40218904D02*
X-63672381Y-40314142D01*
X-63672381Y-40314142D02*
X-63577143Y-40409380D01*
X-63577143Y-40409380D02*
X-63481905Y-40599857D01*
X-63481905Y-40599857D02*
X-63481905Y-41171285D01*
X-63481905Y-41171285D02*
X-63577143Y-41361761D01*
X-63577143Y-41361761D02*
X-63672381Y-41457000D01*
X-63672381Y-41457000D02*
X-63862857Y-41552238D01*
X-63862857Y-41552238D02*
X-64243810Y-41552238D01*
X-64243810Y-41552238D02*
X-64434286Y-41457000D01*
X-62624762Y-41361761D02*
X-62529524Y-41457000D01*
X-62529524Y-41457000D02*
X-62624762Y-41552238D01*
X-62624762Y-41552238D02*
X-62720000Y-41457000D01*
X-62720000Y-41457000D02*
X-62624762Y-41361761D01*
X-62624762Y-41361761D02*
X-62624762Y-41552238D01*
X-60815238Y-41457000D02*
X-61005714Y-41552238D01*
X-61005714Y-41552238D02*
X-61386667Y-41552238D01*
X-61386667Y-41552238D02*
X-61577143Y-41457000D01*
X-61577143Y-41457000D02*
X-61672381Y-41361761D01*
X-61672381Y-41361761D02*
X-61767619Y-41171285D01*
X-61767619Y-41171285D02*
X-61767619Y-40599857D01*
X-61767619Y-40599857D02*
X-61672381Y-40409380D01*
X-61672381Y-40409380D02*
X-61577143Y-40314142D01*
X-61577143Y-40314142D02*
X-61386667Y-40218904D01*
X-61386667Y-40218904D02*
X-61005714Y-40218904D01*
X-61005714Y-40218904D02*
X-60815238Y-40314142D01*
X-59672381Y-41552238D02*
X-59862857Y-41457000D01*
X-59862857Y-41457000D02*
X-59958095Y-41361761D01*
X-59958095Y-41361761D02*
X-60053333Y-41171285D01*
X-60053333Y-41171285D02*
X-60053333Y-40599857D01*
X-60053333Y-40599857D02*
X-59958095Y-40409380D01*
X-59958095Y-40409380D02*
X-59862857Y-40314142D01*
X-59862857Y-40314142D02*
X-59672381Y-40218904D01*
X-59672381Y-40218904D02*
X-59386666Y-40218904D01*
X-59386666Y-40218904D02*
X-59196190Y-40314142D01*
X-59196190Y-40314142D02*
X-59100952Y-40409380D01*
X-59100952Y-40409380D02*
X-59005714Y-40599857D01*
X-59005714Y-40599857D02*
X-59005714Y-41171285D01*
X-59005714Y-41171285D02*
X-59100952Y-41361761D01*
X-59100952Y-41361761D02*
X-59196190Y-41457000D01*
X-59196190Y-41457000D02*
X-59386666Y-41552238D01*
X-59386666Y-41552238D02*
X-59672381Y-41552238D01*
X-58148571Y-41552238D02*
X-58148571Y-40218904D01*
X-58148571Y-40409380D02*
X-58053333Y-40314142D01*
X-58053333Y-40314142D02*
X-57862857Y-40218904D01*
X-57862857Y-40218904D02*
X-57577142Y-40218904D01*
X-57577142Y-40218904D02*
X-57386666Y-40314142D01*
X-57386666Y-40314142D02*
X-57291428Y-40504619D01*
X-57291428Y-40504619D02*
X-57291428Y-41552238D01*
X-57291428Y-40504619D02*
X-57196190Y-40314142D01*
X-57196190Y-40314142D02*
X-57005714Y-40218904D01*
X-57005714Y-40218904D02*
X-56720000Y-40218904D01*
X-56720000Y-40218904D02*
X-56529523Y-40314142D01*
X-56529523Y-40314142D02*
X-56434285Y-40504619D01*
X-56434285Y-40504619D02*
X-56434285Y-41552238D01*
X-54053333Y-39457000D02*
X-55767618Y-42028428D01*
X-52529523Y-41552238D02*
X-52529523Y-40504619D01*
X-52529523Y-40504619D02*
X-52624761Y-40314142D01*
X-52624761Y-40314142D02*
X-52815237Y-40218904D01*
X-52815237Y-40218904D02*
X-53196190Y-40218904D01*
X-53196190Y-40218904D02*
X-53386666Y-40314142D01*
X-52529523Y-41457000D02*
X-52719999Y-41552238D01*
X-52719999Y-41552238D02*
X-53196190Y-41552238D01*
X-53196190Y-41552238D02*
X-53386666Y-41457000D01*
X-53386666Y-41457000D02*
X-53481904Y-41266523D01*
X-53481904Y-41266523D02*
X-53481904Y-41076047D01*
X-53481904Y-41076047D02*
X-53386666Y-40885571D01*
X-53386666Y-40885571D02*
X-53196190Y-40790333D01*
X-53196190Y-40790333D02*
X-52719999Y-40790333D01*
X-52719999Y-40790333D02*
X-52529523Y-40695095D01*
X-51862856Y-40218904D02*
X-51100952Y-40218904D01*
X-51577142Y-39552238D02*
X-51577142Y-41266523D01*
X-51577142Y-41266523D02*
X-51481904Y-41457000D01*
X-51481904Y-41457000D02*
X-51291428Y-41552238D01*
X-51291428Y-41552238D02*
X-51100952Y-41552238D01*
X-50148571Y-41552238D02*
X-50339047Y-41457000D01*
X-50339047Y-41457000D02*
X-50434285Y-41361761D01*
X-50434285Y-41361761D02*
X-50529523Y-41171285D01*
X-50529523Y-41171285D02*
X-50529523Y-40599857D01*
X-50529523Y-40599857D02*
X-50434285Y-40409380D01*
X-50434285Y-40409380D02*
X-50339047Y-40314142D01*
X-50339047Y-40314142D02*
X-50148571Y-40218904D01*
X-50148571Y-40218904D02*
X-49862856Y-40218904D01*
X-49862856Y-40218904D02*
X-49672380Y-40314142D01*
X-49672380Y-40314142D02*
X-49577142Y-40409380D01*
X-49577142Y-40409380D02*
X-49481904Y-40599857D01*
X-49481904Y-40599857D02*
X-49481904Y-41171285D01*
X-49481904Y-41171285D02*
X-49577142Y-41361761D01*
X-49577142Y-41361761D02*
X-49672380Y-41457000D01*
X-49672380Y-41457000D02*
X-49862856Y-41552238D01*
X-49862856Y-41552238D02*
X-50148571Y-41552238D01*
X-48339047Y-41552238D02*
X-48529523Y-41457000D01*
X-48529523Y-41457000D02*
X-48624761Y-41361761D01*
X-48624761Y-41361761D02*
X-48719999Y-41171285D01*
X-48719999Y-41171285D02*
X-48719999Y-40599857D01*
X-48719999Y-40599857D02*
X-48624761Y-40409380D01*
X-48624761Y-40409380D02*
X-48529523Y-40314142D01*
X-48529523Y-40314142D02*
X-48339047Y-40218904D01*
X-48339047Y-40218904D02*
X-48053332Y-40218904D01*
X-48053332Y-40218904D02*
X-47862856Y-40314142D01*
X-47862856Y-40314142D02*
X-47767618Y-40409380D01*
X-47767618Y-40409380D02*
X-47672380Y-40599857D01*
X-47672380Y-40599857D02*
X-47672380Y-41171285D01*
X-47672380Y-41171285D02*
X-47767618Y-41361761D01*
X-47767618Y-41361761D02*
X-47862856Y-41457000D01*
X-47862856Y-41457000D02*
X-48053332Y-41552238D01*
X-48053332Y-41552238D02*
X-48339047Y-41552238D01*
X-46815237Y-41552238D02*
X-46815237Y-40218904D01*
X-46815237Y-40409380D02*
X-46719999Y-40314142D01*
X-46719999Y-40314142D02*
X-46529523Y-40218904D01*
X-46529523Y-40218904D02*
X-46243808Y-40218904D01*
X-46243808Y-40218904D02*
X-46053332Y-40314142D01*
X-46053332Y-40314142D02*
X-45958094Y-40504619D01*
X-45958094Y-40504619D02*
X-45958094Y-41552238D01*
X-45958094Y-40504619D02*
X-45862856Y-40314142D01*
X-45862856Y-40314142D02*
X-45672380Y-40218904D01*
X-45672380Y-40218904D02*
X-45386666Y-40218904D01*
X-45386666Y-40218904D02*
X-45196189Y-40314142D01*
X-45196189Y-40314142D02*
X-45100951Y-40504619D01*
X-45100951Y-40504619D02*
X-45100951Y-41552238D01*
X-44148570Y-40218904D02*
X-44148570Y-41552238D01*
X-44148570Y-40409380D02*
X-44053332Y-40314142D01*
X-44053332Y-40314142D02*
X-43862856Y-40218904D01*
X-43862856Y-40218904D02*
X-43577141Y-40218904D01*
X-43577141Y-40218904D02*
X-43386665Y-40314142D01*
X-43386665Y-40314142D02*
X-43291427Y-40504619D01*
X-43291427Y-40504619D02*
X-43291427Y-41552238D01*
X-41577141Y-41457000D02*
X-41767617Y-41552238D01*
X-41767617Y-41552238D02*
X-42148570Y-41552238D01*
X-42148570Y-41552238D02*
X-42339046Y-41457000D01*
X-42339046Y-41457000D02*
X-42434284Y-41266523D01*
X-42434284Y-41266523D02*
X-42434284Y-40504619D01*
X-42434284Y-40504619D02*
X-42339046Y-40314142D01*
X-42339046Y-40314142D02*
X-42148570Y-40218904D01*
X-42148570Y-40218904D02*
X-41767617Y-40218904D01*
X-41767617Y-40218904D02*
X-41577141Y-40314142D01*
X-41577141Y-40314142D02*
X-41481903Y-40504619D01*
X-41481903Y-40504619D02*
X-41481903Y-40695095D01*
X-41481903Y-40695095D02*
X-42434284Y-40885571D01*
X-40910474Y-40218904D02*
X-40148570Y-40218904D01*
X-40624760Y-39552238D02*
X-40624760Y-41266523D01*
X-40624760Y-41266523D02*
X-40529522Y-41457000D01*
X-40529522Y-41457000D02*
X-40339046Y-41552238D01*
X-40339046Y-41552238D02*
X-40148570Y-41552238D01*
X-39481903Y-41552238D02*
X-39481903Y-40218904D01*
X-39481903Y-40409380D02*
X-39386665Y-40314142D01*
X-39386665Y-40314142D02*
X-39196189Y-40218904D01*
X-39196189Y-40218904D02*
X-38910474Y-40218904D01*
X-38910474Y-40218904D02*
X-38719998Y-40314142D01*
X-38719998Y-40314142D02*
X-38624760Y-40504619D01*
X-38624760Y-40504619D02*
X-38624760Y-41552238D01*
X-38624760Y-40504619D02*
X-38529522Y-40314142D01*
X-38529522Y-40314142D02*
X-38339046Y-40218904D01*
X-38339046Y-40218904D02*
X-38053332Y-40218904D01*
X-38053332Y-40218904D02*
X-37862855Y-40314142D01*
X-37862855Y-40314142D02*
X-37767617Y-40504619D01*
X-37767617Y-40504619D02*
X-37767617Y-41552238D01*
X-35958093Y-41552238D02*
X-35958093Y-40504619D01*
X-35958093Y-40504619D02*
X-36053331Y-40314142D01*
X-36053331Y-40314142D02*
X-36243807Y-40218904D01*
X-36243807Y-40218904D02*
X-36624760Y-40218904D01*
X-36624760Y-40218904D02*
X-36815236Y-40314142D01*
X-35958093Y-41457000D02*
X-36148569Y-41552238D01*
X-36148569Y-41552238D02*
X-36624760Y-41552238D01*
X-36624760Y-41552238D02*
X-36815236Y-41457000D01*
X-36815236Y-41457000D02*
X-36910474Y-41266523D01*
X-36910474Y-41266523D02*
X-36910474Y-41076047D01*
X-36910474Y-41076047D02*
X-36815236Y-40885571D01*
X-36815236Y-40885571D02*
X-36624760Y-40790333D01*
X-36624760Y-40790333D02*
X-36148569Y-40790333D01*
X-36148569Y-40790333D02*
X-35958093Y-40695095D01*
X-35005712Y-41552238D02*
X-35005712Y-40218904D01*
X-35005712Y-40599857D02*
X-34910474Y-40409380D01*
X-34910474Y-40409380D02*
X-34815236Y-40314142D01*
X-34815236Y-40314142D02*
X-34624760Y-40218904D01*
X-34624760Y-40218904D02*
X-34434283Y-40218904D01*
X-32910474Y-41457000D02*
X-33100950Y-41552238D01*
X-33100950Y-41552238D02*
X-33481903Y-41552238D01*
X-33481903Y-41552238D02*
X-33672379Y-41457000D01*
X-33672379Y-41457000D02*
X-33767617Y-41361761D01*
X-33767617Y-41361761D02*
X-33862855Y-41171285D01*
X-33862855Y-41171285D02*
X-33862855Y-40599857D01*
X-33862855Y-40599857D02*
X-33767617Y-40409380D01*
X-33767617Y-40409380D02*
X-33672379Y-40314142D01*
X-33672379Y-40314142D02*
X-33481903Y-40218904D01*
X-33481903Y-40218904D02*
X-33100950Y-40218904D01*
X-33100950Y-40218904D02*
X-32910474Y-40314142D01*
X-30624760Y-39457000D02*
X-32339045Y-42028428D01*
X-29958093Y-40218904D02*
X-29958093Y-41552238D01*
X-29958093Y-40409380D02*
X-29862855Y-40314142D01*
X-29862855Y-40314142D02*
X-29672379Y-40218904D01*
X-29672379Y-40218904D02*
X-29386664Y-40218904D01*
X-29386664Y-40218904D02*
X-29196188Y-40314142D01*
X-29196188Y-40314142D02*
X-29100950Y-40504619D01*
X-29100950Y-40504619D02*
X-29100950Y-41552238D01*
X-28148569Y-40790333D02*
X-26624760Y-40790333D01*
X-25958093Y-40218904D02*
X-25196189Y-40218904D01*
X-25672379Y-39552238D02*
X-25672379Y-41266523D01*
X-25672379Y-41266523D02*
X-25577141Y-41457000D01*
X-25577141Y-41457000D02*
X-25386665Y-41552238D01*
X-25386665Y-41552238D02*
X-25196189Y-41552238D01*
X-23767617Y-41457000D02*
X-23958093Y-41552238D01*
X-23958093Y-41552238D02*
X-24339046Y-41552238D01*
X-24339046Y-41552238D02*
X-24529522Y-41457000D01*
X-24529522Y-41457000D02*
X-24624760Y-41266523D01*
X-24624760Y-41266523D02*
X-24624760Y-40504619D01*
X-24624760Y-40504619D02*
X-24529522Y-40314142D01*
X-24529522Y-40314142D02*
X-24339046Y-40218904D01*
X-24339046Y-40218904D02*
X-23958093Y-40218904D01*
X-23958093Y-40218904D02*
X-23767617Y-40314142D01*
X-23767617Y-40314142D02*
X-23672379Y-40504619D01*
X-23672379Y-40504619D02*
X-23672379Y-40695095D01*
X-23672379Y-40695095D02*
X-24624760Y-40885571D01*
X-22529522Y-41552238D02*
X-22719998Y-41457000D01*
X-22719998Y-41457000D02*
X-22815236Y-41266523D01*
X-22815236Y-41266523D02*
X-22815236Y-39552238D01*
X-21481903Y-41552238D02*
X-21672379Y-41457000D01*
X-21672379Y-41457000D02*
X-21767617Y-41266523D01*
X-21767617Y-41266523D02*
X-21767617Y-39552238D01*
X-19958093Y-41457000D02*
X-20148569Y-41552238D01*
X-20148569Y-41552238D02*
X-20529522Y-41552238D01*
X-20529522Y-41552238D02*
X-20719998Y-41457000D01*
X-20719998Y-41457000D02*
X-20815236Y-41266523D01*
X-20815236Y-41266523D02*
X-20815236Y-40504619D01*
X-20815236Y-40504619D02*
X-20719998Y-40314142D01*
X-20719998Y-40314142D02*
X-20529522Y-40218904D01*
X-20529522Y-40218904D02*
X-20148569Y-40218904D01*
X-20148569Y-40218904D02*
X-19958093Y-40314142D01*
X-19958093Y-40314142D02*
X-19862855Y-40504619D01*
X-19862855Y-40504619D02*
X-19862855Y-40695095D01*
X-19862855Y-40695095D02*
X-20815236Y-40885571D01*
X-19005712Y-41552238D02*
X-19005712Y-40218904D01*
X-19005712Y-40599857D02*
X-18910474Y-40409380D01*
X-18910474Y-40409380D02*
X-18815236Y-40314142D01*
X-18815236Y-40314142D02*
X-18624760Y-40218904D01*
X-18624760Y-40218904D02*
X-18434283Y-40218904D01*
X-17767617Y-40790333D02*
X-16243808Y-40790333D01*
X-15481903Y-41552238D02*
X-14434284Y-40218904D01*
X-15481903Y-40218904D02*
X-14434284Y-41552238D01*
X-13386665Y-41552238D02*
X-13577141Y-41457000D01*
X-13577141Y-41457000D02*
X-13672379Y-41266523D01*
X-13672379Y-41266523D02*
X-13672379Y-39552238D01*
X-12624760Y-40790333D02*
X-11100951Y-40790333D01*
X-9291427Y-41552238D02*
X-9291427Y-39552238D01*
X-9291427Y-41457000D02*
X-9481903Y-41552238D01*
X-9481903Y-41552238D02*
X-9862856Y-41552238D01*
X-9862856Y-41552238D02*
X-10053332Y-41457000D01*
X-10053332Y-41457000D02*
X-10148570Y-41361761D01*
X-10148570Y-41361761D02*
X-10243808Y-41171285D01*
X-10243808Y-41171285D02*
X-10243808Y-40599857D01*
X-10243808Y-40599857D02*
X-10148570Y-40409380D01*
X-10148570Y-40409380D02*
X-10053332Y-40314142D01*
X-10053332Y-40314142D02*
X-9862856Y-40218904D01*
X-9862856Y-40218904D02*
X-9481903Y-40218904D01*
X-9481903Y-40218904D02*
X-9291427Y-40314142D01*
X-8339046Y-41552238D02*
X-8339046Y-40218904D01*
X-8339046Y-39552238D02*
X-8434284Y-39647476D01*
X-8434284Y-39647476D02*
X-8339046Y-39742714D01*
X-8339046Y-39742714D02*
X-8243808Y-39647476D01*
X-8243808Y-39647476D02*
X-8339046Y-39552238D01*
X-8339046Y-39552238D02*
X-8339046Y-39742714D01*
X-7577141Y-40218904D02*
X-7100951Y-41552238D01*
X-6624760Y-40218904D02*
X-7100951Y-41552238D01*
X-7100951Y-41552238D02*
X-7291427Y-42028428D01*
X-7291427Y-42028428D02*
X-7386665Y-42123666D01*
X-7386665Y-42123666D02*
X-7577141Y-42218904D01*
X-71767619Y41061095D02*
X-71767619Y39727761D01*
X-71767619Y40870619D02*
X-71672381Y40965857D01*
X-71672381Y40965857D02*
X-71481905Y41061095D01*
X-71481905Y41061095D02*
X-71196190Y41061095D01*
X-71196190Y41061095D02*
X-71005714Y40965857D01*
X-71005714Y40965857D02*
X-70910476Y40775380D01*
X-70910476Y40775380D02*
X-70910476Y39727761D01*
X-69958095Y40489666D02*
X-68434286Y40489666D01*
X-67767619Y41061095D02*
X-67005715Y41061095D01*
X-67481905Y41727761D02*
X-67481905Y40013476D01*
X-67481905Y40013476D02*
X-67386667Y39823000D01*
X-67386667Y39823000D02*
X-67196191Y39727761D01*
X-67196191Y39727761D02*
X-67005715Y39727761D01*
X-65577143Y39823000D02*
X-65767619Y39727761D01*
X-65767619Y39727761D02*
X-66148572Y39727761D01*
X-66148572Y39727761D02*
X-66339048Y39823000D01*
X-66339048Y39823000D02*
X-66434286Y40013476D01*
X-66434286Y40013476D02*
X-66434286Y40775380D01*
X-66434286Y40775380D02*
X-66339048Y40965857D01*
X-66339048Y40965857D02*
X-66148572Y41061095D01*
X-66148572Y41061095D02*
X-65767619Y41061095D01*
X-65767619Y41061095D02*
X-65577143Y40965857D01*
X-65577143Y40965857D02*
X-65481905Y40775380D01*
X-65481905Y40775380D02*
X-65481905Y40584904D01*
X-65481905Y40584904D02*
X-66434286Y40394428D01*
X-64339048Y39727761D02*
X-64529524Y39823000D01*
X-64529524Y39823000D02*
X-64624762Y40013476D01*
X-64624762Y40013476D02*
X-64624762Y41727761D01*
X-63291429Y39727761D02*
X-63481905Y39823000D01*
X-63481905Y39823000D02*
X-63577143Y40013476D01*
X-63577143Y40013476D02*
X-63577143Y41727761D01*
X-61767619Y39823000D02*
X-61958095Y39727761D01*
X-61958095Y39727761D02*
X-62339048Y39727761D01*
X-62339048Y39727761D02*
X-62529524Y39823000D01*
X-62529524Y39823000D02*
X-62624762Y40013476D01*
X-62624762Y40013476D02*
X-62624762Y40775380D01*
X-62624762Y40775380D02*
X-62529524Y40965857D01*
X-62529524Y40965857D02*
X-62339048Y41061095D01*
X-62339048Y41061095D02*
X-61958095Y41061095D01*
X-61958095Y41061095D02*
X-61767619Y40965857D01*
X-61767619Y40965857D02*
X-61672381Y40775380D01*
X-61672381Y40775380D02*
X-61672381Y40584904D01*
X-61672381Y40584904D02*
X-62624762Y40394428D01*
X-60815238Y39727761D02*
X-60815238Y41061095D01*
X-60815238Y40680142D02*
X-60720000Y40870619D01*
X-60720000Y40870619D02*
X-60624762Y40965857D01*
X-60624762Y40965857D02*
X-60434286Y41061095D01*
X-60434286Y41061095D02*
X-60243809Y41061095D01*
X-59577143Y40489666D02*
X-58053334Y40489666D01*
X-57291429Y39727761D02*
X-56243810Y41061095D01*
X-57291429Y41061095D02*
X-56243810Y39727761D01*
X-55196191Y39727761D02*
X-55386667Y39823000D01*
X-55386667Y39823000D02*
X-55481905Y40013476D01*
X-55481905Y40013476D02*
X-55481905Y41727761D01*
X-54434286Y40489666D02*
X-52910477Y40489666D01*
X-51100953Y39727761D02*
X-51100953Y41727761D01*
X-51100953Y39823000D02*
X-51291429Y39727761D01*
X-51291429Y39727761D02*
X-51672382Y39727761D01*
X-51672382Y39727761D02*
X-51862858Y39823000D01*
X-51862858Y39823000D02*
X-51958096Y39918238D01*
X-51958096Y39918238D02*
X-52053334Y40108714D01*
X-52053334Y40108714D02*
X-52053334Y40680142D01*
X-52053334Y40680142D02*
X-51958096Y40870619D01*
X-51958096Y40870619D02*
X-51862858Y40965857D01*
X-51862858Y40965857D02*
X-51672382Y41061095D01*
X-51672382Y41061095D02*
X-51291429Y41061095D01*
X-51291429Y41061095D02*
X-51100953Y40965857D01*
X-50148572Y39727761D02*
X-50148572Y41061095D01*
X-50148572Y41727761D02*
X-50243810Y41632523D01*
X-50243810Y41632523D02*
X-50148572Y41537285D01*
X-50148572Y41537285D02*
X-50053334Y41632523D01*
X-50053334Y41632523D02*
X-50148572Y41727761D01*
X-50148572Y41727761D02*
X-50148572Y41537285D01*
X-49386667Y41061095D02*
X-48910477Y39727761D01*
X-48434286Y41061095D02*
X-48910477Y39727761D01*
X-48910477Y39727761D02*
X-49100953Y39251571D01*
X-49100953Y39251571D02*
X-49196191Y39156333D01*
X-49196191Y39156333D02*
X-49386667Y39061095D01*
X-45100952Y39727761D02*
X-46243809Y39727761D01*
X-45672381Y39727761D02*
X-45672381Y41727761D01*
X-45672381Y41727761D02*
X-45862857Y41442047D01*
X-45862857Y41442047D02*
X-46053333Y41251571D01*
X-46053333Y41251571D02*
X-46243809Y41156333D01*
X-44243809Y39918238D02*
X-44148571Y39823000D01*
X-44148571Y39823000D02*
X-44243809Y39727761D01*
X-44243809Y39727761D02*
X-44339047Y39823000D01*
X-44339047Y39823000D02*
X-44243809Y39918238D01*
X-44243809Y39918238D02*
X-44243809Y39727761D01*
X-42910476Y41727761D02*
X-42719999Y41727761D01*
X-42719999Y41727761D02*
X-42529523Y41632523D01*
X-42529523Y41632523D02*
X-42434285Y41537285D01*
X-42434285Y41537285D02*
X-42339047Y41346809D01*
X-42339047Y41346809D02*
X-42243809Y40965857D01*
X-42243809Y40965857D02*
X-42243809Y40489666D01*
X-42243809Y40489666D02*
X-42339047Y40108714D01*
X-42339047Y40108714D02*
X-42434285Y39918238D01*
X-42434285Y39918238D02*
X-42529523Y39823000D01*
X-42529523Y39823000D02*
X-42719999Y39727761D01*
X-42719999Y39727761D02*
X-42910476Y39727761D01*
X-42910476Y39727761D02*
X-43100952Y39823000D01*
X-43100952Y39823000D02*
X-43196190Y39918238D01*
X-43196190Y39918238D02*
X-43291428Y40108714D01*
X-43291428Y40108714D02*
X-43386666Y40489666D01*
X-43386666Y40489666D02*
X-43386666Y40965857D01*
X-43386666Y40965857D02*
X-43291428Y41346809D01*
X-43291428Y41346809D02*
X-43196190Y41537285D01*
X-43196190Y41537285D02*
X-43100952Y41632523D01*
X-43100952Y41632523D02*
X-42910476Y41727761D01*
X-41291428Y39823000D02*
X-41291428Y39727761D01*
X-41291428Y39727761D02*
X-41386666Y39537285D01*
X-41386666Y39537285D02*
X-41481904Y39442047D01*
X-39005713Y41537285D02*
X-38910475Y41632523D01*
X-38910475Y41632523D02*
X-38719999Y41727761D01*
X-38719999Y41727761D02*
X-38243808Y41727761D01*
X-38243808Y41727761D02*
X-38053332Y41632523D01*
X-38053332Y41632523D02*
X-37958094Y41537285D01*
X-37958094Y41537285D02*
X-37862856Y41346809D01*
X-37862856Y41346809D02*
X-37862856Y41156333D01*
X-37862856Y41156333D02*
X-37958094Y40870619D01*
X-37958094Y40870619D02*
X-39100951Y39727761D01*
X-39100951Y39727761D02*
X-37862856Y39727761D01*
X-36624761Y41727761D02*
X-36434284Y41727761D01*
X-36434284Y41727761D02*
X-36243808Y41632523D01*
X-36243808Y41632523D02*
X-36148570Y41537285D01*
X-36148570Y41537285D02*
X-36053332Y41346809D01*
X-36053332Y41346809D02*
X-35958094Y40965857D01*
X-35958094Y40965857D02*
X-35958094Y40489666D01*
X-35958094Y40489666D02*
X-36053332Y40108714D01*
X-36053332Y40108714D02*
X-36148570Y39918238D01*
X-36148570Y39918238D02*
X-36243808Y39823000D01*
X-36243808Y39823000D02*
X-36434284Y39727761D01*
X-36434284Y39727761D02*
X-36624761Y39727761D01*
X-36624761Y39727761D02*
X-36815237Y39823000D01*
X-36815237Y39823000D02*
X-36910475Y39918238D01*
X-36910475Y39918238D02*
X-37005713Y40108714D01*
X-37005713Y40108714D02*
X-37100951Y40489666D01*
X-37100951Y40489666D02*
X-37100951Y40965857D01*
X-37100951Y40965857D02*
X-37005713Y41346809D01*
X-37005713Y41346809D02*
X-36910475Y41537285D01*
X-36910475Y41537285D02*
X-36815237Y41632523D01*
X-36815237Y41632523D02*
X-36624761Y41727761D01*
X-35196189Y41537285D02*
X-35100951Y41632523D01*
X-35100951Y41632523D02*
X-34910475Y41727761D01*
X-34910475Y41727761D02*
X-34434284Y41727761D01*
X-34434284Y41727761D02*
X-34243808Y41632523D01*
X-34243808Y41632523D02*
X-34148570Y41537285D01*
X-34148570Y41537285D02*
X-34053332Y41346809D01*
X-34053332Y41346809D02*
X-34053332Y41156333D01*
X-34053332Y41156333D02*
X-34148570Y40870619D01*
X-34148570Y40870619D02*
X-35291427Y39727761D01*
X-35291427Y39727761D02*
X-34053332Y39727761D01*
X-32243808Y41727761D02*
X-33196189Y41727761D01*
X-33196189Y41727761D02*
X-33291427Y40775380D01*
X-33291427Y40775380D02*
X-33196189Y40870619D01*
X-33196189Y40870619D02*
X-33005713Y40965857D01*
X-33005713Y40965857D02*
X-32529522Y40965857D01*
X-32529522Y40965857D02*
X-32339046Y40870619D01*
X-32339046Y40870619D02*
X-32243808Y40775380D01*
X-32243808Y40775380D02*
X-32148570Y40584904D01*
X-32148570Y40584904D02*
X-32148570Y40108714D01*
X-32148570Y40108714D02*
X-32243808Y39918238D01*
X-32243808Y39918238D02*
X-32339046Y39823000D01*
X-32339046Y39823000D02*
X-32529522Y39727761D01*
X-32529522Y39727761D02*
X-33005713Y39727761D01*
X-33005713Y39727761D02*
X-33196189Y39823000D01*
X-33196189Y39823000D02*
X-33291427Y39918238D01*
X-31291427Y40489666D02*
X-29767618Y40489666D01*
X-28434285Y41727761D02*
X-28243808Y41727761D01*
X-28243808Y41727761D02*
X-28053332Y41632523D01*
X-28053332Y41632523D02*
X-27958094Y41537285D01*
X-27958094Y41537285D02*
X-27862856Y41346809D01*
X-27862856Y41346809D02*
X-27767618Y40965857D01*
X-27767618Y40965857D02*
X-27767618Y40489666D01*
X-27767618Y40489666D02*
X-27862856Y40108714D01*
X-27862856Y40108714D02*
X-27958094Y39918238D01*
X-27958094Y39918238D02*
X-28053332Y39823000D01*
X-28053332Y39823000D02*
X-28243808Y39727761D01*
X-28243808Y39727761D02*
X-28434285Y39727761D01*
X-28434285Y39727761D02*
X-28624761Y39823000D01*
X-28624761Y39823000D02*
X-28719999Y39918238D01*
X-28719999Y39918238D02*
X-28815237Y40108714D01*
X-28815237Y40108714D02*
X-28910475Y40489666D01*
X-28910475Y40489666D02*
X-28910475Y40965857D01*
X-28910475Y40965857D02*
X-28815237Y41346809D01*
X-28815237Y41346809D02*
X-28719999Y41537285D01*
X-28719999Y41537285D02*
X-28624761Y41632523D01*
X-28624761Y41632523D02*
X-28434285Y41727761D01*
X-26815237Y39727761D02*
X-26434285Y39727761D01*
X-26434285Y39727761D02*
X-26243808Y39823000D01*
X-26243808Y39823000D02*
X-26148570Y39918238D01*
X-26148570Y39918238D02*
X-25958094Y40203952D01*
X-25958094Y40203952D02*
X-25862856Y40584904D01*
X-25862856Y40584904D02*
X-25862856Y41346809D01*
X-25862856Y41346809D02*
X-25958094Y41537285D01*
X-25958094Y41537285D02*
X-26053332Y41632523D01*
X-26053332Y41632523D02*
X-26243808Y41727761D01*
X-26243808Y41727761D02*
X-26624761Y41727761D01*
X-26624761Y41727761D02*
X-26815237Y41632523D01*
X-26815237Y41632523D02*
X-26910475Y41537285D01*
X-26910475Y41537285D02*
X-27005713Y41346809D01*
X-27005713Y41346809D02*
X-27005713Y40870619D01*
X-27005713Y40870619D02*
X-26910475Y40680142D01*
X-26910475Y40680142D02*
X-26815237Y40584904D01*
X-26815237Y40584904D02*
X-26624761Y40489666D01*
X-26624761Y40489666D02*
X-26243808Y40489666D01*
X-26243808Y40489666D02*
X-26053332Y40584904D01*
X-26053332Y40584904D02*
X-25958094Y40680142D01*
X-25958094Y40680142D02*
X-25862856Y40870619D01*
X-25005713Y40489666D02*
X-23481904Y40489666D01*
X-22148571Y41727761D02*
X-21958094Y41727761D01*
X-21958094Y41727761D02*
X-21767618Y41632523D01*
X-21767618Y41632523D02*
X-21672380Y41537285D01*
X-21672380Y41537285D02*
X-21577142Y41346809D01*
X-21577142Y41346809D02*
X-21481904Y40965857D01*
X-21481904Y40965857D02*
X-21481904Y40489666D01*
X-21481904Y40489666D02*
X-21577142Y40108714D01*
X-21577142Y40108714D02*
X-21672380Y39918238D01*
X-21672380Y39918238D02*
X-21767618Y39823000D01*
X-21767618Y39823000D02*
X-21958094Y39727761D01*
X-21958094Y39727761D02*
X-22148571Y39727761D01*
X-22148571Y39727761D02*
X-22339047Y39823000D01*
X-22339047Y39823000D02*
X-22434285Y39918238D01*
X-22434285Y39918238D02*
X-22529523Y40108714D01*
X-22529523Y40108714D02*
X-22624761Y40489666D01*
X-22624761Y40489666D02*
X-22624761Y40965857D01*
X-22624761Y40965857D02*
X-22529523Y41346809D01*
X-22529523Y41346809D02*
X-22434285Y41537285D01*
X-22434285Y41537285D02*
X-22339047Y41632523D01*
X-22339047Y41632523D02*
X-22148571Y41727761D01*
X-19577142Y39727761D02*
X-20719999Y39727761D01*
X-20148571Y39727761D02*
X-20148571Y41727761D01*
X-20148571Y41727761D02*
X-20339047Y41442047D01*
X-20339047Y41442047D02*
X-20529523Y41251571D01*
X-20529523Y41251571D02*
X-20719999Y41156333D01*
X28799045Y40299190D02*
X29751426Y40299190D01*
X28608569Y39727761D02*
X29275235Y41727761D01*
X29275235Y41727761D02*
X29941902Y39727761D01*
X30608569Y41061095D02*
X30608569Y39061095D01*
X30608569Y40965857D02*
X30799045Y41061095D01*
X30799045Y41061095D02*
X31179998Y41061095D01*
X31179998Y41061095D02*
X31370474Y40965857D01*
X31370474Y40965857D02*
X31465712Y40870619D01*
X31465712Y40870619D02*
X31560950Y40680142D01*
X31560950Y40680142D02*
X31560950Y40108714D01*
X31560950Y40108714D02*
X31465712Y39918238D01*
X31465712Y39918238D02*
X31370474Y39823000D01*
X31370474Y39823000D02*
X31179998Y39727761D01*
X31179998Y39727761D02*
X30799045Y39727761D01*
X30799045Y39727761D02*
X30608569Y39823000D01*
X33275236Y39727761D02*
X33275236Y40775380D01*
X33275236Y40775380D02*
X33179998Y40965857D01*
X33179998Y40965857D02*
X32989522Y41061095D01*
X32989522Y41061095D02*
X32608569Y41061095D01*
X32608569Y41061095D02*
X32418093Y40965857D01*
X33275236Y39823000D02*
X33084760Y39727761D01*
X33084760Y39727761D02*
X32608569Y39727761D01*
X32608569Y39727761D02*
X32418093Y39823000D01*
X32418093Y39823000D02*
X32322855Y40013476D01*
X32322855Y40013476D02*
X32322855Y40203952D01*
X32322855Y40203952D02*
X32418093Y40394428D01*
X32418093Y40394428D02*
X32608569Y40489666D01*
X32608569Y40489666D02*
X33084760Y40489666D01*
X33084760Y40489666D02*
X33275236Y40584904D01*
X35084760Y39823000D02*
X34894284Y39727761D01*
X34894284Y39727761D02*
X34513331Y39727761D01*
X34513331Y39727761D02*
X34322855Y39823000D01*
X34322855Y39823000D02*
X34227617Y39918238D01*
X34227617Y39918238D02*
X34132379Y40108714D01*
X34132379Y40108714D02*
X34132379Y40680142D01*
X34132379Y40680142D02*
X34227617Y40870619D01*
X34227617Y40870619D02*
X34322855Y40965857D01*
X34322855Y40965857D02*
X34513331Y41061095D01*
X34513331Y41061095D02*
X34894284Y41061095D01*
X34894284Y41061095D02*
X35084760Y40965857D01*
X35941903Y39727761D02*
X35941903Y41727761D01*
X36799046Y39727761D02*
X36799046Y40775380D01*
X36799046Y40775380D02*
X36703808Y40965857D01*
X36703808Y40965857D02*
X36513332Y41061095D01*
X36513332Y41061095D02*
X36227617Y41061095D01*
X36227617Y41061095D02*
X36037141Y40965857D01*
X36037141Y40965857D02*
X35941903Y40870619D01*
X38513332Y39823000D02*
X38322856Y39727761D01*
X38322856Y39727761D02*
X37941903Y39727761D01*
X37941903Y39727761D02*
X37751427Y39823000D01*
X37751427Y39823000D02*
X37656189Y40013476D01*
X37656189Y40013476D02*
X37656189Y40775380D01*
X37656189Y40775380D02*
X37751427Y40965857D01*
X37751427Y40965857D02*
X37941903Y41061095D01*
X37941903Y41061095D02*
X38322856Y41061095D01*
X38322856Y41061095D02*
X38513332Y40965857D01*
X38513332Y40965857D02*
X38608570Y40775380D01*
X38608570Y40775380D02*
X38608570Y40584904D01*
X38608570Y40584904D02*
X37656189Y40394428D01*
X41941904Y39727761D02*
X40989523Y39727761D01*
X40989523Y39727761D02*
X40989523Y41727761D01*
X42608571Y39727761D02*
X42608571Y41061095D01*
X42608571Y41727761D02*
X42513333Y41632523D01*
X42513333Y41632523D02*
X42608571Y41537285D01*
X42608571Y41537285D02*
X42703809Y41632523D01*
X42703809Y41632523D02*
X42608571Y41727761D01*
X42608571Y41727761D02*
X42608571Y41537285D01*
X44418095Y39823000D02*
X44227619Y39727761D01*
X44227619Y39727761D02*
X43846666Y39727761D01*
X43846666Y39727761D02*
X43656190Y39823000D01*
X43656190Y39823000D02*
X43560952Y39918238D01*
X43560952Y39918238D02*
X43465714Y40108714D01*
X43465714Y40108714D02*
X43465714Y40680142D01*
X43465714Y40680142D02*
X43560952Y40870619D01*
X43560952Y40870619D02*
X43656190Y40965857D01*
X43656190Y40965857D02*
X43846666Y41061095D01*
X43846666Y41061095D02*
X44227619Y41061095D01*
X44227619Y41061095D02*
X44418095Y40965857D01*
X46037143Y39823000D02*
X45846667Y39727761D01*
X45846667Y39727761D02*
X45465714Y39727761D01*
X45465714Y39727761D02*
X45275238Y39823000D01*
X45275238Y39823000D02*
X45180000Y40013476D01*
X45180000Y40013476D02*
X45180000Y40775380D01*
X45180000Y40775380D02*
X45275238Y40965857D01*
X45275238Y40965857D02*
X45465714Y41061095D01*
X45465714Y41061095D02*
X45846667Y41061095D01*
X45846667Y41061095D02*
X46037143Y40965857D01*
X46037143Y40965857D02*
X46132381Y40775380D01*
X46132381Y40775380D02*
X46132381Y40584904D01*
X46132381Y40584904D02*
X45180000Y40394428D01*
X46989524Y41061095D02*
X46989524Y39727761D01*
X46989524Y40870619D02*
X47084762Y40965857D01*
X47084762Y40965857D02*
X47275238Y41061095D01*
X47275238Y41061095D02*
X47560953Y41061095D01*
X47560953Y41061095D02*
X47751429Y40965857D01*
X47751429Y40965857D02*
X47846667Y40775380D01*
X47846667Y40775380D02*
X47846667Y39727761D01*
X48703810Y39823000D02*
X48894286Y39727761D01*
X48894286Y39727761D02*
X49275238Y39727761D01*
X49275238Y39727761D02*
X49465715Y39823000D01*
X49465715Y39823000D02*
X49560953Y40013476D01*
X49560953Y40013476D02*
X49560953Y40108714D01*
X49560953Y40108714D02*
X49465715Y40299190D01*
X49465715Y40299190D02*
X49275238Y40394428D01*
X49275238Y40394428D02*
X48989524Y40394428D01*
X48989524Y40394428D02*
X48799048Y40489666D01*
X48799048Y40489666D02*
X48703810Y40680142D01*
X48703810Y40680142D02*
X48703810Y40775380D01*
X48703810Y40775380D02*
X48799048Y40965857D01*
X48799048Y40965857D02*
X48989524Y41061095D01*
X48989524Y41061095D02*
X49275238Y41061095D01*
X49275238Y41061095D02*
X49465715Y40965857D01*
X51180001Y39823000D02*
X50989525Y39727761D01*
X50989525Y39727761D02*
X50608572Y39727761D01*
X50608572Y39727761D02*
X50418096Y39823000D01*
X50418096Y39823000D02*
X50322858Y40013476D01*
X50322858Y40013476D02*
X50322858Y40775380D01*
X50322858Y40775380D02*
X50418096Y40965857D01*
X50418096Y40965857D02*
X50608572Y41061095D01*
X50608572Y41061095D02*
X50989525Y41061095D01*
X50989525Y41061095D02*
X51180001Y40965857D01*
X51180001Y40965857D02*
X51275239Y40775380D01*
X51275239Y40775380D02*
X51275239Y40584904D01*
X51275239Y40584904D02*
X50322858Y40394428D01*
X53560954Y41537285D02*
X53656192Y41632523D01*
X53656192Y41632523D02*
X53846668Y41727761D01*
X53846668Y41727761D02*
X54322859Y41727761D01*
X54322859Y41727761D02*
X54513335Y41632523D01*
X54513335Y41632523D02*
X54608573Y41537285D01*
X54608573Y41537285D02*
X54703811Y41346809D01*
X54703811Y41346809D02*
X54703811Y41156333D01*
X54703811Y41156333D02*
X54608573Y40870619D01*
X54608573Y40870619D02*
X53465716Y39727761D01*
X53465716Y39727761D02*
X54703811Y39727761D01*
X55560954Y39918238D02*
X55656192Y39823000D01*
X55656192Y39823000D02*
X55560954Y39727761D01*
X55560954Y39727761D02*
X55465716Y39823000D01*
X55465716Y39823000D02*
X55560954Y39918238D01*
X55560954Y39918238D02*
X55560954Y39727761D01*
X56894287Y41727761D02*
X57084764Y41727761D01*
X57084764Y41727761D02*
X57275240Y41632523D01*
X57275240Y41632523D02*
X57370478Y41537285D01*
X57370478Y41537285D02*
X57465716Y41346809D01*
X57465716Y41346809D02*
X57560954Y40965857D01*
X57560954Y40965857D02*
X57560954Y40489666D01*
X57560954Y40489666D02*
X57465716Y40108714D01*
X57465716Y40108714D02*
X57370478Y39918238D01*
X57370478Y39918238D02*
X57275240Y39823000D01*
X57275240Y39823000D02*
X57084764Y39727761D01*
X57084764Y39727761D02*
X56894287Y39727761D01*
X56894287Y39727761D02*
X56703811Y39823000D01*
X56703811Y39823000D02*
X56608573Y39918238D01*
X56608573Y39918238D02*
X56513335Y40108714D01*
X56513335Y40108714D02*
X56418097Y40489666D01*
X56418097Y40489666D02*
X56418097Y40965857D01*
X56418097Y40965857D02*
X56513335Y41346809D01*
X56513335Y41346809D02*
X56608573Y41537285D01*
X56608573Y41537285D02*
X56703811Y41632523D01*
X56703811Y41632523D02*
X56894287Y41727761D01*
D11*
X-87804523Y32427580D02*
X-87804523Y33427580D01*
X-87804523Y33427580D02*
X-87471190Y32713295D01*
X-87471190Y32713295D02*
X-87137857Y33427580D01*
X-87137857Y33427580D02*
X-87137857Y32427580D01*
X-86233095Y33094247D02*
X-86233095Y32427580D01*
X-86471190Y33475200D02*
X-86709285Y32760914D01*
X-86709285Y32760914D02*
X-86090238Y32760914D01*
D12*
X121102905Y5207493D02*
X121102905Y6207493D01*
X121102905Y6207493D02*
X121341000Y6207493D01*
X121341000Y6207493D02*
X121483857Y6159874D01*
X121483857Y6159874D02*
X121579095Y6064636D01*
X121579095Y6064636D02*
X121626714Y5969398D01*
X121626714Y5969398D02*
X121674333Y5778922D01*
X121674333Y5778922D02*
X121674333Y5636065D01*
X121674333Y5636065D02*
X121626714Y5445589D01*
X121626714Y5445589D02*
X121579095Y5350351D01*
X121579095Y5350351D02*
X121483857Y5255113D01*
X121483857Y5255113D02*
X121341000Y5207493D01*
X121341000Y5207493D02*
X121102905Y5207493D01*
X122579095Y6207493D02*
X122102905Y6207493D01*
X122102905Y6207493D02*
X122055286Y5731303D01*
X122055286Y5731303D02*
X122102905Y5778922D01*
X122102905Y5778922D02*
X122198143Y5826541D01*
X122198143Y5826541D02*
X122436238Y5826541D01*
X122436238Y5826541D02*
X122531476Y5778922D01*
X122531476Y5778922D02*
X122579095Y5731303D01*
X122579095Y5731303D02*
X122626714Y5636065D01*
X122626714Y5636065D02*
X122626714Y5397970D01*
X122626714Y5397970D02*
X122579095Y5302732D01*
X122579095Y5302732D02*
X122531476Y5255113D01*
X122531476Y5255113D02*
X122436238Y5207493D01*
X122436238Y5207493D02*
X122198143Y5207493D01*
X122198143Y5207493D02*
X122102905Y5255113D01*
X122102905Y5255113D02*
X122055286Y5302732D01*
X98893333Y-19409580D02*
X98845714Y-19457200D01*
X98845714Y-19457200D02*
X98702857Y-19504819D01*
X98702857Y-19504819D02*
X98607619Y-19504819D01*
X98607619Y-19504819D02*
X98464762Y-19457200D01*
X98464762Y-19457200D02*
X98369524Y-19361961D01*
X98369524Y-19361961D02*
X98321905Y-19266723D01*
X98321905Y-19266723D02*
X98274286Y-19076247D01*
X98274286Y-19076247D02*
X98274286Y-18933390D01*
X98274286Y-18933390D02*
X98321905Y-18742914D01*
X98321905Y-18742914D02*
X98369524Y-18647676D01*
X98369524Y-18647676D02*
X98464762Y-18552438D01*
X98464762Y-18552438D02*
X98607619Y-18504819D01*
X98607619Y-18504819D02*
X98702857Y-18504819D01*
X98702857Y-18504819D02*
X98845714Y-18552438D01*
X98845714Y-18552438D02*
X98893333Y-18600057D01*
X99845714Y-19504819D02*
X99274286Y-19504819D01*
X99560000Y-19504819D02*
X99560000Y-18504819D01*
X99560000Y-18504819D02*
X99464762Y-18647676D01*
X99464762Y-18647676D02*
X99369524Y-18742914D01*
X99369524Y-18742914D02*
X99274286Y-18790533D01*
X122112333Y-4468506D02*
X121779000Y-3992315D01*
X121540905Y-4468506D02*
X121540905Y-3468506D01*
X121540905Y-3468506D02*
X121921857Y-3468506D01*
X121921857Y-3468506D02*
X122017095Y-3516125D01*
X122017095Y-3516125D02*
X122064714Y-3563744D01*
X122064714Y-3563744D02*
X122112333Y-3658982D01*
X122112333Y-3658982D02*
X122112333Y-3801839D01*
X122112333Y-3801839D02*
X122064714Y-3897077D01*
X122064714Y-3897077D02*
X122017095Y-3944696D01*
X122017095Y-3944696D02*
X121921857Y-3992315D01*
X121921857Y-3992315D02*
X121540905Y-3992315D01*
X123064714Y-4468506D02*
X122493286Y-4468506D01*
X122779000Y-4468506D02*
X122779000Y-3468506D01*
X122779000Y-3468506D02*
X122683762Y-3611363D01*
X122683762Y-3611363D02*
X122588524Y-3706601D01*
X122588524Y-3706601D02*
X122493286Y-3754220D01*
X124807200Y-7652332D02*
X124854819Y-7509475D01*
X124854819Y-7509475D02*
X124854819Y-7271380D01*
X124854819Y-7271380D02*
X124807200Y-7176142D01*
X124807200Y-7176142D02*
X124759580Y-7128523D01*
X124759580Y-7128523D02*
X124664342Y-7080904D01*
X124664342Y-7080904D02*
X124569104Y-7080904D01*
X124569104Y-7080904D02*
X124473866Y-7128523D01*
X124473866Y-7128523D02*
X124426247Y-7176142D01*
X124426247Y-7176142D02*
X124378628Y-7271380D01*
X124378628Y-7271380D02*
X124331009Y-7461856D01*
X124331009Y-7461856D02*
X124283390Y-7557094D01*
X124283390Y-7557094D02*
X124235771Y-7604713D01*
X124235771Y-7604713D02*
X124140533Y-7652332D01*
X124140533Y-7652332D02*
X124045295Y-7652332D01*
X124045295Y-7652332D02*
X123950057Y-7604713D01*
X123950057Y-7604713D02*
X123902438Y-7557094D01*
X123902438Y-7557094D02*
X123854819Y-7461856D01*
X123854819Y-7461856D02*
X123854819Y-7223761D01*
X123854819Y-7223761D02*
X123902438Y-7080904D01*
X123854819Y-6747570D02*
X124854819Y-6509475D01*
X124854819Y-6509475D02*
X124140533Y-6318999D01*
X124140533Y-6318999D02*
X124854819Y-6128523D01*
X124854819Y-6128523D02*
X123854819Y-5890428D01*
X124854819Y-4985666D02*
X124854819Y-5557094D01*
X124854819Y-5271380D02*
X123854819Y-5271380D01*
X123854819Y-5271380D02*
X123997676Y-5366618D01*
X123997676Y-5366618D02*
X124092914Y-5461856D01*
X124092914Y-5461856D02*
X124140533Y-5557094D01*
X104697095Y1757867D02*
X104697095Y948344D01*
X104697095Y948344D02*
X104744714Y853106D01*
X104744714Y853106D02*
X104792333Y805487D01*
X104792333Y805487D02*
X104887571Y757867D01*
X104887571Y757867D02*
X105078047Y757867D01*
X105078047Y757867D02*
X105173285Y805487D01*
X105173285Y805487D02*
X105220904Y853106D01*
X105220904Y853106D02*
X105268523Y948344D01*
X105268523Y948344D02*
X105268523Y1757867D01*
X106268523Y757867D02*
X105697095Y757867D01*
X105982809Y757867D02*
X105982809Y1757867D01*
X105982809Y1757867D02*
X105887571Y1615010D01*
X105887571Y1615010D02*
X105792333Y1519772D01*
X105792333Y1519772D02*
X105697095Y1472153D01*
D11*
X9350476Y31792580D02*
X9350476Y32792580D01*
X9350476Y32792580D02*
X9683809Y32078295D01*
X9683809Y32078295D02*
X10017142Y32792580D01*
X10017142Y32792580D02*
X10017142Y31792580D01*
X10445714Y32697342D02*
X10493333Y32744961D01*
X10493333Y32744961D02*
X10588571Y32792580D01*
X10588571Y32792580D02*
X10826666Y32792580D01*
X10826666Y32792580D02*
X10921904Y32744961D01*
X10921904Y32744961D02*
X10969523Y32697342D01*
X10969523Y32697342D02*
X11017142Y32602104D01*
X11017142Y32602104D02*
X11017142Y32506866D01*
X11017142Y32506866D02*
X10969523Y32364009D01*
X10969523Y32364009D02*
X10398095Y31792580D01*
X10398095Y31792580D02*
X11017142Y31792580D01*
D12*
X113499095Y21267493D02*
X113499095Y20457970D01*
X113499095Y20457970D02*
X113546714Y20362732D01*
X113546714Y20362732D02*
X113594333Y20315113D01*
X113594333Y20315113D02*
X113689571Y20267493D01*
X113689571Y20267493D02*
X113880047Y20267493D01*
X113880047Y20267493D02*
X113975285Y20315113D01*
X113975285Y20315113D02*
X114022904Y20362732D01*
X114022904Y20362732D02*
X114070523Y20457970D01*
X114070523Y20457970D02*
X114070523Y21267493D01*
X114499095Y21172255D02*
X114546714Y21219874D01*
X114546714Y21219874D02*
X114641952Y21267493D01*
X114641952Y21267493D02*
X114880047Y21267493D01*
X114880047Y21267493D02*
X114975285Y21219874D01*
X114975285Y21219874D02*
X115022904Y21172255D01*
X115022904Y21172255D02*
X115070523Y21077017D01*
X115070523Y21077017D02*
X115070523Y20981779D01*
X115070523Y20981779D02*
X115022904Y20838922D01*
X115022904Y20838922D02*
X114451476Y20267493D01*
X114451476Y20267493D02*
X115070523Y20267493D01*
D11*
X57229476Y31919580D02*
X57229476Y32919580D01*
X57229476Y32919580D02*
X57562809Y32205295D01*
X57562809Y32205295D02*
X57896142Y32919580D01*
X57896142Y32919580D02*
X57896142Y31919580D01*
X58896142Y31919580D02*
X58324714Y31919580D01*
X58610428Y31919580D02*
X58610428Y32919580D01*
X58610428Y32919580D02*
X58515190Y32776723D01*
X58515190Y32776723D02*
X58419952Y32681485D01*
X58419952Y32681485D02*
X58324714Y32633866D01*
D12*
X98893333Y-33379580D02*
X98845714Y-33427200D01*
X98845714Y-33427200D02*
X98702857Y-33474819D01*
X98702857Y-33474819D02*
X98607619Y-33474819D01*
X98607619Y-33474819D02*
X98464762Y-33427200D01*
X98464762Y-33427200D02*
X98369524Y-33331961D01*
X98369524Y-33331961D02*
X98321905Y-33236723D01*
X98321905Y-33236723D02*
X98274286Y-33046247D01*
X98274286Y-33046247D02*
X98274286Y-32903390D01*
X98274286Y-32903390D02*
X98321905Y-32712914D01*
X98321905Y-32712914D02*
X98369524Y-32617676D01*
X98369524Y-32617676D02*
X98464762Y-32522438D01*
X98464762Y-32522438D02*
X98607619Y-32474819D01*
X98607619Y-32474819D02*
X98702857Y-32474819D01*
X98702857Y-32474819D02*
X98845714Y-32522438D01*
X98845714Y-32522438D02*
X98893333Y-32570057D01*
X99274286Y-32570057D02*
X99321905Y-32522438D01*
X99321905Y-32522438D02*
X99417143Y-32474819D01*
X99417143Y-32474819D02*
X99655238Y-32474819D01*
X99655238Y-32474819D02*
X99750476Y-32522438D01*
X99750476Y-32522438D02*
X99798095Y-32570057D01*
X99798095Y-32570057D02*
X99845714Y-32665295D01*
X99845714Y-32665295D02*
X99845714Y-32760533D01*
X99845714Y-32760533D02*
X99798095Y-32903390D01*
X99798095Y-32903390D02*
X99226667Y-33474819D01*
X99226667Y-33474819D02*
X99845714Y-33474819D01*
X113721142Y5809106D02*
X113673523Y5761487D01*
X113673523Y5761487D02*
X113530666Y5713867D01*
X113530666Y5713867D02*
X113435428Y5713867D01*
X113435428Y5713867D02*
X113292571Y5761487D01*
X113292571Y5761487D02*
X113197333Y5856725D01*
X113197333Y5856725D02*
X113149714Y5951963D01*
X113149714Y5951963D02*
X113102095Y6142439D01*
X113102095Y6142439D02*
X113102095Y6285296D01*
X113102095Y6285296D02*
X113149714Y6475772D01*
X113149714Y6475772D02*
X113197333Y6571010D01*
X113197333Y6571010D02*
X113292571Y6666248D01*
X113292571Y6666248D02*
X113435428Y6713867D01*
X113435428Y6713867D02*
X113530666Y6713867D01*
X113530666Y6713867D02*
X113673523Y6666248D01*
X113673523Y6666248D02*
X113721142Y6618629D01*
X114673523Y5713867D02*
X114102095Y5713867D01*
X114387809Y5713867D02*
X114387809Y6713867D01*
X114387809Y6713867D02*
X114292571Y6571010D01*
X114292571Y6571010D02*
X114197333Y6475772D01*
X114197333Y6475772D02*
X114102095Y6428153D01*
X115244952Y6285296D02*
X115149714Y6332915D01*
X115149714Y6332915D02*
X115102095Y6380534D01*
X115102095Y6380534D02*
X115054476Y6475772D01*
X115054476Y6475772D02*
X115054476Y6523391D01*
X115054476Y6523391D02*
X115102095Y6618629D01*
X115102095Y6618629D02*
X115149714Y6666248D01*
X115149714Y6666248D02*
X115244952Y6713867D01*
X115244952Y6713867D02*
X115435428Y6713867D01*
X115435428Y6713867D02*
X115530666Y6666248D01*
X115530666Y6666248D02*
X115578285Y6618629D01*
X115578285Y6618629D02*
X115625904Y6523391D01*
X115625904Y6523391D02*
X115625904Y6475772D01*
X115625904Y6475772D02*
X115578285Y6380534D01*
X115578285Y6380534D02*
X115530666Y6332915D01*
X115530666Y6332915D02*
X115435428Y6285296D01*
X115435428Y6285296D02*
X115244952Y6285296D01*
X115244952Y6285296D02*
X115149714Y6237677D01*
X115149714Y6237677D02*
X115102095Y6190058D01*
X115102095Y6190058D02*
X115054476Y6094820D01*
X115054476Y6094820D02*
X115054476Y5904344D01*
X115054476Y5904344D02*
X115102095Y5809106D01*
X115102095Y5809106D02*
X115149714Y5761487D01*
X115149714Y5761487D02*
X115244952Y5713867D01*
X115244952Y5713867D02*
X115435428Y5713867D01*
X115435428Y5713867D02*
X115530666Y5761487D01*
X115530666Y5761487D02*
X115578285Y5809106D01*
X115578285Y5809106D02*
X115625904Y5904344D01*
X115625904Y5904344D02*
X115625904Y6094820D01*
X115625904Y6094820D02*
X115578285Y6190058D01*
X115578285Y6190058D02*
X115530666Y6237677D01*
X115530666Y6237677D02*
X115435428Y6285296D01*
D11*
X-39544523Y31792580D02*
X-39544523Y32792580D01*
X-39544523Y32792580D02*
X-39211190Y32078295D01*
X-39211190Y32078295D02*
X-38877857Y32792580D01*
X-38877857Y32792580D02*
X-38877857Y31792580D01*
X-38496904Y32792580D02*
X-37877857Y32792580D01*
X-37877857Y32792580D02*
X-38211190Y32411628D01*
X-38211190Y32411628D02*
X-38068333Y32411628D01*
X-38068333Y32411628D02*
X-37973095Y32364009D01*
X-37973095Y32364009D02*
X-37925476Y32316390D01*
X-37925476Y32316390D02*
X-37877857Y32221152D01*
X-37877857Y32221152D02*
X-37877857Y31983057D01*
X-37877857Y31983057D02*
X-37925476Y31887819D01*
X-37925476Y31887819D02*
X-37973095Y31840200D01*
X-37973095Y31840200D02*
X-38068333Y31792580D01*
X-38068333Y31792580D02*
X-38354047Y31792580D01*
X-38354047Y31792580D02*
X-38449285Y31840200D01*
X-38449285Y31840200D02*
X-38496904Y31887819D01*
D12*
X113715819Y15549666D02*
X114430104Y15549666D01*
X114430104Y15549666D02*
X114572961Y15502047D01*
X114572961Y15502047D02*
X114668200Y15406809D01*
X114668200Y15406809D02*
X114715819Y15263952D01*
X114715819Y15263952D02*
X114715819Y15168714D01*
X114715819Y16025857D02*
X113715819Y16025857D01*
X113715819Y16025857D02*
X113715819Y16406809D01*
X113715819Y16406809D02*
X113763438Y16502047D01*
X113763438Y16502047D02*
X113811057Y16549666D01*
X113811057Y16549666D02*
X113906295Y16597285D01*
X113906295Y16597285D02*
X114049152Y16597285D01*
X114049152Y16597285D02*
X114144390Y16549666D01*
X114144390Y16549666D02*
X114192009Y16502047D01*
X114192009Y16502047D02*
X114239628Y16406809D01*
X114239628Y16406809D02*
X114239628Y16025857D01*
X114715819Y17549666D02*
X114715819Y16978238D01*
X114715819Y17263952D02*
X113715819Y17263952D01*
X113715819Y17263952D02*
X113858676Y17168714D01*
X113858676Y17168714D02*
X113953914Y17073476D01*
X113953914Y17073476D02*
X114001533Y16978238D01*
D13*
%TO.C,M4*%
X-96290000Y34850000D02*
X-96290000Y-34850000D01*
X-96290000Y-34850000D02*
X-48490000Y-34850000D01*
X-89223948Y-3595299D02*
X-92459484Y-21944935D01*
X-89223948Y-3595299D02*
X-85858491Y-771345D01*
X-87956052Y3595299D02*
X-84383708Y23855065D01*
X-87043041Y-28400000D02*
X-65812734Y-28400000D01*
X-86867926Y-21906871D02*
X-91643589Y-25914128D01*
X-86184695Y-22900000D02*
X-90880385Y-26840152D01*
X-86184695Y-22900000D02*
X-66671066Y-22900000D01*
X-85858491Y-771345D02*
X-83613022Y-3447391D01*
X-85710583Y919253D02*
X-87956052Y3595299D01*
X-84939237Y0D02*
X-81661915Y2750000D01*
X-83613022Y-3447391D02*
X-86867926Y-21906871D01*
X-82631713Y-2750000D02*
X-84939237Y0D01*
X-82345125Y3743207D02*
X-85710583Y919253D01*
X-81661915Y2750000D02*
X-62148287Y2750000D01*
X-79103275Y22128655D02*
X-82941125Y26702426D01*
X-79103275Y22128655D02*
X-82345125Y3743207D01*
X-78967266Y28400000D02*
X-57736959Y28400000D01*
X-78184021Y22900000D02*
X-82021871Y27473771D01*
X-78184021Y22900000D02*
X-58670393Y22900000D01*
X-66671066Y-22900000D02*
X-62806447Y-27505674D01*
X-65689779Y-22202687D02*
X-62434875Y-3743207D01*
X-63118085Y-2750000D02*
X-82631713Y-2750000D01*
X-62434875Y-3743207D02*
X-59069417Y-919253D01*
X-62148287Y2750000D02*
X-59840763Y0D01*
X-61879124Y-26744049D02*
X-65689779Y-22202687D01*
X-61166978Y3447391D02*
X-57899048Y21980747D01*
X-59840763Y0D02*
X-63118085Y-2750000D01*
X-59069417Y-919253D02*
X-56823948Y-3595299D01*
X-58921509Y771345D02*
X-61166978Y3447391D01*
X-58670393Y22900000D02*
X-53934532Y26873859D01*
X-57899048Y21980747D02*
X-53163187Y25954606D01*
X-56823948Y-3595299D02*
X-60396292Y-23855065D01*
X-55556052Y3595299D02*
X-58921509Y771345D01*
X-52320516Y21944935D02*
X-55556052Y3595299D01*
X-48490000Y34850000D02*
X-96290000Y34850000D01*
X-48490000Y-34850000D02*
X-48490000Y34850000D01*
X-91643589Y-25914128D02*
G75*
G02*
X-92459484Y-21944935I4600551J3014128D01*
G01*
X-87043041Y-28400000D02*
G75*
G02*
X-90880385Y-26840152I-1J5499999D01*
G01*
X-84383708Y23855065D02*
G75*
G02*
X-82941125Y26702426I5416429J-955057D01*
G01*
X-82021871Y27473771D02*
G75*
G02*
X-78967266Y28400000I3054603J-4573762D01*
G01*
X-62806447Y-27505674D02*
G75*
G02*
X-65812734Y-28399998I-3006273J4605634D01*
G01*
X-60396292Y-23855065D02*
G75*
G02*
X-61879125Y-26744048I-5416458J955075D01*
G01*
X-57736959Y28400000D02*
G75*
G02*
X-53934533Y26873858I-1J-5500000D01*
G01*
X-53163187Y25954606D02*
G75*
G02*
X-52320522Y21944936I-4573813J-3054606D01*
G01*
X-89440000Y30480000D02*
G75*
G02*
X-93440000Y30480000I-2000000J0D01*
G01*
X-93440000Y30480000D02*
G75*
G02*
X-89440000Y30480000I2000000J0D01*
G01*
X-89440000Y-30480000D02*
G75*
G02*
X-93440000Y-30480000I-2000000J0D01*
G01*
X-93440000Y-30480000D02*
G75*
G02*
X-89440000Y-30480000I2000000J0D01*
G01*
X-52390000Y-25150000D02*
G75*
G02*
X-57890000Y-25150000I-2750000J0D01*
G01*
X-57890000Y-25150000D02*
G75*
G02*
X-52390000Y-25150000I2750000J0D01*
G01*
X-51340000Y30480000D02*
G75*
G02*
X-55340000Y30480000I-2000000J0D01*
G01*
X-55340000Y30480000D02*
G75*
G02*
X-51340000Y30480000I2000000J0D01*
G01*
X-51340000Y-30480000D02*
G75*
G02*
X-55340000Y-30480000I-2000000J0D01*
G01*
X-55340000Y-30480000D02*
G75*
G02*
X-51340000Y-30480000I2000000J0D01*
G01*
D14*
%TO.C,D5*%
X126621000Y4732313D02*
X121111000Y4732313D01*
X126621000Y1432313D02*
X121111000Y1432313D01*
X126621000Y1432313D02*
X126621000Y4732313D01*
%TO.C,C1*%
X98927677Y-15839000D02*
X98927677Y-14641000D01*
X98967677Y-16102000D02*
X98967677Y-14378000D01*
X99007677Y-16302000D02*
X99007677Y-14178000D01*
X99047677Y-16470000D02*
X99047677Y-14010000D01*
X99087677Y-16617000D02*
X99087677Y-13863000D01*
X99127677Y-16749000D02*
X99127677Y-13731000D01*
X99167677Y-16870000D02*
X99167677Y-13610000D01*
X99207677Y-16982000D02*
X99207677Y-13498000D01*
X99247677Y-17086000D02*
X99247677Y-13394000D01*
X99287677Y-17184000D02*
X99287677Y-13296000D01*
X99327677Y-17277000D02*
X99327677Y-13203000D01*
X99367677Y-17364000D02*
X99367677Y-13116000D01*
X99407677Y-17448000D02*
X99407677Y-13032000D01*
X99447677Y-17528000D02*
X99447677Y-12952000D01*
X99487677Y-17605000D02*
X99487677Y-12875000D01*
X99527677Y-17679000D02*
X99527677Y-12801000D01*
X99567677Y-17750000D02*
X99567677Y-12730000D01*
X99607677Y-17818000D02*
X99607677Y-12662000D01*
X99647677Y-17884000D02*
X99647677Y-12596000D01*
X99687677Y-17948000D02*
X99687677Y-12532000D01*
X99727677Y-18010000D02*
X99727677Y-12470000D01*
X99767677Y-18070000D02*
X99767677Y-12410000D01*
X99807677Y-18128000D02*
X99807677Y-12352000D01*
X99847677Y-18185000D02*
X99847677Y-12295000D01*
X99887677Y-18240000D02*
X99887677Y-12240000D01*
X99927677Y-18293000D02*
X99927677Y-12187000D01*
X99967677Y-18345000D02*
X99967677Y-12135000D01*
X100007677Y-18396000D02*
X100007677Y-12084000D01*
X100047677Y-18445000D02*
X100047677Y-12035000D01*
X100087677Y-18494000D02*
X100087677Y-11986000D01*
X100127677Y-18541000D02*
X100127677Y-11939000D01*
X100167677Y-18587000D02*
X100167677Y-11893000D01*
X100207677Y-18631000D02*
X100207677Y-11849000D01*
X100247677Y-18675000D02*
X100247677Y-11805000D01*
X100287677Y-14000000D02*
X100287677Y-11762000D01*
X100287677Y-18718000D02*
X100287677Y-16480000D01*
X100327677Y-14000000D02*
X100327677Y-11720000D01*
X100327677Y-18760000D02*
X100327677Y-16480000D01*
X100367677Y-14000000D02*
X100367677Y-11679000D01*
X100367677Y-18801000D02*
X100367677Y-16480000D01*
X100407677Y-14000000D02*
X100407677Y-11639000D01*
X100407677Y-18841000D02*
X100407677Y-16480000D01*
X100447677Y-14000000D02*
X100447677Y-11600000D01*
X100447677Y-18880000D02*
X100447677Y-16480000D01*
X100487677Y-14000000D02*
X100487677Y-11562000D01*
X100487677Y-18918000D02*
X100487677Y-16480000D01*
X100527677Y-14000000D02*
X100527677Y-11524000D01*
X100527677Y-18956000D02*
X100527677Y-16480000D01*
X100567677Y-14000000D02*
X100567677Y-11488000D01*
X100567677Y-18992000D02*
X100567677Y-16480000D01*
X100607677Y-14000000D02*
X100607677Y-11452000D01*
X100607677Y-19028000D02*
X100607677Y-16480000D01*
X100647677Y-14000000D02*
X100647677Y-11417000D01*
X100647677Y-19063000D02*
X100647677Y-16480000D01*
X100687677Y-14000000D02*
X100687677Y-11382000D01*
X100687677Y-19098000D02*
X100687677Y-16480000D01*
X100727677Y-14000000D02*
X100727677Y-11349000D01*
X100727677Y-19131000D02*
X100727677Y-16480000D01*
X100767677Y-14000000D02*
X100767677Y-11316000D01*
X100767677Y-19164000D02*
X100767677Y-16480000D01*
X100807677Y-14000000D02*
X100807677Y-11283000D01*
X100807677Y-19197000D02*
X100807677Y-16480000D01*
X100847677Y-14000000D02*
X100847677Y-11252000D01*
X100847677Y-19228000D02*
X100847677Y-16480000D01*
X100887677Y-14000000D02*
X100887677Y-11220000D01*
X100887677Y-19260000D02*
X100887677Y-16480000D01*
X100927677Y-14000000D02*
X100927677Y-11190000D01*
X100927677Y-19290000D02*
X100927677Y-16480000D01*
X100967677Y-14000000D02*
X100967677Y-11160000D01*
X100967677Y-19320000D02*
X100967677Y-16480000D01*
X101007677Y-14000000D02*
X101007677Y-11131000D01*
X101007677Y-19349000D02*
X101007677Y-16480000D01*
X101047677Y-14000000D02*
X101047677Y-11102000D01*
X101047677Y-19378000D02*
X101047677Y-16480000D01*
X101087677Y-14000000D02*
X101087677Y-11074000D01*
X101087677Y-19406000D02*
X101087677Y-16480000D01*
X101127677Y-14000000D02*
X101127677Y-11047000D01*
X101127677Y-19433000D02*
X101127677Y-16480000D01*
X101167677Y-14000000D02*
X101167677Y-11020000D01*
X101167677Y-19460000D02*
X101167677Y-16480000D01*
X101207677Y-14000000D02*
X101207677Y-10993000D01*
X101207677Y-19487000D02*
X101207677Y-16480000D01*
X101247677Y-14000000D02*
X101247677Y-10968000D01*
X101247677Y-19512000D02*
X101247677Y-16480000D01*
X101287677Y-14000000D02*
X101287677Y-10942000D01*
X101287677Y-19538000D02*
X101287677Y-16480000D01*
X101327677Y-14000000D02*
X101327677Y-10917000D01*
X101327677Y-19563000D02*
X101327677Y-16480000D01*
X101367677Y-14000000D02*
X101367677Y-10893000D01*
X101367677Y-19587000D02*
X101367677Y-16480000D01*
X101407677Y-14000000D02*
X101407677Y-10869000D01*
X101407677Y-19611000D02*
X101407677Y-16480000D01*
X101447677Y-14000000D02*
X101447677Y-10846000D01*
X101447677Y-19634000D02*
X101447677Y-16480000D01*
X101487677Y-14000000D02*
X101487677Y-10823000D01*
X101487677Y-19657000D02*
X101487677Y-16480000D01*
X101527677Y-14000000D02*
X101527677Y-10801000D01*
X101527677Y-19679000D02*
X101527677Y-16480000D01*
X101567677Y-14000000D02*
X101567677Y-10779000D01*
X101567677Y-19701000D02*
X101567677Y-16480000D01*
X101607677Y-14000000D02*
X101607677Y-10757000D01*
X101607677Y-19723000D02*
X101607677Y-16480000D01*
X101647677Y-14000000D02*
X101647677Y-10736000D01*
X101647677Y-19744000D02*
X101647677Y-16480000D01*
X101687677Y-14000000D02*
X101687677Y-10716000D01*
X101687677Y-19764000D02*
X101687677Y-16480000D01*
X101727677Y-14000000D02*
X101727677Y-10696000D01*
X101727677Y-19784000D02*
X101727677Y-16480000D01*
X101767677Y-14000000D02*
X101767677Y-10676000D01*
X101767677Y-19804000D02*
X101767677Y-16480000D01*
X101807677Y-14000000D02*
X101807677Y-10657000D01*
X101807677Y-19823000D02*
X101807677Y-16480000D01*
X101847677Y-14000000D02*
X101847677Y-10638000D01*
X101847677Y-19842000D02*
X101847677Y-16480000D01*
X101887677Y-14000000D02*
X101887677Y-10620000D01*
X101887677Y-19860000D02*
X101887677Y-16480000D01*
X101927677Y-14000000D02*
X101927677Y-10602000D01*
X101927677Y-19878000D02*
X101927677Y-16480000D01*
X101967677Y-14000000D02*
X101967677Y-10584000D01*
X101967677Y-19896000D02*
X101967677Y-16480000D01*
X102007677Y-14000000D02*
X102007677Y-10567000D01*
X102007677Y-19913000D02*
X102007677Y-16480000D01*
X102047677Y-14000000D02*
X102047677Y-10550000D01*
X102047677Y-19930000D02*
X102047677Y-16480000D01*
X102087677Y-14000000D02*
X102087677Y-10534000D01*
X102087677Y-19946000D02*
X102087677Y-16480000D01*
X102127677Y-14000000D02*
X102127677Y-10518000D01*
X102127677Y-19962000D02*
X102127677Y-16480000D01*
X102167677Y-14000000D02*
X102167677Y-10502000D01*
X102167677Y-19978000D02*
X102167677Y-16480000D01*
X102207677Y-14000000D02*
X102207677Y-10487000D01*
X102207677Y-19993000D02*
X102207677Y-16480000D01*
X102247677Y-14000000D02*
X102247677Y-10472000D01*
X102247677Y-20008000D02*
X102247677Y-16480000D01*
X102287677Y-14000000D02*
X102287677Y-10458000D01*
X102287677Y-20022000D02*
X102287677Y-16480000D01*
X102327677Y-14000000D02*
X102327677Y-10443000D01*
X102327677Y-20037000D02*
X102327677Y-16480000D01*
X102367677Y-14000000D02*
X102367677Y-10430000D01*
X102367677Y-20050000D02*
X102367677Y-16480000D01*
X102407677Y-14000000D02*
X102407677Y-10416000D01*
X102407677Y-20064000D02*
X102407677Y-16480000D01*
X102447677Y-14000000D02*
X102447677Y-10403000D01*
X102447677Y-20077000D02*
X102447677Y-16480000D01*
X102487677Y-14000000D02*
X102487677Y-10391000D01*
X102487677Y-20089000D02*
X102487677Y-16480000D01*
X102527677Y-14000000D02*
X102527677Y-10379000D01*
X102527677Y-20101000D02*
X102527677Y-16480000D01*
X102567677Y-14000000D02*
X102567677Y-10367000D01*
X102567677Y-20113000D02*
X102567677Y-16480000D01*
X102607677Y-14000000D02*
X102607677Y-10355000D01*
X102607677Y-20125000D02*
X102607677Y-16480000D01*
X102647677Y-14000000D02*
X102647677Y-10344000D01*
X102647677Y-20136000D02*
X102647677Y-16480000D01*
X102687677Y-14000000D02*
X102687677Y-10333000D01*
X102687677Y-20147000D02*
X102687677Y-16480000D01*
X102727677Y-14000000D02*
X102727677Y-10323000D01*
X102727677Y-20157000D02*
X102727677Y-16480000D01*
X102767677Y-20168000D02*
X102767677Y-10312000D01*
X102807677Y-20177000D02*
X102807677Y-10303000D01*
X102847677Y-20187000D02*
X102847677Y-10293000D01*
X102887677Y-20196000D02*
X102887677Y-10284000D01*
X102927677Y-20205000D02*
X102927677Y-10275000D01*
X102967677Y-20213000D02*
X102967677Y-10267000D01*
X103007677Y-20221000D02*
X103007677Y-10259000D01*
X103047677Y-20229000D02*
X103047677Y-10251000D01*
X103087677Y-20237000D02*
X103087677Y-10243000D01*
X103127677Y-20244000D02*
X103127677Y-10236000D01*
X103167677Y-20251000D02*
X103167677Y-10229000D01*
X103207677Y-20257000D02*
X103207677Y-10223000D01*
X103247677Y-20263000D02*
X103247677Y-10217000D01*
X103287677Y-20269000D02*
X103287677Y-10211000D01*
X103327677Y-20275000D02*
X103327677Y-10205000D01*
X103367677Y-20280000D02*
X103367677Y-10200000D01*
X103407677Y-20285000D02*
X103407677Y-10195000D01*
X103447677Y-20289000D02*
X103447677Y-10191000D01*
X103487677Y-20294000D02*
X103487677Y-10186000D01*
X103527677Y-20297000D02*
X103527677Y-10183000D01*
X103567677Y-20301000D02*
X103567677Y-10179000D01*
X103607677Y-20304000D02*
X103607677Y-10176000D01*
X103647677Y-20307000D02*
X103647677Y-10173000D01*
X103687677Y-20310000D02*
X103687677Y-10170000D01*
X103727677Y-20312000D02*
X103727677Y-10168000D01*
X103767677Y-20314000D02*
X103767677Y-10166000D01*
X103807677Y-20316000D02*
X103807677Y-10164000D01*
X103847677Y-20317000D02*
X103847677Y-10163000D01*
X103887677Y-20319000D02*
X103887677Y-10161000D01*
X103927677Y-20319000D02*
X103927677Y-10161000D01*
X103967677Y-20320000D02*
X103967677Y-10160000D01*
X104007677Y-20320000D02*
X104007677Y-10160000D01*
X108987323Y-18615000D02*
X108987323Y-17615000D01*
X109487323Y-18115000D02*
X108487323Y-18115000D01*
X109127677Y-15240000D02*
G75*
G02*
X98887677Y-15240000I-5120000J0D01*
G01*
X98887677Y-15240000D02*
G75*
G02*
X109127677Y-15240000I5120000J0D01*
G01*
%TO.C,R1*%
X122506064Y-1628687D02*
X122051936Y-1628687D01*
X122506064Y-3098687D02*
X122051936Y-3098687D01*
%TO.C,SW1*%
X125150000Y-3259000D02*
X128850000Y-3259000D01*
X125150000Y-9379000D02*
X125150000Y-3259000D01*
X128850000Y-3259000D02*
X128850000Y-9379000D01*
X128850000Y-9379000D02*
X125150000Y-9379000D01*
%TO.C,U1*%
X101644000Y7087687D02*
X101644000Y32517687D01*
X101644000Y7087687D02*
X104184000Y7087687D01*
X104184000Y7087687D02*
X104184000Y187687D01*
X104184000Y187687D02*
X127504000Y187687D01*
X125384000Y34647687D02*
X103774000Y34647687D01*
X127504000Y187687D02*
X127504000Y32517687D01*
X101644000Y32517687D02*
G75*
G02*
X103774000Y34647687I2130002J-2D01*
G01*
X125374000Y34647687D02*
G75*
G02*
X127504000Y32517687I0J-2130000D01*
G01*
D12*
X101239000Y26307687D02*
X100604000Y25672687D01*
X100604000Y26942687D01*
X101239000Y26307687D01*
G36*
X101239000Y26307687D02*
G01*
X100604000Y25672687D01*
X100604000Y26942687D01*
X101239000Y26307687D01*
G37*
D13*
%TO.C,M2*%
X230000Y34850000D02*
X230000Y-34850000D01*
X230000Y-34850000D02*
X48030000Y-34850000D01*
X7296052Y-3595299D02*
X4060516Y-21944935D01*
X7296052Y-3595299D02*
X10661509Y-771345D01*
X8563948Y3595299D02*
X12136292Y23855065D01*
X9476959Y-28400000D02*
X30707266Y-28400000D01*
X9652074Y-21906871D02*
X4876411Y-25914128D01*
X10335305Y-22900000D02*
X5639615Y-26840152D01*
X10335305Y-22900000D02*
X29848934Y-22900000D01*
X10661509Y-771345D02*
X12906978Y-3447391D01*
X10809417Y919253D02*
X8563948Y3595299D01*
X11580763Y0D02*
X14858085Y2750000D01*
X12906978Y-3447391D02*
X9652074Y-21906871D01*
X13888287Y-2750000D02*
X11580763Y0D01*
X14174875Y3743207D02*
X10809417Y919253D01*
X14858085Y2750000D02*
X34371713Y2750000D01*
X17416725Y22128655D02*
X13578875Y26702426D01*
X17416725Y22128655D02*
X14174875Y3743207D01*
X17552734Y28400000D02*
X38783041Y28400000D01*
X18335979Y22900000D02*
X14498129Y27473771D01*
X18335979Y22900000D02*
X37849607Y22900000D01*
X29848934Y-22900000D02*
X33713553Y-27505674D01*
X30830221Y-22202687D02*
X34085125Y-3743207D01*
X33401915Y-2750000D02*
X13888287Y-2750000D01*
X34085125Y-3743207D02*
X37450583Y-919253D01*
X34371713Y2750000D02*
X36679237Y0D01*
X34640876Y-26744049D02*
X30830221Y-22202687D01*
X35353022Y3447391D02*
X38620952Y21980747D01*
X36679237Y0D02*
X33401915Y-2750000D01*
X37450583Y-919253D02*
X39696052Y-3595299D01*
X37598491Y771345D02*
X35353022Y3447391D01*
X37849607Y22900000D02*
X42585468Y26873859D01*
X38620952Y21980747D02*
X43356813Y25954606D01*
X39696052Y-3595299D02*
X36123708Y-23855065D01*
X40963948Y3595299D02*
X37598491Y771345D01*
X44199484Y21944935D02*
X40963948Y3595299D01*
X48030000Y34850000D02*
X230000Y34850000D01*
X48030000Y-34850000D02*
X48030000Y34850000D01*
X4876411Y-25914128D02*
G75*
G02*
X4060516Y-21944935I4600551J3014128D01*
G01*
X9476959Y-28400000D02*
G75*
G02*
X5639615Y-26840152I-1J5499999D01*
G01*
X12136292Y23855065D02*
G75*
G02*
X13578875Y26702426I5416429J-955057D01*
G01*
X14498129Y27473771D02*
G75*
G02*
X17552734Y28400000I3054603J-4573762D01*
G01*
X33713553Y-27505674D02*
G75*
G02*
X30707266Y-28399998I-3006273J4605634D01*
G01*
X36123708Y-23855065D02*
G75*
G02*
X34640875Y-26744048I-5416458J955075D01*
G01*
X38783041Y28400000D02*
G75*
G02*
X42585467Y26873858I-1J-5500000D01*
G01*
X43356813Y25954606D02*
G75*
G02*
X44199478Y21944936I-4573813J-3054606D01*
G01*
X7080000Y30480000D02*
G75*
G02*
X3080000Y30480000I-2000000J0D01*
G01*
X3080000Y30480000D02*
G75*
G02*
X7080000Y30480000I2000000J0D01*
G01*
X7080000Y-30480000D02*
G75*
G02*
X3080000Y-30480000I-2000000J0D01*
G01*
X3080000Y-30480000D02*
G75*
G02*
X7080000Y-30480000I2000000J0D01*
G01*
X44130000Y-25150000D02*
G75*
G02*
X38630000Y-25150000I-2750000J0D01*
G01*
X38630000Y-25150000D02*
G75*
G02*
X44130000Y-25150000I2750000J0D01*
G01*
X45180000Y30480000D02*
G75*
G02*
X41180000Y30480000I-2000000J0D01*
G01*
X41180000Y30480000D02*
G75*
G02*
X45180000Y30480000I2000000J0D01*
G01*
X45180000Y-30480000D02*
G75*
G02*
X41180000Y-30480000I-2000000J0D01*
G01*
X41180000Y-30480000D02*
G75*
G02*
X45180000Y-30480000I2000000J0D01*
G01*
D14*
%TO.C,U2*%
X114261000Y19642313D02*
X112311000Y19642313D01*
X114261000Y19642313D02*
X116211000Y19642313D01*
X114261000Y10772313D02*
X112311000Y10772313D01*
X114261000Y10772313D02*
X116211000Y10772313D01*
X117201000Y10507313D02*
X116721000Y10507313D01*
X116961000Y10837313D01*
X117201000Y10507313D01*
G36*
X117201000Y10507313D02*
G01*
X116721000Y10507313D01*
X116961000Y10837313D01*
X117201000Y10507313D01*
G37*
D13*
%TO.C,M1*%
X48490000Y34850000D02*
X48490000Y-34850000D01*
X48490000Y-34850000D02*
X96290000Y-34850000D01*
X55556052Y-3595299D02*
X52320516Y-21944935D01*
X55556052Y-3595299D02*
X58921509Y-771345D01*
X56823948Y3595299D02*
X60396292Y23855065D01*
X57736959Y-28400000D02*
X78967266Y-28400000D01*
X57912074Y-21906871D02*
X53136411Y-25914128D01*
X58595305Y-22900000D02*
X53899615Y-26840152D01*
X58595305Y-22900000D02*
X78108934Y-22900000D01*
X58921509Y-771345D02*
X61166978Y-3447391D01*
X59069417Y919253D02*
X56823948Y3595299D01*
X59840763Y0D02*
X63118085Y2750000D01*
X61166978Y-3447391D02*
X57912074Y-21906871D01*
X62148287Y-2750000D02*
X59840763Y0D01*
X62434875Y3743207D02*
X59069417Y919253D01*
X63118085Y2750000D02*
X82631713Y2750000D01*
X65676725Y22128655D02*
X61838875Y26702426D01*
X65676725Y22128655D02*
X62434875Y3743207D01*
X65812734Y28400000D02*
X87043041Y28400000D01*
X66595979Y22900000D02*
X62758129Y27473771D01*
X66595979Y22900000D02*
X86109607Y22900000D01*
X78108934Y-22900000D02*
X81973553Y-27505674D01*
X79090221Y-22202687D02*
X82345125Y-3743207D01*
X81661915Y-2750000D02*
X62148287Y-2750000D01*
X82345125Y-3743207D02*
X85710583Y-919253D01*
X82631713Y2750000D02*
X84939237Y0D01*
X82900876Y-26744049D02*
X79090221Y-22202687D01*
X83613022Y3447391D02*
X86880952Y21980747D01*
X84939237Y0D02*
X81661915Y-2750000D01*
X85710583Y-919253D02*
X87956052Y-3595299D01*
X85858491Y771345D02*
X83613022Y3447391D01*
X86109607Y22900000D02*
X90845468Y26873859D01*
X86880952Y21980747D02*
X91616813Y25954606D01*
X87956052Y-3595299D02*
X84383708Y-23855065D01*
X89223948Y3595299D02*
X85858491Y771345D01*
X92459484Y21944935D02*
X89223948Y3595299D01*
X96290000Y34850000D02*
X48490000Y34850000D01*
X96290000Y-34850000D02*
X96290000Y34850000D01*
X53136411Y-25914128D02*
G75*
G02*
X52320516Y-21944935I4600551J3014128D01*
G01*
X57736959Y-28400000D02*
G75*
G02*
X53899615Y-26840152I-1J5499999D01*
G01*
X60396292Y23855065D02*
G75*
G02*
X61838875Y26702426I5416429J-955057D01*
G01*
X62758129Y27473771D02*
G75*
G02*
X65812734Y28400000I3054603J-4573762D01*
G01*
X81973553Y-27505674D02*
G75*
G02*
X78967266Y-28399998I-3006273J4605634D01*
G01*
X84383708Y-23855065D02*
G75*
G02*
X82900875Y-26744048I-5416458J955075D01*
G01*
X87043041Y28400000D02*
G75*
G02*
X90845467Y26873858I-1J-5500000D01*
G01*
X91616813Y25954606D02*
G75*
G02*
X92459478Y21944936I-4573813J-3054606D01*
G01*
X55340000Y30480000D02*
G75*
G02*
X51340000Y30480000I-2000000J0D01*
G01*
X51340000Y30480000D02*
G75*
G02*
X55340000Y30480000I2000000J0D01*
G01*
X55340000Y-30480000D02*
G75*
G02*
X51340000Y-30480000I-2000000J0D01*
G01*
X51340000Y-30480000D02*
G75*
G02*
X55340000Y-30480000I2000000J0D01*
G01*
X92390000Y-25150000D02*
G75*
G02*
X86890000Y-25150000I-2750000J0D01*
G01*
X86890000Y-25150000D02*
G75*
G02*
X92390000Y-25150000I2750000J0D01*
G01*
X93440000Y30480000D02*
G75*
G02*
X89440000Y30480000I-2000000J0D01*
G01*
X89440000Y30480000D02*
G75*
G02*
X93440000Y30480000I2000000J0D01*
G01*
X93440000Y-30480000D02*
G75*
G02*
X89440000Y-30480000I-2000000J0D01*
G01*
X89440000Y-30480000D02*
G75*
G02*
X93440000Y-30480000I2000000J0D01*
G01*
D14*
%TO.C,C2*%
X99100000Y-28539000D02*
X99100000Y-27341000D01*
X99140000Y-28802000D02*
X99140000Y-27078000D01*
X99180000Y-29002000D02*
X99180000Y-26878000D01*
X99220000Y-29170000D02*
X99220000Y-26710000D01*
X99260000Y-29317000D02*
X99260000Y-26563000D01*
X99300000Y-29449000D02*
X99300000Y-26431000D01*
X99340000Y-29570000D02*
X99340000Y-26310000D01*
X99380000Y-29682000D02*
X99380000Y-26198000D01*
X99420000Y-29786000D02*
X99420000Y-26094000D01*
X99460000Y-29884000D02*
X99460000Y-25996000D01*
X99500000Y-29977000D02*
X99500000Y-25903000D01*
X99540000Y-30064000D02*
X99540000Y-25816000D01*
X99580000Y-30148000D02*
X99580000Y-25732000D01*
X99620000Y-30228000D02*
X99620000Y-25652000D01*
X99660000Y-30305000D02*
X99660000Y-25575000D01*
X99700000Y-30379000D02*
X99700000Y-25501000D01*
X99740000Y-30450000D02*
X99740000Y-25430000D01*
X99780000Y-30518000D02*
X99780000Y-25362000D01*
X99820000Y-30584000D02*
X99820000Y-25296000D01*
X99860000Y-30648000D02*
X99860000Y-25232000D01*
X99900000Y-30710000D02*
X99900000Y-25170000D01*
X99940000Y-30770000D02*
X99940000Y-25110000D01*
X99980000Y-30828000D02*
X99980000Y-25052000D01*
X100020000Y-30885000D02*
X100020000Y-24995000D01*
X100060000Y-30940000D02*
X100060000Y-24940000D01*
X100100000Y-30993000D02*
X100100000Y-24887000D01*
X100140000Y-31045000D02*
X100140000Y-24835000D01*
X100180000Y-31096000D02*
X100180000Y-24784000D01*
X100220000Y-31145000D02*
X100220000Y-24735000D01*
X100260000Y-31194000D02*
X100260000Y-24686000D01*
X100300000Y-31241000D02*
X100300000Y-24639000D01*
X100340000Y-31287000D02*
X100340000Y-24593000D01*
X100380000Y-31331000D02*
X100380000Y-24549000D01*
X100420000Y-31375000D02*
X100420000Y-24505000D01*
X100460000Y-26700000D02*
X100460000Y-24462000D01*
X100460000Y-31418000D02*
X100460000Y-29180000D01*
X100500000Y-26700000D02*
X100500000Y-24420000D01*
X100500000Y-31460000D02*
X100500000Y-29180000D01*
X100540000Y-26700000D02*
X100540000Y-24379000D01*
X100540000Y-31501000D02*
X100540000Y-29180000D01*
X100580000Y-26700000D02*
X100580000Y-24339000D01*
X100580000Y-31541000D02*
X100580000Y-29180000D01*
X100620000Y-26700000D02*
X100620000Y-24300000D01*
X100620000Y-31580000D02*
X100620000Y-29180000D01*
X100660000Y-26700000D02*
X100660000Y-24262000D01*
X100660000Y-31618000D02*
X100660000Y-29180000D01*
X100700000Y-26700000D02*
X100700000Y-24224000D01*
X100700000Y-31656000D02*
X100700000Y-29180000D01*
X100740000Y-26700000D02*
X100740000Y-24188000D01*
X100740000Y-31692000D02*
X100740000Y-29180000D01*
X100780000Y-26700000D02*
X100780000Y-24152000D01*
X100780000Y-31728000D02*
X100780000Y-29180000D01*
X100820000Y-26700000D02*
X100820000Y-24117000D01*
X100820000Y-31763000D02*
X100820000Y-29180000D01*
X100860000Y-26700000D02*
X100860000Y-24082000D01*
X100860000Y-31798000D02*
X100860000Y-29180000D01*
X100900000Y-26700000D02*
X100900000Y-24049000D01*
X100900000Y-31831000D02*
X100900000Y-29180000D01*
X100940000Y-26700000D02*
X100940000Y-24016000D01*
X100940000Y-31864000D02*
X100940000Y-29180000D01*
X100980000Y-26700000D02*
X100980000Y-23983000D01*
X100980000Y-31897000D02*
X100980000Y-29180000D01*
X101020000Y-26700000D02*
X101020000Y-23952000D01*
X101020000Y-31928000D02*
X101020000Y-29180000D01*
X101060000Y-26700000D02*
X101060000Y-23920000D01*
X101060000Y-31960000D02*
X101060000Y-29180000D01*
X101100000Y-26700000D02*
X101100000Y-23890000D01*
X101100000Y-31990000D02*
X101100000Y-29180000D01*
X101140000Y-26700000D02*
X101140000Y-23860000D01*
X101140000Y-32020000D02*
X101140000Y-29180000D01*
X101180000Y-26700000D02*
X101180000Y-23831000D01*
X101180000Y-32049000D02*
X101180000Y-29180000D01*
X101220000Y-26700000D02*
X101220000Y-23802000D01*
X101220000Y-32078000D02*
X101220000Y-29180000D01*
X101260000Y-26700000D02*
X101260000Y-23774000D01*
X101260000Y-32106000D02*
X101260000Y-29180000D01*
X101300000Y-26700000D02*
X101300000Y-23747000D01*
X101300000Y-32133000D02*
X101300000Y-29180000D01*
X101340000Y-26700000D02*
X101340000Y-23720000D01*
X101340000Y-32160000D02*
X101340000Y-29180000D01*
X101380000Y-26700000D02*
X101380000Y-23693000D01*
X101380000Y-32187000D02*
X101380000Y-29180000D01*
X101420000Y-26700000D02*
X101420000Y-23668000D01*
X101420000Y-32212000D02*
X101420000Y-29180000D01*
X101460000Y-26700000D02*
X101460000Y-23642000D01*
X101460000Y-32238000D02*
X101460000Y-29180000D01*
X101500000Y-26700000D02*
X101500000Y-23617000D01*
X101500000Y-32263000D02*
X101500000Y-29180000D01*
X101540000Y-26700000D02*
X101540000Y-23593000D01*
X101540000Y-32287000D02*
X101540000Y-29180000D01*
X101580000Y-26700000D02*
X101580000Y-23569000D01*
X101580000Y-32311000D02*
X101580000Y-29180000D01*
X101620000Y-26700000D02*
X101620000Y-23546000D01*
X101620000Y-32334000D02*
X101620000Y-29180000D01*
X101660000Y-26700000D02*
X101660000Y-23523000D01*
X101660000Y-32357000D02*
X101660000Y-29180000D01*
X101700000Y-26700000D02*
X101700000Y-23501000D01*
X101700000Y-32379000D02*
X101700000Y-29180000D01*
X101740000Y-26700000D02*
X101740000Y-23479000D01*
X101740000Y-32401000D02*
X101740000Y-29180000D01*
X101780000Y-26700000D02*
X101780000Y-23457000D01*
X101780000Y-32423000D02*
X101780000Y-29180000D01*
X101820000Y-26700000D02*
X101820000Y-23436000D01*
X101820000Y-32444000D02*
X101820000Y-29180000D01*
X101860000Y-26700000D02*
X101860000Y-23416000D01*
X101860000Y-32464000D02*
X101860000Y-29180000D01*
X101900000Y-26700000D02*
X101900000Y-23396000D01*
X101900000Y-32484000D02*
X101900000Y-29180000D01*
X101940000Y-26700000D02*
X101940000Y-23376000D01*
X101940000Y-32504000D02*
X101940000Y-29180000D01*
X101980000Y-26700000D02*
X101980000Y-23357000D01*
X101980000Y-32523000D02*
X101980000Y-29180000D01*
X102020000Y-26700000D02*
X102020000Y-23338000D01*
X102020000Y-32542000D02*
X102020000Y-29180000D01*
X102060000Y-26700000D02*
X102060000Y-23320000D01*
X102060000Y-32560000D02*
X102060000Y-29180000D01*
X102100000Y-26700000D02*
X102100000Y-23302000D01*
X102100000Y-32578000D02*
X102100000Y-29180000D01*
X102140000Y-26700000D02*
X102140000Y-23284000D01*
X102140000Y-32596000D02*
X102140000Y-29180000D01*
X102180000Y-26700000D02*
X102180000Y-23267000D01*
X102180000Y-32613000D02*
X102180000Y-29180000D01*
X102220000Y-26700000D02*
X102220000Y-23250000D01*
X102220000Y-32630000D02*
X102220000Y-29180000D01*
X102260000Y-26700000D02*
X102260000Y-23234000D01*
X102260000Y-32646000D02*
X102260000Y-29180000D01*
X102300000Y-26700000D02*
X102300000Y-23218000D01*
X102300000Y-32662000D02*
X102300000Y-29180000D01*
X102340000Y-26700000D02*
X102340000Y-23202000D01*
X102340000Y-32678000D02*
X102340000Y-29180000D01*
X102380000Y-26700000D02*
X102380000Y-23187000D01*
X102380000Y-32693000D02*
X102380000Y-29180000D01*
X102420000Y-26700000D02*
X102420000Y-23172000D01*
X102420000Y-32708000D02*
X102420000Y-29180000D01*
X102460000Y-26700000D02*
X102460000Y-23158000D01*
X102460000Y-32722000D02*
X102460000Y-29180000D01*
X102500000Y-26700000D02*
X102500000Y-23143000D01*
X102500000Y-32737000D02*
X102500000Y-29180000D01*
X102540000Y-26700000D02*
X102540000Y-23130000D01*
X102540000Y-32750000D02*
X102540000Y-29180000D01*
X102580000Y-26700000D02*
X102580000Y-23116000D01*
X102580000Y-32764000D02*
X102580000Y-29180000D01*
X102620000Y-26700000D02*
X102620000Y-23103000D01*
X102620000Y-32777000D02*
X102620000Y-29180000D01*
X102660000Y-26700000D02*
X102660000Y-23091000D01*
X102660000Y-32789000D02*
X102660000Y-29180000D01*
X102700000Y-26700000D02*
X102700000Y-23079000D01*
X102700000Y-32801000D02*
X102700000Y-29180000D01*
X102740000Y-26700000D02*
X102740000Y-23067000D01*
X102740000Y-32813000D02*
X102740000Y-29180000D01*
X102780000Y-26700000D02*
X102780000Y-23055000D01*
X102780000Y-32825000D02*
X102780000Y-29180000D01*
X102820000Y-26700000D02*
X102820000Y-23044000D01*
X102820000Y-32836000D02*
X102820000Y-29180000D01*
X102860000Y-26700000D02*
X102860000Y-23033000D01*
X102860000Y-32847000D02*
X102860000Y-29180000D01*
X102900000Y-26700000D02*
X102900000Y-23023000D01*
X102900000Y-32857000D02*
X102900000Y-29180000D01*
X102940000Y-32868000D02*
X102940000Y-23012000D01*
X102980000Y-32877000D02*
X102980000Y-23003000D01*
X103020000Y-32887000D02*
X103020000Y-22993000D01*
X103060000Y-32896000D02*
X103060000Y-22984000D01*
X103100000Y-32905000D02*
X103100000Y-22975000D01*
X103140000Y-32913000D02*
X103140000Y-22967000D01*
X103180000Y-32921000D02*
X103180000Y-22959000D01*
X103220000Y-32929000D02*
X103220000Y-22951000D01*
X103260000Y-32937000D02*
X103260000Y-22943000D01*
X103300000Y-32944000D02*
X103300000Y-22936000D01*
X103340000Y-32951000D02*
X103340000Y-22929000D01*
X103380000Y-32957000D02*
X103380000Y-22923000D01*
X103420000Y-32963000D02*
X103420000Y-22917000D01*
X103460000Y-32969000D02*
X103460000Y-22911000D01*
X103500000Y-32975000D02*
X103500000Y-22905000D01*
X103540000Y-32980000D02*
X103540000Y-22900000D01*
X103580000Y-32985000D02*
X103580000Y-22895000D01*
X103620000Y-32989000D02*
X103620000Y-22891000D01*
X103660000Y-32994000D02*
X103660000Y-22886000D01*
X103700000Y-32997000D02*
X103700000Y-22883000D01*
X103740000Y-33001000D02*
X103740000Y-22879000D01*
X103780000Y-33004000D02*
X103780000Y-22876000D01*
X103820000Y-33007000D02*
X103820000Y-22873000D01*
X103860000Y-33010000D02*
X103860000Y-22870000D01*
X103900000Y-33012000D02*
X103900000Y-22868000D01*
X103940000Y-33014000D02*
X103940000Y-22866000D01*
X103980000Y-33016000D02*
X103980000Y-22864000D01*
X104020000Y-33017000D02*
X104020000Y-22863000D01*
X104060000Y-33019000D02*
X104060000Y-22861000D01*
X104100000Y-33019000D02*
X104100000Y-22861000D01*
X104140000Y-33020000D02*
X104140000Y-22860000D01*
X104180000Y-33020000D02*
X104180000Y-22860000D01*
X109159646Y-31315000D02*
X109159646Y-30315000D01*
X109659646Y-30815000D02*
X108659646Y-30815000D01*
X109300000Y-27940000D02*
G75*
G02*
X99060000Y-27940000I-5120000J0D01*
G01*
X99060000Y-27940000D02*
G75*
G02*
X109300000Y-27940000I5120000J0D01*
G01*
%TO.C,C18*%
X114102748Y8652687D02*
X114625252Y8652687D01*
X114102748Y7182687D02*
X114625252Y7182687D01*
D13*
%TO.C,M3*%
X-48030000Y34850000D02*
X-48030000Y-34850000D01*
X-48030000Y-34850000D02*
X-230000Y-34850000D01*
X-40963948Y-3595299D02*
X-44199484Y-21944935D01*
X-40963948Y-3595299D02*
X-37598491Y-771345D01*
X-39696052Y3595299D02*
X-36123708Y23855065D01*
X-38783041Y-28400000D02*
X-17552734Y-28400000D01*
X-38607926Y-21906871D02*
X-43383589Y-25914128D01*
X-37924695Y-22900000D02*
X-42620385Y-26840152D01*
X-37924695Y-22900000D02*
X-18411066Y-22900000D01*
X-37598491Y-771345D02*
X-35353022Y-3447391D01*
X-37450583Y919253D02*
X-39696052Y3595299D01*
X-36679237Y0D02*
X-33401915Y2750000D01*
X-35353022Y-3447391D02*
X-38607926Y-21906871D01*
X-34371713Y-2750000D02*
X-36679237Y0D01*
X-34085125Y3743207D02*
X-37450583Y919253D01*
X-33401915Y2750000D02*
X-13888287Y2750000D01*
X-30843275Y22128655D02*
X-34681125Y26702426D01*
X-30843275Y22128655D02*
X-34085125Y3743207D01*
X-30707266Y28400000D02*
X-9476959Y28400000D01*
X-29924021Y22900000D02*
X-33761871Y27473771D01*
X-29924021Y22900000D02*
X-10410393Y22900000D01*
X-18411066Y-22900000D02*
X-14546447Y-27505674D01*
X-17429779Y-22202687D02*
X-14174875Y-3743207D01*
X-14858085Y-2750000D02*
X-34371713Y-2750000D01*
X-14174875Y-3743207D02*
X-10809417Y-919253D01*
X-13888287Y2750000D02*
X-11580763Y0D01*
X-13619124Y-26744049D02*
X-17429779Y-22202687D01*
X-12906978Y3447391D02*
X-9639048Y21980747D01*
X-11580763Y0D02*
X-14858085Y-2750000D01*
X-10809417Y-919253D02*
X-8563948Y-3595299D01*
X-10661509Y771345D02*
X-12906978Y3447391D01*
X-10410393Y22900000D02*
X-5674532Y26873859D01*
X-9639048Y21980747D02*
X-4903187Y25954606D01*
X-8563948Y-3595299D02*
X-12136292Y-23855065D01*
X-7296052Y3595299D02*
X-10661509Y771345D01*
X-4060516Y21944935D02*
X-7296052Y3595299D01*
X-230000Y34850000D02*
X-48030000Y34850000D01*
X-230000Y-34850000D02*
X-230000Y34850000D01*
X-43383589Y-25914128D02*
G75*
G02*
X-44199484Y-21944935I4600551J3014128D01*
G01*
X-38783041Y-28400000D02*
G75*
G02*
X-42620385Y-26840152I-1J5499999D01*
G01*
X-36123708Y23855065D02*
G75*
G02*
X-34681125Y26702426I5416429J-955057D01*
G01*
X-33761871Y27473771D02*
G75*
G02*
X-30707266Y28400000I3054603J-4573762D01*
G01*
X-14546447Y-27505674D02*
G75*
G02*
X-17552734Y-28399998I-3006273J4605634D01*
G01*
X-12136292Y-23855065D02*
G75*
G02*
X-13619125Y-26744048I-5416458J955075D01*
G01*
X-9476959Y28400000D02*
G75*
G02*
X-5674533Y26873858I-1J-5500000D01*
G01*
X-4903187Y25954606D02*
G75*
G02*
X-4060522Y21944936I-4573813J-3054606D01*
G01*
X-41180000Y30480000D02*
G75*
G02*
X-45180000Y30480000I-2000000J0D01*
G01*
X-45180000Y30480000D02*
G75*
G02*
X-41180000Y30480000I2000000J0D01*
G01*
X-41180000Y-30480000D02*
G75*
G02*
X-45180000Y-30480000I-2000000J0D01*
G01*
X-45180000Y-30480000D02*
G75*
G02*
X-41180000Y-30480000I2000000J0D01*
G01*
X-4130000Y-25150000D02*
G75*
G02*
X-9630000Y-25150000I-2750000J0D01*
G01*
X-9630000Y-25150000D02*
G75*
G02*
X-4130000Y-25150000I2750000J0D01*
G01*
X-3080000Y30480000D02*
G75*
G02*
X-7080000Y30480000I-2000000J0D01*
G01*
X-7080000Y30480000D02*
G75*
G02*
X-3080000Y30480000I2000000J0D01*
G01*
X-3080000Y-30480000D02*
G75*
G02*
X-7080000Y-30480000I-2000000J0D01*
G01*
X-7080000Y-30480000D02*
G75*
G02*
X-3080000Y-30480000I2000000J0D01*
G01*
D14*
%TO.C,JP1*%
X113261000Y14772000D02*
X115261000Y14772000D01*
X113261000Y11972000D02*
X113261000Y14772000D01*
X115261000Y14772000D02*
X115261000Y11972000D01*
X115261000Y11972000D02*
X113261000Y11972000D01*
%TD*%
M02*
