%TF.GenerationSoftware,KiCad,Pcbnew,9.0.4*%
%TF.CreationDate,2025-08-31T21:09:59+02:00*%
%TF.ProjectId,n-teller-xl-diy,6e2d7465-6c6c-4657-922d-786c2d646979,1.0*%
%TF.SameCoordinates,Original*%
%TF.FileFunction,Drillmap*%
%TF.FilePolarity,Positive*%
%FSLAX45Y45*%
G04 Gerber Fmt 4.5, Leading zero omitted, Abs format (unit mm)*
G04 Created by KiCad (PCBNEW 9.0.4) date 2025-08-31 21:09:59*
%MOMM*%
%LPD*%
G01*
G04 APERTURE LIST*
%ADD10C,0.050000*%
%ADD11C,0.200000*%
%ADD12C,0.210000*%
G04 APERTURE END LIST*
D10*
X9779000Y3492500D02*
X13081000Y3492500D01*
X9080500Y4572000D02*
G75*
G02*
X9588500Y4064000I0J-508000D01*
G01*
X9588500Y-4064000D02*
G75*
G02*
X9080500Y-4572000I-508000J0D01*
G01*
X-9588500Y4064000D02*
G75*
G02*
X-9080500Y4572000I508000J0D01*
G01*
X9588500Y4064000D02*
X9588500Y3683000D01*
X-9080500Y4572000D02*
X9080500Y4572000D01*
X9779000Y-3492500D02*
X13081000Y-3492500D01*
X9588500Y-4064000D02*
X9588500Y-3683000D01*
X9080500Y-4572000D02*
X-9080500Y-4572000D01*
X13271500Y-3302000D02*
X13271500Y3302000D01*
X-9080500Y-4572000D02*
G75*
G02*
X-9588500Y-4064000I0J508000D01*
G01*
X13081000Y3492500D02*
G75*
G02*
X13271500Y3302000I0J-190500D01*
G01*
X9779000Y3492500D02*
G75*
G02*
X9588500Y3683000I0J190500D01*
G01*
X9588500Y-3683000D02*
G75*
G02*
X9779000Y-3492500I190500J0D01*
G01*
X13271500Y-3302000D02*
G75*
G02*
X13081000Y-3492500I-190500J0D01*
G01*
X-9588500Y4064000D02*
X-9588500Y-4064000D01*
X3957000Y-2396000D02*
X3957000Y-2636000D01*
X4277000Y-2356000D02*
X3997000Y-2356000D01*
X4277000Y-2676000D02*
X3997000Y-2676000D01*
X4317000Y-2396000D02*
X4317000Y-2636000D01*
X3957000Y-2396000D02*
G75*
G02*
X3997000Y-2356000I40000J0D01*
G01*
X3997000Y-2676000D02*
G75*
G02*
X3957000Y-2636000I0J40000D01*
G01*
X4277000Y-2356000D02*
G75*
G02*
X4317000Y-2396000I0J-40000D01*
G01*
X4317000Y-2636000D02*
G75*
G02*
X4277000Y-2676000I-40000J0D01*
G01*
X5398000Y-1740000D02*
X5398000Y-1980000D01*
X5718000Y-1700000D02*
X5438000Y-1700000D01*
X5718000Y-2020000D02*
X5438000Y-2020000D01*
X5758000Y-1740000D02*
X5758000Y-1980000D01*
X5398000Y-1740000D02*
G75*
G02*
X5438000Y-1700000I40000J0D01*
G01*
X5438000Y-2020000D02*
G75*
G02*
X5398000Y-1980000I0J40000D01*
G01*
X5718000Y-1700000D02*
G75*
G02*
X5758000Y-1740000I0J-40000D01*
G01*
X5758000Y-1980000D02*
G75*
G02*
X5718000Y-2020000I-40000J0D01*
G01*
X5607000Y-552000D02*
X5607000Y-792000D01*
X5927000Y-512000D02*
X5647000Y-512000D01*
X5927000Y-832000D02*
X5647000Y-832000D01*
X5967000Y-552000D02*
X5967000Y-792000D01*
X5607000Y-552000D02*
G75*
G02*
X5647000Y-512000I40000J0D01*
G01*
X5647000Y-832000D02*
G75*
G02*
X5607000Y-792000I0J40000D01*
G01*
X5927000Y-512000D02*
G75*
G02*
X5967000Y-552000I0J-40000D01*
G01*
X5967000Y-792000D02*
G75*
G02*
X5927000Y-832000I-40000J0D01*
G01*
X-1579000Y-1778000D02*
X-1579000Y-2018000D01*
X-1259000Y-1738000D02*
X-1539000Y-1738000D01*
X-1259000Y-2058000D02*
X-1539000Y-2058000D01*
X-1219000Y-1778000D02*
X-1219000Y-2018000D01*
X-1579000Y-1778000D02*
G75*
G02*
X-1539000Y-1738000I40000J0D01*
G01*
X-1539000Y-2058000D02*
G75*
G02*
X-1579000Y-2018000I0J40000D01*
G01*
X-1259000Y-1738000D02*
G75*
G02*
X-1219000Y-1778000I0J-40000D01*
G01*
X-1219000Y-2018000D02*
G75*
G02*
X-1259000Y-2058000I-40000J0D01*
G01*
X-1367000Y-574000D02*
X-1367000Y-814000D01*
X-1047000Y-534000D02*
X-1327000Y-534000D01*
X-1047000Y-854000D02*
X-1327000Y-854000D01*
X-1007000Y-574000D02*
X-1007000Y-814000D01*
X-1367000Y-574000D02*
G75*
G02*
X-1327000Y-534000I40000J0D01*
G01*
X-1327000Y-854000D02*
G75*
G02*
X-1367000Y-814000I0J40000D01*
G01*
X-1047000Y-534000D02*
G75*
G02*
X-1007000Y-574000I0J-40000D01*
G01*
X-1007000Y-814000D02*
G75*
G02*
X-1047000Y-854000I-40000J0D01*
G01*
X-1141000Y785000D02*
X-1141000Y545000D01*
X-821000Y825000D02*
X-1101000Y825000D01*
X-821000Y505000D02*
X-1101000Y505000D01*
X-781000Y785000D02*
X-781000Y545000D01*
X-1141000Y785000D02*
G75*
G02*
X-1101000Y825000I40000J0D01*
G01*
X-1101000Y505000D02*
G75*
G02*
X-1141000Y545000I0J40000D01*
G01*
X-821000Y825000D02*
G75*
G02*
X-781000Y785000I0J-40000D01*
G01*
X-781000Y545000D02*
G75*
G02*
X-821000Y505000I-40000J0D01*
G01*
X-8046000Y120000D02*
X-8046000Y-120000D01*
X-7726000Y160000D02*
X-8006000Y160000D01*
X-7726000Y-160000D02*
X-8006000Y-160000D01*
X-7686000Y120000D02*
X-7686000Y-120000D01*
X-8046000Y120000D02*
G75*
G02*
X-8006000Y160000I40000J0D01*
G01*
X-8006000Y-160000D02*
G75*
G02*
X-8046000Y-120000I0J40000D01*
G01*
X-7726000Y160000D02*
G75*
G02*
X-7686000Y120000I0J-40000D01*
G01*
X-7686000Y-120000D02*
G75*
G02*
X-7726000Y-160000I-40000J0D01*
G01*
X-3607000Y2015000D02*
X-3607000Y1775000D01*
X-3287000Y2055000D02*
X-3567000Y2055000D01*
X-3287000Y1735000D02*
X-3567000Y1735000D01*
X-3247000Y2015000D02*
X-3247000Y1775000D01*
X-3607000Y2015000D02*
G75*
G02*
X-3567000Y2055000I40000J0D01*
G01*
X-3567000Y1735000D02*
G75*
G02*
X-3607000Y1775000I0J40000D01*
G01*
X-3287000Y2055000D02*
G75*
G02*
X-3247000Y2015000I0J-40000D01*
G01*
X-3247000Y1775000D02*
G75*
G02*
X-3287000Y1735000I-40000J0D01*
G01*
X-8433000Y2015000D02*
X-8433000Y1775000D01*
X-8113000Y2055000D02*
X-8393000Y2055000D01*
X-8113000Y1735000D02*
X-8393000Y1735000D01*
X-8073000Y2015000D02*
X-8073000Y1775000D01*
X-8433000Y2015000D02*
G75*
G02*
X-8393000Y2055000I40000J0D01*
G01*
X-8393000Y1735000D02*
G75*
G02*
X-8433000Y1775000I0J40000D01*
G01*
X-8113000Y2055000D02*
G75*
G02*
X-8073000Y2015000I0J-40000D01*
G01*
X-8073000Y1775000D02*
G75*
G02*
X-8113000Y1735000I-40000J0D01*
G01*
X1153000Y-2445000D02*
X1153000Y-2685000D01*
X1473000Y-2405000D02*
X1193000Y-2405000D01*
X1473000Y-2725000D02*
X1193000Y-2725000D01*
X1513000Y-2445000D02*
X1513000Y-2685000D01*
X1153000Y-2445000D02*
G75*
G02*
X1193000Y-2405000I40000J0D01*
G01*
X1193000Y-2725000D02*
G75*
G02*
X1153000Y-2685000I0J40000D01*
G01*
X1473000Y-2405000D02*
G75*
G02*
X1513000Y-2445000I0J-40000D01*
G01*
X1513000Y-2685000D02*
G75*
G02*
X1473000Y-2725000I-40000J0D01*
G01*
X-6347000Y2685000D02*
X-6347000Y2445000D01*
X-6027000Y2725000D02*
X-6307000Y2725000D01*
X-6027000Y2405000D02*
X-6307000Y2405000D01*
X-5987000Y2685000D02*
X-5987000Y2445000D01*
X-6347000Y2685000D02*
G75*
G02*
X-6307000Y2725000I40000J0D01*
G01*
X-6307000Y2405000D02*
G75*
G02*
X-6347000Y2445000I0J40000D01*
G01*
X-6027000Y2725000D02*
G75*
G02*
X-5987000Y2685000I0J-40000D01*
G01*
X-5987000Y2445000D02*
G75*
G02*
X-6027000Y2405000I-40000J0D01*
G01*
X8131000Y2685000D02*
X8131000Y2445000D01*
X8451000Y2725000D02*
X8171000Y2725000D01*
X8451000Y2405000D02*
X8171000Y2405000D01*
X8491000Y2685000D02*
X8491000Y2445000D01*
X8131000Y2685000D02*
G75*
G02*
X8171000Y2725000I40000J0D01*
G01*
X8171000Y2405000D02*
G75*
G02*
X8131000Y2445000I0J40000D01*
G01*
X8451000Y2725000D02*
G75*
G02*
X8491000Y2685000I0J-40000D01*
G01*
X8491000Y2445000D02*
G75*
G02*
X8451000Y2405000I-40000J0D01*
G01*
X-5756000Y1989000D02*
X-5756000Y1749000D01*
X-5436000Y2029000D02*
X-5716000Y2029000D01*
X-5436000Y1709000D02*
X-5716000Y1709000D01*
X-5396000Y1989000D02*
X-5396000Y1749000D01*
X-5756000Y1989000D02*
G75*
G02*
X-5716000Y2029000I40000J0D01*
G01*
X-5716000Y1709000D02*
G75*
G02*
X-5756000Y1749000I0J40000D01*
G01*
X-5436000Y2029000D02*
G75*
G02*
X-5396000Y1989000I0J-40000D01*
G01*
X-5396000Y1749000D02*
G75*
G02*
X-5436000Y1709000I-40000J0D01*
G01*
X3896000Y1989000D02*
X3896000Y1749000D01*
X4216000Y2029000D02*
X3936000Y2029000D01*
X4216000Y1709000D02*
X3936000Y1709000D01*
X4256000Y1989000D02*
X4256000Y1749000D01*
X3896000Y1989000D02*
G75*
G02*
X3936000Y2029000I40000J0D01*
G01*
X3936000Y1709000D02*
G75*
G02*
X3896000Y1749000I0J40000D01*
G01*
X4216000Y2029000D02*
G75*
G02*
X4256000Y1989000I0J-40000D01*
G01*
X4256000Y1749000D02*
G75*
G02*
X4216000Y1709000I-40000J0D01*
G01*
X-2777000Y2685000D02*
X-2777000Y2445000D01*
X-2457000Y2725000D02*
X-2737000Y2725000D01*
X-2457000Y2405000D02*
X-2737000Y2405000D01*
X-2417000Y2685000D02*
X-2417000Y2445000D01*
X-2777000Y2685000D02*
G75*
G02*
X-2737000Y2725000I40000J0D01*
G01*
X-2737000Y2405000D02*
G75*
G02*
X-2777000Y2445000I0J40000D01*
G01*
X-2457000Y2725000D02*
G75*
G02*
X-2417000Y2685000I0J-40000D01*
G01*
X-2417000Y2445000D02*
G75*
G02*
X-2457000Y2405000I-40000J0D01*
G01*
X-1521000Y2685000D02*
X-1521000Y2445000D01*
X-1201000Y2725000D02*
X-1481000Y2725000D01*
X-1201000Y2405000D02*
X-1481000Y2405000D01*
X-1161000Y2685000D02*
X-1161000Y2445000D01*
X-1521000Y2685000D02*
G75*
G02*
X-1481000Y2725000I40000J0D01*
G01*
X-1481000Y2405000D02*
G75*
G02*
X-1521000Y2445000I0J40000D01*
G01*
X-1201000Y2725000D02*
G75*
G02*
X-1161000Y2685000I0J-40000D01*
G01*
X-1161000Y2445000D02*
G75*
G02*
X-1201000Y2405000I-40000J0D01*
G01*
X3247000Y-1778000D02*
X3247000Y-2018000D01*
X3567000Y-1738000D02*
X3287000Y-1738000D01*
X3567000Y-2058000D02*
X3287000Y-2058000D01*
X3607000Y-1778000D02*
X3607000Y-2018000D01*
X3247000Y-1778000D02*
G75*
G02*
X3287000Y-1738000I40000J0D01*
G01*
X3287000Y-2058000D02*
G75*
G02*
X3247000Y-2018000I0J40000D01*
G01*
X3567000Y-1738000D02*
G75*
G02*
X3607000Y-1778000I0J-40000D01*
G01*
X3607000Y-2018000D02*
G75*
G02*
X3567000Y-2058000I-40000J0D01*
G01*
X-4254000Y-1740000D02*
X-4254000Y-1980000D01*
X-3934000Y-1700000D02*
X-4214000Y-1700000D01*
X-3934000Y-2020000D02*
X-4214000Y-2020000D01*
X-3894000Y-1740000D02*
X-3894000Y-1980000D01*
X-4254000Y-1740000D02*
G75*
G02*
X-4214000Y-1700000I40000J0D01*
G01*
X-4214000Y-2020000D02*
G75*
G02*
X-4254000Y-1980000I0J40000D01*
G01*
X-3934000Y-1700000D02*
G75*
G02*
X-3894000Y-1740000I0J-40000D01*
G01*
X-3894000Y-1980000D02*
G75*
G02*
X-3934000Y-2020000I-40000J0D01*
G01*
X2860000Y120000D02*
X2860000Y-120000D01*
X3180000Y160000D02*
X2900000Y160000D01*
X3180000Y-160000D02*
X2900000Y-160000D01*
X3220000Y120000D02*
X3220000Y-120000D01*
X2860000Y120000D02*
G75*
G02*
X2900000Y160000I40000J0D01*
G01*
X2900000Y-160000D02*
G75*
G02*
X2860000Y-120000I0J40000D01*
G01*
X3180000Y160000D02*
G75*
G02*
X3220000Y120000I0J-40000D01*
G01*
X3220000Y-120000D02*
G75*
G02*
X3180000Y-160000I-40000J0D01*
G01*
X-8499000Y-2445000D02*
X-8499000Y-2685000D01*
X-8179000Y-2405000D02*
X-8459000Y-2405000D01*
X-8179000Y-2725000D02*
X-8459000Y-2725000D01*
X-8139000Y-2445000D02*
X-8139000Y-2685000D01*
X-8499000Y-2445000D02*
G75*
G02*
X-8459000Y-2405000I40000J0D01*
G01*
X-8459000Y-2725000D02*
G75*
G02*
X-8499000Y-2685000I0J40000D01*
G01*
X-8179000Y-2405000D02*
G75*
G02*
X-8139000Y-2445000I0J-40000D01*
G01*
X-8139000Y-2685000D02*
G75*
G02*
X-8179000Y-2725000I-40000J0D01*
G01*
X-2418000Y-2445000D02*
X-2418000Y-2685000D01*
X-2098000Y-2405000D02*
X-2378000Y-2405000D01*
X-2098000Y-2725000D02*
X-2378000Y-2725000D01*
X-2058000Y-2445000D02*
X-2058000Y-2685000D01*
X-2418000Y-2445000D02*
G75*
G02*
X-2378000Y-2405000I40000J0D01*
G01*
X-2378000Y-2725000D02*
G75*
G02*
X-2418000Y-2685000I0J40000D01*
G01*
X-2098000Y-2405000D02*
G75*
G02*
X-2058000Y-2445000I0J-40000D01*
G01*
X-2058000Y-2685000D02*
G75*
G02*
X-2098000Y-2725000I-40000J0D01*
G01*
X-3673000Y-2445000D02*
X-3673000Y-2685000D01*
X-3353000Y-2405000D02*
X-3633000Y-2405000D01*
X-3353000Y-2725000D02*
X-3633000Y-2725000D01*
X-3313000Y-2445000D02*
X-3313000Y-2685000D01*
X-3673000Y-2445000D02*
G75*
G02*
X-3633000Y-2405000I40000J0D01*
G01*
X-3633000Y-2725000D02*
G75*
G02*
X-3673000Y-2685000I0J40000D01*
G01*
X-3353000Y-2405000D02*
G75*
G02*
X-3313000Y-2445000I0J-40000D01*
G01*
X-3313000Y-2685000D02*
G75*
G02*
X-3353000Y-2725000I-40000J0D01*
G01*
X8073000Y-1778000D02*
X8073000Y-2018000D01*
X8393000Y-1738000D02*
X8113000Y-1738000D01*
X8393000Y-2058000D02*
X8113000Y-2058000D01*
X8433000Y-1778000D02*
X8433000Y-2018000D01*
X8073000Y-1778000D02*
G75*
G02*
X8113000Y-1738000I40000J0D01*
G01*
X8113000Y-2058000D02*
G75*
G02*
X8073000Y-2018000I0J40000D01*
G01*
X8393000Y-1738000D02*
G75*
G02*
X8433000Y-1778000I0J-40000D01*
G01*
X8433000Y-2018000D02*
G75*
G02*
X8393000Y-2058000I-40000J0D01*
G01*
X8285000Y-574000D02*
X8285000Y-814000D01*
X8605000Y-534000D02*
X8325000Y-534000D01*
X8605000Y-854000D02*
X8325000Y-854000D01*
X8645000Y-574000D02*
X8645000Y-814000D01*
X8285000Y-574000D02*
G75*
G02*
X8325000Y-534000I40000J0D01*
G01*
X8325000Y-854000D02*
G75*
G02*
X8285000Y-814000I0J40000D01*
G01*
X8605000Y-534000D02*
G75*
G02*
X8645000Y-574000I0J-40000D01*
G01*
X8645000Y-814000D02*
G75*
G02*
X8605000Y-854000I-40000J0D01*
G01*
X3305000Y2685000D02*
X3305000Y2445000D01*
X3625000Y2725000D02*
X3345000Y2725000D01*
X3625000Y2405000D02*
X3345000Y2405000D01*
X3665000Y2685000D02*
X3665000Y2445000D01*
X3305000Y2685000D02*
G75*
G02*
X3345000Y2725000I40000J0D01*
G01*
X3345000Y2405000D02*
G75*
G02*
X3305000Y2445000I0J40000D01*
G01*
X3625000Y2725000D02*
G75*
G02*
X3665000Y2685000I0J-40000D01*
G01*
X3665000Y2445000D02*
G75*
G02*
X3625000Y2405000I-40000J0D01*
G01*
X-9080000Y-1740000D02*
X-9080000Y-1980000D01*
X-8760000Y-1700000D02*
X-9040000Y-1700000D01*
X-8760000Y-2020000D02*
X-9040000Y-2020000D01*
X-8720000Y-1740000D02*
X-8720000Y-1980000D01*
X-9080000Y-1740000D02*
G75*
G02*
X-9040000Y-1700000I40000J0D01*
G01*
X-9040000Y-2020000D02*
G75*
G02*
X-9080000Y-1980000I0J40000D01*
G01*
X-8760000Y-1700000D02*
G75*
G02*
X-8720000Y-1740000I0J-40000D01*
G01*
X-8720000Y-1980000D02*
G75*
G02*
X-8760000Y-2020000I-40000J0D01*
G01*
X-6193000Y-574000D02*
X-6193000Y-814000D01*
X-5873000Y-534000D02*
X-6153000Y-534000D01*
X-5873000Y-854000D02*
X-6153000Y-854000D01*
X-5833000Y-574000D02*
X-5833000Y-814000D01*
X-6193000Y-574000D02*
G75*
G02*
X-6153000Y-534000I40000J0D01*
G01*
X-6153000Y-854000D02*
G75*
G02*
X-6193000Y-814000I0J40000D01*
G01*
X-5873000Y-534000D02*
G75*
G02*
X-5833000Y-574000I0J-40000D01*
G01*
X-5833000Y-814000D02*
G75*
G02*
X-5873000Y-854000I-40000J0D01*
G01*
X-6792000Y120000D02*
X-6792000Y-120000D01*
X-6472000Y160000D02*
X-6752000Y160000D01*
X-6472000Y-160000D02*
X-6752000Y-160000D01*
X-6432000Y120000D02*
X-6432000Y-120000D01*
X-6792000Y120000D02*
G75*
G02*
X-6752000Y160000I40000J0D01*
G01*
X-6752000Y-160000D02*
G75*
G02*
X-6792000Y-120000I0J40000D01*
G01*
X-6472000Y160000D02*
G75*
G02*
X-6432000Y120000I0J-40000D01*
G01*
X-6432000Y-120000D02*
G75*
G02*
X-6472000Y-160000I-40000J0D01*
G01*
X8511000Y785000D02*
X8511000Y545000D01*
X8831000Y825000D02*
X8551000Y825000D01*
X8831000Y505000D02*
X8551000Y505000D01*
X8871000Y785000D02*
X8871000Y545000D01*
X8511000Y785000D02*
G75*
G02*
X8551000Y825000I40000J0D01*
G01*
X8551000Y505000D02*
G75*
G02*
X8511000Y545000I0J40000D01*
G01*
X8831000Y825000D02*
G75*
G02*
X8871000Y785000I0J-40000D01*
G01*
X8871000Y545000D02*
G75*
G02*
X8831000Y505000I-40000J0D01*
G01*
X-5967000Y785000D02*
X-5967000Y545000D01*
X-5647000Y825000D02*
X-5927000Y825000D01*
X-5647000Y505000D02*
X-5927000Y505000D01*
X-5607000Y785000D02*
X-5607000Y545000D01*
X-5967000Y785000D02*
G75*
G02*
X-5927000Y825000I40000J0D01*
G01*
X-5927000Y505000D02*
G75*
G02*
X-5967000Y545000I0J40000D01*
G01*
X-5647000Y825000D02*
G75*
G02*
X-5607000Y785000I0J-40000D01*
G01*
X-5607000Y545000D02*
G75*
G02*
X-5647000Y505000I-40000J0D01*
G01*
X572000Y-1740000D02*
X572000Y-1980000D01*
X892000Y-1700000D02*
X612000Y-1700000D01*
X892000Y-2020000D02*
X612000Y-2020000D01*
X932000Y-1740000D02*
X932000Y-1980000D01*
X572000Y-1740000D02*
G75*
G02*
X612000Y-1700000I40000J0D01*
G01*
X612000Y-2020000D02*
G75*
G02*
X572000Y-1980000I0J40000D01*
G01*
X892000Y-1700000D02*
G75*
G02*
X932000Y-1740000I0J-40000D01*
G01*
X932000Y-1980000D02*
G75*
G02*
X892000Y-2020000I-40000J0D01*
G01*
X-3819000Y813000D02*
X-3819000Y573000D01*
X-3499000Y853000D02*
X-3779000Y853000D01*
X-3499000Y533000D02*
X-3779000Y533000D01*
X-3459000Y813000D02*
X-3459000Y573000D01*
X-3819000Y813000D02*
G75*
G02*
X-3779000Y853000I40000J0D01*
G01*
X-3779000Y533000D02*
G75*
G02*
X-3819000Y573000I0J40000D01*
G01*
X-3499000Y853000D02*
G75*
G02*
X-3459000Y813000I0J-40000D01*
G01*
X-3459000Y573000D02*
G75*
G02*
X-3499000Y533000I-40000J0D01*
G01*
X-8871000Y-552000D02*
X-8871000Y-792000D01*
X-8551000Y-512000D02*
X-8831000Y-512000D01*
X-8551000Y-832000D02*
X-8831000Y-832000D01*
X-8511000Y-552000D02*
X-8511000Y-792000D01*
X-8871000Y-552000D02*
G75*
G02*
X-8831000Y-512000I40000J0D01*
G01*
X-8831000Y-832000D02*
G75*
G02*
X-8871000Y-792000I0J40000D01*
G01*
X-8551000Y-512000D02*
G75*
G02*
X-8511000Y-552000I0J-40000D01*
G01*
X-8511000Y-792000D02*
G75*
G02*
X-8551000Y-832000I-40000J0D01*
G01*
X-869000Y-2396000D02*
X-869000Y-2636000D01*
X-549000Y-2356000D02*
X-829000Y-2356000D01*
X-549000Y-2676000D02*
X-829000Y-2676000D01*
X-509000Y-2396000D02*
X-509000Y-2636000D01*
X-869000Y-2396000D02*
G75*
G02*
X-829000Y-2356000I40000J0D01*
G01*
X-829000Y-2676000D02*
G75*
G02*
X-869000Y-2636000I0J40000D01*
G01*
X-549000Y-2356000D02*
G75*
G02*
X-509000Y-2396000I0J-40000D01*
G01*
X-509000Y-2636000D02*
G75*
G02*
X-549000Y-2676000I-40000J0D01*
G01*
X-8645000Y813000D02*
X-8645000Y573000D01*
X-8325000Y853000D02*
X-8605000Y853000D01*
X-8325000Y533000D02*
X-8605000Y533000D01*
X-8285000Y813000D02*
X-8285000Y573000D01*
X-8645000Y813000D02*
G75*
G02*
X-8605000Y853000I40000J0D01*
G01*
X-8605000Y533000D02*
G75*
G02*
X-8645000Y573000I0J40000D01*
G01*
X-8325000Y853000D02*
G75*
G02*
X-8285000Y813000I0J-40000D01*
G01*
X-8285000Y573000D02*
G75*
G02*
X-8325000Y533000I-40000J0D01*
G01*
X1219000Y2015000D02*
X1219000Y1775000D01*
X1539000Y2055000D02*
X1259000Y2055000D01*
X1539000Y1735000D02*
X1259000Y1735000D01*
X1579000Y2015000D02*
X1579000Y1775000D01*
X1219000Y2015000D02*
G75*
G02*
X1259000Y2055000I40000J0D01*
G01*
X1259000Y1735000D02*
G75*
G02*
X1219000Y1775000I0J40000D01*
G01*
X1539000Y2055000D02*
G75*
G02*
X1579000Y2015000I0J-40000D01*
G01*
X1579000Y1775000D02*
G75*
G02*
X1539000Y1735000I-40000J0D01*
G01*
X-7603000Y2685000D02*
X-7603000Y2445000D01*
X-7283000Y2725000D02*
X-7563000Y2725000D01*
X-7283000Y2405000D02*
X-7563000Y2405000D01*
X-7243000Y2685000D02*
X-7243000Y2445000D01*
X-7603000Y2685000D02*
G75*
G02*
X-7563000Y2725000I40000J0D01*
G01*
X-7563000Y2405000D02*
G75*
G02*
X-7603000Y2445000I0J40000D01*
G01*
X-7283000Y2725000D02*
G75*
G02*
X-7243000Y2685000I0J-40000D01*
G01*
X-7243000Y2445000D02*
G75*
G02*
X-7283000Y2405000I-40000J0D01*
G01*
X3685000Y785000D02*
X3685000Y545000D01*
X4005000Y825000D02*
X3725000Y825000D01*
X4005000Y505000D02*
X3725000Y505000D01*
X4045000Y785000D02*
X4045000Y545000D01*
X3685000Y785000D02*
G75*
G02*
X3725000Y825000I40000J0D01*
G01*
X3725000Y505000D02*
G75*
G02*
X3685000Y545000I0J40000D01*
G01*
X4005000Y825000D02*
G75*
G02*
X4045000Y785000I0J-40000D01*
G01*
X4045000Y545000D02*
G75*
G02*
X4005000Y505000I-40000J0D01*
G01*
X5833000Y813000D02*
X5833000Y573000D01*
X6153000Y853000D02*
X5873000Y853000D01*
X6153000Y533000D02*
X5873000Y533000D01*
X6193000Y813000D02*
X6193000Y573000D01*
X5833000Y813000D02*
G75*
G02*
X5873000Y853000I40000J0D01*
G01*
X5873000Y533000D02*
G75*
G02*
X5833000Y573000I0J40000D01*
G01*
X6153000Y853000D02*
G75*
G02*
X6193000Y813000I0J-40000D01*
G01*
X6193000Y573000D02*
G75*
G02*
X6153000Y533000I-40000J0D01*
G01*
X6875000Y2685000D02*
X6875000Y2445000D01*
X7195000Y2725000D02*
X6915000Y2725000D01*
X7195000Y2405000D02*
X6915000Y2405000D01*
X7235000Y2685000D02*
X7235000Y2445000D01*
X6875000Y2685000D02*
G75*
G02*
X6915000Y2725000I40000J0D01*
G01*
X6915000Y2405000D02*
G75*
G02*
X6875000Y2445000I0J40000D01*
G01*
X7195000Y2725000D02*
G75*
G02*
X7235000Y2685000I0J-40000D01*
G01*
X7235000Y2445000D02*
G75*
G02*
X7195000Y2405000I-40000J0D01*
G01*
X-4045000Y-552000D02*
X-4045000Y-792000D01*
X-3725000Y-512000D02*
X-4005000Y-512000D01*
X-3725000Y-832000D02*
X-4005000Y-832000D01*
X-3685000Y-552000D02*
X-3685000Y-792000D01*
X-4045000Y-552000D02*
G75*
G02*
X-4005000Y-512000I40000J0D01*
G01*
X-4005000Y-832000D02*
G75*
G02*
X-4045000Y-792000I0J40000D01*
G01*
X-3725000Y-512000D02*
G75*
G02*
X-3685000Y-552000I0J-40000D01*
G01*
X-3685000Y-792000D02*
G75*
G02*
X-3725000Y-832000I-40000J0D01*
G01*
X-3220000Y120000D02*
X-3220000Y-120000D01*
X-2900000Y160000D02*
X-3180000Y160000D01*
X-2900000Y-160000D02*
X-3180000Y-160000D01*
X-2860000Y120000D02*
X-2860000Y-120000D01*
X-3220000Y120000D02*
G75*
G02*
X-3180000Y160000I40000J0D01*
G01*
X-3180000Y-160000D02*
G75*
G02*
X-3220000Y-120000I0J40000D01*
G01*
X-2900000Y160000D02*
G75*
G02*
X-2860000Y120000I0J-40000D01*
G01*
X-2860000Y-120000D02*
G75*
G02*
X-2900000Y-160000I-40000J0D01*
G01*
X7234000Y-2445000D02*
X7234000Y-2685000D01*
X7554000Y-2405000D02*
X7274000Y-2405000D01*
X7554000Y-2725000D02*
X7274000Y-2725000D01*
X7594000Y-2445000D02*
X7594000Y-2685000D01*
X7234000Y-2445000D02*
G75*
G02*
X7274000Y-2405000I40000J0D01*
G01*
X7274000Y-2725000D02*
G75*
G02*
X7234000Y-2685000I0J40000D01*
G01*
X7554000Y-2405000D02*
G75*
G02*
X7594000Y-2445000I0J-40000D01*
G01*
X7594000Y-2685000D02*
G75*
G02*
X7554000Y-2725000I-40000J0D01*
G01*
X-6405000Y-1778000D02*
X-6405000Y-2018000D01*
X-6085000Y-1738000D02*
X-6365000Y-1738000D01*
X-6085000Y-2058000D02*
X-6365000Y-2058000D01*
X-6045000Y-1778000D02*
X-6045000Y-2018000D01*
X-6405000Y-1778000D02*
G75*
G02*
X-6365000Y-1738000I40000J0D01*
G01*
X-6365000Y-2058000D02*
G75*
G02*
X-6405000Y-2018000I0J40000D01*
G01*
X-6085000Y-1738000D02*
G75*
G02*
X-6045000Y-1778000I0J-40000D01*
G01*
X-6045000Y-2018000D02*
G75*
G02*
X-6085000Y-2058000I-40000J0D01*
G01*
X1007000Y813000D02*
X1007000Y573000D01*
X1327000Y853000D02*
X1047000Y853000D01*
X1327000Y533000D02*
X1047000Y533000D01*
X1367000Y813000D02*
X1367000Y573000D01*
X1007000Y813000D02*
G75*
G02*
X1047000Y853000I40000J0D01*
G01*
X1047000Y533000D02*
G75*
G02*
X1007000Y573000I0J40000D01*
G01*
X1327000Y853000D02*
G75*
G02*
X1367000Y813000I0J-40000D01*
G01*
X1367000Y573000D02*
G75*
G02*
X1327000Y533000I-40000J0D01*
G01*
X-930000Y1989000D02*
X-930000Y1749000D01*
X-610000Y2029000D02*
X-890000Y2029000D01*
X-610000Y1709000D02*
X-890000Y1709000D01*
X-570000Y1989000D02*
X-570000Y1749000D01*
X-930000Y1989000D02*
G75*
G02*
X-890000Y2029000I40000J0D01*
G01*
X-890000Y1709000D02*
G75*
G02*
X-930000Y1749000I0J40000D01*
G01*
X-610000Y2029000D02*
G75*
G02*
X-570000Y1989000I0J-40000D01*
G01*
X-570000Y1749000D02*
G75*
G02*
X-610000Y1709000I-40000J0D01*
G01*
X3459000Y-574000D02*
X3459000Y-814000D01*
X3779000Y-534000D02*
X3499000Y-534000D01*
X3779000Y-854000D02*
X3499000Y-854000D01*
X3819000Y-574000D02*
X3819000Y-814000D01*
X3459000Y-574000D02*
G75*
G02*
X3499000Y-534000I40000J0D01*
G01*
X3499000Y-854000D02*
G75*
G02*
X3459000Y-814000I0J40000D01*
G01*
X3779000Y-534000D02*
G75*
G02*
X3819000Y-574000I0J-40000D01*
G01*
X3819000Y-814000D02*
G75*
G02*
X3779000Y-854000I-40000J0D01*
G01*
X1606000Y120000D02*
X1606000Y-120000D01*
X1926000Y160000D02*
X1646000Y160000D01*
X1926000Y-160000D02*
X1646000Y-160000D01*
X1966000Y120000D02*
X1966000Y-120000D01*
X1606000Y120000D02*
G75*
G02*
X1646000Y160000I40000J0D01*
G01*
X1646000Y-160000D02*
G75*
G02*
X1606000Y-120000I0J40000D01*
G01*
X1926000Y160000D02*
G75*
G02*
X1966000Y120000I0J-40000D01*
G01*
X1966000Y-120000D02*
G75*
G02*
X1926000Y-160000I-40000J0D01*
G01*
X781000Y-552000D02*
X781000Y-792000D01*
X1101000Y-512000D02*
X821000Y-512000D01*
X1101000Y-832000D02*
X821000Y-832000D01*
X1141000Y-552000D02*
X1141000Y-792000D01*
X781000Y-552000D02*
G75*
G02*
X821000Y-512000I40000J0D01*
G01*
X821000Y-832000D02*
G75*
G02*
X781000Y-792000I0J40000D01*
G01*
X1101000Y-512000D02*
G75*
G02*
X1141000Y-552000I0J-40000D01*
G01*
X1141000Y-792000D02*
G75*
G02*
X1101000Y-832000I-40000J0D01*
G01*
X7686000Y120000D02*
X7686000Y-120000D01*
X8006000Y160000D02*
X7726000Y160000D01*
X8006000Y-160000D02*
X7726000Y-160000D01*
X8046000Y120000D02*
X8046000Y-120000D01*
X7686000Y120000D02*
G75*
G02*
X7726000Y160000I40000J0D01*
G01*
X7726000Y-160000D02*
G75*
G02*
X7686000Y-120000I0J40000D01*
G01*
X8006000Y160000D02*
G75*
G02*
X8046000Y120000I0J-40000D01*
G01*
X8046000Y-120000D02*
G75*
G02*
X8006000Y-160000I-40000J0D01*
G01*
X-1966000Y120000D02*
X-1966000Y-120000D01*
X-1646000Y160000D02*
X-1926000Y160000D01*
X-1646000Y-160000D02*
X-1926000Y-160000D01*
X-1606000Y120000D02*
X-1606000Y-120000D01*
X-1966000Y120000D02*
G75*
G02*
X-1926000Y160000I40000J0D01*
G01*
X-1926000Y-160000D02*
G75*
G02*
X-1966000Y-120000I0J40000D01*
G01*
X-1646000Y160000D02*
G75*
G02*
X-1606000Y120000I0J-40000D01*
G01*
X-1606000Y-120000D02*
G75*
G02*
X-1646000Y-160000I-40000J0D01*
G01*
X2049000Y2685000D02*
X2049000Y2445000D01*
X2369000Y2725000D02*
X2089000Y2725000D01*
X2369000Y2405000D02*
X2089000Y2405000D01*
X2409000Y2685000D02*
X2409000Y2445000D01*
X2049000Y2685000D02*
G75*
G02*
X2089000Y2725000I40000J0D01*
G01*
X2089000Y2405000D02*
G75*
G02*
X2049000Y2445000I0J40000D01*
G01*
X2369000Y2725000D02*
G75*
G02*
X2409000Y2685000I0J-40000D01*
G01*
X2409000Y2445000D02*
G75*
G02*
X2369000Y2405000I-40000J0D01*
G01*
X-5695000Y-2396000D02*
X-5695000Y-2636000D01*
X-5375000Y-2356000D02*
X-5655000Y-2356000D01*
X-5375000Y-2676000D02*
X-5655000Y-2676000D01*
X-5335000Y-2396000D02*
X-5335000Y-2636000D01*
X-5695000Y-2396000D02*
G75*
G02*
X-5655000Y-2356000I40000J0D01*
G01*
X-5655000Y-2676000D02*
G75*
G02*
X-5695000Y-2636000I0J40000D01*
G01*
X-5375000Y-2356000D02*
G75*
G02*
X-5335000Y-2396000I0J-40000D01*
G01*
X-5335000Y-2636000D02*
G75*
G02*
X-5375000Y-2676000I-40000J0D01*
G01*
X-7244000Y-2445000D02*
X-7244000Y-2685000D01*
X-6924000Y-2405000D02*
X-7204000Y-2405000D01*
X-6924000Y-2725000D02*
X-7204000Y-2725000D01*
X-6884000Y-2445000D02*
X-6884000Y-2685000D01*
X-7244000Y-2445000D02*
G75*
G02*
X-7204000Y-2405000I40000J0D01*
G01*
X-7204000Y-2725000D02*
G75*
G02*
X-7244000Y-2685000I0J40000D01*
G01*
X-6924000Y-2405000D02*
G75*
G02*
X-6884000Y-2445000I0J-40000D01*
G01*
X-6884000Y-2685000D02*
G75*
G02*
X-6924000Y-2725000I-40000J0D01*
G01*
X6045000Y2015000D02*
X6045000Y1775000D01*
X6365000Y2055000D02*
X6085000Y2055000D01*
X6365000Y1735000D02*
X6085000Y1735000D01*
X6405000Y2015000D02*
X6405000Y1775000D01*
X6045000Y2015000D02*
G75*
G02*
X6085000Y2055000I40000J0D01*
G01*
X6085000Y1735000D02*
G75*
G02*
X6045000Y1775000I0J40000D01*
G01*
X6365000Y2055000D02*
G75*
G02*
X6405000Y2015000I0J-40000D01*
G01*
X6405000Y1775000D02*
G75*
G02*
X6365000Y1735000I-40000J0D01*
G01*
X2408000Y-2445000D02*
X2408000Y-2685000D01*
X2728000Y-2405000D02*
X2448000Y-2405000D01*
X2728000Y-2725000D02*
X2448000Y-2725000D01*
X2768000Y-2445000D02*
X2768000Y-2685000D01*
X2408000Y-2445000D02*
G75*
G02*
X2448000Y-2405000I40000J0D01*
G01*
X2448000Y-2725000D02*
G75*
G02*
X2408000Y-2685000I0J40000D01*
G01*
X2728000Y-2405000D02*
G75*
G02*
X2768000Y-2445000I0J-40000D01*
G01*
X2768000Y-2685000D02*
G75*
G02*
X2728000Y-2725000I-40000J0D01*
G01*
X5979000Y-2445000D02*
X5979000Y-2685000D01*
X6299000Y-2405000D02*
X6019000Y-2405000D01*
X6299000Y-2725000D02*
X6019000Y-2725000D01*
X6339000Y-2445000D02*
X6339000Y-2685000D01*
X5979000Y-2445000D02*
G75*
G02*
X6019000Y-2405000I40000J0D01*
G01*
X6019000Y-2725000D02*
G75*
G02*
X5979000Y-2685000I0J40000D01*
G01*
X6299000Y-2405000D02*
G75*
G02*
X6339000Y-2445000I0J-40000D01*
G01*
X6339000Y-2685000D02*
G75*
G02*
X6299000Y-2725000I-40000J0D01*
G01*
X8722000Y1989000D02*
X8722000Y1749000D01*
X9042000Y2029000D02*
X8762000Y2029000D01*
X9042000Y1709000D02*
X8762000Y1709000D01*
X9082000Y1989000D02*
X9082000Y1749000D01*
X8722000Y1989000D02*
G75*
G02*
X8762000Y2029000I40000J0D01*
G01*
X8762000Y1709000D02*
G75*
G02*
X8722000Y1749000I0J40000D01*
G01*
X9042000Y2029000D02*
G75*
G02*
X9082000Y1989000I0J-40000D01*
G01*
X9082000Y1749000D02*
G75*
G02*
X9042000Y1709000I-40000J0D01*
G01*
X8783000Y-2396000D02*
X8783000Y-2636000D01*
X9103000Y-2356000D02*
X8823000Y-2356000D01*
X9103000Y-2676000D02*
X8823000Y-2676000D01*
X9143000Y-2396000D02*
X9143000Y-2636000D01*
X8783000Y-2396000D02*
G75*
G02*
X8823000Y-2356000I40000J0D01*
G01*
X8823000Y-2676000D02*
G75*
G02*
X8783000Y-2636000I0J40000D01*
G01*
X9103000Y-2356000D02*
G75*
G02*
X9143000Y-2396000I0J-40000D01*
G01*
X9143000Y-2636000D02*
G75*
G02*
X9103000Y-2676000I-40000J0D01*
G01*
X6432000Y120000D02*
X6432000Y-120000D01*
X6752000Y160000D02*
X6472000Y160000D01*
X6752000Y-160000D02*
X6472000Y-160000D01*
X6792000Y120000D02*
X6792000Y-120000D01*
X6432000Y120000D02*
G75*
G02*
X6472000Y160000I40000J0D01*
G01*
X6472000Y-160000D02*
G75*
G02*
X6432000Y-120000I0J40000D01*
G01*
X6752000Y160000D02*
G75*
G02*
X6792000Y120000I0J-40000D01*
G01*
X6792000Y-120000D02*
G75*
G02*
X6752000Y-160000I-40000J0D01*
G01*
D11*
D12*
X-9249000Y3153000D02*
X-9039000Y2943000D01*
X-9039000Y3153000D02*
X-9249000Y2943000D01*
X-9249000Y-2943000D02*
X-9039000Y-3153000D01*
X-9039000Y-2943000D02*
X-9249000Y-3153000D01*
X-5439000Y3153000D02*
X-5229000Y2943000D01*
X-5229000Y3153000D02*
X-5439000Y2943000D01*
X-5439000Y-2943000D02*
X-5229000Y-3153000D01*
X-5229000Y-2943000D02*
X-5439000Y-3153000D01*
X-4423000Y3153000D02*
X-4213000Y2943000D01*
X-4213000Y3153000D02*
X-4423000Y2943000D01*
X-4423000Y-2943000D02*
X-4213000Y-3153000D01*
X-4213000Y-2943000D02*
X-4423000Y-3153000D01*
X-613000Y3153000D02*
X-403000Y2943000D01*
X-403000Y3153000D02*
X-613000Y2943000D01*
X-613000Y-2943000D02*
X-403000Y-3153000D01*
X-403000Y-2943000D02*
X-613000Y-3153000D01*
X403000Y3153000D02*
X613000Y2943000D01*
X613000Y3153000D02*
X403000Y2943000D01*
X403000Y-2943000D02*
X613000Y-3153000D01*
X613000Y-2943000D02*
X403000Y-3153000D01*
X4213000Y3153000D02*
X4423000Y2943000D01*
X4423000Y3153000D02*
X4213000Y2943000D01*
X4213000Y-2943000D02*
X4423000Y-3153000D01*
X4423000Y-2943000D02*
X4213000Y-3153000D01*
X5229000Y3153000D02*
X5439000Y2943000D01*
X5439000Y3153000D02*
X5229000Y2943000D01*
X5229000Y-2943000D02*
X5439000Y-3153000D01*
X5439000Y-2943000D02*
X5229000Y-3153000D01*
X9039000Y3153000D02*
X9249000Y2943000D01*
X9249000Y3153000D02*
X9039000Y2943000D01*
X9039000Y-2943000D02*
X9249000Y-3153000D01*
X9249000Y-2943000D02*
X9039000Y-3153000D01*
D11*
X-9330223Y-4885984D02*
X-9330223Y-4685984D01*
X-9330223Y-4685984D02*
X-9282604Y-4685984D01*
X-9282604Y-4685984D02*
X-9254033Y-4695508D01*
X-9254033Y-4695508D02*
X-9234985Y-4714555D01*
X-9234985Y-4714555D02*
X-9225461Y-4733603D01*
X-9225461Y-4733603D02*
X-9215937Y-4771698D01*
X-9215937Y-4771698D02*
X-9215937Y-4800270D01*
X-9215937Y-4800270D02*
X-9225461Y-4838365D01*
X-9225461Y-4838365D02*
X-9234985Y-4857412D01*
X-9234985Y-4857412D02*
X-9254033Y-4876460D01*
X-9254033Y-4876460D02*
X-9282604Y-4885984D01*
X-9282604Y-4885984D02*
X-9330223Y-4885984D01*
X-9130223Y-4885984D02*
X-9130223Y-4752650D01*
X-9130223Y-4790746D02*
X-9120699Y-4771698D01*
X-9120699Y-4771698D02*
X-9111176Y-4762174D01*
X-9111176Y-4762174D02*
X-9092128Y-4752650D01*
X-9092128Y-4752650D02*
X-9073080Y-4752650D01*
X-9006414Y-4885984D02*
X-9006414Y-4752650D01*
X-9006414Y-4685984D02*
X-9015937Y-4695508D01*
X-9015937Y-4695508D02*
X-9006414Y-4705031D01*
X-9006414Y-4705031D02*
X-8996890Y-4695508D01*
X-8996890Y-4695508D02*
X-9006414Y-4685984D01*
X-9006414Y-4685984D02*
X-9006414Y-4705031D01*
X-8882604Y-4885984D02*
X-8901652Y-4876460D01*
X-8901652Y-4876460D02*
X-8911176Y-4857412D01*
X-8911176Y-4857412D02*
X-8911176Y-4685984D01*
X-8777842Y-4885984D02*
X-8796890Y-4876460D01*
X-8796890Y-4876460D02*
X-8806414Y-4857412D01*
X-8806414Y-4857412D02*
X-8806414Y-4685984D01*
X-8549271Y-4885984D02*
X-8549271Y-4685984D01*
X-8549271Y-4685984D02*
X-8482604Y-4828841D01*
X-8482604Y-4828841D02*
X-8415937Y-4685984D01*
X-8415937Y-4685984D02*
X-8415937Y-4885984D01*
X-8234985Y-4885984D02*
X-8234985Y-4781222D01*
X-8234985Y-4781222D02*
X-8244509Y-4762174D01*
X-8244509Y-4762174D02*
X-8263556Y-4752650D01*
X-8263556Y-4752650D02*
X-8301652Y-4752650D01*
X-8301652Y-4752650D02*
X-8320699Y-4762174D01*
X-8234985Y-4876460D02*
X-8254033Y-4885984D01*
X-8254033Y-4885984D02*
X-8301652Y-4885984D01*
X-8301652Y-4885984D02*
X-8320699Y-4876460D01*
X-8320699Y-4876460D02*
X-8330223Y-4857412D01*
X-8330223Y-4857412D02*
X-8330223Y-4838365D01*
X-8330223Y-4838365D02*
X-8320699Y-4819317D01*
X-8320699Y-4819317D02*
X-8301652Y-4809793D01*
X-8301652Y-4809793D02*
X-8254033Y-4809793D01*
X-8254033Y-4809793D02*
X-8234985Y-4800270D01*
X-8139747Y-4752650D02*
X-8139747Y-4952650D01*
X-8139747Y-4762174D02*
X-8120699Y-4752650D01*
X-8120699Y-4752650D02*
X-8082604Y-4752650D01*
X-8082604Y-4752650D02*
X-8063556Y-4762174D01*
X-8063556Y-4762174D02*
X-8054033Y-4771698D01*
X-8054033Y-4771698D02*
X-8044509Y-4790746D01*
X-8044509Y-4790746D02*
X-8044509Y-4847889D01*
X-8044509Y-4847889D02*
X-8054033Y-4866936D01*
X-8054033Y-4866936D02*
X-8063556Y-4876460D01*
X-8063556Y-4876460D02*
X-8082604Y-4885984D01*
X-8082604Y-4885984D02*
X-8120699Y-4885984D01*
X-8120699Y-4885984D02*
X-8139747Y-4876460D01*
X-7958794Y-4866936D02*
X-7949271Y-4876460D01*
X-7949271Y-4876460D02*
X-7958794Y-4885984D01*
X-7958794Y-4885984D02*
X-7968318Y-4876460D01*
X-7968318Y-4876460D02*
X-7958794Y-4866936D01*
X-7958794Y-4866936D02*
X-7958794Y-4885984D01*
X-7958794Y-4762174D02*
X-7949271Y-4771698D01*
X-7949271Y-4771698D02*
X-7958794Y-4781222D01*
X-7958794Y-4781222D02*
X-7968318Y-4771698D01*
X-7968318Y-4771698D02*
X-7958794Y-4762174D01*
X-7958794Y-4762174D02*
X-7958794Y-4781222D01*
X-9791000Y-5114500D02*
X-9591000Y-5314500D01*
X-9591000Y-5114500D02*
X-9791000Y-5314500D01*
X-9339747Y-5125031D02*
X-9330223Y-5115508D01*
X-9330223Y-5115508D02*
X-9311176Y-5105984D01*
X-9311176Y-5105984D02*
X-9263556Y-5105984D01*
X-9263556Y-5105984D02*
X-9244509Y-5115508D01*
X-9244509Y-5115508D02*
X-9234985Y-5125031D01*
X-9234985Y-5125031D02*
X-9225461Y-5144079D01*
X-9225461Y-5144079D02*
X-9225461Y-5163127D01*
X-9225461Y-5163127D02*
X-9234985Y-5191698D01*
X-9234985Y-5191698D02*
X-9349271Y-5305984D01*
X-9349271Y-5305984D02*
X-9225461Y-5305984D01*
X-9139747Y-5286936D02*
X-9130223Y-5296460D01*
X-9130223Y-5296460D02*
X-9139747Y-5305984D01*
X-9139747Y-5305984D02*
X-9149271Y-5296460D01*
X-9149271Y-5296460D02*
X-9139747Y-5286936D01*
X-9139747Y-5286936D02*
X-9139747Y-5305984D01*
X-8939747Y-5305984D02*
X-9054033Y-5305984D01*
X-8996890Y-5305984D02*
X-8996890Y-5105984D01*
X-8996890Y-5105984D02*
X-9015937Y-5134555D01*
X-9015937Y-5134555D02*
X-9034985Y-5153603D01*
X-9034985Y-5153603D02*
X-9054033Y-5163127D01*
X-8815937Y-5105984D02*
X-8796890Y-5105984D01*
X-8796890Y-5105984D02*
X-8777842Y-5115508D01*
X-8777842Y-5115508D02*
X-8768318Y-5125031D01*
X-8768318Y-5125031D02*
X-8758795Y-5144079D01*
X-8758795Y-5144079D02*
X-8749271Y-5182174D01*
X-8749271Y-5182174D02*
X-8749271Y-5229793D01*
X-8749271Y-5229793D02*
X-8758795Y-5267889D01*
X-8758795Y-5267889D02*
X-8768318Y-5286936D01*
X-8768318Y-5286936D02*
X-8777842Y-5296460D01*
X-8777842Y-5296460D02*
X-8796890Y-5305984D01*
X-8796890Y-5305984D02*
X-8815937Y-5305984D01*
X-8815937Y-5305984D02*
X-8834985Y-5296460D01*
X-8834985Y-5296460D02*
X-8844509Y-5286936D01*
X-8844509Y-5286936D02*
X-8854033Y-5267889D01*
X-8854033Y-5267889D02*
X-8863556Y-5229793D01*
X-8863556Y-5229793D02*
X-8863556Y-5182174D01*
X-8863556Y-5182174D02*
X-8854033Y-5144079D01*
X-8854033Y-5144079D02*
X-8844509Y-5125031D01*
X-8844509Y-5125031D02*
X-8834985Y-5115508D01*
X-8834985Y-5115508D02*
X-8815937Y-5105984D01*
X-8625461Y-5105984D02*
X-8606414Y-5105984D01*
X-8606414Y-5105984D02*
X-8587366Y-5115508D01*
X-8587366Y-5115508D02*
X-8577842Y-5125031D01*
X-8577842Y-5125031D02*
X-8568318Y-5144079D01*
X-8568318Y-5144079D02*
X-8558795Y-5182174D01*
X-8558795Y-5182174D02*
X-8558795Y-5229793D01*
X-8558795Y-5229793D02*
X-8568318Y-5267889D01*
X-8568318Y-5267889D02*
X-8577842Y-5286936D01*
X-8577842Y-5286936D02*
X-8587366Y-5296460D01*
X-8587366Y-5296460D02*
X-8606414Y-5305984D01*
X-8606414Y-5305984D02*
X-8625461Y-5305984D01*
X-8625461Y-5305984D02*
X-8644509Y-5296460D01*
X-8644509Y-5296460D02*
X-8654033Y-5286936D01*
X-8654033Y-5286936D02*
X-8663556Y-5267889D01*
X-8663556Y-5267889D02*
X-8673080Y-5229793D01*
X-8673080Y-5229793D02*
X-8673080Y-5182174D01*
X-8673080Y-5182174D02*
X-8663556Y-5144079D01*
X-8663556Y-5144079D02*
X-8654033Y-5125031D01*
X-8654033Y-5125031D02*
X-8644509Y-5115508D01*
X-8644509Y-5115508D02*
X-8625461Y-5105984D01*
X-8473080Y-5305984D02*
X-8473080Y-5172650D01*
X-8473080Y-5191698D02*
X-8463556Y-5182174D01*
X-8463556Y-5182174D02*
X-8444509Y-5172650D01*
X-8444509Y-5172650D02*
X-8415937Y-5172650D01*
X-8415937Y-5172650D02*
X-8396890Y-5182174D01*
X-8396890Y-5182174D02*
X-8387366Y-5201222D01*
X-8387366Y-5201222D02*
X-8387366Y-5305984D01*
X-8387366Y-5201222D02*
X-8377842Y-5182174D01*
X-8377842Y-5182174D02*
X-8358794Y-5172650D01*
X-8358794Y-5172650D02*
X-8330223Y-5172650D01*
X-8330223Y-5172650D02*
X-8311175Y-5182174D01*
X-8311175Y-5182174D02*
X-8301652Y-5201222D01*
X-8301652Y-5201222D02*
X-8301652Y-5305984D01*
X-8206413Y-5305984D02*
X-8206413Y-5172650D01*
X-8206413Y-5191698D02*
X-8196890Y-5182174D01*
X-8196890Y-5182174D02*
X-8177842Y-5172650D01*
X-8177842Y-5172650D02*
X-8149271Y-5172650D01*
X-8149271Y-5172650D02*
X-8130223Y-5182174D01*
X-8130223Y-5182174D02*
X-8120699Y-5201222D01*
X-8120699Y-5201222D02*
X-8120699Y-5305984D01*
X-8120699Y-5201222D02*
X-8111175Y-5182174D01*
X-8111175Y-5182174D02*
X-8092128Y-5172650D01*
X-8092128Y-5172650D02*
X-8063556Y-5172650D01*
X-8063556Y-5172650D02*
X-8044509Y-5182174D01*
X-8044509Y-5182174D02*
X-8034985Y-5201222D01*
X-8034985Y-5201222D02*
X-8034985Y-5305984D01*
X-7644509Y-5096460D02*
X-7815937Y-5353603D01*
X-7387366Y-5105984D02*
X-7368318Y-5105984D01*
X-7368318Y-5105984D02*
X-7349270Y-5115508D01*
X-7349270Y-5115508D02*
X-7339747Y-5125031D01*
X-7339747Y-5125031D02*
X-7330223Y-5144079D01*
X-7330223Y-5144079D02*
X-7320699Y-5182174D01*
X-7320699Y-5182174D02*
X-7320699Y-5229793D01*
X-7320699Y-5229793D02*
X-7330223Y-5267889D01*
X-7330223Y-5267889D02*
X-7339747Y-5286936D01*
X-7339747Y-5286936D02*
X-7349270Y-5296460D01*
X-7349270Y-5296460D02*
X-7368318Y-5305984D01*
X-7368318Y-5305984D02*
X-7387366Y-5305984D01*
X-7387366Y-5305984D02*
X-7406413Y-5296460D01*
X-7406413Y-5296460D02*
X-7415937Y-5286936D01*
X-7415937Y-5286936D02*
X-7425461Y-5267889D01*
X-7425461Y-5267889D02*
X-7434985Y-5229793D01*
X-7434985Y-5229793D02*
X-7434985Y-5182174D01*
X-7434985Y-5182174D02*
X-7425461Y-5144079D01*
X-7425461Y-5144079D02*
X-7415937Y-5125031D01*
X-7415937Y-5125031D02*
X-7406413Y-5115508D01*
X-7406413Y-5115508D02*
X-7387366Y-5105984D01*
X-7234985Y-5286936D02*
X-7225461Y-5296460D01*
X-7225461Y-5296460D02*
X-7234985Y-5305984D01*
X-7234985Y-5305984D02*
X-7244509Y-5296460D01*
X-7244509Y-5296460D02*
X-7234985Y-5286936D01*
X-7234985Y-5286936D02*
X-7234985Y-5305984D01*
X-7101651Y-5105984D02*
X-7082604Y-5105984D01*
X-7082604Y-5105984D02*
X-7063556Y-5115508D01*
X-7063556Y-5115508D02*
X-7054032Y-5125031D01*
X-7054032Y-5125031D02*
X-7044509Y-5144079D01*
X-7044509Y-5144079D02*
X-7034985Y-5182174D01*
X-7034985Y-5182174D02*
X-7034985Y-5229793D01*
X-7034985Y-5229793D02*
X-7044509Y-5267889D01*
X-7044509Y-5267889D02*
X-7054032Y-5286936D01*
X-7054032Y-5286936D02*
X-7063556Y-5296460D01*
X-7063556Y-5296460D02*
X-7082604Y-5305984D01*
X-7082604Y-5305984D02*
X-7101651Y-5305984D01*
X-7101651Y-5305984D02*
X-7120699Y-5296460D01*
X-7120699Y-5296460D02*
X-7130223Y-5286936D01*
X-7130223Y-5286936D02*
X-7139747Y-5267889D01*
X-7139747Y-5267889D02*
X-7149270Y-5229793D01*
X-7149270Y-5229793D02*
X-7149270Y-5182174D01*
X-7149270Y-5182174D02*
X-7139747Y-5144079D01*
X-7139747Y-5144079D02*
X-7130223Y-5125031D01*
X-7130223Y-5125031D02*
X-7120699Y-5115508D01*
X-7120699Y-5115508D02*
X-7101651Y-5105984D01*
X-6920699Y-5191698D02*
X-6939747Y-5182174D01*
X-6939747Y-5182174D02*
X-6949270Y-5172650D01*
X-6949270Y-5172650D02*
X-6958794Y-5153603D01*
X-6958794Y-5153603D02*
X-6958794Y-5144079D01*
X-6958794Y-5144079D02*
X-6949270Y-5125031D01*
X-6949270Y-5125031D02*
X-6939747Y-5115508D01*
X-6939747Y-5115508D02*
X-6920699Y-5105984D01*
X-6920699Y-5105984D02*
X-6882604Y-5105984D01*
X-6882604Y-5105984D02*
X-6863556Y-5115508D01*
X-6863556Y-5115508D02*
X-6854032Y-5125031D01*
X-6854032Y-5125031D02*
X-6844509Y-5144079D01*
X-6844509Y-5144079D02*
X-6844509Y-5153603D01*
X-6844509Y-5153603D02*
X-6854032Y-5172650D01*
X-6854032Y-5172650D02*
X-6863556Y-5182174D01*
X-6863556Y-5182174D02*
X-6882604Y-5191698D01*
X-6882604Y-5191698D02*
X-6920699Y-5191698D01*
X-6920699Y-5191698D02*
X-6939747Y-5201222D01*
X-6939747Y-5201222D02*
X-6949270Y-5210746D01*
X-6949270Y-5210746D02*
X-6958794Y-5229793D01*
X-6958794Y-5229793D02*
X-6958794Y-5267889D01*
X-6958794Y-5267889D02*
X-6949270Y-5286936D01*
X-6949270Y-5286936D02*
X-6939747Y-5296460D01*
X-6939747Y-5296460D02*
X-6920699Y-5305984D01*
X-6920699Y-5305984D02*
X-6882604Y-5305984D01*
X-6882604Y-5305984D02*
X-6863556Y-5296460D01*
X-6863556Y-5296460D02*
X-6854032Y-5286936D01*
X-6854032Y-5286936D02*
X-6844509Y-5267889D01*
X-6844509Y-5267889D02*
X-6844509Y-5229793D01*
X-6844509Y-5229793D02*
X-6854032Y-5210746D01*
X-6854032Y-5210746D02*
X-6863556Y-5201222D01*
X-6863556Y-5201222D02*
X-6882604Y-5191698D01*
X-6768318Y-5125031D02*
X-6758794Y-5115508D01*
X-6758794Y-5115508D02*
X-6739747Y-5105984D01*
X-6739747Y-5105984D02*
X-6692128Y-5105984D01*
X-6692128Y-5105984D02*
X-6673080Y-5115508D01*
X-6673080Y-5115508D02*
X-6663556Y-5125031D01*
X-6663556Y-5125031D02*
X-6654032Y-5144079D01*
X-6654032Y-5144079D02*
X-6654032Y-5163127D01*
X-6654032Y-5163127D02*
X-6663556Y-5191698D01*
X-6663556Y-5191698D02*
X-6777842Y-5305984D01*
X-6777842Y-5305984D02*
X-6654032Y-5305984D01*
X-6587366Y-5105984D02*
X-6454032Y-5105984D01*
X-6454032Y-5105984D02*
X-6539747Y-5305984D01*
X-6387366Y-5105984D02*
X-6387366Y-5144079D01*
X-6311175Y-5105984D02*
X-6311175Y-5144079D01*
X-6015937Y-5382174D02*
X-6025461Y-5372650D01*
X-6025461Y-5372650D02*
X-6044508Y-5344079D01*
X-6044508Y-5344079D02*
X-6054032Y-5325031D01*
X-6054032Y-5325031D02*
X-6063556Y-5296460D01*
X-6063556Y-5296460D02*
X-6073080Y-5248841D01*
X-6073080Y-5248841D02*
X-6073080Y-5210746D01*
X-6073080Y-5210746D02*
X-6063556Y-5163127D01*
X-6063556Y-5163127D02*
X-6054032Y-5134555D01*
X-6054032Y-5134555D02*
X-6044508Y-5115508D01*
X-6044508Y-5115508D02*
X-6025461Y-5086936D01*
X-6025461Y-5086936D02*
X-6015937Y-5077412D01*
X-5834985Y-5305984D02*
X-5949270Y-5305984D01*
X-5892128Y-5305984D02*
X-5892128Y-5105984D01*
X-5892128Y-5105984D02*
X-5911175Y-5134555D01*
X-5911175Y-5134555D02*
X-5930223Y-5153603D01*
X-5930223Y-5153603D02*
X-5949270Y-5163127D01*
X-5663556Y-5105984D02*
X-5701651Y-5105984D01*
X-5701651Y-5105984D02*
X-5720699Y-5115508D01*
X-5720699Y-5115508D02*
X-5730223Y-5125031D01*
X-5730223Y-5125031D02*
X-5749270Y-5153603D01*
X-5749270Y-5153603D02*
X-5758794Y-5191698D01*
X-5758794Y-5191698D02*
X-5758794Y-5267889D01*
X-5758794Y-5267889D02*
X-5749270Y-5286936D01*
X-5749270Y-5286936D02*
X-5739747Y-5296460D01*
X-5739747Y-5296460D02*
X-5720699Y-5305984D01*
X-5720699Y-5305984D02*
X-5682604Y-5305984D01*
X-5682604Y-5305984D02*
X-5663556Y-5296460D01*
X-5663556Y-5296460D02*
X-5654032Y-5286936D01*
X-5654032Y-5286936D02*
X-5644508Y-5267889D01*
X-5644508Y-5267889D02*
X-5644508Y-5220270D01*
X-5644508Y-5220270D02*
X-5654032Y-5201222D01*
X-5654032Y-5201222D02*
X-5663556Y-5191698D01*
X-5663556Y-5191698D02*
X-5682604Y-5182174D01*
X-5682604Y-5182174D02*
X-5720699Y-5182174D01*
X-5720699Y-5182174D02*
X-5739747Y-5191698D01*
X-5739747Y-5191698D02*
X-5749270Y-5201222D01*
X-5749270Y-5201222D02*
X-5758794Y-5220270D01*
X-5406413Y-5305984D02*
X-5406413Y-5105984D01*
X-5320699Y-5305984D02*
X-5320699Y-5201222D01*
X-5320699Y-5201222D02*
X-5330223Y-5182174D01*
X-5330223Y-5182174D02*
X-5349270Y-5172650D01*
X-5349270Y-5172650D02*
X-5377842Y-5172650D01*
X-5377842Y-5172650D02*
X-5396889Y-5182174D01*
X-5396889Y-5182174D02*
X-5406413Y-5191698D01*
X-5196889Y-5305984D02*
X-5215937Y-5296460D01*
X-5215937Y-5296460D02*
X-5225461Y-5286936D01*
X-5225461Y-5286936D02*
X-5234985Y-5267889D01*
X-5234985Y-5267889D02*
X-5234985Y-5210746D01*
X-5234985Y-5210746D02*
X-5225461Y-5191698D01*
X-5225461Y-5191698D02*
X-5215937Y-5182174D01*
X-5215937Y-5182174D02*
X-5196889Y-5172650D01*
X-5196889Y-5172650D02*
X-5168318Y-5172650D01*
X-5168318Y-5172650D02*
X-5149270Y-5182174D01*
X-5149270Y-5182174D02*
X-5139747Y-5191698D01*
X-5139747Y-5191698D02*
X-5130223Y-5210746D01*
X-5130223Y-5210746D02*
X-5130223Y-5267889D01*
X-5130223Y-5267889D02*
X-5139747Y-5286936D01*
X-5139747Y-5286936D02*
X-5149270Y-5296460D01*
X-5149270Y-5296460D02*
X-5168318Y-5305984D01*
X-5168318Y-5305984D02*
X-5196889Y-5305984D01*
X-5015937Y-5305984D02*
X-5034985Y-5296460D01*
X-5034985Y-5296460D02*
X-5044508Y-5277412D01*
X-5044508Y-5277412D02*
X-5044508Y-5105984D01*
X-4863556Y-5296460D02*
X-4882604Y-5305984D01*
X-4882604Y-5305984D02*
X-4920699Y-5305984D01*
X-4920699Y-5305984D02*
X-4939747Y-5296460D01*
X-4939747Y-5296460D02*
X-4949270Y-5277412D01*
X-4949270Y-5277412D02*
X-4949270Y-5201222D01*
X-4949270Y-5201222D02*
X-4939747Y-5182174D01*
X-4939747Y-5182174D02*
X-4920699Y-5172650D01*
X-4920699Y-5172650D02*
X-4882604Y-5172650D01*
X-4882604Y-5172650D02*
X-4863556Y-5182174D01*
X-4863556Y-5182174D02*
X-4854032Y-5201222D01*
X-4854032Y-5201222D02*
X-4854032Y-5220270D01*
X-4854032Y-5220270D02*
X-4949270Y-5239317D01*
X-4777842Y-5296460D02*
X-4758794Y-5305984D01*
X-4758794Y-5305984D02*
X-4720699Y-5305984D01*
X-4720699Y-5305984D02*
X-4701651Y-5296460D01*
X-4701651Y-5296460D02*
X-4692127Y-5277412D01*
X-4692127Y-5277412D02*
X-4692127Y-5267889D01*
X-4692127Y-5267889D02*
X-4701651Y-5248841D01*
X-4701651Y-5248841D02*
X-4720699Y-5239317D01*
X-4720699Y-5239317D02*
X-4749270Y-5239317D01*
X-4749270Y-5239317D02*
X-4768318Y-5229793D01*
X-4768318Y-5229793D02*
X-4777842Y-5210746D01*
X-4777842Y-5210746D02*
X-4777842Y-5201222D01*
X-4777842Y-5201222D02*
X-4768318Y-5182174D01*
X-4768318Y-5182174D02*
X-4749270Y-5172650D01*
X-4749270Y-5172650D02*
X-4720699Y-5172650D01*
X-4720699Y-5172650D02*
X-4701651Y-5182174D01*
X-4625461Y-5382174D02*
X-4615937Y-5372650D01*
X-4615937Y-5372650D02*
X-4596889Y-5344079D01*
X-4596889Y-5344079D02*
X-4587366Y-5325031D01*
X-4587366Y-5325031D02*
X-4577842Y-5296460D01*
X-4577842Y-5296460D02*
X-4568318Y-5248841D01*
X-4568318Y-5248841D02*
X-4568318Y-5210746D01*
X-4568318Y-5210746D02*
X-4577842Y-5163127D01*
X-4577842Y-5163127D02*
X-4587366Y-5134555D01*
X-4587366Y-5134555D02*
X-4596889Y-5115508D01*
X-4596889Y-5115508D02*
X-4615937Y-5086936D01*
X-4615937Y-5086936D02*
X-4625461Y-5077412D01*
X-4263556Y-5382174D02*
X-4273080Y-5372650D01*
X-4273080Y-5372650D02*
X-4292127Y-5344079D01*
X-4292127Y-5344079D02*
X-4301651Y-5325031D01*
X-4301651Y-5325031D02*
X-4311175Y-5296460D01*
X-4311175Y-5296460D02*
X-4320699Y-5248841D01*
X-4320699Y-5248841D02*
X-4320699Y-5210746D01*
X-4320699Y-5210746D02*
X-4311175Y-5163127D01*
X-4311175Y-5163127D02*
X-4301651Y-5134555D01*
X-4301651Y-5134555D02*
X-4292127Y-5115508D01*
X-4292127Y-5115508D02*
X-4273080Y-5086936D01*
X-4273080Y-5086936D02*
X-4263556Y-5077412D01*
X-4187365Y-5172650D02*
X-4187365Y-5305984D01*
X-4187365Y-5191698D02*
X-4177842Y-5182174D01*
X-4177842Y-5182174D02*
X-4158794Y-5172650D01*
X-4158794Y-5172650D02*
X-4130223Y-5172650D01*
X-4130223Y-5172650D02*
X-4111175Y-5182174D01*
X-4111175Y-5182174D02*
X-4101651Y-5201222D01*
X-4101651Y-5201222D02*
X-4101651Y-5305984D01*
X-3977842Y-5305984D02*
X-3996889Y-5296460D01*
X-3996889Y-5296460D02*
X-4006413Y-5286936D01*
X-4006413Y-5286936D02*
X-4015937Y-5267889D01*
X-4015937Y-5267889D02*
X-4015937Y-5210746D01*
X-4015937Y-5210746D02*
X-4006413Y-5191698D01*
X-4006413Y-5191698D02*
X-3996889Y-5182174D01*
X-3996889Y-5182174D02*
X-3977842Y-5172650D01*
X-3977842Y-5172650D02*
X-3949270Y-5172650D01*
X-3949270Y-5172650D02*
X-3930223Y-5182174D01*
X-3930223Y-5182174D02*
X-3920699Y-5191698D01*
X-3920699Y-5191698D02*
X-3911175Y-5210746D01*
X-3911175Y-5210746D02*
X-3911175Y-5267889D01*
X-3911175Y-5267889D02*
X-3920699Y-5286936D01*
X-3920699Y-5286936D02*
X-3930223Y-5296460D01*
X-3930223Y-5296460D02*
X-3949270Y-5305984D01*
X-3949270Y-5305984D02*
X-3977842Y-5305984D01*
X-3854032Y-5172650D02*
X-3777842Y-5172650D01*
X-3825461Y-5105984D02*
X-3825461Y-5277412D01*
X-3825461Y-5277412D02*
X-3815937Y-5296460D01*
X-3815937Y-5296460D02*
X-3796889Y-5305984D01*
X-3796889Y-5305984D02*
X-3777842Y-5305984D01*
X-3558794Y-5172650D02*
X-3558794Y-5372650D01*
X-3558794Y-5182174D02*
X-3539746Y-5172650D01*
X-3539746Y-5172650D02*
X-3501651Y-5172650D01*
X-3501651Y-5172650D02*
X-3482603Y-5182174D01*
X-3482603Y-5182174D02*
X-3473080Y-5191698D01*
X-3473080Y-5191698D02*
X-3463556Y-5210746D01*
X-3463556Y-5210746D02*
X-3463556Y-5267889D01*
X-3463556Y-5267889D02*
X-3473080Y-5286936D01*
X-3473080Y-5286936D02*
X-3482603Y-5296460D01*
X-3482603Y-5296460D02*
X-3501651Y-5305984D01*
X-3501651Y-5305984D02*
X-3539746Y-5305984D01*
X-3539746Y-5305984D02*
X-3558794Y-5296460D01*
X-3349270Y-5305984D02*
X-3368318Y-5296460D01*
X-3368318Y-5296460D02*
X-3377842Y-5277412D01*
X-3377842Y-5277412D02*
X-3377842Y-5105984D01*
X-3187365Y-5305984D02*
X-3187365Y-5201222D01*
X-3187365Y-5201222D02*
X-3196889Y-5182174D01*
X-3196889Y-5182174D02*
X-3215937Y-5172650D01*
X-3215937Y-5172650D02*
X-3254032Y-5172650D01*
X-3254032Y-5172650D02*
X-3273080Y-5182174D01*
X-3187365Y-5296460D02*
X-3206413Y-5305984D01*
X-3206413Y-5305984D02*
X-3254032Y-5305984D01*
X-3254032Y-5305984D02*
X-3273080Y-5296460D01*
X-3273080Y-5296460D02*
X-3282603Y-5277412D01*
X-3282603Y-5277412D02*
X-3282603Y-5258365D01*
X-3282603Y-5258365D02*
X-3273080Y-5239317D01*
X-3273080Y-5239317D02*
X-3254032Y-5229793D01*
X-3254032Y-5229793D02*
X-3206413Y-5229793D01*
X-3206413Y-5229793D02*
X-3187365Y-5220270D01*
X-3120699Y-5172650D02*
X-3044508Y-5172650D01*
X-3092127Y-5105984D02*
X-3092127Y-5277412D01*
X-3092127Y-5277412D02*
X-3082603Y-5296460D01*
X-3082603Y-5296460D02*
X-3063556Y-5305984D01*
X-3063556Y-5305984D02*
X-3044508Y-5305984D01*
X-2901651Y-5296460D02*
X-2920699Y-5305984D01*
X-2920699Y-5305984D02*
X-2958794Y-5305984D01*
X-2958794Y-5305984D02*
X-2977842Y-5296460D01*
X-2977842Y-5296460D02*
X-2987365Y-5277412D01*
X-2987365Y-5277412D02*
X-2987365Y-5201222D01*
X-2987365Y-5201222D02*
X-2977842Y-5182174D01*
X-2977842Y-5182174D02*
X-2958794Y-5172650D01*
X-2958794Y-5172650D02*
X-2920699Y-5172650D01*
X-2920699Y-5172650D02*
X-2901651Y-5182174D01*
X-2901651Y-5182174D02*
X-2892127Y-5201222D01*
X-2892127Y-5201222D02*
X-2892127Y-5220270D01*
X-2892127Y-5220270D02*
X-2987365Y-5239317D01*
X-2720699Y-5305984D02*
X-2720699Y-5105984D01*
X-2720699Y-5296460D02*
X-2739746Y-5305984D01*
X-2739746Y-5305984D02*
X-2777842Y-5305984D01*
X-2777842Y-5305984D02*
X-2796889Y-5296460D01*
X-2796889Y-5296460D02*
X-2806413Y-5286936D01*
X-2806413Y-5286936D02*
X-2815937Y-5267889D01*
X-2815937Y-5267889D02*
X-2815937Y-5210746D01*
X-2815937Y-5210746D02*
X-2806413Y-5191698D01*
X-2806413Y-5191698D02*
X-2796889Y-5182174D01*
X-2796889Y-5182174D02*
X-2777842Y-5172650D01*
X-2777842Y-5172650D02*
X-2739746Y-5172650D01*
X-2739746Y-5172650D02*
X-2720699Y-5182174D01*
X-2644508Y-5382174D02*
X-2634984Y-5372650D01*
X-2634984Y-5372650D02*
X-2615937Y-5344079D01*
X-2615937Y-5344079D02*
X-2606413Y-5325031D01*
X-2606413Y-5325031D02*
X-2596889Y-5296460D01*
X-2596889Y-5296460D02*
X-2587365Y-5248841D01*
X-2587365Y-5248841D02*
X-2587365Y-5210746D01*
X-2587365Y-5210746D02*
X-2596889Y-5163127D01*
X-2596889Y-5163127D02*
X-2606413Y-5134555D01*
X-2606413Y-5134555D02*
X-2615937Y-5115508D01*
X-2615937Y-5115508D02*
X-2634984Y-5086936D01*
X-2634984Y-5086936D02*
X-2644508Y-5077412D01*
M02*
