%TF.GenerationSoftware,KiCad,Pcbnew,9.0.4*%
%TF.CreationDate,2025-08-31T21:09:59+02:00*%
%TF.ProjectId,n-teller-xl-diy,6e2d7465-6c6c-4657-922d-786c2d646979,1.0*%
%TF.SameCoordinates,Original*%
%TF.FileFunction,Drillmap*%
%TF.FilePolarity,Positive*%
%FSLAX45Y45*%
G04 Gerber Fmt 4.5, Leading zero omitted, Abs format (unit mm)*
G04 Created by KiCad (PCBNEW 9.0.4) date 2025-08-31 21:09:59*
%MOMM*%
%LPD*%
G01*
G04 APERTURE LIST*
%ADD10C,0.050000*%
%ADD11C,0.200000*%
%ADD12C,0.100000*%
%ADD13C,0.320000*%
G04 APERTURE END LIST*
D10*
X9779000Y3492500D02*
X13081000Y3492500D01*
X9080500Y4572000D02*
G75*
G02*
X9588500Y4064000I0J-508000D01*
G01*
X9588500Y-4064000D02*
G75*
G02*
X9080500Y-4572000I-508000J0D01*
G01*
X-9588500Y4064000D02*
G75*
G02*
X-9080500Y4572000I508000J0D01*
G01*
X9588500Y4064000D02*
X9588500Y3683000D01*
X-9080500Y4572000D02*
X9080500Y4572000D01*
X9779000Y-3492500D02*
X13081000Y-3492500D01*
X9588500Y-4064000D02*
X9588500Y-3683000D01*
X9080500Y-4572000D02*
X-9080500Y-4572000D01*
X13271500Y-3302000D02*
X13271500Y3302000D01*
X-9080500Y-4572000D02*
G75*
G02*
X-9588500Y-4064000I0J508000D01*
G01*
X13081000Y3492500D02*
G75*
G02*
X13271500Y3302000I0J-190500D01*
G01*
X9779000Y3492500D02*
G75*
G02*
X9588500Y3683000I0J190500D01*
G01*
X9588500Y-3683000D02*
G75*
G02*
X9779000Y-3492500I190500J0D01*
G01*
X13271500Y-3302000D02*
G75*
G02*
X13081000Y-3492500I-190500J0D01*
G01*
X-9588500Y4064000D02*
X-9588500Y-4064000D01*
X3957000Y-2396000D02*
X3957000Y-2636000D01*
X4277000Y-2356000D02*
X3997000Y-2356000D01*
X4277000Y-2676000D02*
X3997000Y-2676000D01*
X4317000Y-2396000D02*
X4317000Y-2636000D01*
X3957000Y-2396000D02*
G75*
G02*
X3997000Y-2356000I40000J0D01*
G01*
X3997000Y-2676000D02*
G75*
G02*
X3957000Y-2636000I0J40000D01*
G01*
X4277000Y-2356000D02*
G75*
G02*
X4317000Y-2396000I0J-40000D01*
G01*
X4317000Y-2636000D02*
G75*
G02*
X4277000Y-2676000I-40000J0D01*
G01*
X5398000Y-1740000D02*
X5398000Y-1980000D01*
X5718000Y-1700000D02*
X5438000Y-1700000D01*
X5718000Y-2020000D02*
X5438000Y-2020000D01*
X5758000Y-1740000D02*
X5758000Y-1980000D01*
X5398000Y-1740000D02*
G75*
G02*
X5438000Y-1700000I40000J0D01*
G01*
X5438000Y-2020000D02*
G75*
G02*
X5398000Y-1980000I0J40000D01*
G01*
X5718000Y-1700000D02*
G75*
G02*
X5758000Y-1740000I0J-40000D01*
G01*
X5758000Y-1980000D02*
G75*
G02*
X5718000Y-2020000I-40000J0D01*
G01*
X5607000Y-552000D02*
X5607000Y-792000D01*
X5927000Y-512000D02*
X5647000Y-512000D01*
X5927000Y-832000D02*
X5647000Y-832000D01*
X5967000Y-552000D02*
X5967000Y-792000D01*
X5607000Y-552000D02*
G75*
G02*
X5647000Y-512000I40000J0D01*
G01*
X5647000Y-832000D02*
G75*
G02*
X5607000Y-792000I0J40000D01*
G01*
X5927000Y-512000D02*
G75*
G02*
X5967000Y-552000I0J-40000D01*
G01*
X5967000Y-792000D02*
G75*
G02*
X5927000Y-832000I-40000J0D01*
G01*
X-1579000Y-1778000D02*
X-1579000Y-2018000D01*
X-1259000Y-1738000D02*
X-1539000Y-1738000D01*
X-1259000Y-2058000D02*
X-1539000Y-2058000D01*
X-1219000Y-1778000D02*
X-1219000Y-2018000D01*
X-1579000Y-1778000D02*
G75*
G02*
X-1539000Y-1738000I40000J0D01*
G01*
X-1539000Y-2058000D02*
G75*
G02*
X-1579000Y-2018000I0J40000D01*
G01*
X-1259000Y-1738000D02*
G75*
G02*
X-1219000Y-1778000I0J-40000D01*
G01*
X-1219000Y-2018000D02*
G75*
G02*
X-1259000Y-2058000I-40000J0D01*
G01*
X-1367000Y-574000D02*
X-1367000Y-814000D01*
X-1047000Y-534000D02*
X-1327000Y-534000D01*
X-1047000Y-854000D02*
X-1327000Y-854000D01*
X-1007000Y-574000D02*
X-1007000Y-814000D01*
X-1367000Y-574000D02*
G75*
G02*
X-1327000Y-534000I40000J0D01*
G01*
X-1327000Y-854000D02*
G75*
G02*
X-1367000Y-814000I0J40000D01*
G01*
X-1047000Y-534000D02*
G75*
G02*
X-1007000Y-574000I0J-40000D01*
G01*
X-1007000Y-814000D02*
G75*
G02*
X-1047000Y-854000I-40000J0D01*
G01*
X-1141000Y785000D02*
X-1141000Y545000D01*
X-821000Y825000D02*
X-1101000Y825000D01*
X-821000Y505000D02*
X-1101000Y505000D01*
X-781000Y785000D02*
X-781000Y545000D01*
X-1141000Y785000D02*
G75*
G02*
X-1101000Y825000I40000J0D01*
G01*
X-1101000Y505000D02*
G75*
G02*
X-1141000Y545000I0J40000D01*
G01*
X-821000Y825000D02*
G75*
G02*
X-781000Y785000I0J-40000D01*
G01*
X-781000Y545000D02*
G75*
G02*
X-821000Y505000I-40000J0D01*
G01*
X-8046000Y120000D02*
X-8046000Y-120000D01*
X-7726000Y160000D02*
X-8006000Y160000D01*
X-7726000Y-160000D02*
X-8006000Y-160000D01*
X-7686000Y120000D02*
X-7686000Y-120000D01*
X-8046000Y120000D02*
G75*
G02*
X-8006000Y160000I40000J0D01*
G01*
X-8006000Y-160000D02*
G75*
G02*
X-8046000Y-120000I0J40000D01*
G01*
X-7726000Y160000D02*
G75*
G02*
X-7686000Y120000I0J-40000D01*
G01*
X-7686000Y-120000D02*
G75*
G02*
X-7726000Y-160000I-40000J0D01*
G01*
X-3607000Y2015000D02*
X-3607000Y1775000D01*
X-3287000Y2055000D02*
X-3567000Y2055000D01*
X-3287000Y1735000D02*
X-3567000Y1735000D01*
X-3247000Y2015000D02*
X-3247000Y1775000D01*
X-3607000Y2015000D02*
G75*
G02*
X-3567000Y2055000I40000J0D01*
G01*
X-3567000Y1735000D02*
G75*
G02*
X-3607000Y1775000I0J40000D01*
G01*
X-3287000Y2055000D02*
G75*
G02*
X-3247000Y2015000I0J-40000D01*
G01*
X-3247000Y1775000D02*
G75*
G02*
X-3287000Y1735000I-40000J0D01*
G01*
X-8433000Y2015000D02*
X-8433000Y1775000D01*
X-8113000Y2055000D02*
X-8393000Y2055000D01*
X-8113000Y1735000D02*
X-8393000Y1735000D01*
X-8073000Y2015000D02*
X-8073000Y1775000D01*
X-8433000Y2015000D02*
G75*
G02*
X-8393000Y2055000I40000J0D01*
G01*
X-8393000Y1735000D02*
G75*
G02*
X-8433000Y1775000I0J40000D01*
G01*
X-8113000Y2055000D02*
G75*
G02*
X-8073000Y2015000I0J-40000D01*
G01*
X-8073000Y1775000D02*
G75*
G02*
X-8113000Y1735000I-40000J0D01*
G01*
X1153000Y-2445000D02*
X1153000Y-2685000D01*
X1473000Y-2405000D02*
X1193000Y-2405000D01*
X1473000Y-2725000D02*
X1193000Y-2725000D01*
X1513000Y-2445000D02*
X1513000Y-2685000D01*
X1153000Y-2445000D02*
G75*
G02*
X1193000Y-2405000I40000J0D01*
G01*
X1193000Y-2725000D02*
G75*
G02*
X1153000Y-2685000I0J40000D01*
G01*
X1473000Y-2405000D02*
G75*
G02*
X1513000Y-2445000I0J-40000D01*
G01*
X1513000Y-2685000D02*
G75*
G02*
X1473000Y-2725000I-40000J0D01*
G01*
X-6347000Y2685000D02*
X-6347000Y2445000D01*
X-6027000Y2725000D02*
X-6307000Y2725000D01*
X-6027000Y2405000D02*
X-6307000Y2405000D01*
X-5987000Y2685000D02*
X-5987000Y2445000D01*
X-6347000Y2685000D02*
G75*
G02*
X-6307000Y2725000I40000J0D01*
G01*
X-6307000Y2405000D02*
G75*
G02*
X-6347000Y2445000I0J40000D01*
G01*
X-6027000Y2725000D02*
G75*
G02*
X-5987000Y2685000I0J-40000D01*
G01*
X-5987000Y2445000D02*
G75*
G02*
X-6027000Y2405000I-40000J0D01*
G01*
X8131000Y2685000D02*
X8131000Y2445000D01*
X8451000Y2725000D02*
X8171000Y2725000D01*
X8451000Y2405000D02*
X8171000Y2405000D01*
X8491000Y2685000D02*
X8491000Y2445000D01*
X8131000Y2685000D02*
G75*
G02*
X8171000Y2725000I40000J0D01*
G01*
X8171000Y2405000D02*
G75*
G02*
X8131000Y2445000I0J40000D01*
G01*
X8451000Y2725000D02*
G75*
G02*
X8491000Y2685000I0J-40000D01*
G01*
X8491000Y2445000D02*
G75*
G02*
X8451000Y2405000I-40000J0D01*
G01*
X-5756000Y1989000D02*
X-5756000Y1749000D01*
X-5436000Y2029000D02*
X-5716000Y2029000D01*
X-5436000Y1709000D02*
X-5716000Y1709000D01*
X-5396000Y1989000D02*
X-5396000Y1749000D01*
X-5756000Y1989000D02*
G75*
G02*
X-5716000Y2029000I40000J0D01*
G01*
X-5716000Y1709000D02*
G75*
G02*
X-5756000Y1749000I0J40000D01*
G01*
X-5436000Y2029000D02*
G75*
G02*
X-5396000Y1989000I0J-40000D01*
G01*
X-5396000Y1749000D02*
G75*
G02*
X-5436000Y1709000I-40000J0D01*
G01*
X3896000Y1989000D02*
X3896000Y1749000D01*
X4216000Y2029000D02*
X3936000Y2029000D01*
X4216000Y1709000D02*
X3936000Y1709000D01*
X4256000Y1989000D02*
X4256000Y1749000D01*
X3896000Y1989000D02*
G75*
G02*
X3936000Y2029000I40000J0D01*
G01*
X3936000Y1709000D02*
G75*
G02*
X3896000Y1749000I0J40000D01*
G01*
X4216000Y2029000D02*
G75*
G02*
X4256000Y1989000I0J-40000D01*
G01*
X4256000Y1749000D02*
G75*
G02*
X4216000Y1709000I-40000J0D01*
G01*
X-2777000Y2685000D02*
X-2777000Y2445000D01*
X-2457000Y2725000D02*
X-2737000Y2725000D01*
X-2457000Y2405000D02*
X-2737000Y2405000D01*
X-2417000Y2685000D02*
X-2417000Y2445000D01*
X-2777000Y2685000D02*
G75*
G02*
X-2737000Y2725000I40000J0D01*
G01*
X-2737000Y2405000D02*
G75*
G02*
X-2777000Y2445000I0J40000D01*
G01*
X-2457000Y2725000D02*
G75*
G02*
X-2417000Y2685000I0J-40000D01*
G01*
X-2417000Y2445000D02*
G75*
G02*
X-2457000Y2405000I-40000J0D01*
G01*
X-1521000Y2685000D02*
X-1521000Y2445000D01*
X-1201000Y2725000D02*
X-1481000Y2725000D01*
X-1201000Y2405000D02*
X-1481000Y2405000D01*
X-1161000Y2685000D02*
X-1161000Y2445000D01*
X-1521000Y2685000D02*
G75*
G02*
X-1481000Y2725000I40000J0D01*
G01*
X-1481000Y2405000D02*
G75*
G02*
X-1521000Y2445000I0J40000D01*
G01*
X-1201000Y2725000D02*
G75*
G02*
X-1161000Y2685000I0J-40000D01*
G01*
X-1161000Y2445000D02*
G75*
G02*
X-1201000Y2405000I-40000J0D01*
G01*
X3247000Y-1778000D02*
X3247000Y-2018000D01*
X3567000Y-1738000D02*
X3287000Y-1738000D01*
X3567000Y-2058000D02*
X3287000Y-2058000D01*
X3607000Y-1778000D02*
X3607000Y-2018000D01*
X3247000Y-1778000D02*
G75*
G02*
X3287000Y-1738000I40000J0D01*
G01*
X3287000Y-2058000D02*
G75*
G02*
X3247000Y-2018000I0J40000D01*
G01*
X3567000Y-1738000D02*
G75*
G02*
X3607000Y-1778000I0J-40000D01*
G01*
X3607000Y-2018000D02*
G75*
G02*
X3567000Y-2058000I-40000J0D01*
G01*
X-4254000Y-1740000D02*
X-4254000Y-1980000D01*
X-3934000Y-1700000D02*
X-4214000Y-1700000D01*
X-3934000Y-2020000D02*
X-4214000Y-2020000D01*
X-3894000Y-1740000D02*
X-3894000Y-1980000D01*
X-4254000Y-1740000D02*
G75*
G02*
X-4214000Y-1700000I40000J0D01*
G01*
X-4214000Y-2020000D02*
G75*
G02*
X-4254000Y-1980000I0J40000D01*
G01*
X-3934000Y-1700000D02*
G75*
G02*
X-3894000Y-1740000I0J-40000D01*
G01*
X-3894000Y-1980000D02*
G75*
G02*
X-3934000Y-2020000I-40000J0D01*
G01*
X2860000Y120000D02*
X2860000Y-120000D01*
X3180000Y160000D02*
X2900000Y160000D01*
X3180000Y-160000D02*
X2900000Y-160000D01*
X3220000Y120000D02*
X3220000Y-120000D01*
X2860000Y120000D02*
G75*
G02*
X2900000Y160000I40000J0D01*
G01*
X2900000Y-160000D02*
G75*
G02*
X2860000Y-120000I0J40000D01*
G01*
X3180000Y160000D02*
G75*
G02*
X3220000Y120000I0J-40000D01*
G01*
X3220000Y-120000D02*
G75*
G02*
X3180000Y-160000I-40000J0D01*
G01*
X-8499000Y-2445000D02*
X-8499000Y-2685000D01*
X-8179000Y-2405000D02*
X-8459000Y-2405000D01*
X-8179000Y-2725000D02*
X-8459000Y-2725000D01*
X-8139000Y-2445000D02*
X-8139000Y-2685000D01*
X-8499000Y-2445000D02*
G75*
G02*
X-8459000Y-2405000I40000J0D01*
G01*
X-8459000Y-2725000D02*
G75*
G02*
X-8499000Y-2685000I0J40000D01*
G01*
X-8179000Y-2405000D02*
G75*
G02*
X-8139000Y-2445000I0J-40000D01*
G01*
X-8139000Y-2685000D02*
G75*
G02*
X-8179000Y-2725000I-40000J0D01*
G01*
X-2418000Y-2445000D02*
X-2418000Y-2685000D01*
X-2098000Y-2405000D02*
X-2378000Y-2405000D01*
X-2098000Y-2725000D02*
X-2378000Y-2725000D01*
X-2058000Y-2445000D02*
X-2058000Y-2685000D01*
X-2418000Y-2445000D02*
G75*
G02*
X-2378000Y-2405000I40000J0D01*
G01*
X-2378000Y-2725000D02*
G75*
G02*
X-2418000Y-2685000I0J40000D01*
G01*
X-2098000Y-2405000D02*
G75*
G02*
X-2058000Y-2445000I0J-40000D01*
G01*
X-2058000Y-2685000D02*
G75*
G02*
X-2098000Y-2725000I-40000J0D01*
G01*
X-3673000Y-2445000D02*
X-3673000Y-2685000D01*
X-3353000Y-2405000D02*
X-3633000Y-2405000D01*
X-3353000Y-2725000D02*
X-3633000Y-2725000D01*
X-3313000Y-2445000D02*
X-3313000Y-2685000D01*
X-3673000Y-2445000D02*
G75*
G02*
X-3633000Y-2405000I40000J0D01*
G01*
X-3633000Y-2725000D02*
G75*
G02*
X-3673000Y-2685000I0J40000D01*
G01*
X-3353000Y-2405000D02*
G75*
G02*
X-3313000Y-2445000I0J-40000D01*
G01*
X-3313000Y-2685000D02*
G75*
G02*
X-3353000Y-2725000I-40000J0D01*
G01*
X8073000Y-1778000D02*
X8073000Y-2018000D01*
X8393000Y-1738000D02*
X8113000Y-1738000D01*
X8393000Y-2058000D02*
X8113000Y-2058000D01*
X8433000Y-1778000D02*
X8433000Y-2018000D01*
X8073000Y-1778000D02*
G75*
G02*
X8113000Y-1738000I40000J0D01*
G01*
X8113000Y-2058000D02*
G75*
G02*
X8073000Y-2018000I0J40000D01*
G01*
X8393000Y-1738000D02*
G75*
G02*
X8433000Y-1778000I0J-40000D01*
G01*
X8433000Y-2018000D02*
G75*
G02*
X8393000Y-2058000I-40000J0D01*
G01*
X8285000Y-574000D02*
X8285000Y-814000D01*
X8605000Y-534000D02*
X8325000Y-534000D01*
X8605000Y-854000D02*
X8325000Y-854000D01*
X8645000Y-574000D02*
X8645000Y-814000D01*
X8285000Y-574000D02*
G75*
G02*
X8325000Y-534000I40000J0D01*
G01*
X8325000Y-854000D02*
G75*
G02*
X8285000Y-814000I0J40000D01*
G01*
X8605000Y-534000D02*
G75*
G02*
X8645000Y-574000I0J-40000D01*
G01*
X8645000Y-814000D02*
G75*
G02*
X8605000Y-854000I-40000J0D01*
G01*
X3305000Y2685000D02*
X3305000Y2445000D01*
X3625000Y2725000D02*
X3345000Y2725000D01*
X3625000Y2405000D02*
X3345000Y2405000D01*
X3665000Y2685000D02*
X3665000Y2445000D01*
X3305000Y2685000D02*
G75*
G02*
X3345000Y2725000I40000J0D01*
G01*
X3345000Y2405000D02*
G75*
G02*
X3305000Y2445000I0J40000D01*
G01*
X3625000Y2725000D02*
G75*
G02*
X3665000Y2685000I0J-40000D01*
G01*
X3665000Y2445000D02*
G75*
G02*
X3625000Y2405000I-40000J0D01*
G01*
X-9080000Y-1740000D02*
X-9080000Y-1980000D01*
X-8760000Y-1700000D02*
X-9040000Y-1700000D01*
X-8760000Y-2020000D02*
X-9040000Y-2020000D01*
X-8720000Y-1740000D02*
X-8720000Y-1980000D01*
X-9080000Y-1740000D02*
G75*
G02*
X-9040000Y-1700000I40000J0D01*
G01*
X-9040000Y-2020000D02*
G75*
G02*
X-9080000Y-1980000I0J40000D01*
G01*
X-8760000Y-1700000D02*
G75*
G02*
X-8720000Y-1740000I0J-40000D01*
G01*
X-8720000Y-1980000D02*
G75*
G02*
X-8760000Y-2020000I-40000J0D01*
G01*
X-6193000Y-574000D02*
X-6193000Y-814000D01*
X-5873000Y-534000D02*
X-6153000Y-534000D01*
X-5873000Y-854000D02*
X-6153000Y-854000D01*
X-5833000Y-574000D02*
X-5833000Y-814000D01*
X-6193000Y-574000D02*
G75*
G02*
X-6153000Y-534000I40000J0D01*
G01*
X-6153000Y-854000D02*
G75*
G02*
X-6193000Y-814000I0J40000D01*
G01*
X-5873000Y-534000D02*
G75*
G02*
X-5833000Y-574000I0J-40000D01*
G01*
X-5833000Y-814000D02*
G75*
G02*
X-5873000Y-854000I-40000J0D01*
G01*
X-6792000Y120000D02*
X-6792000Y-120000D01*
X-6472000Y160000D02*
X-6752000Y160000D01*
X-6472000Y-160000D02*
X-6752000Y-160000D01*
X-6432000Y120000D02*
X-6432000Y-120000D01*
X-6792000Y120000D02*
G75*
G02*
X-6752000Y160000I40000J0D01*
G01*
X-6752000Y-160000D02*
G75*
G02*
X-6792000Y-120000I0J40000D01*
G01*
X-6472000Y160000D02*
G75*
G02*
X-6432000Y120000I0J-40000D01*
G01*
X-6432000Y-120000D02*
G75*
G02*
X-6472000Y-160000I-40000J0D01*
G01*
X8511000Y785000D02*
X8511000Y545000D01*
X8831000Y825000D02*
X8551000Y825000D01*
X8831000Y505000D02*
X8551000Y505000D01*
X8871000Y785000D02*
X8871000Y545000D01*
X8511000Y785000D02*
G75*
G02*
X8551000Y825000I40000J0D01*
G01*
X8551000Y505000D02*
G75*
G02*
X8511000Y545000I0J40000D01*
G01*
X8831000Y825000D02*
G75*
G02*
X8871000Y785000I0J-40000D01*
G01*
X8871000Y545000D02*
G75*
G02*
X8831000Y505000I-40000J0D01*
G01*
X-5967000Y785000D02*
X-5967000Y545000D01*
X-5647000Y825000D02*
X-5927000Y825000D01*
X-5647000Y505000D02*
X-5927000Y505000D01*
X-5607000Y785000D02*
X-5607000Y545000D01*
X-5967000Y785000D02*
G75*
G02*
X-5927000Y825000I40000J0D01*
G01*
X-5927000Y505000D02*
G75*
G02*
X-5967000Y545000I0J40000D01*
G01*
X-5647000Y825000D02*
G75*
G02*
X-5607000Y785000I0J-40000D01*
G01*
X-5607000Y545000D02*
G75*
G02*
X-5647000Y505000I-40000J0D01*
G01*
X572000Y-1740000D02*
X572000Y-1980000D01*
X892000Y-1700000D02*
X612000Y-1700000D01*
X892000Y-2020000D02*
X612000Y-2020000D01*
X932000Y-1740000D02*
X932000Y-1980000D01*
X572000Y-1740000D02*
G75*
G02*
X612000Y-1700000I40000J0D01*
G01*
X612000Y-2020000D02*
G75*
G02*
X572000Y-1980000I0J40000D01*
G01*
X892000Y-1700000D02*
G75*
G02*
X932000Y-1740000I0J-40000D01*
G01*
X932000Y-1980000D02*
G75*
G02*
X892000Y-2020000I-40000J0D01*
G01*
X-3819000Y813000D02*
X-3819000Y573000D01*
X-3499000Y853000D02*
X-3779000Y853000D01*
X-3499000Y533000D02*
X-3779000Y533000D01*
X-3459000Y813000D02*
X-3459000Y573000D01*
X-3819000Y813000D02*
G75*
G02*
X-3779000Y853000I40000J0D01*
G01*
X-3779000Y533000D02*
G75*
G02*
X-3819000Y573000I0J40000D01*
G01*
X-3499000Y853000D02*
G75*
G02*
X-3459000Y813000I0J-40000D01*
G01*
X-3459000Y573000D02*
G75*
G02*
X-3499000Y533000I-40000J0D01*
G01*
X-8871000Y-552000D02*
X-8871000Y-792000D01*
X-8551000Y-512000D02*
X-8831000Y-512000D01*
X-8551000Y-832000D02*
X-8831000Y-832000D01*
X-8511000Y-552000D02*
X-8511000Y-792000D01*
X-8871000Y-552000D02*
G75*
G02*
X-8831000Y-512000I40000J0D01*
G01*
X-8831000Y-832000D02*
G75*
G02*
X-8871000Y-792000I0J40000D01*
G01*
X-8551000Y-512000D02*
G75*
G02*
X-8511000Y-552000I0J-40000D01*
G01*
X-8511000Y-792000D02*
G75*
G02*
X-8551000Y-832000I-40000J0D01*
G01*
X-869000Y-2396000D02*
X-869000Y-2636000D01*
X-549000Y-2356000D02*
X-829000Y-2356000D01*
X-549000Y-2676000D02*
X-829000Y-2676000D01*
X-509000Y-2396000D02*
X-509000Y-2636000D01*
X-869000Y-2396000D02*
G75*
G02*
X-829000Y-2356000I40000J0D01*
G01*
X-829000Y-2676000D02*
G75*
G02*
X-869000Y-2636000I0J40000D01*
G01*
X-549000Y-2356000D02*
G75*
G02*
X-509000Y-2396000I0J-40000D01*
G01*
X-509000Y-2636000D02*
G75*
G02*
X-549000Y-2676000I-40000J0D01*
G01*
X-8645000Y813000D02*
X-8645000Y573000D01*
X-8325000Y853000D02*
X-8605000Y853000D01*
X-8325000Y533000D02*
X-8605000Y533000D01*
X-8285000Y813000D02*
X-8285000Y573000D01*
X-8645000Y813000D02*
G75*
G02*
X-8605000Y853000I40000J0D01*
G01*
X-8605000Y533000D02*
G75*
G02*
X-8645000Y573000I0J40000D01*
G01*
X-8325000Y853000D02*
G75*
G02*
X-8285000Y813000I0J-40000D01*
G01*
X-8285000Y573000D02*
G75*
G02*
X-8325000Y533000I-40000J0D01*
G01*
X1219000Y2015000D02*
X1219000Y1775000D01*
X1539000Y2055000D02*
X1259000Y2055000D01*
X1539000Y1735000D02*
X1259000Y1735000D01*
X1579000Y2015000D02*
X1579000Y1775000D01*
X1219000Y2015000D02*
G75*
G02*
X1259000Y2055000I40000J0D01*
G01*
X1259000Y1735000D02*
G75*
G02*
X1219000Y1775000I0J40000D01*
G01*
X1539000Y2055000D02*
G75*
G02*
X1579000Y2015000I0J-40000D01*
G01*
X1579000Y1775000D02*
G75*
G02*
X1539000Y1735000I-40000J0D01*
G01*
X-7603000Y2685000D02*
X-7603000Y2445000D01*
X-7283000Y2725000D02*
X-7563000Y2725000D01*
X-7283000Y2405000D02*
X-7563000Y2405000D01*
X-7243000Y2685000D02*
X-7243000Y2445000D01*
X-7603000Y2685000D02*
G75*
G02*
X-7563000Y2725000I40000J0D01*
G01*
X-7563000Y2405000D02*
G75*
G02*
X-7603000Y2445000I0J40000D01*
G01*
X-7283000Y2725000D02*
G75*
G02*
X-7243000Y2685000I0J-40000D01*
G01*
X-7243000Y2445000D02*
G75*
G02*
X-7283000Y2405000I-40000J0D01*
G01*
X3685000Y785000D02*
X3685000Y545000D01*
X4005000Y825000D02*
X3725000Y825000D01*
X4005000Y505000D02*
X3725000Y505000D01*
X4045000Y785000D02*
X4045000Y545000D01*
X3685000Y785000D02*
G75*
G02*
X3725000Y825000I40000J0D01*
G01*
X3725000Y505000D02*
G75*
G02*
X3685000Y545000I0J40000D01*
G01*
X4005000Y825000D02*
G75*
G02*
X4045000Y785000I0J-40000D01*
G01*
X4045000Y545000D02*
G75*
G02*
X4005000Y505000I-40000J0D01*
G01*
X5833000Y813000D02*
X5833000Y573000D01*
X6153000Y853000D02*
X5873000Y853000D01*
X6153000Y533000D02*
X5873000Y533000D01*
X6193000Y813000D02*
X6193000Y573000D01*
X5833000Y813000D02*
G75*
G02*
X5873000Y853000I40000J0D01*
G01*
X5873000Y533000D02*
G75*
G02*
X5833000Y573000I0J40000D01*
G01*
X6153000Y853000D02*
G75*
G02*
X6193000Y813000I0J-40000D01*
G01*
X6193000Y573000D02*
G75*
G02*
X6153000Y533000I-40000J0D01*
G01*
X6875000Y2685000D02*
X6875000Y2445000D01*
X7195000Y2725000D02*
X6915000Y2725000D01*
X7195000Y2405000D02*
X6915000Y2405000D01*
X7235000Y2685000D02*
X7235000Y2445000D01*
X6875000Y2685000D02*
G75*
G02*
X6915000Y2725000I40000J0D01*
G01*
X6915000Y2405000D02*
G75*
G02*
X6875000Y2445000I0J40000D01*
G01*
X7195000Y2725000D02*
G75*
G02*
X7235000Y2685000I0J-40000D01*
G01*
X7235000Y2445000D02*
G75*
G02*
X7195000Y2405000I-40000J0D01*
G01*
X-4045000Y-552000D02*
X-4045000Y-792000D01*
X-3725000Y-512000D02*
X-4005000Y-512000D01*
X-3725000Y-832000D02*
X-4005000Y-832000D01*
X-3685000Y-552000D02*
X-3685000Y-792000D01*
X-4045000Y-552000D02*
G75*
G02*
X-4005000Y-512000I40000J0D01*
G01*
X-4005000Y-832000D02*
G75*
G02*
X-4045000Y-792000I0J40000D01*
G01*
X-3725000Y-512000D02*
G75*
G02*
X-3685000Y-552000I0J-40000D01*
G01*
X-3685000Y-792000D02*
G75*
G02*
X-3725000Y-832000I-40000J0D01*
G01*
X-3220000Y120000D02*
X-3220000Y-120000D01*
X-2900000Y160000D02*
X-3180000Y160000D01*
X-2900000Y-160000D02*
X-3180000Y-160000D01*
X-2860000Y120000D02*
X-2860000Y-120000D01*
X-3220000Y120000D02*
G75*
G02*
X-3180000Y160000I40000J0D01*
G01*
X-3180000Y-160000D02*
G75*
G02*
X-3220000Y-120000I0J40000D01*
G01*
X-2900000Y160000D02*
G75*
G02*
X-2860000Y120000I0J-40000D01*
G01*
X-2860000Y-120000D02*
G75*
G02*
X-2900000Y-160000I-40000J0D01*
G01*
X7234000Y-2445000D02*
X7234000Y-2685000D01*
X7554000Y-2405000D02*
X7274000Y-2405000D01*
X7554000Y-2725000D02*
X7274000Y-2725000D01*
X7594000Y-2445000D02*
X7594000Y-2685000D01*
X7234000Y-2445000D02*
G75*
G02*
X7274000Y-2405000I40000J0D01*
G01*
X7274000Y-2725000D02*
G75*
G02*
X7234000Y-2685000I0J40000D01*
G01*
X7554000Y-2405000D02*
G75*
G02*
X7594000Y-2445000I0J-40000D01*
G01*
X7594000Y-2685000D02*
G75*
G02*
X7554000Y-2725000I-40000J0D01*
G01*
X-6405000Y-1778000D02*
X-6405000Y-2018000D01*
X-6085000Y-1738000D02*
X-6365000Y-1738000D01*
X-6085000Y-2058000D02*
X-6365000Y-2058000D01*
X-6045000Y-1778000D02*
X-6045000Y-2018000D01*
X-6405000Y-1778000D02*
G75*
G02*
X-6365000Y-1738000I40000J0D01*
G01*
X-6365000Y-2058000D02*
G75*
G02*
X-6405000Y-2018000I0J40000D01*
G01*
X-6085000Y-1738000D02*
G75*
G02*
X-6045000Y-1778000I0J-40000D01*
G01*
X-6045000Y-2018000D02*
G75*
G02*
X-6085000Y-2058000I-40000J0D01*
G01*
X1007000Y813000D02*
X1007000Y573000D01*
X1327000Y853000D02*
X1047000Y853000D01*
X1327000Y533000D02*
X1047000Y533000D01*
X1367000Y813000D02*
X1367000Y573000D01*
X1007000Y813000D02*
G75*
G02*
X1047000Y853000I40000J0D01*
G01*
X1047000Y533000D02*
G75*
G02*
X1007000Y573000I0J40000D01*
G01*
X1327000Y853000D02*
G75*
G02*
X1367000Y813000I0J-40000D01*
G01*
X1367000Y573000D02*
G75*
G02*
X1327000Y533000I-40000J0D01*
G01*
X-930000Y1989000D02*
X-930000Y1749000D01*
X-610000Y2029000D02*
X-890000Y2029000D01*
X-610000Y1709000D02*
X-890000Y1709000D01*
X-570000Y1989000D02*
X-570000Y1749000D01*
X-930000Y1989000D02*
G75*
G02*
X-890000Y2029000I40000J0D01*
G01*
X-890000Y1709000D02*
G75*
G02*
X-930000Y1749000I0J40000D01*
G01*
X-610000Y2029000D02*
G75*
G02*
X-570000Y1989000I0J-40000D01*
G01*
X-570000Y1749000D02*
G75*
G02*
X-610000Y1709000I-40000J0D01*
G01*
X3459000Y-574000D02*
X3459000Y-814000D01*
X3779000Y-534000D02*
X3499000Y-534000D01*
X3779000Y-854000D02*
X3499000Y-854000D01*
X3819000Y-574000D02*
X3819000Y-814000D01*
X3459000Y-574000D02*
G75*
G02*
X3499000Y-534000I40000J0D01*
G01*
X3499000Y-854000D02*
G75*
G02*
X3459000Y-814000I0J40000D01*
G01*
X3779000Y-534000D02*
G75*
G02*
X3819000Y-574000I0J-40000D01*
G01*
X3819000Y-814000D02*
G75*
G02*
X3779000Y-854000I-40000J0D01*
G01*
X1606000Y120000D02*
X1606000Y-120000D01*
X1926000Y160000D02*
X1646000Y160000D01*
X1926000Y-160000D02*
X1646000Y-160000D01*
X1966000Y120000D02*
X1966000Y-120000D01*
X1606000Y120000D02*
G75*
G02*
X1646000Y160000I40000J0D01*
G01*
X1646000Y-160000D02*
G75*
G02*
X1606000Y-120000I0J40000D01*
G01*
X1926000Y160000D02*
G75*
G02*
X1966000Y120000I0J-40000D01*
G01*
X1966000Y-120000D02*
G75*
G02*
X1926000Y-160000I-40000J0D01*
G01*
X781000Y-552000D02*
X781000Y-792000D01*
X1101000Y-512000D02*
X821000Y-512000D01*
X1101000Y-832000D02*
X821000Y-832000D01*
X1141000Y-552000D02*
X1141000Y-792000D01*
X781000Y-552000D02*
G75*
G02*
X821000Y-512000I40000J0D01*
G01*
X821000Y-832000D02*
G75*
G02*
X781000Y-792000I0J40000D01*
G01*
X1101000Y-512000D02*
G75*
G02*
X1141000Y-552000I0J-40000D01*
G01*
X1141000Y-792000D02*
G75*
G02*
X1101000Y-832000I-40000J0D01*
G01*
X7686000Y120000D02*
X7686000Y-120000D01*
X8006000Y160000D02*
X7726000Y160000D01*
X8006000Y-160000D02*
X7726000Y-160000D01*
X8046000Y120000D02*
X8046000Y-120000D01*
X7686000Y120000D02*
G75*
G02*
X7726000Y160000I40000J0D01*
G01*
X7726000Y-160000D02*
G75*
G02*
X7686000Y-120000I0J40000D01*
G01*
X8006000Y160000D02*
G75*
G02*
X8046000Y120000I0J-40000D01*
G01*
X8046000Y-120000D02*
G75*
G02*
X8006000Y-160000I-40000J0D01*
G01*
X-1966000Y120000D02*
X-1966000Y-120000D01*
X-1646000Y160000D02*
X-1926000Y160000D01*
X-1646000Y-160000D02*
X-1926000Y-160000D01*
X-1606000Y120000D02*
X-1606000Y-120000D01*
X-1966000Y120000D02*
G75*
G02*
X-1926000Y160000I40000J0D01*
G01*
X-1926000Y-160000D02*
G75*
G02*
X-1966000Y-120000I0J40000D01*
G01*
X-1646000Y160000D02*
G75*
G02*
X-1606000Y120000I0J-40000D01*
G01*
X-1606000Y-120000D02*
G75*
G02*
X-1646000Y-160000I-40000J0D01*
G01*
X2049000Y2685000D02*
X2049000Y2445000D01*
X2369000Y2725000D02*
X2089000Y2725000D01*
X2369000Y2405000D02*
X2089000Y2405000D01*
X2409000Y2685000D02*
X2409000Y2445000D01*
X2049000Y2685000D02*
G75*
G02*
X2089000Y2725000I40000J0D01*
G01*
X2089000Y2405000D02*
G75*
G02*
X2049000Y2445000I0J40000D01*
G01*
X2369000Y2725000D02*
G75*
G02*
X2409000Y2685000I0J-40000D01*
G01*
X2409000Y2445000D02*
G75*
G02*
X2369000Y2405000I-40000J0D01*
G01*
X-5695000Y-2396000D02*
X-5695000Y-2636000D01*
X-5375000Y-2356000D02*
X-5655000Y-2356000D01*
X-5375000Y-2676000D02*
X-5655000Y-2676000D01*
X-5335000Y-2396000D02*
X-5335000Y-2636000D01*
X-5695000Y-2396000D02*
G75*
G02*
X-5655000Y-2356000I40000J0D01*
G01*
X-5655000Y-2676000D02*
G75*
G02*
X-5695000Y-2636000I0J40000D01*
G01*
X-5375000Y-2356000D02*
G75*
G02*
X-5335000Y-2396000I0J-40000D01*
G01*
X-5335000Y-2636000D02*
G75*
G02*
X-5375000Y-2676000I-40000J0D01*
G01*
X-7244000Y-2445000D02*
X-7244000Y-2685000D01*
X-6924000Y-2405000D02*
X-7204000Y-2405000D01*
X-6924000Y-2725000D02*
X-7204000Y-2725000D01*
X-6884000Y-2445000D02*
X-6884000Y-2685000D01*
X-7244000Y-2445000D02*
G75*
G02*
X-7204000Y-2405000I40000J0D01*
G01*
X-7204000Y-2725000D02*
G75*
G02*
X-7244000Y-2685000I0J40000D01*
G01*
X-6924000Y-2405000D02*
G75*
G02*
X-6884000Y-2445000I0J-40000D01*
G01*
X-6884000Y-2685000D02*
G75*
G02*
X-6924000Y-2725000I-40000J0D01*
G01*
X6045000Y2015000D02*
X6045000Y1775000D01*
X6365000Y2055000D02*
X6085000Y2055000D01*
X6365000Y1735000D02*
X6085000Y1735000D01*
X6405000Y2015000D02*
X6405000Y1775000D01*
X6045000Y2015000D02*
G75*
G02*
X6085000Y2055000I40000J0D01*
G01*
X6085000Y1735000D02*
G75*
G02*
X6045000Y1775000I0J40000D01*
G01*
X6365000Y2055000D02*
G75*
G02*
X6405000Y2015000I0J-40000D01*
G01*
X6405000Y1775000D02*
G75*
G02*
X6365000Y1735000I-40000J0D01*
G01*
X2408000Y-2445000D02*
X2408000Y-2685000D01*
X2728000Y-2405000D02*
X2448000Y-2405000D01*
X2728000Y-2725000D02*
X2448000Y-2725000D01*
X2768000Y-2445000D02*
X2768000Y-2685000D01*
X2408000Y-2445000D02*
G75*
G02*
X2448000Y-2405000I40000J0D01*
G01*
X2448000Y-2725000D02*
G75*
G02*
X2408000Y-2685000I0J40000D01*
G01*
X2728000Y-2405000D02*
G75*
G02*
X2768000Y-2445000I0J-40000D01*
G01*
X2768000Y-2685000D02*
G75*
G02*
X2728000Y-2725000I-40000J0D01*
G01*
X5979000Y-2445000D02*
X5979000Y-2685000D01*
X6299000Y-2405000D02*
X6019000Y-2405000D01*
X6299000Y-2725000D02*
X6019000Y-2725000D01*
X6339000Y-2445000D02*
X6339000Y-2685000D01*
X5979000Y-2445000D02*
G75*
G02*
X6019000Y-2405000I40000J0D01*
G01*
X6019000Y-2725000D02*
G75*
G02*
X5979000Y-2685000I0J40000D01*
G01*
X6299000Y-2405000D02*
G75*
G02*
X6339000Y-2445000I0J-40000D01*
G01*
X6339000Y-2685000D02*
G75*
G02*
X6299000Y-2725000I-40000J0D01*
G01*
X8722000Y1989000D02*
X8722000Y1749000D01*
X9042000Y2029000D02*
X8762000Y2029000D01*
X9042000Y1709000D02*
X8762000Y1709000D01*
X9082000Y1989000D02*
X9082000Y1749000D01*
X8722000Y1989000D02*
G75*
G02*
X8762000Y2029000I40000J0D01*
G01*
X8762000Y1709000D02*
G75*
G02*
X8722000Y1749000I0J40000D01*
G01*
X9042000Y2029000D02*
G75*
G02*
X9082000Y1989000I0J-40000D01*
G01*
X9082000Y1749000D02*
G75*
G02*
X9042000Y1709000I-40000J0D01*
G01*
X8783000Y-2396000D02*
X8783000Y-2636000D01*
X9103000Y-2356000D02*
X8823000Y-2356000D01*
X9103000Y-2676000D02*
X8823000Y-2676000D01*
X9143000Y-2396000D02*
X9143000Y-2636000D01*
X8783000Y-2396000D02*
G75*
G02*
X8823000Y-2356000I40000J0D01*
G01*
X8823000Y-2676000D02*
G75*
G02*
X8783000Y-2636000I0J40000D01*
G01*
X9103000Y-2356000D02*
G75*
G02*
X9143000Y-2396000I0J-40000D01*
G01*
X9143000Y-2636000D02*
G75*
G02*
X9103000Y-2676000I-40000J0D01*
G01*
X6432000Y120000D02*
X6432000Y-120000D01*
X6752000Y160000D02*
X6472000Y160000D01*
X6752000Y-160000D02*
X6472000Y-160000D01*
X6792000Y120000D02*
X6792000Y-120000D01*
X6432000Y120000D02*
G75*
G02*
X6472000Y160000I40000J0D01*
G01*
X6472000Y-160000D02*
G75*
G02*
X6432000Y-120000I0J40000D01*
G01*
X6752000Y160000D02*
G75*
G02*
X6792000Y120000I0J-40000D01*
G01*
X6792000Y-120000D02*
G75*
G02*
X6752000Y-160000I-40000J0D01*
G01*
D11*
D12*
X-9494200Y-1123000D02*
X-9454200Y-1163000D01*
X-9454200Y-1123000D02*
X-9494200Y-1163000D01*
X-9468800Y-2037400D02*
X-9428800Y-2077400D01*
X-9428800Y-2037400D02*
X-9468800Y-2077400D01*
X-9316400Y-1605600D02*
X-9276400Y-1645600D01*
X-9276400Y-1605600D02*
X-9316400Y-1645600D01*
X-9164000Y731200D02*
X-9124000Y691200D01*
X-9124000Y731200D02*
X-9164000Y691200D01*
X-9113200Y-996000D02*
X-9073200Y-1036000D01*
X-9073200Y-996000D02*
X-9113200Y-1036000D01*
X-8986200Y502600D02*
X-8946200Y462600D01*
X-8946200Y502600D02*
X-8986200Y462600D01*
X-8681400Y1645600D02*
X-8641400Y1605600D01*
X-8641400Y1645600D02*
X-8681400Y1605600D01*
X-8681400Y-3028000D02*
X-8641400Y-3068000D01*
X-8641400Y-3028000D02*
X-8681400Y-3068000D01*
X-8656000Y-1377000D02*
X-8616000Y-1417000D01*
X-8616000Y-1377000D02*
X-8656000Y-1417000D01*
X-8630600Y-2062800D02*
X-8590600Y-2102800D01*
X-8590600Y-2062800D02*
X-8630600Y-2102800D01*
X-8554400Y2915600D02*
X-8514400Y2875600D01*
X-8514400Y2915600D02*
X-8554400Y2875600D01*
X-8503600Y-2875600D02*
X-8463600Y-2915600D01*
X-8463600Y-2875600D02*
X-8503600Y-2915600D01*
X-8427400Y1645600D02*
X-8387400Y1605600D01*
X-8387400Y1645600D02*
X-8427400Y1605600D01*
X-8427400Y-183200D02*
X-8387400Y-223200D01*
X-8387400Y-183200D02*
X-8427400Y-223200D01*
X-8427400Y-869000D02*
X-8387400Y-909000D01*
X-8387400Y-869000D02*
X-8427400Y-909000D01*
X-8325800Y-1123000D02*
X-8285800Y-1163000D01*
X-8285800Y-1123000D02*
X-8325800Y-1163000D01*
X-8313100Y-1338900D02*
X-8273100Y-1378900D01*
X-8273100Y-1338900D02*
X-8313100Y-1378900D01*
X-8224200Y1112200D02*
X-8184200Y1072200D01*
X-8184200Y1112200D02*
X-8224200Y1072200D01*
X-8173400Y-615000D02*
X-8133400Y-655000D01*
X-8133400Y-615000D02*
X-8173400Y-655000D01*
X-8071800Y-2164400D02*
X-8031800Y-2204400D01*
X-8031800Y-2164400D02*
X-8071800Y-2204400D01*
X-8046400Y655000D02*
X-8006400Y615000D01*
X-8006400Y655000D02*
X-8046400Y615000D01*
X-8046400Y-1910400D02*
X-8006400Y-1950400D01*
X-8006400Y-1910400D02*
X-8046400Y-1950400D01*
X-8046400Y-2774000D02*
X-8006400Y-2814000D01*
X-8006400Y-2774000D02*
X-8046400Y-2814000D01*
X-8021000Y2382200D02*
X-7981000Y2342200D01*
X-7981000Y2382200D02*
X-8021000Y2342200D01*
X-7995600Y1467800D02*
X-7955600Y1427800D01*
X-7955600Y1467800D02*
X-7995600Y1427800D01*
X-7995600Y807400D02*
X-7955600Y767400D01*
X-7955600Y807400D02*
X-7995600Y767400D01*
X-7944800Y-996000D02*
X-7904800Y-1036000D01*
X-7904800Y-996000D02*
X-7944800Y-1036000D01*
X-7868600Y-1402400D02*
X-7828600Y-1442400D01*
X-7828600Y-1402400D02*
X-7868600Y-1442400D01*
X-7868600Y-1758000D02*
X-7828600Y-1798000D01*
X-7828600Y-1758000D02*
X-7868600Y-1798000D01*
X-7868600Y-2901000D02*
X-7828600Y-2941000D01*
X-7828600Y-2901000D02*
X-7868600Y-2941000D01*
X-7868600Y-3078800D02*
X-7828600Y-3118800D01*
X-7828600Y-3078800D02*
X-7868600Y-3118800D01*
X-7817800Y1848800D02*
X-7777800Y1808800D01*
X-7777800Y1848800D02*
X-7817800Y1808800D01*
X-7817800Y-640400D02*
X-7777800Y-680400D01*
X-7777800Y-640400D02*
X-7817800Y-680400D01*
X-7741600Y2382200D02*
X-7701600Y2342200D01*
X-7701600Y2382200D02*
X-7741600Y2342200D01*
X-7741600Y1975800D02*
X-7701600Y1935800D01*
X-7701600Y1975800D02*
X-7741600Y1935800D01*
X-7690800Y-1199200D02*
X-7650800Y-1239200D01*
X-7650800Y-1199200D02*
X-7690800Y-1239200D01*
X-7690800Y-1580200D02*
X-7650800Y-1620200D01*
X-7650800Y-1580200D02*
X-7690800Y-1620200D01*
X-7690800Y-2088200D02*
X-7650800Y-2128200D01*
X-7650800Y-2088200D02*
X-7690800Y-2128200D01*
X-7690800Y-2393000D02*
X-7650800Y-2433000D01*
X-7650800Y-2393000D02*
X-7690800Y-2433000D01*
X-7690800Y-3028000D02*
X-7650800Y-3068000D01*
X-7650800Y-3028000D02*
X-7690800Y-3068000D01*
X-7614600Y2026600D02*
X-7574600Y1986600D01*
X-7574600Y2026600D02*
X-7614600Y1986600D01*
X-7614600Y477200D02*
X-7574600Y437200D01*
X-7574600Y477200D02*
X-7614600Y437200D01*
X-7601900Y-170500D02*
X-7561900Y-210500D01*
X-7561900Y-170500D02*
X-7601900Y-210500D01*
X-7589200Y223200D02*
X-7549200Y183200D01*
X-7549200Y223200D02*
X-7589200Y183200D01*
X-7538400Y-1961200D02*
X-7498400Y-2001200D01*
X-7498400Y-1961200D02*
X-7538400Y-2001200D01*
X-7538400Y-2494600D02*
X-7498400Y-2534600D01*
X-7498400Y-2494600D02*
X-7538400Y-2534600D01*
X-7538400Y-2748600D02*
X-7498400Y-2788600D01*
X-7498400Y-2748600D02*
X-7538400Y-2788600D01*
X-7487600Y-1554800D02*
X-7447600Y-1594800D01*
X-7447600Y-1554800D02*
X-7487600Y-1594800D01*
X-7487600Y-2215200D02*
X-7447600Y-2255200D01*
X-7447600Y-2215200D02*
X-7487600Y-2255200D01*
X-7462200Y1112200D02*
X-7422200Y1072200D01*
X-7422200Y1112200D02*
X-7462200Y1072200D01*
X-7462200Y782000D02*
X-7422200Y742000D01*
X-7422200Y782000D02*
X-7462200Y742000D01*
X-7461000Y95000D02*
X-7421000Y55000D01*
X-7421000Y95000D02*
X-7461000Y55000D01*
X-7436800Y-996000D02*
X-7396800Y-1036000D01*
X-7396800Y-996000D02*
X-7436800Y-1036000D01*
X-7411400Y-1300800D02*
X-7371400Y-1340800D01*
X-7371400Y-1300800D02*
X-7411400Y-1340800D01*
X-7386000Y-691200D02*
X-7346000Y-731200D01*
X-7346000Y-691200D02*
X-7386000Y-731200D01*
X-7284400Y985200D02*
X-7244400Y945200D01*
X-7244400Y985200D02*
X-7284400Y945200D01*
X-7284400Y655000D02*
X-7244400Y615000D01*
X-7244400Y655000D02*
X-7284400Y615000D01*
X-7284400Y350200D02*
X-7244400Y310200D01*
X-7244400Y350200D02*
X-7284400Y310200D01*
X-7284400Y-310200D02*
X-7244400Y-350200D01*
X-7244400Y-310200D02*
X-7284400Y-350200D01*
X-7284400Y-386400D02*
X-7244400Y-426400D01*
X-7244400Y-386400D02*
X-7284400Y-426400D01*
X-7182800Y3042600D02*
X-7142800Y3002600D01*
X-7142800Y3042600D02*
X-7182800Y3002600D01*
X-7157400Y-183200D02*
X-7117400Y-223200D01*
X-7117400Y-183200D02*
X-7157400Y-223200D01*
X-7132000Y1086800D02*
X-7092000Y1046800D01*
X-7092000Y1086800D02*
X-7132000Y1046800D01*
X-7106600Y807400D02*
X-7066600Y767400D01*
X-7066600Y807400D02*
X-7106600Y767400D01*
X-7068500Y1353500D02*
X-7028500Y1313500D01*
X-7028500Y1353500D02*
X-7068500Y1313500D01*
X-7055800Y237800D02*
X-7015800Y197800D01*
X-7015800Y237800D02*
X-7055800Y197800D01*
X-7005000Y2509200D02*
X-6965000Y2469200D01*
X-6965000Y2509200D02*
X-7005000Y2469200D01*
X-7005000Y1671000D02*
X-6965000Y1631000D01*
X-6965000Y1671000D02*
X-7005000Y1631000D01*
X-6928800Y-195900D02*
X-6888800Y-235900D01*
X-6888800Y-195900D02*
X-6928800Y-235900D01*
X-6852600Y-2875600D02*
X-6812600Y-2915600D01*
X-6812600Y-2875600D02*
X-6852600Y-2915600D01*
X-6852600Y-3180400D02*
X-6812600Y-3220400D01*
X-6812600Y-3180400D02*
X-6852600Y-3220400D01*
X-6827200Y3042600D02*
X-6787200Y3002600D01*
X-6787200Y3042600D02*
X-6827200Y3002600D01*
X-6827200Y2788600D02*
X-6787200Y2748600D01*
X-6787200Y2788600D02*
X-6827200Y2748600D01*
X-6827200Y2255200D02*
X-6787200Y2215200D01*
X-6787200Y2255200D02*
X-6827200Y2215200D01*
X-6827200Y1925000D02*
X-6787200Y1885000D01*
X-6787200Y1925000D02*
X-6827200Y1885000D01*
X-6827200Y-1300800D02*
X-6787200Y-1340800D01*
X-6787200Y-1300800D02*
X-6827200Y-1340800D01*
X-6827200Y-1554800D02*
X-6787200Y-1594800D01*
X-6787200Y-1554800D02*
X-6827200Y-1594800D01*
X-6827200Y-2088200D02*
X-6787200Y-2128200D01*
X-6787200Y-2088200D02*
X-6827200Y-2128200D01*
X-6776400Y1417000D02*
X-6736400Y1377000D01*
X-6736400Y1417000D02*
X-6776400Y1377000D01*
X-6700200Y-1631000D02*
X-6660200Y-1671000D01*
X-6660200Y-1631000D02*
X-6700200Y-1671000D01*
X-6674800Y2102800D02*
X-6634800Y2062800D01*
X-6634800Y2102800D02*
X-6674800Y2062800D01*
X-6649400Y2636200D02*
X-6609400Y2596200D01*
X-6609400Y2636200D02*
X-6649400Y2596200D01*
X-6649400Y-2469200D02*
X-6609400Y-2509200D01*
X-6609400Y-2469200D02*
X-6649400Y-2509200D01*
X-6624000Y2382200D02*
X-6584000Y2342200D01*
X-6584000Y2382200D02*
X-6624000Y2342200D01*
X-6624000Y-2621600D02*
X-6584000Y-2661600D01*
X-6584000Y-2621600D02*
X-6624000Y-2661600D01*
X-6573200Y2915600D02*
X-6533200Y2875600D01*
X-6533200Y2915600D02*
X-6573200Y2875600D01*
X-6497000Y-716600D02*
X-6457000Y-756600D01*
X-6457000Y-716600D02*
X-6497000Y-756600D01*
X-6446200Y-437200D02*
X-6406200Y-477200D01*
X-6406200Y-437200D02*
X-6446200Y-477200D01*
X-6395400Y-183200D02*
X-6355400Y-223200D01*
X-6355400Y-183200D02*
X-6395400Y-223200D01*
X-6344600Y375600D02*
X-6304600Y335600D01*
X-6304600Y375600D02*
X-6344600Y335600D01*
X-6293800Y-1123000D02*
X-6253800Y-1163000D01*
X-6253800Y-1123000D02*
X-6293800Y-1163000D01*
X-6293800Y-2342200D02*
X-6253800Y-2382200D01*
X-6253800Y-2342200D02*
X-6293800Y-2382200D01*
X-6217600Y1023300D02*
X-6177600Y983300D01*
X-6177600Y1023300D02*
X-6217600Y983300D01*
X-6217600Y375600D02*
X-6177600Y335600D01*
X-6177600Y375600D02*
X-6217600Y335600D01*
X-6166800Y121600D02*
X-6126800Y81600D01*
X-6126800Y121600D02*
X-6166800Y81600D01*
X-6116000Y-2621600D02*
X-6076000Y-2661600D01*
X-6076000Y-2621600D02*
X-6116000Y-2661600D01*
X-6090600Y1264600D02*
X-6050600Y1224600D01*
X-6050600Y1264600D02*
X-6090600Y1224600D01*
X-6014400Y2128200D02*
X-5974400Y2088200D01*
X-5974400Y2128200D02*
X-6014400Y2088200D01*
X-6014400Y-2113600D02*
X-5974400Y-2153600D01*
X-5974400Y-2113600D02*
X-6014400Y-2153600D01*
X-5989000Y-1021400D02*
X-5949000Y-1061400D01*
X-5949000Y-1021400D02*
X-5989000Y-1061400D01*
X-5989000Y-1504000D02*
X-5949000Y-1544000D01*
X-5949000Y-1504000D02*
X-5989000Y-1544000D01*
X-5963600Y-2571000D02*
X-5923600Y-2611000D01*
X-5923600Y-2571000D02*
X-5963600Y-2611000D01*
X-5938200Y3042600D02*
X-5898200Y3002600D01*
X-5898200Y3042600D02*
X-5938200Y3002600D01*
X-5938200Y2814000D02*
X-5898200Y2774000D01*
X-5898200Y2814000D02*
X-5938200Y2774000D01*
X-5887400Y1544000D02*
X-5847400Y1504000D01*
X-5847400Y1544000D02*
X-5887400Y1504000D01*
X-5785800Y-1910400D02*
X-5745800Y-1950400D01*
X-5745800Y-1910400D02*
X-5785800Y-1950400D01*
X-5760400Y-208600D02*
X-5720400Y-248600D01*
X-5720400Y-208600D02*
X-5760400Y-248600D01*
X-5735000Y2534600D02*
X-5695000Y2494600D01*
X-5695000Y2534600D02*
X-5735000Y2494600D01*
X-5608000Y426400D02*
X-5568000Y386400D01*
X-5568000Y426400D02*
X-5608000Y386400D01*
X-5608000Y-462600D02*
X-5568000Y-502600D01*
X-5568000Y-462600D02*
X-5608000Y-502600D01*
X-5582600Y-742000D02*
X-5542600Y-782000D01*
X-5542600Y-742000D02*
X-5582600Y-782000D01*
X-5557200Y1137600D02*
X-5517200Y1097600D01*
X-5517200Y1137600D02*
X-5557200Y1097600D01*
X-5417500Y121600D02*
X-5377500Y81600D01*
X-5377500Y121600D02*
X-5417500Y81600D01*
X-5354000Y2331400D02*
X-5314000Y2291400D01*
X-5314000Y2331400D02*
X-5354000Y2291400D01*
X-5354000Y629600D02*
X-5314000Y589600D01*
X-5314000Y629600D02*
X-5354000Y589600D01*
X-5303200Y1671000D02*
X-5263200Y1631000D01*
X-5263200Y1671000D02*
X-5303200Y1631000D01*
X-5303200Y-119700D02*
X-5263200Y-159700D01*
X-5263200Y-119700D02*
X-5303200Y-159700D01*
X-5277800Y274000D02*
X-5237800Y234000D01*
X-5237800Y274000D02*
X-5277800Y234000D01*
X-5277800Y-1504000D02*
X-5237800Y-1544000D01*
X-5237800Y-1504000D02*
X-5277800Y-1544000D01*
X-5277800Y-1758000D02*
X-5237800Y-1798000D01*
X-5237800Y-1758000D02*
X-5277800Y-1798000D01*
X-5277800Y-2037400D02*
X-5237800Y-2077400D01*
X-5237800Y-2037400D02*
X-5277800Y-2077400D01*
X-5227000Y1137600D02*
X-5187000Y1097600D01*
X-5187000Y1137600D02*
X-5227000Y1097600D01*
X-5150800Y2356800D02*
X-5110800Y2316800D01*
X-5110800Y2356800D02*
X-5150800Y2316800D01*
X-5112700Y274000D02*
X-5072700Y234000D01*
X-5072700Y274000D02*
X-5112700Y234000D01*
X-5074600Y-1656400D02*
X-5034600Y-1696400D01*
X-5034600Y-1656400D02*
X-5074600Y-1696400D01*
X-5074600Y-2570800D02*
X-5034600Y-2610800D01*
X-5034600Y-2570800D02*
X-5074600Y-2610800D01*
X-5061900Y2039300D02*
X-5021900Y1999300D01*
X-5021900Y2039300D02*
X-5061900Y1999300D01*
X-4998400Y2610800D02*
X-4958400Y2570800D01*
X-4958400Y2610800D02*
X-4998400Y2570800D01*
X-4998400Y426400D02*
X-4958400Y386400D01*
X-4958400Y426400D02*
X-4998400Y386400D01*
X-4947600Y1544000D02*
X-4907600Y1504000D01*
X-4907600Y1544000D02*
X-4947600Y1504000D01*
X-4668200Y-1123000D02*
X-4628200Y-1163000D01*
X-4628200Y-1123000D02*
X-4668200Y-1163000D01*
X-4642800Y-2037400D02*
X-4602800Y-2077400D01*
X-4602800Y-2037400D02*
X-4642800Y-2077400D01*
X-4490400Y-1605600D02*
X-4450400Y-1645600D01*
X-4450400Y-1605600D02*
X-4490400Y-1645600D01*
X-4338000Y731200D02*
X-4298000Y691200D01*
X-4298000Y731200D02*
X-4338000Y691200D01*
X-4287200Y-996000D02*
X-4247200Y-1036000D01*
X-4247200Y-996000D02*
X-4287200Y-1036000D01*
X-4160200Y502600D02*
X-4120200Y462600D01*
X-4120200Y502600D02*
X-4160200Y462600D01*
X-3855400Y1645600D02*
X-3815400Y1605600D01*
X-3815400Y1645600D02*
X-3855400Y1605600D01*
X-3855400Y-3028000D02*
X-3815400Y-3068000D01*
X-3815400Y-3028000D02*
X-3855400Y-3068000D01*
X-3830000Y-1377000D02*
X-3790000Y-1417000D01*
X-3790000Y-1377000D02*
X-3830000Y-1417000D01*
X-3804600Y-2062800D02*
X-3764600Y-2102800D01*
X-3764600Y-2062800D02*
X-3804600Y-2102800D01*
X-3728400Y2915600D02*
X-3688400Y2875600D01*
X-3688400Y2915600D02*
X-3728400Y2875600D01*
X-3677600Y-2875600D02*
X-3637600Y-2915600D01*
X-3637600Y-2875600D02*
X-3677600Y-2915600D01*
X-3601400Y1645600D02*
X-3561400Y1605600D01*
X-3561400Y1645600D02*
X-3601400Y1605600D01*
X-3601400Y-183200D02*
X-3561400Y-223200D01*
X-3561400Y-183200D02*
X-3601400Y-223200D01*
X-3601400Y-869000D02*
X-3561400Y-909000D01*
X-3561400Y-869000D02*
X-3601400Y-909000D01*
X-3499800Y-1123000D02*
X-3459800Y-1163000D01*
X-3459800Y-1123000D02*
X-3499800Y-1163000D01*
X-3487100Y-1338900D02*
X-3447100Y-1378900D01*
X-3447100Y-1338900D02*
X-3487100Y-1378900D01*
X-3398200Y1112200D02*
X-3358200Y1072200D01*
X-3358200Y1112200D02*
X-3398200Y1072200D01*
X-3347400Y-615000D02*
X-3307400Y-655000D01*
X-3307400Y-615000D02*
X-3347400Y-655000D01*
X-3245800Y-2164400D02*
X-3205800Y-2204400D01*
X-3205800Y-2164400D02*
X-3245800Y-2204400D01*
X-3220400Y655000D02*
X-3180400Y615000D01*
X-3180400Y655000D02*
X-3220400Y615000D01*
X-3220400Y-1910400D02*
X-3180400Y-1950400D01*
X-3180400Y-1910400D02*
X-3220400Y-1950400D01*
X-3220400Y-2774000D02*
X-3180400Y-2814000D01*
X-3180400Y-2774000D02*
X-3220400Y-2814000D01*
X-3195000Y2382200D02*
X-3155000Y2342200D01*
X-3155000Y2382200D02*
X-3195000Y2342200D01*
X-3169600Y1467800D02*
X-3129600Y1427800D01*
X-3129600Y1467800D02*
X-3169600Y1427800D01*
X-3169600Y807400D02*
X-3129600Y767400D01*
X-3129600Y807400D02*
X-3169600Y767400D01*
X-3118800Y-996000D02*
X-3078800Y-1036000D01*
X-3078800Y-996000D02*
X-3118800Y-1036000D01*
X-3042600Y-1402400D02*
X-3002600Y-1442400D01*
X-3002600Y-1402400D02*
X-3042600Y-1442400D01*
X-3042600Y-1758000D02*
X-3002600Y-1798000D01*
X-3002600Y-1758000D02*
X-3042600Y-1798000D01*
X-3042600Y-2901000D02*
X-3002600Y-2941000D01*
X-3002600Y-2901000D02*
X-3042600Y-2941000D01*
X-3042600Y-3078800D02*
X-3002600Y-3118800D01*
X-3002600Y-3078800D02*
X-3042600Y-3118800D01*
X-2991800Y1848800D02*
X-2951800Y1808800D01*
X-2951800Y1848800D02*
X-2991800Y1808800D01*
X-2991800Y-640400D02*
X-2951800Y-680400D01*
X-2951800Y-640400D02*
X-2991800Y-680400D01*
X-2915600Y2382200D02*
X-2875600Y2342200D01*
X-2875600Y2382200D02*
X-2915600Y2342200D01*
X-2915600Y1975800D02*
X-2875600Y1935800D01*
X-2875600Y1975800D02*
X-2915600Y1935800D01*
X-2864800Y-1199200D02*
X-2824800Y-1239200D01*
X-2824800Y-1199200D02*
X-2864800Y-1239200D01*
X-2864800Y-1580200D02*
X-2824800Y-1620200D01*
X-2824800Y-1580200D02*
X-2864800Y-1620200D01*
X-2864800Y-2088200D02*
X-2824800Y-2128200D01*
X-2824800Y-2088200D02*
X-2864800Y-2128200D01*
X-2864800Y-2393000D02*
X-2824800Y-2433000D01*
X-2824800Y-2393000D02*
X-2864800Y-2433000D01*
X-2864800Y-3028000D02*
X-2824800Y-3068000D01*
X-2824800Y-3028000D02*
X-2864800Y-3068000D01*
X-2788600Y2026600D02*
X-2748600Y1986600D01*
X-2748600Y2026600D02*
X-2788600Y1986600D01*
X-2788600Y477200D02*
X-2748600Y437200D01*
X-2748600Y477200D02*
X-2788600Y437200D01*
X-2775900Y-170500D02*
X-2735900Y-210500D01*
X-2735900Y-170500D02*
X-2775900Y-210500D01*
X-2763200Y223200D02*
X-2723200Y183200D01*
X-2723200Y223200D02*
X-2763200Y183200D01*
X-2712400Y-1961200D02*
X-2672400Y-2001200D01*
X-2672400Y-1961200D02*
X-2712400Y-2001200D01*
X-2712400Y-2494600D02*
X-2672400Y-2534600D01*
X-2672400Y-2494600D02*
X-2712400Y-2534600D01*
X-2712400Y-2748600D02*
X-2672400Y-2788600D01*
X-2672400Y-2748600D02*
X-2712400Y-2788600D01*
X-2661600Y-1554800D02*
X-2621600Y-1594800D01*
X-2621600Y-1554800D02*
X-2661600Y-1594800D01*
X-2661600Y-2215200D02*
X-2621600Y-2255200D01*
X-2621600Y-2215200D02*
X-2661600Y-2255200D01*
X-2636200Y1112200D02*
X-2596200Y1072200D01*
X-2596200Y1112200D02*
X-2636200Y1072200D01*
X-2636200Y782000D02*
X-2596200Y742000D01*
X-2596200Y782000D02*
X-2636200Y742000D01*
X-2635000Y95000D02*
X-2595000Y55000D01*
X-2595000Y95000D02*
X-2635000Y55000D01*
X-2610800Y-996000D02*
X-2570800Y-1036000D01*
X-2570800Y-996000D02*
X-2610800Y-1036000D01*
X-2585400Y-1300800D02*
X-2545400Y-1340800D01*
X-2545400Y-1300800D02*
X-2585400Y-1340800D01*
X-2560000Y-691200D02*
X-2520000Y-731200D01*
X-2520000Y-691200D02*
X-2560000Y-731200D01*
X-2458400Y985200D02*
X-2418400Y945200D01*
X-2418400Y985200D02*
X-2458400Y945200D01*
X-2458400Y655000D02*
X-2418400Y615000D01*
X-2418400Y655000D02*
X-2458400Y615000D01*
X-2458400Y350200D02*
X-2418400Y310200D01*
X-2418400Y350200D02*
X-2458400Y310200D01*
X-2458400Y-310200D02*
X-2418400Y-350200D01*
X-2418400Y-310200D02*
X-2458400Y-350200D01*
X-2458400Y-386400D02*
X-2418400Y-426400D01*
X-2418400Y-386400D02*
X-2458400Y-426400D01*
X-2356800Y3042600D02*
X-2316800Y3002600D01*
X-2316800Y3042600D02*
X-2356800Y3002600D01*
X-2331400Y-183200D02*
X-2291400Y-223200D01*
X-2291400Y-183200D02*
X-2331400Y-223200D01*
X-2306000Y1086800D02*
X-2266000Y1046800D01*
X-2266000Y1086800D02*
X-2306000Y1046800D01*
X-2280600Y807400D02*
X-2240600Y767400D01*
X-2240600Y807400D02*
X-2280600Y767400D01*
X-2242500Y1353500D02*
X-2202500Y1313500D01*
X-2202500Y1353500D02*
X-2242500Y1313500D01*
X-2229800Y237800D02*
X-2189800Y197800D01*
X-2189800Y237800D02*
X-2229800Y197800D01*
X-2179000Y2509200D02*
X-2139000Y2469200D01*
X-2139000Y2509200D02*
X-2179000Y2469200D01*
X-2179000Y1671000D02*
X-2139000Y1631000D01*
X-2139000Y1671000D02*
X-2179000Y1631000D01*
X-2102800Y-195900D02*
X-2062800Y-235900D01*
X-2062800Y-195900D02*
X-2102800Y-235900D01*
X-2026600Y-2875600D02*
X-1986600Y-2915600D01*
X-1986600Y-2875600D02*
X-2026600Y-2915600D01*
X-2026600Y-3180400D02*
X-1986600Y-3220400D01*
X-1986600Y-3180400D02*
X-2026600Y-3220400D01*
X-2001200Y3042600D02*
X-1961200Y3002600D01*
X-1961200Y3042600D02*
X-2001200Y3002600D01*
X-2001200Y2788600D02*
X-1961200Y2748600D01*
X-1961200Y2788600D02*
X-2001200Y2748600D01*
X-2001200Y2255200D02*
X-1961200Y2215200D01*
X-1961200Y2255200D02*
X-2001200Y2215200D01*
X-2001200Y1925000D02*
X-1961200Y1885000D01*
X-1961200Y1925000D02*
X-2001200Y1885000D01*
X-2001200Y-1300800D02*
X-1961200Y-1340800D01*
X-1961200Y-1300800D02*
X-2001200Y-1340800D01*
X-2001200Y-1554800D02*
X-1961200Y-1594800D01*
X-1961200Y-1554800D02*
X-2001200Y-1594800D01*
X-2001200Y-2088200D02*
X-1961200Y-2128200D01*
X-1961200Y-2088200D02*
X-2001200Y-2128200D01*
X-1950400Y1417000D02*
X-1910400Y1377000D01*
X-1910400Y1417000D02*
X-1950400Y1377000D01*
X-1874200Y-1631000D02*
X-1834200Y-1671000D01*
X-1834200Y-1631000D02*
X-1874200Y-1671000D01*
X-1848800Y2102800D02*
X-1808800Y2062800D01*
X-1808800Y2102800D02*
X-1848800Y2062800D01*
X-1823400Y2636200D02*
X-1783400Y2596200D01*
X-1783400Y2636200D02*
X-1823400Y2596200D01*
X-1823400Y-2469200D02*
X-1783400Y-2509200D01*
X-1783400Y-2469200D02*
X-1823400Y-2509200D01*
X-1798000Y2382200D02*
X-1758000Y2342200D01*
X-1758000Y2382200D02*
X-1798000Y2342200D01*
X-1798000Y-2621600D02*
X-1758000Y-2661600D01*
X-1758000Y-2621600D02*
X-1798000Y-2661600D01*
X-1747200Y2915600D02*
X-1707200Y2875600D01*
X-1707200Y2915600D02*
X-1747200Y2875600D01*
X-1671000Y-716600D02*
X-1631000Y-756600D01*
X-1631000Y-716600D02*
X-1671000Y-756600D01*
X-1620200Y-437200D02*
X-1580200Y-477200D01*
X-1580200Y-437200D02*
X-1620200Y-477200D01*
X-1569400Y-183200D02*
X-1529400Y-223200D01*
X-1529400Y-183200D02*
X-1569400Y-223200D01*
X-1518600Y375600D02*
X-1478600Y335600D01*
X-1478600Y375600D02*
X-1518600Y335600D01*
X-1467800Y-1123000D02*
X-1427800Y-1163000D01*
X-1427800Y-1123000D02*
X-1467800Y-1163000D01*
X-1467800Y-2342200D02*
X-1427800Y-2382200D01*
X-1427800Y-2342200D02*
X-1467800Y-2382200D01*
X-1391600Y1023300D02*
X-1351600Y983300D01*
X-1351600Y1023300D02*
X-1391600Y983300D01*
X-1391600Y375600D02*
X-1351600Y335600D01*
X-1351600Y375600D02*
X-1391600Y335600D01*
X-1340800Y121600D02*
X-1300800Y81600D01*
X-1300800Y121600D02*
X-1340800Y81600D01*
X-1290000Y-2621600D02*
X-1250000Y-2661600D01*
X-1250000Y-2621600D02*
X-1290000Y-2661600D01*
X-1264600Y1264600D02*
X-1224600Y1224600D01*
X-1224600Y1264600D02*
X-1264600Y1224600D01*
X-1188400Y2128200D02*
X-1148400Y2088200D01*
X-1148400Y2128200D02*
X-1188400Y2088200D01*
X-1188400Y-2113600D02*
X-1148400Y-2153600D01*
X-1148400Y-2113600D02*
X-1188400Y-2153600D01*
X-1163000Y-1021400D02*
X-1123000Y-1061400D01*
X-1123000Y-1021400D02*
X-1163000Y-1061400D01*
X-1163000Y-1504000D02*
X-1123000Y-1544000D01*
X-1123000Y-1504000D02*
X-1163000Y-1544000D01*
X-1137600Y-2571000D02*
X-1097600Y-2611000D01*
X-1097600Y-2571000D02*
X-1137600Y-2611000D01*
X-1112200Y3042600D02*
X-1072200Y3002600D01*
X-1072200Y3042600D02*
X-1112200Y3002600D01*
X-1112200Y2814000D02*
X-1072200Y2774000D01*
X-1072200Y2814000D02*
X-1112200Y2774000D01*
X-1061400Y1544000D02*
X-1021400Y1504000D01*
X-1021400Y1544000D02*
X-1061400Y1504000D01*
X-959800Y-1910400D02*
X-919800Y-1950400D01*
X-919800Y-1910400D02*
X-959800Y-1950400D01*
X-934400Y-208600D02*
X-894400Y-248600D01*
X-894400Y-208600D02*
X-934400Y-248600D01*
X-909000Y2534600D02*
X-869000Y2494600D01*
X-869000Y2534600D02*
X-909000Y2494600D01*
X-782000Y426400D02*
X-742000Y386400D01*
X-742000Y426400D02*
X-782000Y386400D01*
X-782000Y-462600D02*
X-742000Y-502600D01*
X-742000Y-462600D02*
X-782000Y-502600D01*
X-756600Y-742000D02*
X-716600Y-782000D01*
X-716600Y-742000D02*
X-756600Y-782000D01*
X-731200Y1137600D02*
X-691200Y1097600D01*
X-691200Y1137600D02*
X-731200Y1097600D01*
X-591500Y121600D02*
X-551500Y81600D01*
X-551500Y121600D02*
X-591500Y81600D01*
X-528000Y2331400D02*
X-488000Y2291400D01*
X-488000Y2331400D02*
X-528000Y2291400D01*
X-528000Y629600D02*
X-488000Y589600D01*
X-488000Y629600D02*
X-528000Y589600D01*
X-477200Y1671000D02*
X-437200Y1631000D01*
X-437200Y1671000D02*
X-477200Y1631000D01*
X-477200Y-119700D02*
X-437200Y-159700D01*
X-437200Y-119700D02*
X-477200Y-159700D01*
X-451800Y274000D02*
X-411800Y234000D01*
X-411800Y274000D02*
X-451800Y234000D01*
X-451800Y-1504000D02*
X-411800Y-1544000D01*
X-411800Y-1504000D02*
X-451800Y-1544000D01*
X-451800Y-1758000D02*
X-411800Y-1798000D01*
X-411800Y-1758000D02*
X-451800Y-1798000D01*
X-451800Y-2037400D02*
X-411800Y-2077400D01*
X-411800Y-2037400D02*
X-451800Y-2077400D01*
X-401000Y1137600D02*
X-361000Y1097600D01*
X-361000Y1137600D02*
X-401000Y1097600D01*
X-324800Y2356800D02*
X-284800Y2316800D01*
X-284800Y2356800D02*
X-324800Y2316800D01*
X-286700Y274000D02*
X-246700Y234000D01*
X-246700Y274000D02*
X-286700Y234000D01*
X-248600Y-1656400D02*
X-208600Y-1696400D01*
X-208600Y-1656400D02*
X-248600Y-1696400D01*
X-248600Y-2570800D02*
X-208600Y-2610800D01*
X-208600Y-2570800D02*
X-248600Y-2610800D01*
X-235900Y2039300D02*
X-195900Y1999300D01*
X-195900Y2039300D02*
X-235900Y1999300D01*
X-172400Y2610800D02*
X-132400Y2570800D01*
X-132400Y2610800D02*
X-172400Y2570800D01*
X-172400Y426400D02*
X-132400Y386400D01*
X-132400Y426400D02*
X-172400Y386400D01*
X-121600Y1544000D02*
X-81600Y1504000D01*
X-81600Y1544000D02*
X-121600Y1504000D01*
X157800Y-1123000D02*
X197800Y-1163000D01*
X197800Y-1123000D02*
X157800Y-1163000D01*
X183200Y-2037400D02*
X223200Y-2077400D01*
X223200Y-2037400D02*
X183200Y-2077400D01*
X335600Y-1605600D02*
X375600Y-1645600D01*
X375600Y-1605600D02*
X335600Y-1645600D01*
X488000Y731200D02*
X528000Y691200D01*
X528000Y731200D02*
X488000Y691200D01*
X538800Y-996000D02*
X578800Y-1036000D01*
X578800Y-996000D02*
X538800Y-1036000D01*
X665800Y502600D02*
X705800Y462600D01*
X705800Y502600D02*
X665800Y462600D01*
X970600Y1645600D02*
X1010600Y1605600D01*
X1010600Y1645600D02*
X970600Y1605600D01*
X970600Y-3028000D02*
X1010600Y-3068000D01*
X1010600Y-3028000D02*
X970600Y-3068000D01*
X996000Y-1377000D02*
X1036000Y-1417000D01*
X1036000Y-1377000D02*
X996000Y-1417000D01*
X1021400Y-2062800D02*
X1061400Y-2102800D01*
X1061400Y-2062800D02*
X1021400Y-2102800D01*
X1097600Y2915600D02*
X1137600Y2875600D01*
X1137600Y2915600D02*
X1097600Y2875600D01*
X1148400Y-2875600D02*
X1188400Y-2915600D01*
X1188400Y-2875600D02*
X1148400Y-2915600D01*
X1224600Y1645600D02*
X1264600Y1605600D01*
X1264600Y1645600D02*
X1224600Y1605600D01*
X1224600Y-183200D02*
X1264600Y-223200D01*
X1264600Y-183200D02*
X1224600Y-223200D01*
X1224600Y-869000D02*
X1264600Y-909000D01*
X1264600Y-869000D02*
X1224600Y-909000D01*
X1326200Y-1123000D02*
X1366200Y-1163000D01*
X1366200Y-1123000D02*
X1326200Y-1163000D01*
X1338900Y-1338900D02*
X1378900Y-1378900D01*
X1378900Y-1338900D02*
X1338900Y-1378900D01*
X1427800Y1112200D02*
X1467800Y1072200D01*
X1467800Y1112200D02*
X1427800Y1072200D01*
X1478600Y-615000D02*
X1518600Y-655000D01*
X1518600Y-615000D02*
X1478600Y-655000D01*
X1580200Y-2164400D02*
X1620200Y-2204400D01*
X1620200Y-2164400D02*
X1580200Y-2204400D01*
X1605600Y655000D02*
X1645600Y615000D01*
X1645600Y655000D02*
X1605600Y615000D01*
X1605600Y-1910400D02*
X1645600Y-1950400D01*
X1645600Y-1910400D02*
X1605600Y-1950400D01*
X1605600Y-2774000D02*
X1645600Y-2814000D01*
X1645600Y-2774000D02*
X1605600Y-2814000D01*
X1631000Y2382200D02*
X1671000Y2342200D01*
X1671000Y2382200D02*
X1631000Y2342200D01*
X1656400Y1467800D02*
X1696400Y1427800D01*
X1696400Y1467800D02*
X1656400Y1427800D01*
X1656400Y807400D02*
X1696400Y767400D01*
X1696400Y807400D02*
X1656400Y767400D01*
X1707200Y-996000D02*
X1747200Y-1036000D01*
X1747200Y-996000D02*
X1707200Y-1036000D01*
X1783400Y-1402400D02*
X1823400Y-1442400D01*
X1823400Y-1402400D02*
X1783400Y-1442400D01*
X1783400Y-1758000D02*
X1823400Y-1798000D01*
X1823400Y-1758000D02*
X1783400Y-1798000D01*
X1783400Y-2901000D02*
X1823400Y-2941000D01*
X1823400Y-2901000D02*
X1783400Y-2941000D01*
X1783400Y-3078800D02*
X1823400Y-3118800D01*
X1823400Y-3078800D02*
X1783400Y-3118800D01*
X1834200Y1848800D02*
X1874200Y1808800D01*
X1874200Y1848800D02*
X1834200Y1808800D01*
X1834200Y-640400D02*
X1874200Y-680400D01*
X1874200Y-640400D02*
X1834200Y-680400D01*
X1910400Y2382200D02*
X1950400Y2342200D01*
X1950400Y2382200D02*
X1910400Y2342200D01*
X1910400Y1975800D02*
X1950400Y1935800D01*
X1950400Y1975800D02*
X1910400Y1935800D01*
X1961200Y-1199200D02*
X2001200Y-1239200D01*
X2001200Y-1199200D02*
X1961200Y-1239200D01*
X1961200Y-1580200D02*
X2001200Y-1620200D01*
X2001200Y-1580200D02*
X1961200Y-1620200D01*
X1961200Y-2088200D02*
X2001200Y-2128200D01*
X2001200Y-2088200D02*
X1961200Y-2128200D01*
X1961200Y-2393000D02*
X2001200Y-2433000D01*
X2001200Y-2393000D02*
X1961200Y-2433000D01*
X1961200Y-3028000D02*
X2001200Y-3068000D01*
X2001200Y-3028000D02*
X1961200Y-3068000D01*
X2037400Y2026600D02*
X2077400Y1986600D01*
X2077400Y2026600D02*
X2037400Y1986600D01*
X2037400Y477200D02*
X2077400Y437200D01*
X2077400Y477200D02*
X2037400Y437200D01*
X2050100Y-170500D02*
X2090100Y-210500D01*
X2090100Y-170500D02*
X2050100Y-210500D01*
X2062800Y223200D02*
X2102800Y183200D01*
X2102800Y223200D02*
X2062800Y183200D01*
X2113600Y-1961200D02*
X2153600Y-2001200D01*
X2153600Y-1961200D02*
X2113600Y-2001200D01*
X2113600Y-2494600D02*
X2153600Y-2534600D01*
X2153600Y-2494600D02*
X2113600Y-2534600D01*
X2113600Y-2748600D02*
X2153600Y-2788600D01*
X2153600Y-2748600D02*
X2113600Y-2788600D01*
X2164400Y-1554800D02*
X2204400Y-1594800D01*
X2204400Y-1554800D02*
X2164400Y-1594800D01*
X2164400Y-2215200D02*
X2204400Y-2255200D01*
X2204400Y-2215200D02*
X2164400Y-2255200D01*
X2189800Y1112200D02*
X2229800Y1072200D01*
X2229800Y1112200D02*
X2189800Y1072200D01*
X2189800Y782000D02*
X2229800Y742000D01*
X2229800Y782000D02*
X2189800Y742000D01*
X2191000Y95000D02*
X2231000Y55000D01*
X2231000Y95000D02*
X2191000Y55000D01*
X2215200Y-996000D02*
X2255200Y-1036000D01*
X2255200Y-996000D02*
X2215200Y-1036000D01*
X2240600Y-1300800D02*
X2280600Y-1340800D01*
X2280600Y-1300800D02*
X2240600Y-1340800D01*
X2266000Y-691200D02*
X2306000Y-731200D01*
X2306000Y-691200D02*
X2266000Y-731200D01*
X2367600Y985200D02*
X2407600Y945200D01*
X2407600Y985200D02*
X2367600Y945200D01*
X2367600Y655000D02*
X2407600Y615000D01*
X2407600Y655000D02*
X2367600Y615000D01*
X2367600Y350200D02*
X2407600Y310200D01*
X2407600Y350200D02*
X2367600Y310200D01*
X2367600Y-310200D02*
X2407600Y-350200D01*
X2407600Y-310200D02*
X2367600Y-350200D01*
X2367600Y-386400D02*
X2407600Y-426400D01*
X2407600Y-386400D02*
X2367600Y-426400D01*
X2469200Y3042600D02*
X2509200Y3002600D01*
X2509200Y3042600D02*
X2469200Y3002600D01*
X2494600Y-183200D02*
X2534600Y-223200D01*
X2534600Y-183200D02*
X2494600Y-223200D01*
X2520000Y1086800D02*
X2560000Y1046800D01*
X2560000Y1086800D02*
X2520000Y1046800D01*
X2545400Y807400D02*
X2585400Y767400D01*
X2585400Y807400D02*
X2545400Y767400D01*
X2583500Y1353500D02*
X2623500Y1313500D01*
X2623500Y1353500D02*
X2583500Y1313500D01*
X2596200Y237800D02*
X2636200Y197800D01*
X2636200Y237800D02*
X2596200Y197800D01*
X2647000Y2509200D02*
X2687000Y2469200D01*
X2687000Y2509200D02*
X2647000Y2469200D01*
X2647000Y1671000D02*
X2687000Y1631000D01*
X2687000Y1671000D02*
X2647000Y1631000D01*
X2723200Y-195900D02*
X2763200Y-235900D01*
X2763200Y-195900D02*
X2723200Y-235900D01*
X2799400Y-2875600D02*
X2839400Y-2915600D01*
X2839400Y-2875600D02*
X2799400Y-2915600D01*
X2799400Y-3180400D02*
X2839400Y-3220400D01*
X2839400Y-3180400D02*
X2799400Y-3220400D01*
X2824800Y3042600D02*
X2864800Y3002600D01*
X2864800Y3042600D02*
X2824800Y3002600D01*
X2824800Y2788600D02*
X2864800Y2748600D01*
X2864800Y2788600D02*
X2824800Y2748600D01*
X2824800Y2255200D02*
X2864800Y2215200D01*
X2864800Y2255200D02*
X2824800Y2215200D01*
X2824800Y1925000D02*
X2864800Y1885000D01*
X2864800Y1925000D02*
X2824800Y1885000D01*
X2824800Y-1300800D02*
X2864800Y-1340800D01*
X2864800Y-1300800D02*
X2824800Y-1340800D01*
X2824800Y-1554800D02*
X2864800Y-1594800D01*
X2864800Y-1554800D02*
X2824800Y-1594800D01*
X2824800Y-2088200D02*
X2864800Y-2128200D01*
X2864800Y-2088200D02*
X2824800Y-2128200D01*
X2875600Y1417000D02*
X2915600Y1377000D01*
X2915600Y1417000D02*
X2875600Y1377000D01*
X2951800Y-1631000D02*
X2991800Y-1671000D01*
X2991800Y-1631000D02*
X2951800Y-1671000D01*
X2977200Y2102800D02*
X3017200Y2062800D01*
X3017200Y2102800D02*
X2977200Y2062800D01*
X3002600Y2636200D02*
X3042600Y2596200D01*
X3042600Y2636200D02*
X3002600Y2596200D01*
X3002600Y-2469200D02*
X3042600Y-2509200D01*
X3042600Y-2469200D02*
X3002600Y-2509200D01*
X3028000Y2382200D02*
X3068000Y2342200D01*
X3068000Y2382200D02*
X3028000Y2342200D01*
X3028000Y-2621600D02*
X3068000Y-2661600D01*
X3068000Y-2621600D02*
X3028000Y-2661600D01*
X3078800Y2915600D02*
X3118800Y2875600D01*
X3118800Y2915600D02*
X3078800Y2875600D01*
X3155000Y-716600D02*
X3195000Y-756600D01*
X3195000Y-716600D02*
X3155000Y-756600D01*
X3205800Y-437200D02*
X3245800Y-477200D01*
X3245800Y-437200D02*
X3205800Y-477200D01*
X3256600Y-183200D02*
X3296600Y-223200D01*
X3296600Y-183200D02*
X3256600Y-223200D01*
X3307400Y375600D02*
X3347400Y335600D01*
X3347400Y375600D02*
X3307400Y335600D01*
X3358200Y-1123000D02*
X3398200Y-1163000D01*
X3398200Y-1123000D02*
X3358200Y-1163000D01*
X3358200Y-2342200D02*
X3398200Y-2382200D01*
X3398200Y-2342200D02*
X3358200Y-2382200D01*
X3434400Y1023300D02*
X3474400Y983300D01*
X3474400Y1023300D02*
X3434400Y983300D01*
X3434400Y375600D02*
X3474400Y335600D01*
X3474400Y375600D02*
X3434400Y335600D01*
X3485200Y121600D02*
X3525200Y81600D01*
X3525200Y121600D02*
X3485200Y81600D01*
X3536000Y-2621600D02*
X3576000Y-2661600D01*
X3576000Y-2621600D02*
X3536000Y-2661600D01*
X3561400Y1264600D02*
X3601400Y1224600D01*
X3601400Y1264600D02*
X3561400Y1224600D01*
X3637600Y2128200D02*
X3677600Y2088200D01*
X3677600Y2128200D02*
X3637600Y2088200D01*
X3637600Y-2113600D02*
X3677600Y-2153600D01*
X3677600Y-2113600D02*
X3637600Y-2153600D01*
X3663000Y-1021400D02*
X3703000Y-1061400D01*
X3703000Y-1021400D02*
X3663000Y-1061400D01*
X3663000Y-1504000D02*
X3703000Y-1544000D01*
X3703000Y-1504000D02*
X3663000Y-1544000D01*
X3688400Y-2571000D02*
X3728400Y-2611000D01*
X3728400Y-2571000D02*
X3688400Y-2611000D01*
X3713800Y3042600D02*
X3753800Y3002600D01*
X3753800Y3042600D02*
X3713800Y3002600D01*
X3713800Y2814000D02*
X3753800Y2774000D01*
X3753800Y2814000D02*
X3713800Y2774000D01*
X3764600Y1544000D02*
X3804600Y1504000D01*
X3804600Y1544000D02*
X3764600Y1504000D01*
X3866200Y-1910400D02*
X3906200Y-1950400D01*
X3906200Y-1910400D02*
X3866200Y-1950400D01*
X3891600Y-208600D02*
X3931600Y-248600D01*
X3931600Y-208600D02*
X3891600Y-248600D01*
X3917000Y2534600D02*
X3957000Y2494600D01*
X3957000Y2534600D02*
X3917000Y2494600D01*
X4044000Y426400D02*
X4084000Y386400D01*
X4084000Y426400D02*
X4044000Y386400D01*
X4044000Y-462600D02*
X4084000Y-502600D01*
X4084000Y-462600D02*
X4044000Y-502600D01*
X4069400Y-742000D02*
X4109400Y-782000D01*
X4109400Y-742000D02*
X4069400Y-782000D01*
X4094800Y1137600D02*
X4134800Y1097600D01*
X4134800Y1137600D02*
X4094800Y1097600D01*
X4234500Y121600D02*
X4274500Y81600D01*
X4274500Y121600D02*
X4234500Y81600D01*
X4298000Y2331400D02*
X4338000Y2291400D01*
X4338000Y2331400D02*
X4298000Y2291400D01*
X4298000Y629600D02*
X4338000Y589600D01*
X4338000Y629600D02*
X4298000Y589600D01*
X4348800Y1671000D02*
X4388800Y1631000D01*
X4388800Y1671000D02*
X4348800Y1631000D01*
X4348800Y-119700D02*
X4388800Y-159700D01*
X4388800Y-119700D02*
X4348800Y-159700D01*
X4374200Y274000D02*
X4414200Y234000D01*
X4414200Y274000D02*
X4374200Y234000D01*
X4374200Y-1504000D02*
X4414200Y-1544000D01*
X4414200Y-1504000D02*
X4374200Y-1544000D01*
X4374200Y-1758000D02*
X4414200Y-1798000D01*
X4414200Y-1758000D02*
X4374200Y-1798000D01*
X4374200Y-2037400D02*
X4414200Y-2077400D01*
X4414200Y-2037400D02*
X4374200Y-2077400D01*
X4425000Y1137600D02*
X4465000Y1097600D01*
X4465000Y1137600D02*
X4425000Y1097600D01*
X4501200Y2356800D02*
X4541200Y2316800D01*
X4541200Y2356800D02*
X4501200Y2316800D01*
X4539300Y274000D02*
X4579300Y234000D01*
X4579300Y274000D02*
X4539300Y234000D01*
X4577400Y-1656400D02*
X4617400Y-1696400D01*
X4617400Y-1656400D02*
X4577400Y-1696400D01*
X4577400Y-2570800D02*
X4617400Y-2610800D01*
X4617400Y-2570800D02*
X4577400Y-2610800D01*
X4590100Y2039300D02*
X4630100Y1999300D01*
X4630100Y2039300D02*
X4590100Y1999300D01*
X4653600Y2610800D02*
X4693600Y2570800D01*
X4693600Y2610800D02*
X4653600Y2570800D01*
X4653600Y426400D02*
X4693600Y386400D01*
X4693600Y426400D02*
X4653600Y386400D01*
X4704400Y1544000D02*
X4744400Y1504000D01*
X4744400Y1544000D02*
X4704400Y1504000D01*
X4983800Y-1123000D02*
X5023800Y-1163000D01*
X5023800Y-1123000D02*
X4983800Y-1163000D01*
X5009200Y-2037400D02*
X5049200Y-2077400D01*
X5049200Y-2037400D02*
X5009200Y-2077400D01*
X5161600Y-1605600D02*
X5201600Y-1645600D01*
X5201600Y-1605600D02*
X5161600Y-1645600D01*
X5314000Y731200D02*
X5354000Y691200D01*
X5354000Y731200D02*
X5314000Y691200D01*
X5364800Y-996000D02*
X5404800Y-1036000D01*
X5404800Y-996000D02*
X5364800Y-1036000D01*
X5491800Y502600D02*
X5531800Y462600D01*
X5531800Y502600D02*
X5491800Y462600D01*
X5796600Y1645600D02*
X5836600Y1605600D01*
X5836600Y1645600D02*
X5796600Y1605600D01*
X5796600Y-3028000D02*
X5836600Y-3068000D01*
X5836600Y-3028000D02*
X5796600Y-3068000D01*
X5822000Y-1377000D02*
X5862000Y-1417000D01*
X5862000Y-1377000D02*
X5822000Y-1417000D01*
X5847400Y-2062800D02*
X5887400Y-2102800D01*
X5887400Y-2062800D02*
X5847400Y-2102800D01*
X5923600Y2915600D02*
X5963600Y2875600D01*
X5963600Y2915600D02*
X5923600Y2875600D01*
X5974400Y-2875600D02*
X6014400Y-2915600D01*
X6014400Y-2875600D02*
X5974400Y-2915600D01*
X6050600Y1645600D02*
X6090600Y1605600D01*
X6090600Y1645600D02*
X6050600Y1605600D01*
X6050600Y-183200D02*
X6090600Y-223200D01*
X6090600Y-183200D02*
X6050600Y-223200D01*
X6050600Y-869000D02*
X6090600Y-909000D01*
X6090600Y-869000D02*
X6050600Y-909000D01*
X6152200Y-1123000D02*
X6192200Y-1163000D01*
X6192200Y-1123000D02*
X6152200Y-1163000D01*
X6164900Y-1338900D02*
X6204900Y-1378900D01*
X6204900Y-1338900D02*
X6164900Y-1378900D01*
X6253800Y1112200D02*
X6293800Y1072200D01*
X6293800Y1112200D02*
X6253800Y1072200D01*
X6304600Y-615000D02*
X6344600Y-655000D01*
X6344600Y-615000D02*
X6304600Y-655000D01*
X6406200Y-2164400D02*
X6446200Y-2204400D01*
X6446200Y-2164400D02*
X6406200Y-2204400D01*
X6431600Y655000D02*
X6471600Y615000D01*
X6471600Y655000D02*
X6431600Y615000D01*
X6431600Y-1910400D02*
X6471600Y-1950400D01*
X6471600Y-1910400D02*
X6431600Y-1950400D01*
X6431600Y-2774000D02*
X6471600Y-2814000D01*
X6471600Y-2774000D02*
X6431600Y-2814000D01*
X6457000Y2382200D02*
X6497000Y2342200D01*
X6497000Y2382200D02*
X6457000Y2342200D01*
X6482400Y1467800D02*
X6522400Y1427800D01*
X6522400Y1467800D02*
X6482400Y1427800D01*
X6482400Y807400D02*
X6522400Y767400D01*
X6522400Y807400D02*
X6482400Y767400D01*
X6533200Y-996000D02*
X6573200Y-1036000D01*
X6573200Y-996000D02*
X6533200Y-1036000D01*
X6609400Y-1402400D02*
X6649400Y-1442400D01*
X6649400Y-1402400D02*
X6609400Y-1442400D01*
X6609400Y-1758000D02*
X6649400Y-1798000D01*
X6649400Y-1758000D02*
X6609400Y-1798000D01*
X6609400Y-2901000D02*
X6649400Y-2941000D01*
X6649400Y-2901000D02*
X6609400Y-2941000D01*
X6609400Y-3078800D02*
X6649400Y-3118800D01*
X6649400Y-3078800D02*
X6609400Y-3118800D01*
X6660200Y1848800D02*
X6700200Y1808800D01*
X6700200Y1848800D02*
X6660200Y1808800D01*
X6660200Y-640400D02*
X6700200Y-680400D01*
X6700200Y-640400D02*
X6660200Y-680400D01*
X6736400Y2382200D02*
X6776400Y2342200D01*
X6776400Y2382200D02*
X6736400Y2342200D01*
X6736400Y1975800D02*
X6776400Y1935800D01*
X6776400Y1975800D02*
X6736400Y1935800D01*
X6787200Y-1199200D02*
X6827200Y-1239200D01*
X6827200Y-1199200D02*
X6787200Y-1239200D01*
X6787200Y-1580200D02*
X6827200Y-1620200D01*
X6827200Y-1580200D02*
X6787200Y-1620200D01*
X6787200Y-2088200D02*
X6827200Y-2128200D01*
X6827200Y-2088200D02*
X6787200Y-2128200D01*
X6787200Y-2393000D02*
X6827200Y-2433000D01*
X6827200Y-2393000D02*
X6787200Y-2433000D01*
X6787200Y-3028000D02*
X6827200Y-3068000D01*
X6827200Y-3028000D02*
X6787200Y-3068000D01*
X6863400Y2026600D02*
X6903400Y1986600D01*
X6903400Y2026600D02*
X6863400Y1986600D01*
X6863400Y477200D02*
X6903400Y437200D01*
X6903400Y477200D02*
X6863400Y437200D01*
X6876100Y-170500D02*
X6916100Y-210500D01*
X6916100Y-170500D02*
X6876100Y-210500D01*
X6888800Y223200D02*
X6928800Y183200D01*
X6928800Y223200D02*
X6888800Y183200D01*
X6939600Y-1961200D02*
X6979600Y-2001200D01*
X6979600Y-1961200D02*
X6939600Y-2001200D01*
X6939600Y-2494600D02*
X6979600Y-2534600D01*
X6979600Y-2494600D02*
X6939600Y-2534600D01*
X6939600Y-2748600D02*
X6979600Y-2788600D01*
X6979600Y-2748600D02*
X6939600Y-2788600D01*
X6990400Y-1554800D02*
X7030400Y-1594800D01*
X7030400Y-1554800D02*
X6990400Y-1594800D01*
X6990400Y-2215200D02*
X7030400Y-2255200D01*
X7030400Y-2215200D02*
X6990400Y-2255200D01*
X7015800Y1112200D02*
X7055800Y1072200D01*
X7055800Y1112200D02*
X7015800Y1072200D01*
X7015800Y782000D02*
X7055800Y742000D01*
X7055800Y782000D02*
X7015800Y742000D01*
X7017000Y95000D02*
X7057000Y55000D01*
X7057000Y95000D02*
X7017000Y55000D01*
X7041200Y-996000D02*
X7081200Y-1036000D01*
X7081200Y-996000D02*
X7041200Y-1036000D01*
X7066600Y-1300800D02*
X7106600Y-1340800D01*
X7106600Y-1300800D02*
X7066600Y-1340800D01*
X7092000Y-691200D02*
X7132000Y-731200D01*
X7132000Y-691200D02*
X7092000Y-731200D01*
X7193600Y985200D02*
X7233600Y945200D01*
X7233600Y985200D02*
X7193600Y945200D01*
X7193600Y655000D02*
X7233600Y615000D01*
X7233600Y655000D02*
X7193600Y615000D01*
X7193600Y350200D02*
X7233600Y310200D01*
X7233600Y350200D02*
X7193600Y310200D01*
X7193600Y-310200D02*
X7233600Y-350200D01*
X7233600Y-310200D02*
X7193600Y-350200D01*
X7193600Y-386400D02*
X7233600Y-426400D01*
X7233600Y-386400D02*
X7193600Y-426400D01*
X7295200Y3042600D02*
X7335200Y3002600D01*
X7335200Y3042600D02*
X7295200Y3002600D01*
X7320600Y-183200D02*
X7360600Y-223200D01*
X7360600Y-183200D02*
X7320600Y-223200D01*
X7346000Y1086800D02*
X7386000Y1046800D01*
X7386000Y1086800D02*
X7346000Y1046800D01*
X7371400Y807400D02*
X7411400Y767400D01*
X7411400Y807400D02*
X7371400Y767400D01*
X7409500Y1353500D02*
X7449500Y1313500D01*
X7449500Y1353500D02*
X7409500Y1313500D01*
X7422200Y237800D02*
X7462200Y197800D01*
X7462200Y237800D02*
X7422200Y197800D01*
X7473000Y2509200D02*
X7513000Y2469200D01*
X7513000Y2509200D02*
X7473000Y2469200D01*
X7473000Y1671000D02*
X7513000Y1631000D01*
X7513000Y1671000D02*
X7473000Y1631000D01*
X7549200Y-195900D02*
X7589200Y-235900D01*
X7589200Y-195900D02*
X7549200Y-235900D01*
X7625400Y-2875600D02*
X7665400Y-2915600D01*
X7665400Y-2875600D02*
X7625400Y-2915600D01*
X7625400Y-3180400D02*
X7665400Y-3220400D01*
X7665400Y-3180400D02*
X7625400Y-3220400D01*
X7650800Y3042600D02*
X7690800Y3002600D01*
X7690800Y3042600D02*
X7650800Y3002600D01*
X7650800Y2788600D02*
X7690800Y2748600D01*
X7690800Y2788600D02*
X7650800Y2748600D01*
X7650800Y2255200D02*
X7690800Y2215200D01*
X7690800Y2255200D02*
X7650800Y2215200D01*
X7650800Y1925000D02*
X7690800Y1885000D01*
X7690800Y1925000D02*
X7650800Y1885000D01*
X7650800Y-1300800D02*
X7690800Y-1340800D01*
X7690800Y-1300800D02*
X7650800Y-1340800D01*
X7650800Y-1554800D02*
X7690800Y-1594800D01*
X7690800Y-1554800D02*
X7650800Y-1594800D01*
X7650800Y-2088200D02*
X7690800Y-2128200D01*
X7690800Y-2088200D02*
X7650800Y-2128200D01*
X7701600Y1417000D02*
X7741600Y1377000D01*
X7741600Y1417000D02*
X7701600Y1377000D01*
X7777800Y-1631000D02*
X7817800Y-1671000D01*
X7817800Y-1631000D02*
X7777800Y-1671000D01*
X7803200Y2102800D02*
X7843200Y2062800D01*
X7843200Y2102800D02*
X7803200Y2062800D01*
X7828600Y2636200D02*
X7868600Y2596200D01*
X7868600Y2636200D02*
X7828600Y2596200D01*
X7828600Y-2469200D02*
X7868600Y-2509200D01*
X7868600Y-2469200D02*
X7828600Y-2509200D01*
X7854000Y2382200D02*
X7894000Y2342200D01*
X7894000Y2382200D02*
X7854000Y2342200D01*
X7854000Y-2621600D02*
X7894000Y-2661600D01*
X7894000Y-2621600D02*
X7854000Y-2661600D01*
X7904800Y2915600D02*
X7944800Y2875600D01*
X7944800Y2915600D02*
X7904800Y2875600D01*
X7981000Y-716600D02*
X8021000Y-756600D01*
X8021000Y-716600D02*
X7981000Y-756600D01*
X8031800Y-437200D02*
X8071800Y-477200D01*
X8071800Y-437200D02*
X8031800Y-477200D01*
X8082600Y-183200D02*
X8122600Y-223200D01*
X8122600Y-183200D02*
X8082600Y-223200D01*
X8133400Y375600D02*
X8173400Y335600D01*
X8173400Y375600D02*
X8133400Y335600D01*
X8184200Y-1123000D02*
X8224200Y-1163000D01*
X8224200Y-1123000D02*
X8184200Y-1163000D01*
X8184200Y-2342200D02*
X8224200Y-2382200D01*
X8224200Y-2342200D02*
X8184200Y-2382200D01*
X8260400Y1023300D02*
X8300400Y983300D01*
X8300400Y1023300D02*
X8260400Y983300D01*
X8260400Y375600D02*
X8300400Y335600D01*
X8300400Y375600D02*
X8260400Y335600D01*
X8311200Y121600D02*
X8351200Y81600D01*
X8351200Y121600D02*
X8311200Y81600D01*
X8311200Y-4298000D02*
X8351200Y-4338000D01*
X8351200Y-4298000D02*
X8311200Y-4338000D01*
X8362000Y-2621600D02*
X8402000Y-2661600D01*
X8402000Y-2621600D02*
X8362000Y-2661600D01*
X8387400Y1264600D02*
X8427400Y1224600D01*
X8427400Y1264600D02*
X8387400Y1224600D01*
X8463600Y2128200D02*
X8503600Y2088200D01*
X8503600Y2128200D02*
X8463600Y2088200D01*
X8463600Y-2113600D02*
X8503600Y-2153600D01*
X8503600Y-2113600D02*
X8463600Y-2153600D01*
X8489000Y-1021400D02*
X8529000Y-1061400D01*
X8529000Y-1021400D02*
X8489000Y-1061400D01*
X8489000Y-1504000D02*
X8529000Y-1544000D01*
X8529000Y-1504000D02*
X8489000Y-1544000D01*
X8514400Y-2571000D02*
X8554400Y-2611000D01*
X8554400Y-2571000D02*
X8514400Y-2611000D01*
X8539800Y3042600D02*
X8579800Y3002600D01*
X8579800Y3042600D02*
X8539800Y3002600D01*
X8539800Y2814000D02*
X8579800Y2774000D01*
X8579800Y2814000D02*
X8539800Y2774000D01*
X8590600Y1544000D02*
X8630600Y1504000D01*
X8630600Y1544000D02*
X8590600Y1504000D01*
X8692200Y-1910400D02*
X8732200Y-1950400D01*
X8732200Y-1910400D02*
X8692200Y-1950400D01*
X8717600Y-208600D02*
X8757600Y-248600D01*
X8757600Y-208600D02*
X8717600Y-248600D01*
X8743000Y2534600D02*
X8783000Y2494600D01*
X8783000Y2534600D02*
X8743000Y2494600D01*
X8870000Y426400D02*
X8910000Y386400D01*
X8910000Y426400D02*
X8870000Y386400D01*
X8870000Y-462600D02*
X8910000Y-502600D01*
X8910000Y-462600D02*
X8870000Y-502600D01*
X8895400Y-742000D02*
X8935400Y-782000D01*
X8935400Y-742000D02*
X8895400Y-782000D01*
X8920800Y1137600D02*
X8960800Y1097600D01*
X8960800Y1137600D02*
X8920800Y1097600D01*
X9060500Y121600D02*
X9100500Y81600D01*
X9100500Y121600D02*
X9060500Y81600D01*
X9124000Y2331400D02*
X9164000Y2291400D01*
X9164000Y2331400D02*
X9124000Y2291400D01*
X9124000Y629600D02*
X9164000Y589600D01*
X9164000Y629600D02*
X9124000Y589600D01*
X9174800Y1671000D02*
X9214800Y1631000D01*
X9214800Y1671000D02*
X9174800Y1631000D01*
X9174800Y-119700D02*
X9214800Y-159700D01*
X9214800Y-119700D02*
X9174800Y-159700D01*
X9200200Y274000D02*
X9240200Y234000D01*
X9240200Y274000D02*
X9200200Y234000D01*
X9200200Y-1504000D02*
X9240200Y-1544000D01*
X9240200Y-1504000D02*
X9200200Y-1544000D01*
X9200200Y-1758000D02*
X9240200Y-1798000D01*
X9240200Y-1758000D02*
X9200200Y-1798000D01*
X9200200Y-2037400D02*
X9240200Y-2077400D01*
X9240200Y-2037400D02*
X9200200Y-2077400D01*
X9251000Y1137600D02*
X9291000Y1097600D01*
X9291000Y1137600D02*
X9251000Y1097600D01*
X9327200Y2356800D02*
X9367200Y2316800D01*
X9367200Y2356800D02*
X9327200Y2316800D01*
X9365300Y274000D02*
X9405300Y234000D01*
X9405300Y274000D02*
X9365300Y234000D01*
X9403400Y-1656400D02*
X9443400Y-1696400D01*
X9443400Y-1656400D02*
X9403400Y-1696400D01*
X9403400Y-2570800D02*
X9443400Y-2610800D01*
X9443400Y-2570800D02*
X9403400Y-2610800D01*
X9416100Y2039300D02*
X9456100Y1999300D01*
X9456100Y2039300D02*
X9416100Y1999300D01*
X9479600Y2610800D02*
X9519600Y2570800D01*
X9519600Y2610800D02*
X9479600Y2570800D01*
X9479600Y426400D02*
X9519600Y386400D01*
X9519600Y426400D02*
X9479600Y386400D01*
X9530400Y1544000D02*
X9570400Y1504000D01*
X9570400Y1544000D02*
X9530400Y1504000D01*
X9555800Y1163000D02*
X9595800Y1123000D01*
X9595800Y1163000D02*
X9555800Y1123000D01*
X9733600Y-2875600D02*
X9773600Y-2915600D01*
X9773600Y-2875600D02*
X9733600Y-2915600D01*
X9886000Y2636200D02*
X9926000Y2596200D01*
X9926000Y2636200D02*
X9886000Y2596200D01*
X9886000Y1747200D02*
X9926000Y1707200D01*
X9926000Y1747200D02*
X9886000Y1707200D01*
X9911400Y299400D02*
X9951400Y259400D01*
X9951400Y299400D02*
X9911400Y259400D01*
X10343200Y-2113600D02*
X10383200Y-2153600D01*
X10383200Y-2113600D02*
X10343200Y-2153600D01*
X10470200Y-818200D02*
X10510200Y-858200D01*
X10510200Y-818200D02*
X10470200Y-858200D01*
X10617500Y2610800D02*
X10657500Y2570800D01*
X10657500Y2610800D02*
X10617500Y2570800D01*
X10736900Y477200D02*
X10776900Y437200D01*
X10776900Y477200D02*
X10736900Y437200D01*
X10749600Y-843600D02*
X10789600Y-883600D01*
X10789600Y-843600D02*
X10749600Y-883600D01*
X10800400Y1163000D02*
X10840400Y1123000D01*
X10840400Y1163000D02*
X10800400Y1123000D01*
X10851200Y-3307400D02*
X10891200Y-3347400D01*
X10891200Y-3307400D02*
X10851200Y-3347400D01*
X10902000Y121600D02*
X10942000Y81600D01*
X10942000Y121600D02*
X10902000Y81600D01*
X10902000Y-2164400D02*
X10942000Y-2204400D01*
X10942000Y-2164400D02*
X10902000Y-2204400D01*
X11029000Y909000D02*
X11069000Y869000D01*
X11069000Y909000D02*
X11029000Y869000D01*
X11130600Y-107000D02*
X11170600Y-147000D01*
X11170600Y-107000D02*
X11130600Y-147000D01*
X11181400Y324800D02*
X11221400Y284800D01*
X11221400Y324800D02*
X11181400Y284800D01*
X11562400Y172400D02*
X11602400Y132400D01*
X11602400Y172400D02*
X11562400Y132400D01*
X11638600Y451800D02*
X11678600Y411800D01*
X11678600Y451800D02*
X11638600Y411800D01*
X11791000Y-234000D02*
X11831000Y-274000D01*
X11831000Y-234000D02*
X11791000Y-274000D01*
X11879900Y1417000D02*
X11919900Y1377000D01*
X11919900Y1417000D02*
X11879900Y1377000D01*
X11943400Y-386400D02*
X11983400Y-426400D01*
X11983400Y-386400D02*
X11943400Y-426400D01*
X12222800Y1467800D02*
X12262800Y1427800D01*
X12262800Y1467800D02*
X12222800Y1427800D01*
X12349800Y2661600D02*
X12389800Y2621600D01*
X12389800Y2661600D02*
X12349800Y2621600D01*
X12375200Y1264600D02*
X12415200Y1224600D01*
X12415200Y1264600D02*
X12375200Y1224600D01*
X12807000Y1467800D02*
X12847000Y1427800D01*
X12847000Y1467800D02*
X12807000Y1427800D01*
X12832400Y2636200D02*
X12872400Y2596200D01*
X12872400Y2636200D02*
X12832400Y2596200D01*
X-9295500Y4064000D02*
G75*
G02*
X-9345500Y4064000I-25000J0D01*
G01*
X-9345500Y4064000D02*
G75*
G02*
X-9295500Y4064000I25000J0D01*
G01*
X-9295500Y-4064000D02*
G75*
G02*
X-9345500Y-4064000I-25000J0D01*
G01*
X-9345500Y-4064000D02*
G75*
G02*
X-9295500Y-4064000I25000J0D01*
G01*
X-9225206Y4233706D02*
G75*
G02*
X-9275206Y4233706I-25000J0D01*
G01*
X-9275206Y4233706D02*
G75*
G02*
X-9225206Y4233706I25000J0D01*
G01*
X-9225206Y3894294D02*
G75*
G02*
X-9275206Y3894294I-25000J0D01*
G01*
X-9275206Y3894294D02*
G75*
G02*
X-9225206Y3894294I25000J0D01*
G01*
X-9225206Y-3894294D02*
G75*
G02*
X-9275206Y-3894294I-25000J0D01*
G01*
X-9275206Y-3894294D02*
G75*
G02*
X-9225206Y-3894294I25000J0D01*
G01*
X-9225206Y-4233706D02*
G75*
G02*
X-9275206Y-4233706I-25000J0D01*
G01*
X-9275206Y-4233706D02*
G75*
G02*
X-9225206Y-4233706I25000J0D01*
G01*
X-9055500Y4304000D02*
G75*
G02*
X-9105500Y4304000I-25000J0D01*
G01*
X-9105500Y4304000D02*
G75*
G02*
X-9055500Y4304000I25000J0D01*
G01*
X-9055500Y3824000D02*
G75*
G02*
X-9105500Y3824000I-25000J0D01*
G01*
X-9105500Y3824000D02*
G75*
G02*
X-9055500Y3824000I25000J0D01*
G01*
X-9055500Y-3824000D02*
G75*
G02*
X-9105500Y-3824000I-25000J0D01*
G01*
X-9105500Y-3824000D02*
G75*
G02*
X-9055500Y-3824000I25000J0D01*
G01*
X-9055500Y-4304000D02*
G75*
G02*
X-9105500Y-4304000I-25000J0D01*
G01*
X-9105500Y-4304000D02*
G75*
G02*
X-9055500Y-4304000I25000J0D01*
G01*
X-8885794Y4233706D02*
G75*
G02*
X-8935794Y4233706I-25000J0D01*
G01*
X-8935794Y4233706D02*
G75*
G02*
X-8885794Y4233706I25000J0D01*
G01*
X-8885794Y3894294D02*
G75*
G02*
X-8935794Y3894294I-25000J0D01*
G01*
X-8935794Y3894294D02*
G75*
G02*
X-8885794Y3894294I25000J0D01*
G01*
X-8885794Y-3894294D02*
G75*
G02*
X-8935794Y-3894294I-25000J0D01*
G01*
X-8935794Y-3894294D02*
G75*
G02*
X-8885794Y-3894294I25000J0D01*
G01*
X-8885794Y-4233706D02*
G75*
G02*
X-8935794Y-4233706I-25000J0D01*
G01*
X-8935794Y-4233706D02*
G75*
G02*
X-8885794Y-4233706I25000J0D01*
G01*
X-8815500Y4064000D02*
G75*
G02*
X-8865500Y4064000I-25000J0D01*
G01*
X-8865500Y4064000D02*
G75*
G02*
X-8815500Y4064000I25000J0D01*
G01*
X-8815500Y-4064000D02*
G75*
G02*
X-8865500Y-4064000I-25000J0D01*
G01*
X-8865500Y-4064000D02*
G75*
G02*
X-8815500Y-4064000I25000J0D01*
G01*
X-215000Y4064000D02*
G75*
G02*
X-265000Y4064000I-25000J0D01*
G01*
X-265000Y4064000D02*
G75*
G02*
X-215000Y4064000I25000J0D01*
G01*
X-215000Y-4064000D02*
G75*
G02*
X-265000Y-4064000I-25000J0D01*
G01*
X-265000Y-4064000D02*
G75*
G02*
X-215000Y-4064000I25000J0D01*
G01*
X-144706Y4233706D02*
G75*
G02*
X-194706Y4233706I-25000J0D01*
G01*
X-194706Y4233706D02*
G75*
G02*
X-144706Y4233706I25000J0D01*
G01*
X-144706Y3894294D02*
G75*
G02*
X-194706Y3894294I-25000J0D01*
G01*
X-194706Y3894294D02*
G75*
G02*
X-144706Y3894294I25000J0D01*
G01*
X-144706Y-3894294D02*
G75*
G02*
X-194706Y-3894294I-25000J0D01*
G01*
X-194706Y-3894294D02*
G75*
G02*
X-144706Y-3894294I25000J0D01*
G01*
X-144706Y-4233706D02*
G75*
G02*
X-194706Y-4233706I-25000J0D01*
G01*
X-194706Y-4233706D02*
G75*
G02*
X-144706Y-4233706I25000J0D01*
G01*
X25000Y4304000D02*
G75*
G02*
X-25000Y4304000I-25000J0D01*
G01*
X-25000Y4304000D02*
G75*
G02*
X25000Y4304000I25000J0D01*
G01*
X25000Y3824000D02*
G75*
G02*
X-25000Y3824000I-25000J0D01*
G01*
X-25000Y3824000D02*
G75*
G02*
X25000Y3824000I25000J0D01*
G01*
X25000Y-3824000D02*
G75*
G02*
X-25000Y-3824000I-25000J0D01*
G01*
X-25000Y-3824000D02*
G75*
G02*
X25000Y-3824000I25000J0D01*
G01*
X25000Y-4304000D02*
G75*
G02*
X-25000Y-4304000I-25000J0D01*
G01*
X-25000Y-4304000D02*
G75*
G02*
X25000Y-4304000I25000J0D01*
G01*
X194706Y4233706D02*
G75*
G02*
X144706Y4233706I-25000J0D01*
G01*
X144706Y4233706D02*
G75*
G02*
X194706Y4233706I25000J0D01*
G01*
X194706Y3894294D02*
G75*
G02*
X144706Y3894294I-25000J0D01*
G01*
X144706Y3894294D02*
G75*
G02*
X194706Y3894294I25000J0D01*
G01*
X194706Y-3894294D02*
G75*
G02*
X144706Y-3894294I-25000J0D01*
G01*
X144706Y-3894294D02*
G75*
G02*
X194706Y-3894294I25000J0D01*
G01*
X194706Y-4233706D02*
G75*
G02*
X144706Y-4233706I-25000J0D01*
G01*
X144706Y-4233706D02*
G75*
G02*
X194706Y-4233706I25000J0D01*
G01*
X265000Y4064000D02*
G75*
G02*
X215000Y4064000I-25000J0D01*
G01*
X215000Y4064000D02*
G75*
G02*
X265000Y4064000I25000J0D01*
G01*
X265000Y-4064000D02*
G75*
G02*
X215000Y-4064000I-25000J0D01*
G01*
X215000Y-4064000D02*
G75*
G02*
X265000Y-4064000I25000J0D01*
G01*
X8865500Y4064000D02*
G75*
G02*
X8815500Y4064000I-25000J0D01*
G01*
X8815500Y4064000D02*
G75*
G02*
X8865500Y4064000I25000J0D01*
G01*
X8865500Y-4064000D02*
G75*
G02*
X8815500Y-4064000I-25000J0D01*
G01*
X8815500Y-4064000D02*
G75*
G02*
X8865500Y-4064000I25000J0D01*
G01*
X8935794Y4233706D02*
G75*
G02*
X8885794Y4233706I-25000J0D01*
G01*
X8885794Y4233706D02*
G75*
G02*
X8935794Y4233706I25000J0D01*
G01*
X8935794Y3894294D02*
G75*
G02*
X8885794Y3894294I-25000J0D01*
G01*
X8885794Y3894294D02*
G75*
G02*
X8935794Y3894294I25000J0D01*
G01*
X8935794Y-3894294D02*
G75*
G02*
X8885794Y-3894294I-25000J0D01*
G01*
X8885794Y-3894294D02*
G75*
G02*
X8935794Y-3894294I25000J0D01*
G01*
X8935794Y-4233706D02*
G75*
G02*
X8885794Y-4233706I-25000J0D01*
G01*
X8885794Y-4233706D02*
G75*
G02*
X8935794Y-4233706I25000J0D01*
G01*
X9105500Y4304000D02*
G75*
G02*
X9055500Y4304000I-25000J0D01*
G01*
X9055500Y4304000D02*
G75*
G02*
X9105500Y4304000I25000J0D01*
G01*
X9105500Y3824000D02*
G75*
G02*
X9055500Y3824000I-25000J0D01*
G01*
X9055500Y3824000D02*
G75*
G02*
X9105500Y3824000I25000J0D01*
G01*
X9105500Y-3824000D02*
G75*
G02*
X9055500Y-3824000I-25000J0D01*
G01*
X9055500Y-3824000D02*
G75*
G02*
X9105500Y-3824000I25000J0D01*
G01*
X9105500Y-4304000D02*
G75*
G02*
X9055500Y-4304000I-25000J0D01*
G01*
X9055500Y-4304000D02*
G75*
G02*
X9105500Y-4304000I25000J0D01*
G01*
X9275206Y4233706D02*
G75*
G02*
X9225206Y4233706I-25000J0D01*
G01*
X9225206Y4233706D02*
G75*
G02*
X9275206Y4233706I25000J0D01*
G01*
X9275206Y3894294D02*
G75*
G02*
X9225206Y3894294I-25000J0D01*
G01*
X9225206Y3894294D02*
G75*
G02*
X9275206Y3894294I25000J0D01*
G01*
X9275206Y-3894294D02*
G75*
G02*
X9225206Y-3894294I-25000J0D01*
G01*
X9225206Y-3894294D02*
G75*
G02*
X9275206Y-3894294I25000J0D01*
G01*
X9275206Y-4233706D02*
G75*
G02*
X9225206Y-4233706I-25000J0D01*
G01*
X9225206Y-4233706D02*
G75*
G02*
X9275206Y-4233706I25000J0D01*
G01*
X9345500Y4064000D02*
G75*
G02*
X9295500Y4064000I-25000J0D01*
G01*
X9295500Y4064000D02*
G75*
G02*
X9345500Y4064000I25000J0D01*
G01*
X9345500Y-4064000D02*
G75*
G02*
X9295500Y-4064000I-25000J0D01*
G01*
X9295500Y-4064000D02*
G75*
G02*
X9345500Y-4064000I25000J0D01*
G01*
X8432800Y-3465200D02*
X8432800Y-3545200D01*
X8392800Y-3505200D02*
X8472800Y-3505200D01*
X8636000Y-3465200D02*
X8636000Y-3545200D01*
X8596000Y-3505200D02*
X8676000Y-3505200D01*
X8839200Y-3465200D02*
X8839200Y-3545200D01*
X8799200Y-3505200D02*
X8879200Y-3505200D01*
X9042400Y-3465200D02*
X9042400Y-3545200D01*
X9002400Y-3505200D02*
X9082400Y-3505200D01*
X9245600Y-3465200D02*
X9245600Y-3545200D01*
X9205600Y-3505200D02*
X9285600Y-3505200D01*
X10346220Y2598949D02*
X10346220Y2662589D01*
X10282580Y2662589D01*
X10282580Y2598949D01*
X10346220Y2598949D01*
X10346220Y2344949D02*
X10346220Y2408589D01*
X10282580Y2408589D01*
X10282580Y2344949D01*
X10346220Y2344949D01*
X10346220Y2090949D02*
X10346220Y2154589D01*
X10282580Y2154589D01*
X10282580Y2090949D01*
X10346220Y2090949D01*
X10346220Y1836949D02*
X10346220Y1900589D01*
X10282580Y1900589D01*
X10282580Y1836949D01*
X10346220Y1836949D01*
X10346220Y1582949D02*
X10346220Y1646589D01*
X10282580Y1646589D01*
X10282580Y1582949D01*
X10346220Y1582949D01*
X10346220Y1328949D02*
X10346220Y1392589D01*
X10282580Y1392589D01*
X10282580Y1328949D01*
X10346220Y1328949D01*
X10346220Y1074949D02*
X10346220Y1138589D01*
X10282580Y1138589D01*
X10282580Y1074949D01*
X10346220Y1074949D01*
X10346220Y820949D02*
X10346220Y884589D01*
X10282580Y884589D01*
X10282580Y820949D01*
X10346220Y820949D01*
X12632220Y2598949D02*
X12632220Y2662589D01*
X12568580Y2662589D01*
X12568580Y2598949D01*
X12632220Y2598949D01*
X12632220Y2344949D02*
X12632220Y2408589D01*
X12568580Y2408589D01*
X12568580Y2344949D01*
X12632220Y2344949D01*
X12632220Y2090949D02*
X12632220Y2154589D01*
X12568580Y2154589D01*
X12568580Y2090949D01*
X12632220Y2090949D01*
X12632220Y1836949D02*
X12632220Y1900589D01*
X12568580Y1900589D01*
X12568580Y1836949D01*
X12632220Y1836949D01*
X12632220Y1582949D02*
X12632220Y1646589D01*
X12568580Y1646589D01*
X12568580Y1582949D01*
X12632220Y1582949D01*
X12632220Y1328949D02*
X12632220Y1392589D01*
X12568580Y1392589D01*
X12568580Y1328949D01*
X12632220Y1328949D01*
X12632220Y1074949D02*
X12632220Y1138589D01*
X12568580Y1138589D01*
X12568580Y1074949D01*
X12632220Y1074949D01*
X12632220Y820949D02*
X12632220Y884589D01*
X12568580Y884589D01*
X12568580Y820949D01*
X12632220Y820949D01*
X10150768Y-1574000D02*
X10200768Y-1524000D01*
X10150768Y-1474000D01*
X10100768Y-1524000D01*
X10150768Y-1574000D01*
X10168000Y-2844000D02*
X10218000Y-2794000D01*
X10168000Y-2744000D01*
X10118000Y-2794000D01*
X10168000Y-2844000D01*
X10650768Y-1574000D02*
X10700768Y-1524000D01*
X10650768Y-1474000D01*
X10600768Y-1524000D01*
X10650768Y-1574000D01*
X10668000Y-2844000D02*
X10718000Y-2794000D01*
X10668000Y-2744000D01*
X10618000Y-2794000D01*
X10668000Y-2844000D01*
D13*
X-9240500Y4224000D02*
X-8920500Y3904000D01*
X-8920500Y4224000D02*
X-9240500Y3904000D01*
X-8920500Y4064000D02*
G75*
G02*
X-9240500Y4064000I-160000J0D01*
G01*
X-9240500Y4064000D02*
G75*
G02*
X-8920500Y4064000I160000J0D01*
G01*
X-9240500Y-3904000D02*
X-8920500Y-4224000D01*
X-8920500Y-3904000D02*
X-9240500Y-4224000D01*
X-8920500Y-4064000D02*
G75*
G02*
X-9240500Y-4064000I-160000J0D01*
G01*
X-9240500Y-4064000D02*
G75*
G02*
X-8920500Y-4064000I160000J0D01*
G01*
X-160000Y4224000D02*
X160000Y3904000D01*
X160000Y4224000D02*
X-160000Y3904000D01*
X160000Y4064000D02*
G75*
G02*
X-160000Y4064000I-160000J0D01*
G01*
X-160000Y4064000D02*
G75*
G02*
X160000Y4064000I160000J0D01*
G01*
X-160000Y-3904000D02*
X160000Y-4224000D01*
X160000Y-3904000D02*
X-160000Y-4224000D01*
X160000Y-4064000D02*
G75*
G02*
X-160000Y-4064000I-160000J0D01*
G01*
X-160000Y-4064000D02*
G75*
G02*
X160000Y-4064000I160000J0D01*
G01*
X8920500Y4224000D02*
X9240500Y3904000D01*
X9240500Y4224000D02*
X8920500Y3904000D01*
X9240500Y4064000D02*
G75*
G02*
X8920500Y4064000I-160000J0D01*
G01*
X8920500Y4064000D02*
G75*
G02*
X9240500Y4064000I160000J0D01*
G01*
X8920500Y-3904000D02*
X9240500Y-4224000D01*
X9240500Y-3904000D02*
X8920500Y-4224000D01*
X9240500Y-4064000D02*
G75*
G02*
X8920500Y-4064000I-160000J0D01*
G01*
X8920500Y-4064000D02*
G75*
G02*
X9240500Y-4064000I160000J0D01*
G01*
D11*
X-9330223Y-4885984D02*
X-9330223Y-4685984D01*
X-9330223Y-4685984D02*
X-9282604Y-4685984D01*
X-9282604Y-4685984D02*
X-9254033Y-4695508D01*
X-9254033Y-4695508D02*
X-9234985Y-4714555D01*
X-9234985Y-4714555D02*
X-9225461Y-4733603D01*
X-9225461Y-4733603D02*
X-9215937Y-4771698D01*
X-9215937Y-4771698D02*
X-9215937Y-4800270D01*
X-9215937Y-4800270D02*
X-9225461Y-4838365D01*
X-9225461Y-4838365D02*
X-9234985Y-4857412D01*
X-9234985Y-4857412D02*
X-9254033Y-4876460D01*
X-9254033Y-4876460D02*
X-9282604Y-4885984D01*
X-9282604Y-4885984D02*
X-9330223Y-4885984D01*
X-9130223Y-4885984D02*
X-9130223Y-4752650D01*
X-9130223Y-4790746D02*
X-9120699Y-4771698D01*
X-9120699Y-4771698D02*
X-9111176Y-4762174D01*
X-9111176Y-4762174D02*
X-9092128Y-4752650D01*
X-9092128Y-4752650D02*
X-9073080Y-4752650D01*
X-9006414Y-4885984D02*
X-9006414Y-4752650D01*
X-9006414Y-4685984D02*
X-9015937Y-4695508D01*
X-9015937Y-4695508D02*
X-9006414Y-4705031D01*
X-9006414Y-4705031D02*
X-8996890Y-4695508D01*
X-8996890Y-4695508D02*
X-9006414Y-4685984D01*
X-9006414Y-4685984D02*
X-9006414Y-4705031D01*
X-8882604Y-4885984D02*
X-8901652Y-4876460D01*
X-8901652Y-4876460D02*
X-8911176Y-4857412D01*
X-8911176Y-4857412D02*
X-8911176Y-4685984D01*
X-8777842Y-4885984D02*
X-8796890Y-4876460D01*
X-8796890Y-4876460D02*
X-8806414Y-4857412D01*
X-8806414Y-4857412D02*
X-8806414Y-4685984D01*
X-8549271Y-4885984D02*
X-8549271Y-4685984D01*
X-8549271Y-4685984D02*
X-8482604Y-4828841D01*
X-8482604Y-4828841D02*
X-8415937Y-4685984D01*
X-8415937Y-4685984D02*
X-8415937Y-4885984D01*
X-8234985Y-4885984D02*
X-8234985Y-4781222D01*
X-8234985Y-4781222D02*
X-8244509Y-4762174D01*
X-8244509Y-4762174D02*
X-8263556Y-4752650D01*
X-8263556Y-4752650D02*
X-8301652Y-4752650D01*
X-8301652Y-4752650D02*
X-8320699Y-4762174D01*
X-8234985Y-4876460D02*
X-8254033Y-4885984D01*
X-8254033Y-4885984D02*
X-8301652Y-4885984D01*
X-8301652Y-4885984D02*
X-8320699Y-4876460D01*
X-8320699Y-4876460D02*
X-8330223Y-4857412D01*
X-8330223Y-4857412D02*
X-8330223Y-4838365D01*
X-8330223Y-4838365D02*
X-8320699Y-4819317D01*
X-8320699Y-4819317D02*
X-8301652Y-4809793D01*
X-8301652Y-4809793D02*
X-8254033Y-4809793D01*
X-8254033Y-4809793D02*
X-8234985Y-4800270D01*
X-8139747Y-4752650D02*
X-8139747Y-4952650D01*
X-8139747Y-4762174D02*
X-8120699Y-4752650D01*
X-8120699Y-4752650D02*
X-8082604Y-4752650D01*
X-8082604Y-4752650D02*
X-8063556Y-4762174D01*
X-8063556Y-4762174D02*
X-8054033Y-4771698D01*
X-8054033Y-4771698D02*
X-8044509Y-4790746D01*
X-8044509Y-4790746D02*
X-8044509Y-4847889D01*
X-8044509Y-4847889D02*
X-8054033Y-4866936D01*
X-8054033Y-4866936D02*
X-8063556Y-4876460D01*
X-8063556Y-4876460D02*
X-8082604Y-4885984D01*
X-8082604Y-4885984D02*
X-8120699Y-4885984D01*
X-8120699Y-4885984D02*
X-8139747Y-4876460D01*
X-7958794Y-4866936D02*
X-7949271Y-4876460D01*
X-7949271Y-4876460D02*
X-7958794Y-4885984D01*
X-7958794Y-4885984D02*
X-7968318Y-4876460D01*
X-7968318Y-4876460D02*
X-7958794Y-4866936D01*
X-7958794Y-4866936D02*
X-7958794Y-4885984D01*
X-7958794Y-4762174D02*
X-7949271Y-4771698D01*
X-7949271Y-4771698D02*
X-7958794Y-4781222D01*
X-7958794Y-4781222D02*
X-7968318Y-4771698D01*
X-7968318Y-4771698D02*
X-7958794Y-4762174D01*
X-7958794Y-4762174D02*
X-7958794Y-4781222D01*
D12*
X-9631000Y-5194500D02*
X-9591000Y-5234500D01*
X-9591000Y-5194500D02*
X-9631000Y-5234500D01*
D11*
X-9292128Y-5105984D02*
X-9273080Y-5105984D01*
X-9273080Y-5105984D02*
X-9254033Y-5115508D01*
X-9254033Y-5115508D02*
X-9244509Y-5125031D01*
X-9244509Y-5125031D02*
X-9234985Y-5144079D01*
X-9234985Y-5144079D02*
X-9225461Y-5182174D01*
X-9225461Y-5182174D02*
X-9225461Y-5229793D01*
X-9225461Y-5229793D02*
X-9234985Y-5267889D01*
X-9234985Y-5267889D02*
X-9244509Y-5286936D01*
X-9244509Y-5286936D02*
X-9254033Y-5296460D01*
X-9254033Y-5296460D02*
X-9273080Y-5305984D01*
X-9273080Y-5305984D02*
X-9292128Y-5305984D01*
X-9292128Y-5305984D02*
X-9311176Y-5296460D01*
X-9311176Y-5296460D02*
X-9320699Y-5286936D01*
X-9320699Y-5286936D02*
X-9330223Y-5267889D01*
X-9330223Y-5267889D02*
X-9339747Y-5229793D01*
X-9339747Y-5229793D02*
X-9339747Y-5182174D01*
X-9339747Y-5182174D02*
X-9330223Y-5144079D01*
X-9330223Y-5144079D02*
X-9320699Y-5125031D01*
X-9320699Y-5125031D02*
X-9311176Y-5115508D01*
X-9311176Y-5115508D02*
X-9292128Y-5105984D01*
X-9139747Y-5286936D02*
X-9130223Y-5296460D01*
X-9130223Y-5296460D02*
X-9139747Y-5305984D01*
X-9139747Y-5305984D02*
X-9149271Y-5296460D01*
X-9149271Y-5296460D02*
X-9139747Y-5286936D01*
X-9139747Y-5286936D02*
X-9139747Y-5305984D01*
X-8958795Y-5172650D02*
X-8958795Y-5305984D01*
X-9006414Y-5096460D02*
X-9054033Y-5239317D01*
X-9054033Y-5239317D02*
X-8930223Y-5239317D01*
X-8815937Y-5105984D02*
X-8796890Y-5105984D01*
X-8796890Y-5105984D02*
X-8777842Y-5115508D01*
X-8777842Y-5115508D02*
X-8768318Y-5125031D01*
X-8768318Y-5125031D02*
X-8758795Y-5144079D01*
X-8758795Y-5144079D02*
X-8749271Y-5182174D01*
X-8749271Y-5182174D02*
X-8749271Y-5229793D01*
X-8749271Y-5229793D02*
X-8758795Y-5267889D01*
X-8758795Y-5267889D02*
X-8768318Y-5286936D01*
X-8768318Y-5286936D02*
X-8777842Y-5296460D01*
X-8777842Y-5296460D02*
X-8796890Y-5305984D01*
X-8796890Y-5305984D02*
X-8815937Y-5305984D01*
X-8815937Y-5305984D02*
X-8834985Y-5296460D01*
X-8834985Y-5296460D02*
X-8844509Y-5286936D01*
X-8844509Y-5286936D02*
X-8854033Y-5267889D01*
X-8854033Y-5267889D02*
X-8863556Y-5229793D01*
X-8863556Y-5229793D02*
X-8863556Y-5182174D01*
X-8863556Y-5182174D02*
X-8854033Y-5144079D01*
X-8854033Y-5144079D02*
X-8844509Y-5125031D01*
X-8844509Y-5125031D02*
X-8834985Y-5115508D01*
X-8834985Y-5115508D02*
X-8815937Y-5105984D01*
X-8625461Y-5105984D02*
X-8606414Y-5105984D01*
X-8606414Y-5105984D02*
X-8587366Y-5115508D01*
X-8587366Y-5115508D02*
X-8577842Y-5125031D01*
X-8577842Y-5125031D02*
X-8568318Y-5144079D01*
X-8568318Y-5144079D02*
X-8558795Y-5182174D01*
X-8558795Y-5182174D02*
X-8558795Y-5229793D01*
X-8558795Y-5229793D02*
X-8568318Y-5267889D01*
X-8568318Y-5267889D02*
X-8577842Y-5286936D01*
X-8577842Y-5286936D02*
X-8587366Y-5296460D01*
X-8587366Y-5296460D02*
X-8606414Y-5305984D01*
X-8606414Y-5305984D02*
X-8625461Y-5305984D01*
X-8625461Y-5305984D02*
X-8644509Y-5296460D01*
X-8644509Y-5296460D02*
X-8654033Y-5286936D01*
X-8654033Y-5286936D02*
X-8663556Y-5267889D01*
X-8663556Y-5267889D02*
X-8673080Y-5229793D01*
X-8673080Y-5229793D02*
X-8673080Y-5182174D01*
X-8673080Y-5182174D02*
X-8663556Y-5144079D01*
X-8663556Y-5144079D02*
X-8654033Y-5125031D01*
X-8654033Y-5125031D02*
X-8644509Y-5115508D01*
X-8644509Y-5115508D02*
X-8625461Y-5105984D01*
X-8473080Y-5305984D02*
X-8473080Y-5172650D01*
X-8473080Y-5191698D02*
X-8463556Y-5182174D01*
X-8463556Y-5182174D02*
X-8444509Y-5172650D01*
X-8444509Y-5172650D02*
X-8415937Y-5172650D01*
X-8415937Y-5172650D02*
X-8396890Y-5182174D01*
X-8396890Y-5182174D02*
X-8387366Y-5201222D01*
X-8387366Y-5201222D02*
X-8387366Y-5305984D01*
X-8387366Y-5201222D02*
X-8377842Y-5182174D01*
X-8377842Y-5182174D02*
X-8358794Y-5172650D01*
X-8358794Y-5172650D02*
X-8330223Y-5172650D01*
X-8330223Y-5172650D02*
X-8311175Y-5182174D01*
X-8311175Y-5182174D02*
X-8301652Y-5201222D01*
X-8301652Y-5201222D02*
X-8301652Y-5305984D01*
X-8206413Y-5305984D02*
X-8206413Y-5172650D01*
X-8206413Y-5191698D02*
X-8196890Y-5182174D01*
X-8196890Y-5182174D02*
X-8177842Y-5172650D01*
X-8177842Y-5172650D02*
X-8149271Y-5172650D01*
X-8149271Y-5172650D02*
X-8130223Y-5182174D01*
X-8130223Y-5182174D02*
X-8120699Y-5201222D01*
X-8120699Y-5201222D02*
X-8120699Y-5305984D01*
X-8120699Y-5201222D02*
X-8111175Y-5182174D01*
X-8111175Y-5182174D02*
X-8092128Y-5172650D01*
X-8092128Y-5172650D02*
X-8063556Y-5172650D01*
X-8063556Y-5172650D02*
X-8044509Y-5182174D01*
X-8044509Y-5182174D02*
X-8034985Y-5201222D01*
X-8034985Y-5201222D02*
X-8034985Y-5305984D01*
X-7644509Y-5096460D02*
X-7815937Y-5353603D01*
X-7387366Y-5105984D02*
X-7368318Y-5105984D01*
X-7368318Y-5105984D02*
X-7349270Y-5115508D01*
X-7349270Y-5115508D02*
X-7339747Y-5125031D01*
X-7339747Y-5125031D02*
X-7330223Y-5144079D01*
X-7330223Y-5144079D02*
X-7320699Y-5182174D01*
X-7320699Y-5182174D02*
X-7320699Y-5229793D01*
X-7320699Y-5229793D02*
X-7330223Y-5267889D01*
X-7330223Y-5267889D02*
X-7339747Y-5286936D01*
X-7339747Y-5286936D02*
X-7349270Y-5296460D01*
X-7349270Y-5296460D02*
X-7368318Y-5305984D01*
X-7368318Y-5305984D02*
X-7387366Y-5305984D01*
X-7387366Y-5305984D02*
X-7406413Y-5296460D01*
X-7406413Y-5296460D02*
X-7415937Y-5286936D01*
X-7415937Y-5286936D02*
X-7425461Y-5267889D01*
X-7425461Y-5267889D02*
X-7434985Y-5229793D01*
X-7434985Y-5229793D02*
X-7434985Y-5182174D01*
X-7434985Y-5182174D02*
X-7425461Y-5144079D01*
X-7425461Y-5144079D02*
X-7415937Y-5125031D01*
X-7415937Y-5125031D02*
X-7406413Y-5115508D01*
X-7406413Y-5115508D02*
X-7387366Y-5105984D01*
X-7234985Y-5286936D02*
X-7225461Y-5296460D01*
X-7225461Y-5296460D02*
X-7234985Y-5305984D01*
X-7234985Y-5305984D02*
X-7244509Y-5296460D01*
X-7244509Y-5296460D02*
X-7234985Y-5286936D01*
X-7234985Y-5286936D02*
X-7234985Y-5305984D01*
X-7101651Y-5105984D02*
X-7082604Y-5105984D01*
X-7082604Y-5105984D02*
X-7063556Y-5115508D01*
X-7063556Y-5115508D02*
X-7054032Y-5125031D01*
X-7054032Y-5125031D02*
X-7044509Y-5144079D01*
X-7044509Y-5144079D02*
X-7034985Y-5182174D01*
X-7034985Y-5182174D02*
X-7034985Y-5229793D01*
X-7034985Y-5229793D02*
X-7044509Y-5267889D01*
X-7044509Y-5267889D02*
X-7054032Y-5286936D01*
X-7054032Y-5286936D02*
X-7063556Y-5296460D01*
X-7063556Y-5296460D02*
X-7082604Y-5305984D01*
X-7082604Y-5305984D02*
X-7101651Y-5305984D01*
X-7101651Y-5305984D02*
X-7120699Y-5296460D01*
X-7120699Y-5296460D02*
X-7130223Y-5286936D01*
X-7130223Y-5286936D02*
X-7139747Y-5267889D01*
X-7139747Y-5267889D02*
X-7149270Y-5229793D01*
X-7149270Y-5229793D02*
X-7149270Y-5182174D01*
X-7149270Y-5182174D02*
X-7139747Y-5144079D01*
X-7139747Y-5144079D02*
X-7130223Y-5125031D01*
X-7130223Y-5125031D02*
X-7120699Y-5115508D01*
X-7120699Y-5115508D02*
X-7101651Y-5105984D01*
X-6844509Y-5305984D02*
X-6958794Y-5305984D01*
X-6901651Y-5305984D02*
X-6901651Y-5105984D01*
X-6901651Y-5105984D02*
X-6920699Y-5134555D01*
X-6920699Y-5134555D02*
X-6939747Y-5153603D01*
X-6939747Y-5153603D02*
X-6958794Y-5163127D01*
X-6663556Y-5105984D02*
X-6758794Y-5105984D01*
X-6758794Y-5105984D02*
X-6768318Y-5201222D01*
X-6768318Y-5201222D02*
X-6758794Y-5191698D01*
X-6758794Y-5191698D02*
X-6739747Y-5182174D01*
X-6739747Y-5182174D02*
X-6692128Y-5182174D01*
X-6692128Y-5182174D02*
X-6673080Y-5191698D01*
X-6673080Y-5191698D02*
X-6663556Y-5201222D01*
X-6663556Y-5201222D02*
X-6654032Y-5220270D01*
X-6654032Y-5220270D02*
X-6654032Y-5267889D01*
X-6654032Y-5267889D02*
X-6663556Y-5286936D01*
X-6663556Y-5286936D02*
X-6673080Y-5296460D01*
X-6673080Y-5296460D02*
X-6692128Y-5305984D01*
X-6692128Y-5305984D02*
X-6739747Y-5305984D01*
X-6739747Y-5305984D02*
X-6758794Y-5296460D01*
X-6758794Y-5296460D02*
X-6768318Y-5286936D01*
X-6587366Y-5105984D02*
X-6454032Y-5105984D01*
X-6454032Y-5105984D02*
X-6539747Y-5305984D01*
X-6387366Y-5105984D02*
X-6387366Y-5144079D01*
X-6311175Y-5105984D02*
X-6311175Y-5144079D01*
X-6015937Y-5382174D02*
X-6025461Y-5372650D01*
X-6025461Y-5372650D02*
X-6044508Y-5344079D01*
X-6044508Y-5344079D02*
X-6054032Y-5325031D01*
X-6054032Y-5325031D02*
X-6063556Y-5296460D01*
X-6063556Y-5296460D02*
X-6073080Y-5248841D01*
X-6073080Y-5248841D02*
X-6073080Y-5210746D01*
X-6073080Y-5210746D02*
X-6063556Y-5163127D01*
X-6063556Y-5163127D02*
X-6054032Y-5134555D01*
X-6054032Y-5134555D02*
X-6044508Y-5115508D01*
X-6044508Y-5115508D02*
X-6025461Y-5086936D01*
X-6025461Y-5086936D02*
X-6015937Y-5077412D01*
X-5844508Y-5105984D02*
X-5939747Y-5105984D01*
X-5939747Y-5105984D02*
X-5949270Y-5201222D01*
X-5949270Y-5201222D02*
X-5939747Y-5191698D01*
X-5939747Y-5191698D02*
X-5920699Y-5182174D01*
X-5920699Y-5182174D02*
X-5873080Y-5182174D01*
X-5873080Y-5182174D02*
X-5854032Y-5191698D01*
X-5854032Y-5191698D02*
X-5844508Y-5201222D01*
X-5844508Y-5201222D02*
X-5834985Y-5220270D01*
X-5834985Y-5220270D02*
X-5834985Y-5267889D01*
X-5834985Y-5267889D02*
X-5844508Y-5286936D01*
X-5844508Y-5286936D02*
X-5854032Y-5296460D01*
X-5854032Y-5296460D02*
X-5873080Y-5305984D01*
X-5873080Y-5305984D02*
X-5920699Y-5305984D01*
X-5920699Y-5305984D02*
X-5939747Y-5296460D01*
X-5939747Y-5296460D02*
X-5949270Y-5286936D01*
X-5663556Y-5172650D02*
X-5663556Y-5305984D01*
X-5711175Y-5096460D02*
X-5758794Y-5239317D01*
X-5758794Y-5239317D02*
X-5634985Y-5239317D01*
X-5530223Y-5191698D02*
X-5549270Y-5182174D01*
X-5549270Y-5182174D02*
X-5558794Y-5172650D01*
X-5558794Y-5172650D02*
X-5568318Y-5153603D01*
X-5568318Y-5153603D02*
X-5568318Y-5144079D01*
X-5568318Y-5144079D02*
X-5558794Y-5125031D01*
X-5558794Y-5125031D02*
X-5549270Y-5115508D01*
X-5549270Y-5115508D02*
X-5530223Y-5105984D01*
X-5530223Y-5105984D02*
X-5492128Y-5105984D01*
X-5492128Y-5105984D02*
X-5473080Y-5115508D01*
X-5473080Y-5115508D02*
X-5463556Y-5125031D01*
X-5463556Y-5125031D02*
X-5454032Y-5144079D01*
X-5454032Y-5144079D02*
X-5454032Y-5153603D01*
X-5454032Y-5153603D02*
X-5463556Y-5172650D01*
X-5463556Y-5172650D02*
X-5473080Y-5182174D01*
X-5473080Y-5182174D02*
X-5492128Y-5191698D01*
X-5492128Y-5191698D02*
X-5530223Y-5191698D01*
X-5530223Y-5191698D02*
X-5549270Y-5201222D01*
X-5549270Y-5201222D02*
X-5558794Y-5210746D01*
X-5558794Y-5210746D02*
X-5568318Y-5229793D01*
X-5568318Y-5229793D02*
X-5568318Y-5267889D01*
X-5568318Y-5267889D02*
X-5558794Y-5286936D01*
X-5558794Y-5286936D02*
X-5549270Y-5296460D01*
X-5549270Y-5296460D02*
X-5530223Y-5305984D01*
X-5530223Y-5305984D02*
X-5492128Y-5305984D01*
X-5492128Y-5305984D02*
X-5473080Y-5296460D01*
X-5473080Y-5296460D02*
X-5463556Y-5286936D01*
X-5463556Y-5286936D02*
X-5454032Y-5267889D01*
X-5454032Y-5267889D02*
X-5454032Y-5229793D01*
X-5454032Y-5229793D02*
X-5463556Y-5210746D01*
X-5463556Y-5210746D02*
X-5473080Y-5201222D01*
X-5473080Y-5201222D02*
X-5492128Y-5191698D01*
X-5215937Y-5305984D02*
X-5215937Y-5105984D01*
X-5130223Y-5305984D02*
X-5130223Y-5201222D01*
X-5130223Y-5201222D02*
X-5139747Y-5182174D01*
X-5139747Y-5182174D02*
X-5158794Y-5172650D01*
X-5158794Y-5172650D02*
X-5187366Y-5172650D01*
X-5187366Y-5172650D02*
X-5206413Y-5182174D01*
X-5206413Y-5182174D02*
X-5215937Y-5191698D01*
X-5006413Y-5305984D02*
X-5025461Y-5296460D01*
X-5025461Y-5296460D02*
X-5034985Y-5286936D01*
X-5034985Y-5286936D02*
X-5044508Y-5267889D01*
X-5044508Y-5267889D02*
X-5044508Y-5210746D01*
X-5044508Y-5210746D02*
X-5034985Y-5191698D01*
X-5034985Y-5191698D02*
X-5025461Y-5182174D01*
X-5025461Y-5182174D02*
X-5006413Y-5172650D01*
X-5006413Y-5172650D02*
X-4977842Y-5172650D01*
X-4977842Y-5172650D02*
X-4958794Y-5182174D01*
X-4958794Y-5182174D02*
X-4949270Y-5191698D01*
X-4949270Y-5191698D02*
X-4939747Y-5210746D01*
X-4939747Y-5210746D02*
X-4939747Y-5267889D01*
X-4939747Y-5267889D02*
X-4949270Y-5286936D01*
X-4949270Y-5286936D02*
X-4958794Y-5296460D01*
X-4958794Y-5296460D02*
X-4977842Y-5305984D01*
X-4977842Y-5305984D02*
X-5006413Y-5305984D01*
X-4825461Y-5305984D02*
X-4844508Y-5296460D01*
X-4844508Y-5296460D02*
X-4854032Y-5277412D01*
X-4854032Y-5277412D02*
X-4854032Y-5105984D01*
X-4673080Y-5296460D02*
X-4692127Y-5305984D01*
X-4692127Y-5305984D02*
X-4730223Y-5305984D01*
X-4730223Y-5305984D02*
X-4749270Y-5296460D01*
X-4749270Y-5296460D02*
X-4758794Y-5277412D01*
X-4758794Y-5277412D02*
X-4758794Y-5201222D01*
X-4758794Y-5201222D02*
X-4749270Y-5182174D01*
X-4749270Y-5182174D02*
X-4730223Y-5172650D01*
X-4730223Y-5172650D02*
X-4692127Y-5172650D01*
X-4692127Y-5172650D02*
X-4673080Y-5182174D01*
X-4673080Y-5182174D02*
X-4663556Y-5201222D01*
X-4663556Y-5201222D02*
X-4663556Y-5220270D01*
X-4663556Y-5220270D02*
X-4758794Y-5239317D01*
X-4587366Y-5296460D02*
X-4568318Y-5305984D01*
X-4568318Y-5305984D02*
X-4530223Y-5305984D01*
X-4530223Y-5305984D02*
X-4511175Y-5296460D01*
X-4511175Y-5296460D02*
X-4501651Y-5277412D01*
X-4501651Y-5277412D02*
X-4501651Y-5267889D01*
X-4501651Y-5267889D02*
X-4511175Y-5248841D01*
X-4511175Y-5248841D02*
X-4530223Y-5239317D01*
X-4530223Y-5239317D02*
X-4558794Y-5239317D01*
X-4558794Y-5239317D02*
X-4577842Y-5229793D01*
X-4577842Y-5229793D02*
X-4587366Y-5210746D01*
X-4587366Y-5210746D02*
X-4587366Y-5201222D01*
X-4587366Y-5201222D02*
X-4577842Y-5182174D01*
X-4577842Y-5182174D02*
X-4558794Y-5172650D01*
X-4558794Y-5172650D02*
X-4530223Y-5172650D01*
X-4530223Y-5172650D02*
X-4511175Y-5182174D01*
X-4434985Y-5382174D02*
X-4425461Y-5372650D01*
X-4425461Y-5372650D02*
X-4406413Y-5344079D01*
X-4406413Y-5344079D02*
X-4396889Y-5325031D01*
X-4396889Y-5325031D02*
X-4387366Y-5296460D01*
X-4387366Y-5296460D02*
X-4377842Y-5248841D01*
X-4377842Y-5248841D02*
X-4377842Y-5210746D01*
X-4377842Y-5210746D02*
X-4387366Y-5163127D01*
X-4387366Y-5163127D02*
X-4396889Y-5134555D01*
X-4396889Y-5134555D02*
X-4406413Y-5115508D01*
X-4406413Y-5115508D02*
X-4425461Y-5086936D01*
X-4425461Y-5086936D02*
X-4434985Y-5077412D01*
D12*
X-9591000Y-5478500D02*
G75*
G02*
X-9641000Y-5478500I-25000J0D01*
G01*
X-9641000Y-5478500D02*
G75*
G02*
X-9591000Y-5478500I25000J0D01*
G01*
D11*
X-9292128Y-5369984D02*
X-9273080Y-5369984D01*
X-9273080Y-5369984D02*
X-9254033Y-5379508D01*
X-9254033Y-5379508D02*
X-9244509Y-5389031D01*
X-9244509Y-5389031D02*
X-9234985Y-5408079D01*
X-9234985Y-5408079D02*
X-9225461Y-5446174D01*
X-9225461Y-5446174D02*
X-9225461Y-5493793D01*
X-9225461Y-5493793D02*
X-9234985Y-5531889D01*
X-9234985Y-5531889D02*
X-9244509Y-5550936D01*
X-9244509Y-5550936D02*
X-9254033Y-5560460D01*
X-9254033Y-5560460D02*
X-9273080Y-5569984D01*
X-9273080Y-5569984D02*
X-9292128Y-5569984D01*
X-9292128Y-5569984D02*
X-9311176Y-5560460D01*
X-9311176Y-5560460D02*
X-9320699Y-5550936D01*
X-9320699Y-5550936D02*
X-9330223Y-5531889D01*
X-9330223Y-5531889D02*
X-9339747Y-5493793D01*
X-9339747Y-5493793D02*
X-9339747Y-5446174D01*
X-9339747Y-5446174D02*
X-9330223Y-5408079D01*
X-9330223Y-5408079D02*
X-9320699Y-5389031D01*
X-9320699Y-5389031D02*
X-9311176Y-5379508D01*
X-9311176Y-5379508D02*
X-9292128Y-5369984D01*
X-9139747Y-5550936D02*
X-9130223Y-5560460D01*
X-9130223Y-5560460D02*
X-9139747Y-5569984D01*
X-9139747Y-5569984D02*
X-9149271Y-5560460D01*
X-9149271Y-5560460D02*
X-9139747Y-5550936D01*
X-9139747Y-5550936D02*
X-9139747Y-5569984D01*
X-8949271Y-5369984D02*
X-9044509Y-5369984D01*
X-9044509Y-5369984D02*
X-9054033Y-5465222D01*
X-9054033Y-5465222D02*
X-9044509Y-5455698D01*
X-9044509Y-5455698D02*
X-9025461Y-5446174D01*
X-9025461Y-5446174D02*
X-8977842Y-5446174D01*
X-8977842Y-5446174D02*
X-8958795Y-5455698D01*
X-8958795Y-5455698D02*
X-8949271Y-5465222D01*
X-8949271Y-5465222D02*
X-8939747Y-5484270D01*
X-8939747Y-5484270D02*
X-8939747Y-5531889D01*
X-8939747Y-5531889D02*
X-8949271Y-5550936D01*
X-8949271Y-5550936D02*
X-8958795Y-5560460D01*
X-8958795Y-5560460D02*
X-8977842Y-5569984D01*
X-8977842Y-5569984D02*
X-9025461Y-5569984D01*
X-9025461Y-5569984D02*
X-9044509Y-5560460D01*
X-9044509Y-5560460D02*
X-9054033Y-5550936D01*
X-8815937Y-5369984D02*
X-8796890Y-5369984D01*
X-8796890Y-5369984D02*
X-8777842Y-5379508D01*
X-8777842Y-5379508D02*
X-8768318Y-5389031D01*
X-8768318Y-5389031D02*
X-8758795Y-5408079D01*
X-8758795Y-5408079D02*
X-8749271Y-5446174D01*
X-8749271Y-5446174D02*
X-8749271Y-5493793D01*
X-8749271Y-5493793D02*
X-8758795Y-5531889D01*
X-8758795Y-5531889D02*
X-8768318Y-5550936D01*
X-8768318Y-5550936D02*
X-8777842Y-5560460D01*
X-8777842Y-5560460D02*
X-8796890Y-5569984D01*
X-8796890Y-5569984D02*
X-8815937Y-5569984D01*
X-8815937Y-5569984D02*
X-8834985Y-5560460D01*
X-8834985Y-5560460D02*
X-8844509Y-5550936D01*
X-8844509Y-5550936D02*
X-8854033Y-5531889D01*
X-8854033Y-5531889D02*
X-8863556Y-5493793D01*
X-8863556Y-5493793D02*
X-8863556Y-5446174D01*
X-8863556Y-5446174D02*
X-8854033Y-5408079D01*
X-8854033Y-5408079D02*
X-8844509Y-5389031D01*
X-8844509Y-5389031D02*
X-8834985Y-5379508D01*
X-8834985Y-5379508D02*
X-8815937Y-5369984D01*
X-8625461Y-5369984D02*
X-8606414Y-5369984D01*
X-8606414Y-5369984D02*
X-8587366Y-5379508D01*
X-8587366Y-5379508D02*
X-8577842Y-5389031D01*
X-8577842Y-5389031D02*
X-8568318Y-5408079D01*
X-8568318Y-5408079D02*
X-8558795Y-5446174D01*
X-8558795Y-5446174D02*
X-8558795Y-5493793D01*
X-8558795Y-5493793D02*
X-8568318Y-5531889D01*
X-8568318Y-5531889D02*
X-8577842Y-5550936D01*
X-8577842Y-5550936D02*
X-8587366Y-5560460D01*
X-8587366Y-5560460D02*
X-8606414Y-5569984D01*
X-8606414Y-5569984D02*
X-8625461Y-5569984D01*
X-8625461Y-5569984D02*
X-8644509Y-5560460D01*
X-8644509Y-5560460D02*
X-8654033Y-5550936D01*
X-8654033Y-5550936D02*
X-8663556Y-5531889D01*
X-8663556Y-5531889D02*
X-8673080Y-5493793D01*
X-8673080Y-5493793D02*
X-8673080Y-5446174D01*
X-8673080Y-5446174D02*
X-8663556Y-5408079D01*
X-8663556Y-5408079D02*
X-8654033Y-5389031D01*
X-8654033Y-5389031D02*
X-8644509Y-5379508D01*
X-8644509Y-5379508D02*
X-8625461Y-5369984D01*
X-8473080Y-5569984D02*
X-8473080Y-5436650D01*
X-8473080Y-5455698D02*
X-8463556Y-5446174D01*
X-8463556Y-5446174D02*
X-8444509Y-5436650D01*
X-8444509Y-5436650D02*
X-8415937Y-5436650D01*
X-8415937Y-5436650D02*
X-8396890Y-5446174D01*
X-8396890Y-5446174D02*
X-8387366Y-5465222D01*
X-8387366Y-5465222D02*
X-8387366Y-5569984D01*
X-8387366Y-5465222D02*
X-8377842Y-5446174D01*
X-8377842Y-5446174D02*
X-8358794Y-5436650D01*
X-8358794Y-5436650D02*
X-8330223Y-5436650D01*
X-8330223Y-5436650D02*
X-8311175Y-5446174D01*
X-8311175Y-5446174D02*
X-8301652Y-5465222D01*
X-8301652Y-5465222D02*
X-8301652Y-5569984D01*
X-8206413Y-5569984D02*
X-8206413Y-5436650D01*
X-8206413Y-5455698D02*
X-8196890Y-5446174D01*
X-8196890Y-5446174D02*
X-8177842Y-5436650D01*
X-8177842Y-5436650D02*
X-8149271Y-5436650D01*
X-8149271Y-5436650D02*
X-8130223Y-5446174D01*
X-8130223Y-5446174D02*
X-8120699Y-5465222D01*
X-8120699Y-5465222D02*
X-8120699Y-5569984D01*
X-8120699Y-5465222D02*
X-8111175Y-5446174D01*
X-8111175Y-5446174D02*
X-8092128Y-5436650D01*
X-8092128Y-5436650D02*
X-8063556Y-5436650D01*
X-8063556Y-5436650D02*
X-8044509Y-5446174D01*
X-8044509Y-5446174D02*
X-8034985Y-5465222D01*
X-8034985Y-5465222D02*
X-8034985Y-5569984D01*
X-7644509Y-5360460D02*
X-7815937Y-5617603D01*
X-7387366Y-5369984D02*
X-7368318Y-5369984D01*
X-7368318Y-5369984D02*
X-7349270Y-5379508D01*
X-7349270Y-5379508D02*
X-7339747Y-5389031D01*
X-7339747Y-5389031D02*
X-7330223Y-5408079D01*
X-7330223Y-5408079D02*
X-7320699Y-5446174D01*
X-7320699Y-5446174D02*
X-7320699Y-5493793D01*
X-7320699Y-5493793D02*
X-7330223Y-5531889D01*
X-7330223Y-5531889D02*
X-7339747Y-5550936D01*
X-7339747Y-5550936D02*
X-7349270Y-5560460D01*
X-7349270Y-5560460D02*
X-7368318Y-5569984D01*
X-7368318Y-5569984D02*
X-7387366Y-5569984D01*
X-7387366Y-5569984D02*
X-7406413Y-5560460D01*
X-7406413Y-5560460D02*
X-7415937Y-5550936D01*
X-7415937Y-5550936D02*
X-7425461Y-5531889D01*
X-7425461Y-5531889D02*
X-7434985Y-5493793D01*
X-7434985Y-5493793D02*
X-7434985Y-5446174D01*
X-7434985Y-5446174D02*
X-7425461Y-5408079D01*
X-7425461Y-5408079D02*
X-7415937Y-5389031D01*
X-7415937Y-5389031D02*
X-7406413Y-5379508D01*
X-7406413Y-5379508D02*
X-7387366Y-5369984D01*
X-7234985Y-5550936D02*
X-7225461Y-5560460D01*
X-7225461Y-5560460D02*
X-7234985Y-5569984D01*
X-7234985Y-5569984D02*
X-7244509Y-5560460D01*
X-7244509Y-5560460D02*
X-7234985Y-5550936D01*
X-7234985Y-5550936D02*
X-7234985Y-5569984D01*
X-7101651Y-5369984D02*
X-7082604Y-5369984D01*
X-7082604Y-5369984D02*
X-7063556Y-5379508D01*
X-7063556Y-5379508D02*
X-7054032Y-5389031D01*
X-7054032Y-5389031D02*
X-7044509Y-5408079D01*
X-7044509Y-5408079D02*
X-7034985Y-5446174D01*
X-7034985Y-5446174D02*
X-7034985Y-5493793D01*
X-7034985Y-5493793D02*
X-7044509Y-5531889D01*
X-7044509Y-5531889D02*
X-7054032Y-5550936D01*
X-7054032Y-5550936D02*
X-7063556Y-5560460D01*
X-7063556Y-5560460D02*
X-7082604Y-5569984D01*
X-7082604Y-5569984D02*
X-7101651Y-5569984D01*
X-7101651Y-5569984D02*
X-7120699Y-5560460D01*
X-7120699Y-5560460D02*
X-7130223Y-5550936D01*
X-7130223Y-5550936D02*
X-7139747Y-5531889D01*
X-7139747Y-5531889D02*
X-7149270Y-5493793D01*
X-7149270Y-5493793D02*
X-7149270Y-5446174D01*
X-7149270Y-5446174D02*
X-7139747Y-5408079D01*
X-7139747Y-5408079D02*
X-7130223Y-5389031D01*
X-7130223Y-5389031D02*
X-7120699Y-5379508D01*
X-7120699Y-5379508D02*
X-7101651Y-5369984D01*
X-6844509Y-5569984D02*
X-6958794Y-5569984D01*
X-6901651Y-5569984D02*
X-6901651Y-5369984D01*
X-6901651Y-5369984D02*
X-6920699Y-5398555D01*
X-6920699Y-5398555D02*
X-6939747Y-5417603D01*
X-6939747Y-5417603D02*
X-6958794Y-5427127D01*
X-6749270Y-5569984D02*
X-6711175Y-5569984D01*
X-6711175Y-5569984D02*
X-6692128Y-5560460D01*
X-6692128Y-5560460D02*
X-6682604Y-5550936D01*
X-6682604Y-5550936D02*
X-6663556Y-5522365D01*
X-6663556Y-5522365D02*
X-6654032Y-5484270D01*
X-6654032Y-5484270D02*
X-6654032Y-5408079D01*
X-6654032Y-5408079D02*
X-6663556Y-5389031D01*
X-6663556Y-5389031D02*
X-6673080Y-5379508D01*
X-6673080Y-5379508D02*
X-6692128Y-5369984D01*
X-6692128Y-5369984D02*
X-6730223Y-5369984D01*
X-6730223Y-5369984D02*
X-6749270Y-5379508D01*
X-6749270Y-5379508D02*
X-6758794Y-5389031D01*
X-6758794Y-5389031D02*
X-6768318Y-5408079D01*
X-6768318Y-5408079D02*
X-6768318Y-5455698D01*
X-6768318Y-5455698D02*
X-6758794Y-5474746D01*
X-6758794Y-5474746D02*
X-6749270Y-5484270D01*
X-6749270Y-5484270D02*
X-6730223Y-5493793D01*
X-6730223Y-5493793D02*
X-6692128Y-5493793D01*
X-6692128Y-5493793D02*
X-6673080Y-5484270D01*
X-6673080Y-5484270D02*
X-6663556Y-5474746D01*
X-6663556Y-5474746D02*
X-6654032Y-5455698D01*
X-6587366Y-5369984D02*
X-6454032Y-5369984D01*
X-6454032Y-5369984D02*
X-6539747Y-5569984D01*
X-6387366Y-5369984D02*
X-6387366Y-5408079D01*
X-6311175Y-5369984D02*
X-6311175Y-5408079D01*
X-6015937Y-5646174D02*
X-6025461Y-5636650D01*
X-6025461Y-5636650D02*
X-6044508Y-5608079D01*
X-6044508Y-5608079D02*
X-6054032Y-5589031D01*
X-6054032Y-5589031D02*
X-6063556Y-5560460D01*
X-6063556Y-5560460D02*
X-6073080Y-5512841D01*
X-6073080Y-5512841D02*
X-6073080Y-5474746D01*
X-6073080Y-5474746D02*
X-6063556Y-5427127D01*
X-6063556Y-5427127D02*
X-6054032Y-5398555D01*
X-6054032Y-5398555D02*
X-6044508Y-5379508D01*
X-6044508Y-5379508D02*
X-6025461Y-5350936D01*
X-6025461Y-5350936D02*
X-6015937Y-5341412D01*
X-5854032Y-5436650D02*
X-5854032Y-5569984D01*
X-5901651Y-5360460D02*
X-5949270Y-5503317D01*
X-5949270Y-5503317D02*
X-5825461Y-5503317D01*
X-5720699Y-5455698D02*
X-5739747Y-5446174D01*
X-5739747Y-5446174D02*
X-5749270Y-5436650D01*
X-5749270Y-5436650D02*
X-5758794Y-5417603D01*
X-5758794Y-5417603D02*
X-5758794Y-5408079D01*
X-5758794Y-5408079D02*
X-5749270Y-5389031D01*
X-5749270Y-5389031D02*
X-5739747Y-5379508D01*
X-5739747Y-5379508D02*
X-5720699Y-5369984D01*
X-5720699Y-5369984D02*
X-5682604Y-5369984D01*
X-5682604Y-5369984D02*
X-5663556Y-5379508D01*
X-5663556Y-5379508D02*
X-5654032Y-5389031D01*
X-5654032Y-5389031D02*
X-5644508Y-5408079D01*
X-5644508Y-5408079D02*
X-5644508Y-5417603D01*
X-5644508Y-5417603D02*
X-5654032Y-5436650D01*
X-5654032Y-5436650D02*
X-5663556Y-5446174D01*
X-5663556Y-5446174D02*
X-5682604Y-5455698D01*
X-5682604Y-5455698D02*
X-5720699Y-5455698D01*
X-5720699Y-5455698D02*
X-5739747Y-5465222D01*
X-5739747Y-5465222D02*
X-5749270Y-5474746D01*
X-5749270Y-5474746D02*
X-5758794Y-5493793D01*
X-5758794Y-5493793D02*
X-5758794Y-5531889D01*
X-5758794Y-5531889D02*
X-5749270Y-5550936D01*
X-5749270Y-5550936D02*
X-5739747Y-5560460D01*
X-5739747Y-5560460D02*
X-5720699Y-5569984D01*
X-5720699Y-5569984D02*
X-5682604Y-5569984D01*
X-5682604Y-5569984D02*
X-5663556Y-5560460D01*
X-5663556Y-5560460D02*
X-5654032Y-5550936D01*
X-5654032Y-5550936D02*
X-5644508Y-5531889D01*
X-5644508Y-5531889D02*
X-5644508Y-5493793D01*
X-5644508Y-5493793D02*
X-5654032Y-5474746D01*
X-5654032Y-5474746D02*
X-5663556Y-5465222D01*
X-5663556Y-5465222D02*
X-5682604Y-5455698D01*
X-5406413Y-5569984D02*
X-5406413Y-5369984D01*
X-5320699Y-5569984D02*
X-5320699Y-5465222D01*
X-5320699Y-5465222D02*
X-5330223Y-5446174D01*
X-5330223Y-5446174D02*
X-5349270Y-5436650D01*
X-5349270Y-5436650D02*
X-5377842Y-5436650D01*
X-5377842Y-5436650D02*
X-5396889Y-5446174D01*
X-5396889Y-5446174D02*
X-5406413Y-5455698D01*
X-5196889Y-5569984D02*
X-5215937Y-5560460D01*
X-5215937Y-5560460D02*
X-5225461Y-5550936D01*
X-5225461Y-5550936D02*
X-5234985Y-5531889D01*
X-5234985Y-5531889D02*
X-5234985Y-5474746D01*
X-5234985Y-5474746D02*
X-5225461Y-5455698D01*
X-5225461Y-5455698D02*
X-5215937Y-5446174D01*
X-5215937Y-5446174D02*
X-5196889Y-5436650D01*
X-5196889Y-5436650D02*
X-5168318Y-5436650D01*
X-5168318Y-5436650D02*
X-5149270Y-5446174D01*
X-5149270Y-5446174D02*
X-5139747Y-5455698D01*
X-5139747Y-5455698D02*
X-5130223Y-5474746D01*
X-5130223Y-5474746D02*
X-5130223Y-5531889D01*
X-5130223Y-5531889D02*
X-5139747Y-5550936D01*
X-5139747Y-5550936D02*
X-5149270Y-5560460D01*
X-5149270Y-5560460D02*
X-5168318Y-5569984D01*
X-5168318Y-5569984D02*
X-5196889Y-5569984D01*
X-5015937Y-5569984D02*
X-5034985Y-5560460D01*
X-5034985Y-5560460D02*
X-5044508Y-5541412D01*
X-5044508Y-5541412D02*
X-5044508Y-5369984D01*
X-4863556Y-5560460D02*
X-4882604Y-5569984D01*
X-4882604Y-5569984D02*
X-4920699Y-5569984D01*
X-4920699Y-5569984D02*
X-4939747Y-5560460D01*
X-4939747Y-5560460D02*
X-4949270Y-5541412D01*
X-4949270Y-5541412D02*
X-4949270Y-5465222D01*
X-4949270Y-5465222D02*
X-4939747Y-5446174D01*
X-4939747Y-5446174D02*
X-4920699Y-5436650D01*
X-4920699Y-5436650D02*
X-4882604Y-5436650D01*
X-4882604Y-5436650D02*
X-4863556Y-5446174D01*
X-4863556Y-5446174D02*
X-4854032Y-5465222D01*
X-4854032Y-5465222D02*
X-4854032Y-5484270D01*
X-4854032Y-5484270D02*
X-4949270Y-5503317D01*
X-4777842Y-5560460D02*
X-4758794Y-5569984D01*
X-4758794Y-5569984D02*
X-4720699Y-5569984D01*
X-4720699Y-5569984D02*
X-4701651Y-5560460D01*
X-4701651Y-5560460D02*
X-4692127Y-5541412D01*
X-4692127Y-5541412D02*
X-4692127Y-5531889D01*
X-4692127Y-5531889D02*
X-4701651Y-5512841D01*
X-4701651Y-5512841D02*
X-4720699Y-5503317D01*
X-4720699Y-5503317D02*
X-4749270Y-5503317D01*
X-4749270Y-5503317D02*
X-4768318Y-5493793D01*
X-4768318Y-5493793D02*
X-4777842Y-5474746D01*
X-4777842Y-5474746D02*
X-4777842Y-5465222D01*
X-4777842Y-5465222D02*
X-4768318Y-5446174D01*
X-4768318Y-5446174D02*
X-4749270Y-5436650D01*
X-4749270Y-5436650D02*
X-4720699Y-5436650D01*
X-4720699Y-5436650D02*
X-4701651Y-5446174D01*
X-4625461Y-5646174D02*
X-4615937Y-5636650D01*
X-4615937Y-5636650D02*
X-4596889Y-5608079D01*
X-4596889Y-5608079D02*
X-4587366Y-5589031D01*
X-4587366Y-5589031D02*
X-4577842Y-5560460D01*
X-4577842Y-5560460D02*
X-4568318Y-5512841D01*
X-4568318Y-5512841D02*
X-4568318Y-5474746D01*
X-4568318Y-5474746D02*
X-4577842Y-5427127D01*
X-4577842Y-5427127D02*
X-4587366Y-5398555D01*
X-4587366Y-5398555D02*
X-4596889Y-5379508D01*
X-4596889Y-5379508D02*
X-4615937Y-5350936D01*
X-4615937Y-5350936D02*
X-4625461Y-5341412D01*
D12*
X-9631000Y-5702500D02*
X-9631000Y-5782500D01*
X-9671000Y-5742500D02*
X-9591000Y-5742500D01*
D11*
X-9292128Y-5633984D02*
X-9273080Y-5633984D01*
X-9273080Y-5633984D02*
X-9254033Y-5643508D01*
X-9254033Y-5643508D02*
X-9244509Y-5653031D01*
X-9244509Y-5653031D02*
X-9234985Y-5672079D01*
X-9234985Y-5672079D02*
X-9225461Y-5710174D01*
X-9225461Y-5710174D02*
X-9225461Y-5757793D01*
X-9225461Y-5757793D02*
X-9234985Y-5795888D01*
X-9234985Y-5795888D02*
X-9244509Y-5814936D01*
X-9244509Y-5814936D02*
X-9254033Y-5824460D01*
X-9254033Y-5824460D02*
X-9273080Y-5833984D01*
X-9273080Y-5833984D02*
X-9292128Y-5833984D01*
X-9292128Y-5833984D02*
X-9311176Y-5824460D01*
X-9311176Y-5824460D02*
X-9320699Y-5814936D01*
X-9320699Y-5814936D02*
X-9330223Y-5795888D01*
X-9330223Y-5795888D02*
X-9339747Y-5757793D01*
X-9339747Y-5757793D02*
X-9339747Y-5710174D01*
X-9339747Y-5710174D02*
X-9330223Y-5672079D01*
X-9330223Y-5672079D02*
X-9320699Y-5653031D01*
X-9320699Y-5653031D02*
X-9311176Y-5643508D01*
X-9311176Y-5643508D02*
X-9292128Y-5633984D01*
X-9139747Y-5814936D02*
X-9130223Y-5824460D01*
X-9130223Y-5824460D02*
X-9139747Y-5833984D01*
X-9139747Y-5833984D02*
X-9149271Y-5824460D01*
X-9149271Y-5824460D02*
X-9139747Y-5814936D01*
X-9139747Y-5814936D02*
X-9139747Y-5833984D01*
X-9015937Y-5719698D02*
X-9034985Y-5710174D01*
X-9034985Y-5710174D02*
X-9044509Y-5700650D01*
X-9044509Y-5700650D02*
X-9054033Y-5681603D01*
X-9054033Y-5681603D02*
X-9054033Y-5672079D01*
X-9054033Y-5672079D02*
X-9044509Y-5653031D01*
X-9044509Y-5653031D02*
X-9034985Y-5643508D01*
X-9034985Y-5643508D02*
X-9015937Y-5633984D01*
X-9015937Y-5633984D02*
X-8977842Y-5633984D01*
X-8977842Y-5633984D02*
X-8958795Y-5643508D01*
X-8958795Y-5643508D02*
X-8949271Y-5653031D01*
X-8949271Y-5653031D02*
X-8939747Y-5672079D01*
X-8939747Y-5672079D02*
X-8939747Y-5681603D01*
X-8939747Y-5681603D02*
X-8949271Y-5700650D01*
X-8949271Y-5700650D02*
X-8958795Y-5710174D01*
X-8958795Y-5710174D02*
X-8977842Y-5719698D01*
X-8977842Y-5719698D02*
X-9015937Y-5719698D01*
X-9015937Y-5719698D02*
X-9034985Y-5729222D01*
X-9034985Y-5729222D02*
X-9044509Y-5738746D01*
X-9044509Y-5738746D02*
X-9054033Y-5757793D01*
X-9054033Y-5757793D02*
X-9054033Y-5795888D01*
X-9054033Y-5795888D02*
X-9044509Y-5814936D01*
X-9044509Y-5814936D02*
X-9034985Y-5824460D01*
X-9034985Y-5824460D02*
X-9015937Y-5833984D01*
X-9015937Y-5833984D02*
X-8977842Y-5833984D01*
X-8977842Y-5833984D02*
X-8958795Y-5824460D01*
X-8958795Y-5824460D02*
X-8949271Y-5814936D01*
X-8949271Y-5814936D02*
X-8939747Y-5795888D01*
X-8939747Y-5795888D02*
X-8939747Y-5757793D01*
X-8939747Y-5757793D02*
X-8949271Y-5738746D01*
X-8949271Y-5738746D02*
X-8958795Y-5729222D01*
X-8958795Y-5729222D02*
X-8977842Y-5719698D01*
X-8815937Y-5633984D02*
X-8796890Y-5633984D01*
X-8796890Y-5633984D02*
X-8777842Y-5643508D01*
X-8777842Y-5643508D02*
X-8768318Y-5653031D01*
X-8768318Y-5653031D02*
X-8758795Y-5672079D01*
X-8758795Y-5672079D02*
X-8749271Y-5710174D01*
X-8749271Y-5710174D02*
X-8749271Y-5757793D01*
X-8749271Y-5757793D02*
X-8758795Y-5795888D01*
X-8758795Y-5795888D02*
X-8768318Y-5814936D01*
X-8768318Y-5814936D02*
X-8777842Y-5824460D01*
X-8777842Y-5824460D02*
X-8796890Y-5833984D01*
X-8796890Y-5833984D02*
X-8815937Y-5833984D01*
X-8815937Y-5833984D02*
X-8834985Y-5824460D01*
X-8834985Y-5824460D02*
X-8844509Y-5814936D01*
X-8844509Y-5814936D02*
X-8854033Y-5795888D01*
X-8854033Y-5795888D02*
X-8863556Y-5757793D01*
X-8863556Y-5757793D02*
X-8863556Y-5710174D01*
X-8863556Y-5710174D02*
X-8854033Y-5672079D01*
X-8854033Y-5672079D02*
X-8844509Y-5653031D01*
X-8844509Y-5653031D02*
X-8834985Y-5643508D01*
X-8834985Y-5643508D02*
X-8815937Y-5633984D01*
X-8625461Y-5633984D02*
X-8606414Y-5633984D01*
X-8606414Y-5633984D02*
X-8587366Y-5643508D01*
X-8587366Y-5643508D02*
X-8577842Y-5653031D01*
X-8577842Y-5653031D02*
X-8568318Y-5672079D01*
X-8568318Y-5672079D02*
X-8558795Y-5710174D01*
X-8558795Y-5710174D02*
X-8558795Y-5757793D01*
X-8558795Y-5757793D02*
X-8568318Y-5795888D01*
X-8568318Y-5795888D02*
X-8577842Y-5814936D01*
X-8577842Y-5814936D02*
X-8587366Y-5824460D01*
X-8587366Y-5824460D02*
X-8606414Y-5833984D01*
X-8606414Y-5833984D02*
X-8625461Y-5833984D01*
X-8625461Y-5833984D02*
X-8644509Y-5824460D01*
X-8644509Y-5824460D02*
X-8654033Y-5814936D01*
X-8654033Y-5814936D02*
X-8663556Y-5795888D01*
X-8663556Y-5795888D02*
X-8673080Y-5757793D01*
X-8673080Y-5757793D02*
X-8673080Y-5710174D01*
X-8673080Y-5710174D02*
X-8663556Y-5672079D01*
X-8663556Y-5672079D02*
X-8654033Y-5653031D01*
X-8654033Y-5653031D02*
X-8644509Y-5643508D01*
X-8644509Y-5643508D02*
X-8625461Y-5633984D01*
X-8473080Y-5833984D02*
X-8473080Y-5700650D01*
X-8473080Y-5719698D02*
X-8463556Y-5710174D01*
X-8463556Y-5710174D02*
X-8444509Y-5700650D01*
X-8444509Y-5700650D02*
X-8415937Y-5700650D01*
X-8415937Y-5700650D02*
X-8396890Y-5710174D01*
X-8396890Y-5710174D02*
X-8387366Y-5729222D01*
X-8387366Y-5729222D02*
X-8387366Y-5833984D01*
X-8387366Y-5729222D02*
X-8377842Y-5710174D01*
X-8377842Y-5710174D02*
X-8358794Y-5700650D01*
X-8358794Y-5700650D02*
X-8330223Y-5700650D01*
X-8330223Y-5700650D02*
X-8311175Y-5710174D01*
X-8311175Y-5710174D02*
X-8301652Y-5729222D01*
X-8301652Y-5729222D02*
X-8301652Y-5833984D01*
X-8206413Y-5833984D02*
X-8206413Y-5700650D01*
X-8206413Y-5719698D02*
X-8196890Y-5710174D01*
X-8196890Y-5710174D02*
X-8177842Y-5700650D01*
X-8177842Y-5700650D02*
X-8149271Y-5700650D01*
X-8149271Y-5700650D02*
X-8130223Y-5710174D01*
X-8130223Y-5710174D02*
X-8120699Y-5729222D01*
X-8120699Y-5729222D02*
X-8120699Y-5833984D01*
X-8120699Y-5729222D02*
X-8111175Y-5710174D01*
X-8111175Y-5710174D02*
X-8092128Y-5700650D01*
X-8092128Y-5700650D02*
X-8063556Y-5700650D01*
X-8063556Y-5700650D02*
X-8044509Y-5710174D01*
X-8044509Y-5710174D02*
X-8034985Y-5729222D01*
X-8034985Y-5729222D02*
X-8034985Y-5833984D01*
X-7644509Y-5624460D02*
X-7815937Y-5881603D01*
X-7387366Y-5633984D02*
X-7368318Y-5633984D01*
X-7368318Y-5633984D02*
X-7349270Y-5643508D01*
X-7349270Y-5643508D02*
X-7339747Y-5653031D01*
X-7339747Y-5653031D02*
X-7330223Y-5672079D01*
X-7330223Y-5672079D02*
X-7320699Y-5710174D01*
X-7320699Y-5710174D02*
X-7320699Y-5757793D01*
X-7320699Y-5757793D02*
X-7330223Y-5795888D01*
X-7330223Y-5795888D02*
X-7339747Y-5814936D01*
X-7339747Y-5814936D02*
X-7349270Y-5824460D01*
X-7349270Y-5824460D02*
X-7368318Y-5833984D01*
X-7368318Y-5833984D02*
X-7387366Y-5833984D01*
X-7387366Y-5833984D02*
X-7406413Y-5824460D01*
X-7406413Y-5824460D02*
X-7415937Y-5814936D01*
X-7415937Y-5814936D02*
X-7425461Y-5795888D01*
X-7425461Y-5795888D02*
X-7434985Y-5757793D01*
X-7434985Y-5757793D02*
X-7434985Y-5710174D01*
X-7434985Y-5710174D02*
X-7425461Y-5672079D01*
X-7425461Y-5672079D02*
X-7415937Y-5653031D01*
X-7415937Y-5653031D02*
X-7406413Y-5643508D01*
X-7406413Y-5643508D02*
X-7387366Y-5633984D01*
X-7234985Y-5814936D02*
X-7225461Y-5824460D01*
X-7225461Y-5824460D02*
X-7234985Y-5833984D01*
X-7234985Y-5833984D02*
X-7244509Y-5824460D01*
X-7244509Y-5824460D02*
X-7234985Y-5814936D01*
X-7234985Y-5814936D02*
X-7234985Y-5833984D01*
X-7101651Y-5633984D02*
X-7082604Y-5633984D01*
X-7082604Y-5633984D02*
X-7063556Y-5643508D01*
X-7063556Y-5643508D02*
X-7054032Y-5653031D01*
X-7054032Y-5653031D02*
X-7044509Y-5672079D01*
X-7044509Y-5672079D02*
X-7034985Y-5710174D01*
X-7034985Y-5710174D02*
X-7034985Y-5757793D01*
X-7034985Y-5757793D02*
X-7044509Y-5795888D01*
X-7044509Y-5795888D02*
X-7054032Y-5814936D01*
X-7054032Y-5814936D02*
X-7063556Y-5824460D01*
X-7063556Y-5824460D02*
X-7082604Y-5833984D01*
X-7082604Y-5833984D02*
X-7101651Y-5833984D01*
X-7101651Y-5833984D02*
X-7120699Y-5824460D01*
X-7120699Y-5824460D02*
X-7130223Y-5814936D01*
X-7130223Y-5814936D02*
X-7139747Y-5795888D01*
X-7139747Y-5795888D02*
X-7149270Y-5757793D01*
X-7149270Y-5757793D02*
X-7149270Y-5710174D01*
X-7149270Y-5710174D02*
X-7139747Y-5672079D01*
X-7139747Y-5672079D02*
X-7130223Y-5653031D01*
X-7130223Y-5653031D02*
X-7120699Y-5643508D01*
X-7120699Y-5643508D02*
X-7101651Y-5633984D01*
X-6968318Y-5633984D02*
X-6844509Y-5633984D01*
X-6844509Y-5633984D02*
X-6911175Y-5710174D01*
X-6911175Y-5710174D02*
X-6882604Y-5710174D01*
X-6882604Y-5710174D02*
X-6863556Y-5719698D01*
X-6863556Y-5719698D02*
X-6854032Y-5729222D01*
X-6854032Y-5729222D02*
X-6844509Y-5748269D01*
X-6844509Y-5748269D02*
X-6844509Y-5795888D01*
X-6844509Y-5795888D02*
X-6854032Y-5814936D01*
X-6854032Y-5814936D02*
X-6863556Y-5824460D01*
X-6863556Y-5824460D02*
X-6882604Y-5833984D01*
X-6882604Y-5833984D02*
X-6939747Y-5833984D01*
X-6939747Y-5833984D02*
X-6958794Y-5824460D01*
X-6958794Y-5824460D02*
X-6968318Y-5814936D01*
X-6654032Y-5833984D02*
X-6768318Y-5833984D01*
X-6711175Y-5833984D02*
X-6711175Y-5633984D01*
X-6711175Y-5633984D02*
X-6730223Y-5662555D01*
X-6730223Y-5662555D02*
X-6749270Y-5681603D01*
X-6749270Y-5681603D02*
X-6768318Y-5691127D01*
X-6473080Y-5633984D02*
X-6568318Y-5633984D01*
X-6568318Y-5633984D02*
X-6577842Y-5729222D01*
X-6577842Y-5729222D02*
X-6568318Y-5719698D01*
X-6568318Y-5719698D02*
X-6549270Y-5710174D01*
X-6549270Y-5710174D02*
X-6501651Y-5710174D01*
X-6501651Y-5710174D02*
X-6482604Y-5719698D01*
X-6482604Y-5719698D02*
X-6473080Y-5729222D01*
X-6473080Y-5729222D02*
X-6463556Y-5748269D01*
X-6463556Y-5748269D02*
X-6463556Y-5795888D01*
X-6463556Y-5795888D02*
X-6473080Y-5814936D01*
X-6473080Y-5814936D02*
X-6482604Y-5824460D01*
X-6482604Y-5824460D02*
X-6501651Y-5833984D01*
X-6501651Y-5833984D02*
X-6549270Y-5833984D01*
X-6549270Y-5833984D02*
X-6568318Y-5824460D01*
X-6568318Y-5824460D02*
X-6577842Y-5814936D01*
X-6387366Y-5633984D02*
X-6387366Y-5672079D01*
X-6311175Y-5633984D02*
X-6311175Y-5672079D01*
X-6015937Y-5910174D02*
X-6025461Y-5900650D01*
X-6025461Y-5900650D02*
X-6044508Y-5872079D01*
X-6044508Y-5872079D02*
X-6054032Y-5853031D01*
X-6054032Y-5853031D02*
X-6063556Y-5824460D01*
X-6063556Y-5824460D02*
X-6073080Y-5776841D01*
X-6073080Y-5776841D02*
X-6073080Y-5738746D01*
X-6073080Y-5738746D02*
X-6063556Y-5691127D01*
X-6063556Y-5691127D02*
X-6054032Y-5662555D01*
X-6054032Y-5662555D02*
X-6044508Y-5643508D01*
X-6044508Y-5643508D02*
X-6025461Y-5614936D01*
X-6025461Y-5614936D02*
X-6015937Y-5605412D01*
X-5844508Y-5633984D02*
X-5939747Y-5633984D01*
X-5939747Y-5633984D02*
X-5949270Y-5729222D01*
X-5949270Y-5729222D02*
X-5939747Y-5719698D01*
X-5939747Y-5719698D02*
X-5920699Y-5710174D01*
X-5920699Y-5710174D02*
X-5873080Y-5710174D01*
X-5873080Y-5710174D02*
X-5854032Y-5719698D01*
X-5854032Y-5719698D02*
X-5844508Y-5729222D01*
X-5844508Y-5729222D02*
X-5834985Y-5748269D01*
X-5834985Y-5748269D02*
X-5834985Y-5795888D01*
X-5834985Y-5795888D02*
X-5844508Y-5814936D01*
X-5844508Y-5814936D02*
X-5854032Y-5824460D01*
X-5854032Y-5824460D02*
X-5873080Y-5833984D01*
X-5873080Y-5833984D02*
X-5920699Y-5833984D01*
X-5920699Y-5833984D02*
X-5939747Y-5824460D01*
X-5939747Y-5824460D02*
X-5949270Y-5814936D01*
X-5596889Y-5833984D02*
X-5596889Y-5633984D01*
X-5511175Y-5833984D02*
X-5511175Y-5729222D01*
X-5511175Y-5729222D02*
X-5520699Y-5710174D01*
X-5520699Y-5710174D02*
X-5539747Y-5700650D01*
X-5539747Y-5700650D02*
X-5568318Y-5700650D01*
X-5568318Y-5700650D02*
X-5587366Y-5710174D01*
X-5587366Y-5710174D02*
X-5596889Y-5719698D01*
X-5387366Y-5833984D02*
X-5406413Y-5824460D01*
X-5406413Y-5824460D02*
X-5415937Y-5814936D01*
X-5415937Y-5814936D02*
X-5425461Y-5795888D01*
X-5425461Y-5795888D02*
X-5425461Y-5738746D01*
X-5425461Y-5738746D02*
X-5415937Y-5719698D01*
X-5415937Y-5719698D02*
X-5406413Y-5710174D01*
X-5406413Y-5710174D02*
X-5387366Y-5700650D01*
X-5387366Y-5700650D02*
X-5358794Y-5700650D01*
X-5358794Y-5700650D02*
X-5339747Y-5710174D01*
X-5339747Y-5710174D02*
X-5330223Y-5719698D01*
X-5330223Y-5719698D02*
X-5320699Y-5738746D01*
X-5320699Y-5738746D02*
X-5320699Y-5795888D01*
X-5320699Y-5795888D02*
X-5330223Y-5814936D01*
X-5330223Y-5814936D02*
X-5339747Y-5824460D01*
X-5339747Y-5824460D02*
X-5358794Y-5833984D01*
X-5358794Y-5833984D02*
X-5387366Y-5833984D01*
X-5206413Y-5833984D02*
X-5225461Y-5824460D01*
X-5225461Y-5824460D02*
X-5234985Y-5805412D01*
X-5234985Y-5805412D02*
X-5234985Y-5633984D01*
X-5054032Y-5824460D02*
X-5073080Y-5833984D01*
X-5073080Y-5833984D02*
X-5111175Y-5833984D01*
X-5111175Y-5833984D02*
X-5130223Y-5824460D01*
X-5130223Y-5824460D02*
X-5139747Y-5805412D01*
X-5139747Y-5805412D02*
X-5139747Y-5729222D01*
X-5139747Y-5729222D02*
X-5130223Y-5710174D01*
X-5130223Y-5710174D02*
X-5111175Y-5700650D01*
X-5111175Y-5700650D02*
X-5073080Y-5700650D01*
X-5073080Y-5700650D02*
X-5054032Y-5710174D01*
X-5054032Y-5710174D02*
X-5044508Y-5729222D01*
X-5044508Y-5729222D02*
X-5044508Y-5748269D01*
X-5044508Y-5748269D02*
X-5139747Y-5767317D01*
X-4968318Y-5824460D02*
X-4949270Y-5833984D01*
X-4949270Y-5833984D02*
X-4911175Y-5833984D01*
X-4911175Y-5833984D02*
X-4892127Y-5824460D01*
X-4892127Y-5824460D02*
X-4882604Y-5805412D01*
X-4882604Y-5805412D02*
X-4882604Y-5795888D01*
X-4882604Y-5795888D02*
X-4892127Y-5776841D01*
X-4892127Y-5776841D02*
X-4911175Y-5767317D01*
X-4911175Y-5767317D02*
X-4939747Y-5767317D01*
X-4939747Y-5767317D02*
X-4958794Y-5757793D01*
X-4958794Y-5757793D02*
X-4968318Y-5738746D01*
X-4968318Y-5738746D02*
X-4968318Y-5729222D01*
X-4968318Y-5729222D02*
X-4958794Y-5710174D01*
X-4958794Y-5710174D02*
X-4939747Y-5700650D01*
X-4939747Y-5700650D02*
X-4911175Y-5700650D01*
X-4911175Y-5700650D02*
X-4892127Y-5710174D01*
X-4815937Y-5910174D02*
X-4806413Y-5900650D01*
X-4806413Y-5900650D02*
X-4787366Y-5872079D01*
X-4787366Y-5872079D02*
X-4777842Y-5853031D01*
X-4777842Y-5853031D02*
X-4768318Y-5824460D01*
X-4768318Y-5824460D02*
X-4758794Y-5776841D01*
X-4758794Y-5776841D02*
X-4758794Y-5738746D01*
X-4758794Y-5738746D02*
X-4768318Y-5691127D01*
X-4768318Y-5691127D02*
X-4777842Y-5662555D01*
X-4777842Y-5662555D02*
X-4787366Y-5643508D01*
X-4787366Y-5643508D02*
X-4806413Y-5614936D01*
X-4806413Y-5614936D02*
X-4815937Y-5605412D01*
D12*
X-9604180Y-6038320D02*
X-9604180Y-5974680D01*
X-9667820Y-5974680D01*
X-9667820Y-6038320D01*
X-9604180Y-6038320D01*
D11*
X-9292128Y-5897984D02*
X-9273080Y-5897984D01*
X-9273080Y-5897984D02*
X-9254033Y-5907508D01*
X-9254033Y-5907508D02*
X-9244509Y-5917031D01*
X-9244509Y-5917031D02*
X-9234985Y-5936079D01*
X-9234985Y-5936079D02*
X-9225461Y-5974174D01*
X-9225461Y-5974174D02*
X-9225461Y-6021793D01*
X-9225461Y-6021793D02*
X-9234985Y-6059888D01*
X-9234985Y-6059888D02*
X-9244509Y-6078936D01*
X-9244509Y-6078936D02*
X-9254033Y-6088460D01*
X-9254033Y-6088460D02*
X-9273080Y-6097984D01*
X-9273080Y-6097984D02*
X-9292128Y-6097984D01*
X-9292128Y-6097984D02*
X-9311176Y-6088460D01*
X-9311176Y-6088460D02*
X-9320699Y-6078936D01*
X-9320699Y-6078936D02*
X-9330223Y-6059888D01*
X-9330223Y-6059888D02*
X-9339747Y-6021793D01*
X-9339747Y-6021793D02*
X-9339747Y-5974174D01*
X-9339747Y-5974174D02*
X-9330223Y-5936079D01*
X-9330223Y-5936079D02*
X-9320699Y-5917031D01*
X-9320699Y-5917031D02*
X-9311176Y-5907508D01*
X-9311176Y-5907508D02*
X-9292128Y-5897984D01*
X-9139747Y-6078936D02*
X-9130223Y-6088460D01*
X-9130223Y-6088460D02*
X-9139747Y-6097984D01*
X-9139747Y-6097984D02*
X-9149271Y-6088460D01*
X-9149271Y-6088460D02*
X-9139747Y-6078936D01*
X-9139747Y-6078936D02*
X-9139747Y-6097984D01*
X-9034985Y-6097984D02*
X-8996890Y-6097984D01*
X-8996890Y-6097984D02*
X-8977842Y-6088460D01*
X-8977842Y-6088460D02*
X-8968318Y-6078936D01*
X-8968318Y-6078936D02*
X-8949271Y-6050365D01*
X-8949271Y-6050365D02*
X-8939747Y-6012269D01*
X-8939747Y-6012269D02*
X-8939747Y-5936079D01*
X-8939747Y-5936079D02*
X-8949271Y-5917031D01*
X-8949271Y-5917031D02*
X-8958795Y-5907508D01*
X-8958795Y-5907508D02*
X-8977842Y-5897984D01*
X-8977842Y-5897984D02*
X-9015937Y-5897984D01*
X-9015937Y-5897984D02*
X-9034985Y-5907508D01*
X-9034985Y-5907508D02*
X-9044509Y-5917031D01*
X-9044509Y-5917031D02*
X-9054033Y-5936079D01*
X-9054033Y-5936079D02*
X-9054033Y-5983698D01*
X-9054033Y-5983698D02*
X-9044509Y-6002746D01*
X-9044509Y-6002746D02*
X-9034985Y-6012269D01*
X-9034985Y-6012269D02*
X-9015937Y-6021793D01*
X-9015937Y-6021793D02*
X-8977842Y-6021793D01*
X-8977842Y-6021793D02*
X-8958795Y-6012269D01*
X-8958795Y-6012269D02*
X-8949271Y-6002746D01*
X-8949271Y-6002746D02*
X-8939747Y-5983698D01*
X-8815937Y-5897984D02*
X-8796890Y-5897984D01*
X-8796890Y-5897984D02*
X-8777842Y-5907508D01*
X-8777842Y-5907508D02*
X-8768318Y-5917031D01*
X-8768318Y-5917031D02*
X-8758795Y-5936079D01*
X-8758795Y-5936079D02*
X-8749271Y-5974174D01*
X-8749271Y-5974174D02*
X-8749271Y-6021793D01*
X-8749271Y-6021793D02*
X-8758795Y-6059888D01*
X-8758795Y-6059888D02*
X-8768318Y-6078936D01*
X-8768318Y-6078936D02*
X-8777842Y-6088460D01*
X-8777842Y-6088460D02*
X-8796890Y-6097984D01*
X-8796890Y-6097984D02*
X-8815937Y-6097984D01*
X-8815937Y-6097984D02*
X-8834985Y-6088460D01*
X-8834985Y-6088460D02*
X-8844509Y-6078936D01*
X-8844509Y-6078936D02*
X-8854033Y-6059888D01*
X-8854033Y-6059888D02*
X-8863556Y-6021793D01*
X-8863556Y-6021793D02*
X-8863556Y-5974174D01*
X-8863556Y-5974174D02*
X-8854033Y-5936079D01*
X-8854033Y-5936079D02*
X-8844509Y-5917031D01*
X-8844509Y-5917031D02*
X-8834985Y-5907508D01*
X-8834985Y-5907508D02*
X-8815937Y-5897984D01*
X-8625461Y-5897984D02*
X-8606414Y-5897984D01*
X-8606414Y-5897984D02*
X-8587366Y-5907508D01*
X-8587366Y-5907508D02*
X-8577842Y-5917031D01*
X-8577842Y-5917031D02*
X-8568318Y-5936079D01*
X-8568318Y-5936079D02*
X-8558795Y-5974174D01*
X-8558795Y-5974174D02*
X-8558795Y-6021793D01*
X-8558795Y-6021793D02*
X-8568318Y-6059888D01*
X-8568318Y-6059888D02*
X-8577842Y-6078936D01*
X-8577842Y-6078936D02*
X-8587366Y-6088460D01*
X-8587366Y-6088460D02*
X-8606414Y-6097984D01*
X-8606414Y-6097984D02*
X-8625461Y-6097984D01*
X-8625461Y-6097984D02*
X-8644509Y-6088460D01*
X-8644509Y-6088460D02*
X-8654033Y-6078936D01*
X-8654033Y-6078936D02*
X-8663556Y-6059888D01*
X-8663556Y-6059888D02*
X-8673080Y-6021793D01*
X-8673080Y-6021793D02*
X-8673080Y-5974174D01*
X-8673080Y-5974174D02*
X-8663556Y-5936079D01*
X-8663556Y-5936079D02*
X-8654033Y-5917031D01*
X-8654033Y-5917031D02*
X-8644509Y-5907508D01*
X-8644509Y-5907508D02*
X-8625461Y-5897984D01*
X-8473080Y-6097984D02*
X-8473080Y-5964650D01*
X-8473080Y-5983698D02*
X-8463556Y-5974174D01*
X-8463556Y-5974174D02*
X-8444509Y-5964650D01*
X-8444509Y-5964650D02*
X-8415937Y-5964650D01*
X-8415937Y-5964650D02*
X-8396890Y-5974174D01*
X-8396890Y-5974174D02*
X-8387366Y-5993222D01*
X-8387366Y-5993222D02*
X-8387366Y-6097984D01*
X-8387366Y-5993222D02*
X-8377842Y-5974174D01*
X-8377842Y-5974174D02*
X-8358794Y-5964650D01*
X-8358794Y-5964650D02*
X-8330223Y-5964650D01*
X-8330223Y-5964650D02*
X-8311175Y-5974174D01*
X-8311175Y-5974174D02*
X-8301652Y-5993222D01*
X-8301652Y-5993222D02*
X-8301652Y-6097984D01*
X-8206413Y-6097984D02*
X-8206413Y-5964650D01*
X-8206413Y-5983698D02*
X-8196890Y-5974174D01*
X-8196890Y-5974174D02*
X-8177842Y-5964650D01*
X-8177842Y-5964650D02*
X-8149271Y-5964650D01*
X-8149271Y-5964650D02*
X-8130223Y-5974174D01*
X-8130223Y-5974174D02*
X-8120699Y-5993222D01*
X-8120699Y-5993222D02*
X-8120699Y-6097984D01*
X-8120699Y-5993222D02*
X-8111175Y-5974174D01*
X-8111175Y-5974174D02*
X-8092128Y-5964650D01*
X-8092128Y-5964650D02*
X-8063556Y-5964650D01*
X-8063556Y-5964650D02*
X-8044509Y-5974174D01*
X-8044509Y-5974174D02*
X-8034985Y-5993222D01*
X-8034985Y-5993222D02*
X-8034985Y-6097984D01*
X-7644509Y-5888460D02*
X-7815937Y-6145603D01*
X-7387366Y-5897984D02*
X-7368318Y-5897984D01*
X-7368318Y-5897984D02*
X-7349270Y-5907508D01*
X-7349270Y-5907508D02*
X-7339747Y-5917031D01*
X-7339747Y-5917031D02*
X-7330223Y-5936079D01*
X-7330223Y-5936079D02*
X-7320699Y-5974174D01*
X-7320699Y-5974174D02*
X-7320699Y-6021793D01*
X-7320699Y-6021793D02*
X-7330223Y-6059888D01*
X-7330223Y-6059888D02*
X-7339747Y-6078936D01*
X-7339747Y-6078936D02*
X-7349270Y-6088460D01*
X-7349270Y-6088460D02*
X-7368318Y-6097984D01*
X-7368318Y-6097984D02*
X-7387366Y-6097984D01*
X-7387366Y-6097984D02*
X-7406413Y-6088460D01*
X-7406413Y-6088460D02*
X-7415937Y-6078936D01*
X-7415937Y-6078936D02*
X-7425461Y-6059888D01*
X-7425461Y-6059888D02*
X-7434985Y-6021793D01*
X-7434985Y-6021793D02*
X-7434985Y-5974174D01*
X-7434985Y-5974174D02*
X-7425461Y-5936079D01*
X-7425461Y-5936079D02*
X-7415937Y-5917031D01*
X-7415937Y-5917031D02*
X-7406413Y-5907508D01*
X-7406413Y-5907508D02*
X-7387366Y-5897984D01*
X-7234985Y-6078936D02*
X-7225461Y-6088460D01*
X-7225461Y-6088460D02*
X-7234985Y-6097984D01*
X-7234985Y-6097984D02*
X-7244509Y-6088460D01*
X-7244509Y-6088460D02*
X-7234985Y-6078936D01*
X-7234985Y-6078936D02*
X-7234985Y-6097984D01*
X-7101651Y-5897984D02*
X-7082604Y-5897984D01*
X-7082604Y-5897984D02*
X-7063556Y-5907508D01*
X-7063556Y-5907508D02*
X-7054032Y-5917031D01*
X-7054032Y-5917031D02*
X-7044509Y-5936079D01*
X-7044509Y-5936079D02*
X-7034985Y-5974174D01*
X-7034985Y-5974174D02*
X-7034985Y-6021793D01*
X-7034985Y-6021793D02*
X-7044509Y-6059888D01*
X-7044509Y-6059888D02*
X-7054032Y-6078936D01*
X-7054032Y-6078936D02*
X-7063556Y-6088460D01*
X-7063556Y-6088460D02*
X-7082604Y-6097984D01*
X-7082604Y-6097984D02*
X-7101651Y-6097984D01*
X-7101651Y-6097984D02*
X-7120699Y-6088460D01*
X-7120699Y-6088460D02*
X-7130223Y-6078936D01*
X-7130223Y-6078936D02*
X-7139747Y-6059888D01*
X-7139747Y-6059888D02*
X-7149270Y-6021793D01*
X-7149270Y-6021793D02*
X-7149270Y-5974174D01*
X-7149270Y-5974174D02*
X-7139747Y-5936079D01*
X-7139747Y-5936079D02*
X-7130223Y-5917031D01*
X-7130223Y-5917031D02*
X-7120699Y-5907508D01*
X-7120699Y-5907508D02*
X-7101651Y-5897984D01*
X-6968318Y-5897984D02*
X-6844509Y-5897984D01*
X-6844509Y-5897984D02*
X-6911175Y-5974174D01*
X-6911175Y-5974174D02*
X-6882604Y-5974174D01*
X-6882604Y-5974174D02*
X-6863556Y-5983698D01*
X-6863556Y-5983698D02*
X-6854032Y-5993222D01*
X-6854032Y-5993222D02*
X-6844509Y-6012269D01*
X-6844509Y-6012269D02*
X-6844509Y-6059888D01*
X-6844509Y-6059888D02*
X-6854032Y-6078936D01*
X-6854032Y-6078936D02*
X-6863556Y-6088460D01*
X-6863556Y-6088460D02*
X-6882604Y-6097984D01*
X-6882604Y-6097984D02*
X-6939747Y-6097984D01*
X-6939747Y-6097984D02*
X-6958794Y-6088460D01*
X-6958794Y-6088460D02*
X-6968318Y-6078936D01*
X-6663556Y-5897984D02*
X-6758794Y-5897984D01*
X-6758794Y-5897984D02*
X-6768318Y-5993222D01*
X-6768318Y-5993222D02*
X-6758794Y-5983698D01*
X-6758794Y-5983698D02*
X-6739747Y-5974174D01*
X-6739747Y-5974174D02*
X-6692128Y-5974174D01*
X-6692128Y-5974174D02*
X-6673080Y-5983698D01*
X-6673080Y-5983698D02*
X-6663556Y-5993222D01*
X-6663556Y-5993222D02*
X-6654032Y-6012269D01*
X-6654032Y-6012269D02*
X-6654032Y-6059888D01*
X-6654032Y-6059888D02*
X-6663556Y-6078936D01*
X-6663556Y-6078936D02*
X-6673080Y-6088460D01*
X-6673080Y-6088460D02*
X-6692128Y-6097984D01*
X-6692128Y-6097984D02*
X-6739747Y-6097984D01*
X-6739747Y-6097984D02*
X-6758794Y-6088460D01*
X-6758794Y-6088460D02*
X-6768318Y-6078936D01*
X-6482604Y-5964650D02*
X-6482604Y-6097984D01*
X-6530223Y-5888460D02*
X-6577842Y-6031317D01*
X-6577842Y-6031317D02*
X-6454032Y-6031317D01*
X-6387366Y-5897984D02*
X-6387366Y-5936079D01*
X-6311175Y-5897984D02*
X-6311175Y-5936079D01*
X-6015937Y-6174174D02*
X-6025461Y-6164650D01*
X-6025461Y-6164650D02*
X-6044508Y-6136079D01*
X-6044508Y-6136079D02*
X-6054032Y-6117031D01*
X-6054032Y-6117031D02*
X-6063556Y-6088460D01*
X-6063556Y-6088460D02*
X-6073080Y-6040841D01*
X-6073080Y-6040841D02*
X-6073080Y-6002746D01*
X-6073080Y-6002746D02*
X-6063556Y-5955127D01*
X-6063556Y-5955127D02*
X-6054032Y-5926555D01*
X-6054032Y-5926555D02*
X-6044508Y-5907508D01*
X-6044508Y-5907508D02*
X-6025461Y-5878936D01*
X-6025461Y-5878936D02*
X-6015937Y-5869412D01*
X-5834985Y-6097984D02*
X-5949270Y-6097984D01*
X-5892128Y-6097984D02*
X-5892128Y-5897984D01*
X-5892128Y-5897984D02*
X-5911175Y-5926555D01*
X-5911175Y-5926555D02*
X-5930223Y-5945603D01*
X-5930223Y-5945603D02*
X-5949270Y-5955127D01*
X-5663556Y-5897984D02*
X-5701651Y-5897984D01*
X-5701651Y-5897984D02*
X-5720699Y-5907508D01*
X-5720699Y-5907508D02*
X-5730223Y-5917031D01*
X-5730223Y-5917031D02*
X-5749270Y-5945603D01*
X-5749270Y-5945603D02*
X-5758794Y-5983698D01*
X-5758794Y-5983698D02*
X-5758794Y-6059888D01*
X-5758794Y-6059888D02*
X-5749270Y-6078936D01*
X-5749270Y-6078936D02*
X-5739747Y-6088460D01*
X-5739747Y-6088460D02*
X-5720699Y-6097984D01*
X-5720699Y-6097984D02*
X-5682604Y-6097984D01*
X-5682604Y-6097984D02*
X-5663556Y-6088460D01*
X-5663556Y-6088460D02*
X-5654032Y-6078936D01*
X-5654032Y-6078936D02*
X-5644508Y-6059888D01*
X-5644508Y-6059888D02*
X-5644508Y-6012269D01*
X-5644508Y-6012269D02*
X-5654032Y-5993222D01*
X-5654032Y-5993222D02*
X-5663556Y-5983698D01*
X-5663556Y-5983698D02*
X-5682604Y-5974174D01*
X-5682604Y-5974174D02*
X-5720699Y-5974174D01*
X-5720699Y-5974174D02*
X-5739747Y-5983698D01*
X-5739747Y-5983698D02*
X-5749270Y-5993222D01*
X-5749270Y-5993222D02*
X-5758794Y-6012269D01*
X-5406413Y-6097984D02*
X-5406413Y-5897984D01*
X-5320699Y-6097984D02*
X-5320699Y-5993222D01*
X-5320699Y-5993222D02*
X-5330223Y-5974174D01*
X-5330223Y-5974174D02*
X-5349270Y-5964650D01*
X-5349270Y-5964650D02*
X-5377842Y-5964650D01*
X-5377842Y-5964650D02*
X-5396889Y-5974174D01*
X-5396889Y-5974174D02*
X-5406413Y-5983698D01*
X-5196889Y-6097984D02*
X-5215937Y-6088460D01*
X-5215937Y-6088460D02*
X-5225461Y-6078936D01*
X-5225461Y-6078936D02*
X-5234985Y-6059888D01*
X-5234985Y-6059888D02*
X-5234985Y-6002746D01*
X-5234985Y-6002746D02*
X-5225461Y-5983698D01*
X-5225461Y-5983698D02*
X-5215937Y-5974174D01*
X-5215937Y-5974174D02*
X-5196889Y-5964650D01*
X-5196889Y-5964650D02*
X-5168318Y-5964650D01*
X-5168318Y-5964650D02*
X-5149270Y-5974174D01*
X-5149270Y-5974174D02*
X-5139747Y-5983698D01*
X-5139747Y-5983698D02*
X-5130223Y-6002746D01*
X-5130223Y-6002746D02*
X-5130223Y-6059888D01*
X-5130223Y-6059888D02*
X-5139747Y-6078936D01*
X-5139747Y-6078936D02*
X-5149270Y-6088460D01*
X-5149270Y-6088460D02*
X-5168318Y-6097984D01*
X-5168318Y-6097984D02*
X-5196889Y-6097984D01*
X-5015937Y-6097984D02*
X-5034985Y-6088460D01*
X-5034985Y-6088460D02*
X-5044508Y-6069412D01*
X-5044508Y-6069412D02*
X-5044508Y-5897984D01*
X-4863556Y-6088460D02*
X-4882604Y-6097984D01*
X-4882604Y-6097984D02*
X-4920699Y-6097984D01*
X-4920699Y-6097984D02*
X-4939747Y-6088460D01*
X-4939747Y-6088460D02*
X-4949270Y-6069412D01*
X-4949270Y-6069412D02*
X-4949270Y-5993222D01*
X-4949270Y-5993222D02*
X-4939747Y-5974174D01*
X-4939747Y-5974174D02*
X-4920699Y-5964650D01*
X-4920699Y-5964650D02*
X-4882604Y-5964650D01*
X-4882604Y-5964650D02*
X-4863556Y-5974174D01*
X-4863556Y-5974174D02*
X-4854032Y-5993222D01*
X-4854032Y-5993222D02*
X-4854032Y-6012269D01*
X-4854032Y-6012269D02*
X-4949270Y-6031317D01*
X-4777842Y-6088460D02*
X-4758794Y-6097984D01*
X-4758794Y-6097984D02*
X-4720699Y-6097984D01*
X-4720699Y-6097984D02*
X-4701651Y-6088460D01*
X-4701651Y-6088460D02*
X-4692127Y-6069412D01*
X-4692127Y-6069412D02*
X-4692127Y-6059888D01*
X-4692127Y-6059888D02*
X-4701651Y-6040841D01*
X-4701651Y-6040841D02*
X-4720699Y-6031317D01*
X-4720699Y-6031317D02*
X-4749270Y-6031317D01*
X-4749270Y-6031317D02*
X-4768318Y-6021793D01*
X-4768318Y-6021793D02*
X-4777842Y-6002746D01*
X-4777842Y-6002746D02*
X-4777842Y-5993222D01*
X-4777842Y-5993222D02*
X-4768318Y-5974174D01*
X-4768318Y-5974174D02*
X-4749270Y-5964650D01*
X-4749270Y-5964650D02*
X-4720699Y-5964650D01*
X-4720699Y-5964650D02*
X-4701651Y-5974174D01*
X-4625461Y-6174174D02*
X-4615937Y-6164650D01*
X-4615937Y-6164650D02*
X-4596889Y-6136079D01*
X-4596889Y-6136079D02*
X-4587366Y-6117031D01*
X-4587366Y-6117031D02*
X-4577842Y-6088460D01*
X-4577842Y-6088460D02*
X-4568318Y-6040841D01*
X-4568318Y-6040841D02*
X-4568318Y-6002746D01*
X-4568318Y-6002746D02*
X-4577842Y-5955127D01*
X-4577842Y-5955127D02*
X-4587366Y-5926555D01*
X-4587366Y-5926555D02*
X-4596889Y-5907508D01*
X-4596889Y-5907508D02*
X-4615937Y-5878936D01*
X-4615937Y-5878936D02*
X-4625461Y-5869412D01*
D12*
X-9641000Y-6320500D02*
X-9591000Y-6270500D01*
X-9641000Y-6220500D01*
X-9691000Y-6270500D01*
X-9641000Y-6320500D01*
D11*
X-9225461Y-6361984D02*
X-9339747Y-6361984D01*
X-9282604Y-6361984D02*
X-9282604Y-6161984D01*
X-9282604Y-6161984D02*
X-9301652Y-6190555D01*
X-9301652Y-6190555D02*
X-9320699Y-6209603D01*
X-9320699Y-6209603D02*
X-9339747Y-6219127D01*
X-9139747Y-6342936D02*
X-9130223Y-6352460D01*
X-9130223Y-6352460D02*
X-9139747Y-6361984D01*
X-9139747Y-6361984D02*
X-9149271Y-6352460D01*
X-9149271Y-6352460D02*
X-9139747Y-6342936D01*
X-9139747Y-6342936D02*
X-9139747Y-6361984D01*
X-9006414Y-6161984D02*
X-8987366Y-6161984D01*
X-8987366Y-6161984D02*
X-8968318Y-6171508D01*
X-8968318Y-6171508D02*
X-8958795Y-6181031D01*
X-8958795Y-6181031D02*
X-8949271Y-6200079D01*
X-8949271Y-6200079D02*
X-8939747Y-6238174D01*
X-8939747Y-6238174D02*
X-8939747Y-6285793D01*
X-8939747Y-6285793D02*
X-8949271Y-6323888D01*
X-8949271Y-6323888D02*
X-8958795Y-6342936D01*
X-8958795Y-6342936D02*
X-8968318Y-6352460D01*
X-8968318Y-6352460D02*
X-8987366Y-6361984D01*
X-8987366Y-6361984D02*
X-9006414Y-6361984D01*
X-9006414Y-6361984D02*
X-9025461Y-6352460D01*
X-9025461Y-6352460D02*
X-9034985Y-6342936D01*
X-9034985Y-6342936D02*
X-9044509Y-6323888D01*
X-9044509Y-6323888D02*
X-9054033Y-6285793D01*
X-9054033Y-6285793D02*
X-9054033Y-6238174D01*
X-9054033Y-6238174D02*
X-9044509Y-6200079D01*
X-9044509Y-6200079D02*
X-9034985Y-6181031D01*
X-9034985Y-6181031D02*
X-9025461Y-6171508D01*
X-9025461Y-6171508D02*
X-9006414Y-6161984D01*
X-8815937Y-6161984D02*
X-8796890Y-6161984D01*
X-8796890Y-6161984D02*
X-8777842Y-6171508D01*
X-8777842Y-6171508D02*
X-8768318Y-6181031D01*
X-8768318Y-6181031D02*
X-8758795Y-6200079D01*
X-8758795Y-6200079D02*
X-8749271Y-6238174D01*
X-8749271Y-6238174D02*
X-8749271Y-6285793D01*
X-8749271Y-6285793D02*
X-8758795Y-6323888D01*
X-8758795Y-6323888D02*
X-8768318Y-6342936D01*
X-8768318Y-6342936D02*
X-8777842Y-6352460D01*
X-8777842Y-6352460D02*
X-8796890Y-6361984D01*
X-8796890Y-6361984D02*
X-8815937Y-6361984D01*
X-8815937Y-6361984D02*
X-8834985Y-6352460D01*
X-8834985Y-6352460D02*
X-8844509Y-6342936D01*
X-8844509Y-6342936D02*
X-8854033Y-6323888D01*
X-8854033Y-6323888D02*
X-8863556Y-6285793D01*
X-8863556Y-6285793D02*
X-8863556Y-6238174D01*
X-8863556Y-6238174D02*
X-8854033Y-6200079D01*
X-8854033Y-6200079D02*
X-8844509Y-6181031D01*
X-8844509Y-6181031D02*
X-8834985Y-6171508D01*
X-8834985Y-6171508D02*
X-8815937Y-6161984D01*
X-8625461Y-6161984D02*
X-8606414Y-6161984D01*
X-8606414Y-6161984D02*
X-8587366Y-6171508D01*
X-8587366Y-6171508D02*
X-8577842Y-6181031D01*
X-8577842Y-6181031D02*
X-8568318Y-6200079D01*
X-8568318Y-6200079D02*
X-8558795Y-6238174D01*
X-8558795Y-6238174D02*
X-8558795Y-6285793D01*
X-8558795Y-6285793D02*
X-8568318Y-6323888D01*
X-8568318Y-6323888D02*
X-8577842Y-6342936D01*
X-8577842Y-6342936D02*
X-8587366Y-6352460D01*
X-8587366Y-6352460D02*
X-8606414Y-6361984D01*
X-8606414Y-6361984D02*
X-8625461Y-6361984D01*
X-8625461Y-6361984D02*
X-8644509Y-6352460D01*
X-8644509Y-6352460D02*
X-8654033Y-6342936D01*
X-8654033Y-6342936D02*
X-8663556Y-6323888D01*
X-8663556Y-6323888D02*
X-8673080Y-6285793D01*
X-8673080Y-6285793D02*
X-8673080Y-6238174D01*
X-8673080Y-6238174D02*
X-8663556Y-6200079D01*
X-8663556Y-6200079D02*
X-8654033Y-6181031D01*
X-8654033Y-6181031D02*
X-8644509Y-6171508D01*
X-8644509Y-6171508D02*
X-8625461Y-6161984D01*
X-8473080Y-6361984D02*
X-8473080Y-6228650D01*
X-8473080Y-6247698D02*
X-8463556Y-6238174D01*
X-8463556Y-6238174D02*
X-8444509Y-6228650D01*
X-8444509Y-6228650D02*
X-8415937Y-6228650D01*
X-8415937Y-6228650D02*
X-8396890Y-6238174D01*
X-8396890Y-6238174D02*
X-8387366Y-6257222D01*
X-8387366Y-6257222D02*
X-8387366Y-6361984D01*
X-8387366Y-6257222D02*
X-8377842Y-6238174D01*
X-8377842Y-6238174D02*
X-8358794Y-6228650D01*
X-8358794Y-6228650D02*
X-8330223Y-6228650D01*
X-8330223Y-6228650D02*
X-8311175Y-6238174D01*
X-8311175Y-6238174D02*
X-8301652Y-6257222D01*
X-8301652Y-6257222D02*
X-8301652Y-6361984D01*
X-8206413Y-6361984D02*
X-8206413Y-6228650D01*
X-8206413Y-6247698D02*
X-8196890Y-6238174D01*
X-8196890Y-6238174D02*
X-8177842Y-6228650D01*
X-8177842Y-6228650D02*
X-8149271Y-6228650D01*
X-8149271Y-6228650D02*
X-8130223Y-6238174D01*
X-8130223Y-6238174D02*
X-8120699Y-6257222D01*
X-8120699Y-6257222D02*
X-8120699Y-6361984D01*
X-8120699Y-6257222D02*
X-8111175Y-6238174D01*
X-8111175Y-6238174D02*
X-8092128Y-6228650D01*
X-8092128Y-6228650D02*
X-8063556Y-6228650D01*
X-8063556Y-6228650D02*
X-8044509Y-6238174D01*
X-8044509Y-6238174D02*
X-8034985Y-6257222D01*
X-8034985Y-6257222D02*
X-8034985Y-6361984D01*
X-7644509Y-6152460D02*
X-7815937Y-6409603D01*
X-7387366Y-6161984D02*
X-7368318Y-6161984D01*
X-7368318Y-6161984D02*
X-7349270Y-6171508D01*
X-7349270Y-6171508D02*
X-7339747Y-6181031D01*
X-7339747Y-6181031D02*
X-7330223Y-6200079D01*
X-7330223Y-6200079D02*
X-7320699Y-6238174D01*
X-7320699Y-6238174D02*
X-7320699Y-6285793D01*
X-7320699Y-6285793D02*
X-7330223Y-6323888D01*
X-7330223Y-6323888D02*
X-7339747Y-6342936D01*
X-7339747Y-6342936D02*
X-7349270Y-6352460D01*
X-7349270Y-6352460D02*
X-7368318Y-6361984D01*
X-7368318Y-6361984D02*
X-7387366Y-6361984D01*
X-7387366Y-6361984D02*
X-7406413Y-6352460D01*
X-7406413Y-6352460D02*
X-7415937Y-6342936D01*
X-7415937Y-6342936D02*
X-7425461Y-6323888D01*
X-7425461Y-6323888D02*
X-7434985Y-6285793D01*
X-7434985Y-6285793D02*
X-7434985Y-6238174D01*
X-7434985Y-6238174D02*
X-7425461Y-6200079D01*
X-7425461Y-6200079D02*
X-7415937Y-6181031D01*
X-7415937Y-6181031D02*
X-7406413Y-6171508D01*
X-7406413Y-6171508D02*
X-7387366Y-6161984D01*
X-7234985Y-6342936D02*
X-7225461Y-6352460D01*
X-7225461Y-6352460D02*
X-7234985Y-6361984D01*
X-7234985Y-6361984D02*
X-7244509Y-6352460D01*
X-7244509Y-6352460D02*
X-7234985Y-6342936D01*
X-7234985Y-6342936D02*
X-7234985Y-6361984D01*
X-7101651Y-6161984D02*
X-7082604Y-6161984D01*
X-7082604Y-6161984D02*
X-7063556Y-6171508D01*
X-7063556Y-6171508D02*
X-7054032Y-6181031D01*
X-7054032Y-6181031D02*
X-7044509Y-6200079D01*
X-7044509Y-6200079D02*
X-7034985Y-6238174D01*
X-7034985Y-6238174D02*
X-7034985Y-6285793D01*
X-7034985Y-6285793D02*
X-7044509Y-6323888D01*
X-7044509Y-6323888D02*
X-7054032Y-6342936D01*
X-7054032Y-6342936D02*
X-7063556Y-6352460D01*
X-7063556Y-6352460D02*
X-7082604Y-6361984D01*
X-7082604Y-6361984D02*
X-7101651Y-6361984D01*
X-7101651Y-6361984D02*
X-7120699Y-6352460D01*
X-7120699Y-6352460D02*
X-7130223Y-6342936D01*
X-7130223Y-6342936D02*
X-7139747Y-6323888D01*
X-7139747Y-6323888D02*
X-7149270Y-6285793D01*
X-7149270Y-6285793D02*
X-7149270Y-6238174D01*
X-7149270Y-6238174D02*
X-7139747Y-6200079D01*
X-7139747Y-6200079D02*
X-7130223Y-6181031D01*
X-7130223Y-6181031D02*
X-7120699Y-6171508D01*
X-7120699Y-6171508D02*
X-7101651Y-6161984D01*
X-6968318Y-6161984D02*
X-6844509Y-6161984D01*
X-6844509Y-6161984D02*
X-6911175Y-6238174D01*
X-6911175Y-6238174D02*
X-6882604Y-6238174D01*
X-6882604Y-6238174D02*
X-6863556Y-6247698D01*
X-6863556Y-6247698D02*
X-6854032Y-6257222D01*
X-6854032Y-6257222D02*
X-6844509Y-6276269D01*
X-6844509Y-6276269D02*
X-6844509Y-6323888D01*
X-6844509Y-6323888D02*
X-6854032Y-6342936D01*
X-6854032Y-6342936D02*
X-6863556Y-6352460D01*
X-6863556Y-6352460D02*
X-6882604Y-6361984D01*
X-6882604Y-6361984D02*
X-6939747Y-6361984D01*
X-6939747Y-6361984D02*
X-6958794Y-6352460D01*
X-6958794Y-6352460D02*
X-6968318Y-6342936D01*
X-6749270Y-6361984D02*
X-6711175Y-6361984D01*
X-6711175Y-6361984D02*
X-6692128Y-6352460D01*
X-6692128Y-6352460D02*
X-6682604Y-6342936D01*
X-6682604Y-6342936D02*
X-6663556Y-6314365D01*
X-6663556Y-6314365D02*
X-6654032Y-6276269D01*
X-6654032Y-6276269D02*
X-6654032Y-6200079D01*
X-6654032Y-6200079D02*
X-6663556Y-6181031D01*
X-6663556Y-6181031D02*
X-6673080Y-6171508D01*
X-6673080Y-6171508D02*
X-6692128Y-6161984D01*
X-6692128Y-6161984D02*
X-6730223Y-6161984D01*
X-6730223Y-6161984D02*
X-6749270Y-6171508D01*
X-6749270Y-6171508D02*
X-6758794Y-6181031D01*
X-6758794Y-6181031D02*
X-6768318Y-6200079D01*
X-6768318Y-6200079D02*
X-6768318Y-6247698D01*
X-6768318Y-6247698D02*
X-6758794Y-6266746D01*
X-6758794Y-6266746D02*
X-6749270Y-6276269D01*
X-6749270Y-6276269D02*
X-6730223Y-6285793D01*
X-6730223Y-6285793D02*
X-6692128Y-6285793D01*
X-6692128Y-6285793D02*
X-6673080Y-6276269D01*
X-6673080Y-6276269D02*
X-6663556Y-6266746D01*
X-6663556Y-6266746D02*
X-6654032Y-6247698D01*
X-6482604Y-6228650D02*
X-6482604Y-6361984D01*
X-6530223Y-6152460D02*
X-6577842Y-6295317D01*
X-6577842Y-6295317D02*
X-6454032Y-6295317D01*
X-6387366Y-6161984D02*
X-6387366Y-6200079D01*
X-6311175Y-6161984D02*
X-6311175Y-6200079D01*
X-6015937Y-6438174D02*
X-6025461Y-6428650D01*
X-6025461Y-6428650D02*
X-6044508Y-6400079D01*
X-6044508Y-6400079D02*
X-6054032Y-6381031D01*
X-6054032Y-6381031D02*
X-6063556Y-6352460D01*
X-6063556Y-6352460D02*
X-6073080Y-6304841D01*
X-6073080Y-6304841D02*
X-6073080Y-6266746D01*
X-6073080Y-6266746D02*
X-6063556Y-6219127D01*
X-6063556Y-6219127D02*
X-6054032Y-6190555D01*
X-6054032Y-6190555D02*
X-6044508Y-6171508D01*
X-6044508Y-6171508D02*
X-6025461Y-6142936D01*
X-6025461Y-6142936D02*
X-6015937Y-6133412D01*
X-5854032Y-6228650D02*
X-5854032Y-6361984D01*
X-5901651Y-6152460D02*
X-5949270Y-6295317D01*
X-5949270Y-6295317D02*
X-5825461Y-6295317D01*
X-5596889Y-6361984D02*
X-5596889Y-6161984D01*
X-5511175Y-6361984D02*
X-5511175Y-6257222D01*
X-5511175Y-6257222D02*
X-5520699Y-6238174D01*
X-5520699Y-6238174D02*
X-5539747Y-6228650D01*
X-5539747Y-6228650D02*
X-5568318Y-6228650D01*
X-5568318Y-6228650D02*
X-5587366Y-6238174D01*
X-5587366Y-6238174D02*
X-5596889Y-6247698D01*
X-5387366Y-6361984D02*
X-5406413Y-6352460D01*
X-5406413Y-6352460D02*
X-5415937Y-6342936D01*
X-5415937Y-6342936D02*
X-5425461Y-6323888D01*
X-5425461Y-6323888D02*
X-5425461Y-6266746D01*
X-5425461Y-6266746D02*
X-5415937Y-6247698D01*
X-5415937Y-6247698D02*
X-5406413Y-6238174D01*
X-5406413Y-6238174D02*
X-5387366Y-6228650D01*
X-5387366Y-6228650D02*
X-5358794Y-6228650D01*
X-5358794Y-6228650D02*
X-5339747Y-6238174D01*
X-5339747Y-6238174D02*
X-5330223Y-6247698D01*
X-5330223Y-6247698D02*
X-5320699Y-6266746D01*
X-5320699Y-6266746D02*
X-5320699Y-6323888D01*
X-5320699Y-6323888D02*
X-5330223Y-6342936D01*
X-5330223Y-6342936D02*
X-5339747Y-6352460D01*
X-5339747Y-6352460D02*
X-5358794Y-6361984D01*
X-5358794Y-6361984D02*
X-5387366Y-6361984D01*
X-5206413Y-6361984D02*
X-5225461Y-6352460D01*
X-5225461Y-6352460D02*
X-5234985Y-6333412D01*
X-5234985Y-6333412D02*
X-5234985Y-6161984D01*
X-5054032Y-6352460D02*
X-5073080Y-6361984D01*
X-5073080Y-6361984D02*
X-5111175Y-6361984D01*
X-5111175Y-6361984D02*
X-5130223Y-6352460D01*
X-5130223Y-6352460D02*
X-5139747Y-6333412D01*
X-5139747Y-6333412D02*
X-5139747Y-6257222D01*
X-5139747Y-6257222D02*
X-5130223Y-6238174D01*
X-5130223Y-6238174D02*
X-5111175Y-6228650D01*
X-5111175Y-6228650D02*
X-5073080Y-6228650D01*
X-5073080Y-6228650D02*
X-5054032Y-6238174D01*
X-5054032Y-6238174D02*
X-5044508Y-6257222D01*
X-5044508Y-6257222D02*
X-5044508Y-6276269D01*
X-5044508Y-6276269D02*
X-5139747Y-6295317D01*
X-4968318Y-6352460D02*
X-4949270Y-6361984D01*
X-4949270Y-6361984D02*
X-4911175Y-6361984D01*
X-4911175Y-6361984D02*
X-4892127Y-6352460D01*
X-4892127Y-6352460D02*
X-4882604Y-6333412D01*
X-4882604Y-6333412D02*
X-4882604Y-6323888D01*
X-4882604Y-6323888D02*
X-4892127Y-6304841D01*
X-4892127Y-6304841D02*
X-4911175Y-6295317D01*
X-4911175Y-6295317D02*
X-4939747Y-6295317D01*
X-4939747Y-6295317D02*
X-4958794Y-6285793D01*
X-4958794Y-6285793D02*
X-4968318Y-6266746D01*
X-4968318Y-6266746D02*
X-4968318Y-6257222D01*
X-4968318Y-6257222D02*
X-4958794Y-6238174D01*
X-4958794Y-6238174D02*
X-4939747Y-6228650D01*
X-4939747Y-6228650D02*
X-4911175Y-6228650D01*
X-4911175Y-6228650D02*
X-4892127Y-6238174D01*
X-4815937Y-6438174D02*
X-4806413Y-6428650D01*
X-4806413Y-6428650D02*
X-4787366Y-6400079D01*
X-4787366Y-6400079D02*
X-4777842Y-6381031D01*
X-4777842Y-6381031D02*
X-4768318Y-6352460D01*
X-4768318Y-6352460D02*
X-4758794Y-6304841D01*
X-4758794Y-6304841D02*
X-4758794Y-6266746D01*
X-4758794Y-6266746D02*
X-4768318Y-6219127D01*
X-4768318Y-6219127D02*
X-4777842Y-6190555D01*
X-4777842Y-6190555D02*
X-4787366Y-6171508D01*
X-4787366Y-6171508D02*
X-4806413Y-6142936D01*
X-4806413Y-6142936D02*
X-4815937Y-6133412D01*
X-9791000Y-6434500D02*
X-9591000Y-6634500D01*
X-9591000Y-6434500D02*
X-9791000Y-6634500D01*
X-9591000Y-6534500D02*
G75*
G02*
X-9791000Y-6534500I-100000J0D01*
G01*
X-9791000Y-6534500D02*
G75*
G02*
X-9591000Y-6534500I100000J0D01*
G01*
X-9349271Y-6425984D02*
X-9225461Y-6425984D01*
X-9225461Y-6425984D02*
X-9292128Y-6502174D01*
X-9292128Y-6502174D02*
X-9263556Y-6502174D01*
X-9263556Y-6502174D02*
X-9244509Y-6511698D01*
X-9244509Y-6511698D02*
X-9234985Y-6521222D01*
X-9234985Y-6521222D02*
X-9225461Y-6540269D01*
X-9225461Y-6540269D02*
X-9225461Y-6587888D01*
X-9225461Y-6587888D02*
X-9234985Y-6606936D01*
X-9234985Y-6606936D02*
X-9244509Y-6616460D01*
X-9244509Y-6616460D02*
X-9263556Y-6625984D01*
X-9263556Y-6625984D02*
X-9320699Y-6625984D01*
X-9320699Y-6625984D02*
X-9339747Y-6616460D01*
X-9339747Y-6616460D02*
X-9349271Y-6606936D01*
X-9139747Y-6606936D02*
X-9130223Y-6616460D01*
X-9130223Y-6616460D02*
X-9139747Y-6625984D01*
X-9139747Y-6625984D02*
X-9149271Y-6616460D01*
X-9149271Y-6616460D02*
X-9139747Y-6606936D01*
X-9139747Y-6606936D02*
X-9139747Y-6625984D01*
X-9054033Y-6445031D02*
X-9044509Y-6435508D01*
X-9044509Y-6435508D02*
X-9025461Y-6425984D01*
X-9025461Y-6425984D02*
X-8977842Y-6425984D01*
X-8977842Y-6425984D02*
X-8958795Y-6435508D01*
X-8958795Y-6435508D02*
X-8949271Y-6445031D01*
X-8949271Y-6445031D02*
X-8939747Y-6464079D01*
X-8939747Y-6464079D02*
X-8939747Y-6483127D01*
X-8939747Y-6483127D02*
X-8949271Y-6511698D01*
X-8949271Y-6511698D02*
X-9063556Y-6625984D01*
X-9063556Y-6625984D02*
X-8939747Y-6625984D01*
X-8815937Y-6425984D02*
X-8796890Y-6425984D01*
X-8796890Y-6425984D02*
X-8777842Y-6435508D01*
X-8777842Y-6435508D02*
X-8768318Y-6445031D01*
X-8768318Y-6445031D02*
X-8758795Y-6464079D01*
X-8758795Y-6464079D02*
X-8749271Y-6502174D01*
X-8749271Y-6502174D02*
X-8749271Y-6549793D01*
X-8749271Y-6549793D02*
X-8758795Y-6587888D01*
X-8758795Y-6587888D02*
X-8768318Y-6606936D01*
X-8768318Y-6606936D02*
X-8777842Y-6616460D01*
X-8777842Y-6616460D02*
X-8796890Y-6625984D01*
X-8796890Y-6625984D02*
X-8815937Y-6625984D01*
X-8815937Y-6625984D02*
X-8834985Y-6616460D01*
X-8834985Y-6616460D02*
X-8844509Y-6606936D01*
X-8844509Y-6606936D02*
X-8854033Y-6587888D01*
X-8854033Y-6587888D02*
X-8863556Y-6549793D01*
X-8863556Y-6549793D02*
X-8863556Y-6502174D01*
X-8863556Y-6502174D02*
X-8854033Y-6464079D01*
X-8854033Y-6464079D02*
X-8844509Y-6445031D01*
X-8844509Y-6445031D02*
X-8834985Y-6435508D01*
X-8834985Y-6435508D02*
X-8815937Y-6425984D01*
X-8625461Y-6425984D02*
X-8606414Y-6425984D01*
X-8606414Y-6425984D02*
X-8587366Y-6435508D01*
X-8587366Y-6435508D02*
X-8577842Y-6445031D01*
X-8577842Y-6445031D02*
X-8568318Y-6464079D01*
X-8568318Y-6464079D02*
X-8558795Y-6502174D01*
X-8558795Y-6502174D02*
X-8558795Y-6549793D01*
X-8558795Y-6549793D02*
X-8568318Y-6587888D01*
X-8568318Y-6587888D02*
X-8577842Y-6606936D01*
X-8577842Y-6606936D02*
X-8587366Y-6616460D01*
X-8587366Y-6616460D02*
X-8606414Y-6625984D01*
X-8606414Y-6625984D02*
X-8625461Y-6625984D01*
X-8625461Y-6625984D02*
X-8644509Y-6616460D01*
X-8644509Y-6616460D02*
X-8654033Y-6606936D01*
X-8654033Y-6606936D02*
X-8663556Y-6587888D01*
X-8663556Y-6587888D02*
X-8673080Y-6549793D01*
X-8673080Y-6549793D02*
X-8673080Y-6502174D01*
X-8673080Y-6502174D02*
X-8663556Y-6464079D01*
X-8663556Y-6464079D02*
X-8654033Y-6445031D01*
X-8654033Y-6445031D02*
X-8644509Y-6435508D01*
X-8644509Y-6435508D02*
X-8625461Y-6425984D01*
X-8473080Y-6625984D02*
X-8473080Y-6492650D01*
X-8473080Y-6511698D02*
X-8463556Y-6502174D01*
X-8463556Y-6502174D02*
X-8444509Y-6492650D01*
X-8444509Y-6492650D02*
X-8415937Y-6492650D01*
X-8415937Y-6492650D02*
X-8396890Y-6502174D01*
X-8396890Y-6502174D02*
X-8387366Y-6521222D01*
X-8387366Y-6521222D02*
X-8387366Y-6625984D01*
X-8387366Y-6521222D02*
X-8377842Y-6502174D01*
X-8377842Y-6502174D02*
X-8358794Y-6492650D01*
X-8358794Y-6492650D02*
X-8330223Y-6492650D01*
X-8330223Y-6492650D02*
X-8311175Y-6502174D01*
X-8311175Y-6502174D02*
X-8301652Y-6521222D01*
X-8301652Y-6521222D02*
X-8301652Y-6625984D01*
X-8206413Y-6625984D02*
X-8206413Y-6492650D01*
X-8206413Y-6511698D02*
X-8196890Y-6502174D01*
X-8196890Y-6502174D02*
X-8177842Y-6492650D01*
X-8177842Y-6492650D02*
X-8149271Y-6492650D01*
X-8149271Y-6492650D02*
X-8130223Y-6502174D01*
X-8130223Y-6502174D02*
X-8120699Y-6521222D01*
X-8120699Y-6521222D02*
X-8120699Y-6625984D01*
X-8120699Y-6521222D02*
X-8111175Y-6502174D01*
X-8111175Y-6502174D02*
X-8092128Y-6492650D01*
X-8092128Y-6492650D02*
X-8063556Y-6492650D01*
X-8063556Y-6492650D02*
X-8044509Y-6502174D01*
X-8044509Y-6502174D02*
X-8034985Y-6521222D01*
X-8034985Y-6521222D02*
X-8034985Y-6625984D01*
X-7644509Y-6416460D02*
X-7815937Y-6673603D01*
X-7387366Y-6425984D02*
X-7368318Y-6425984D01*
X-7368318Y-6425984D02*
X-7349270Y-6435508D01*
X-7349270Y-6435508D02*
X-7339747Y-6445031D01*
X-7339747Y-6445031D02*
X-7330223Y-6464079D01*
X-7330223Y-6464079D02*
X-7320699Y-6502174D01*
X-7320699Y-6502174D02*
X-7320699Y-6549793D01*
X-7320699Y-6549793D02*
X-7330223Y-6587888D01*
X-7330223Y-6587888D02*
X-7339747Y-6606936D01*
X-7339747Y-6606936D02*
X-7349270Y-6616460D01*
X-7349270Y-6616460D02*
X-7368318Y-6625984D01*
X-7368318Y-6625984D02*
X-7387366Y-6625984D01*
X-7387366Y-6625984D02*
X-7406413Y-6616460D01*
X-7406413Y-6616460D02*
X-7415937Y-6606936D01*
X-7415937Y-6606936D02*
X-7425461Y-6587888D01*
X-7425461Y-6587888D02*
X-7434985Y-6549793D01*
X-7434985Y-6549793D02*
X-7434985Y-6502174D01*
X-7434985Y-6502174D02*
X-7425461Y-6464079D01*
X-7425461Y-6464079D02*
X-7415937Y-6445031D01*
X-7415937Y-6445031D02*
X-7406413Y-6435508D01*
X-7406413Y-6435508D02*
X-7387366Y-6425984D01*
X-7234985Y-6606936D02*
X-7225461Y-6616460D01*
X-7225461Y-6616460D02*
X-7234985Y-6625984D01*
X-7234985Y-6625984D02*
X-7244509Y-6616460D01*
X-7244509Y-6616460D02*
X-7234985Y-6606936D01*
X-7234985Y-6606936D02*
X-7234985Y-6625984D01*
X-7034985Y-6625984D02*
X-7149270Y-6625984D01*
X-7092128Y-6625984D02*
X-7092128Y-6425984D01*
X-7092128Y-6425984D02*
X-7111175Y-6454555D01*
X-7111175Y-6454555D02*
X-7130223Y-6473603D01*
X-7130223Y-6473603D02*
X-7149270Y-6483127D01*
X-6958794Y-6445031D02*
X-6949270Y-6435508D01*
X-6949270Y-6435508D02*
X-6930223Y-6425984D01*
X-6930223Y-6425984D02*
X-6882604Y-6425984D01*
X-6882604Y-6425984D02*
X-6863556Y-6435508D01*
X-6863556Y-6435508D02*
X-6854032Y-6445031D01*
X-6854032Y-6445031D02*
X-6844509Y-6464079D01*
X-6844509Y-6464079D02*
X-6844509Y-6483127D01*
X-6844509Y-6483127D02*
X-6854032Y-6511698D01*
X-6854032Y-6511698D02*
X-6968318Y-6625984D01*
X-6968318Y-6625984D02*
X-6844509Y-6625984D01*
X-6673080Y-6425984D02*
X-6711175Y-6425984D01*
X-6711175Y-6425984D02*
X-6730223Y-6435508D01*
X-6730223Y-6435508D02*
X-6739747Y-6445031D01*
X-6739747Y-6445031D02*
X-6758794Y-6473603D01*
X-6758794Y-6473603D02*
X-6768318Y-6511698D01*
X-6768318Y-6511698D02*
X-6768318Y-6587888D01*
X-6768318Y-6587888D02*
X-6758794Y-6606936D01*
X-6758794Y-6606936D02*
X-6749270Y-6616460D01*
X-6749270Y-6616460D02*
X-6730223Y-6625984D01*
X-6730223Y-6625984D02*
X-6692128Y-6625984D01*
X-6692128Y-6625984D02*
X-6673080Y-6616460D01*
X-6673080Y-6616460D02*
X-6663556Y-6606936D01*
X-6663556Y-6606936D02*
X-6654032Y-6587888D01*
X-6654032Y-6587888D02*
X-6654032Y-6540269D01*
X-6654032Y-6540269D02*
X-6663556Y-6521222D01*
X-6663556Y-6521222D02*
X-6673080Y-6511698D01*
X-6673080Y-6511698D02*
X-6692128Y-6502174D01*
X-6692128Y-6502174D02*
X-6730223Y-6502174D01*
X-6730223Y-6502174D02*
X-6749270Y-6511698D01*
X-6749270Y-6511698D02*
X-6758794Y-6521222D01*
X-6758794Y-6521222D02*
X-6768318Y-6540269D01*
X-6530223Y-6425984D02*
X-6511175Y-6425984D01*
X-6511175Y-6425984D02*
X-6492128Y-6435508D01*
X-6492128Y-6435508D02*
X-6482604Y-6445031D01*
X-6482604Y-6445031D02*
X-6473080Y-6464079D01*
X-6473080Y-6464079D02*
X-6463556Y-6502174D01*
X-6463556Y-6502174D02*
X-6463556Y-6549793D01*
X-6463556Y-6549793D02*
X-6473080Y-6587888D01*
X-6473080Y-6587888D02*
X-6482604Y-6606936D01*
X-6482604Y-6606936D02*
X-6492128Y-6616460D01*
X-6492128Y-6616460D02*
X-6511175Y-6625984D01*
X-6511175Y-6625984D02*
X-6530223Y-6625984D01*
X-6530223Y-6625984D02*
X-6549270Y-6616460D01*
X-6549270Y-6616460D02*
X-6558794Y-6606936D01*
X-6558794Y-6606936D02*
X-6568318Y-6587888D01*
X-6568318Y-6587888D02*
X-6577842Y-6549793D01*
X-6577842Y-6549793D02*
X-6577842Y-6502174D01*
X-6577842Y-6502174D02*
X-6568318Y-6464079D01*
X-6568318Y-6464079D02*
X-6558794Y-6445031D01*
X-6558794Y-6445031D02*
X-6549270Y-6435508D01*
X-6549270Y-6435508D02*
X-6530223Y-6425984D01*
X-6387366Y-6425984D02*
X-6387366Y-6464079D01*
X-6311175Y-6425984D02*
X-6311175Y-6464079D01*
X-6015937Y-6702174D02*
X-6025461Y-6692650D01*
X-6025461Y-6692650D02*
X-6044508Y-6664079D01*
X-6044508Y-6664079D02*
X-6054032Y-6645031D01*
X-6054032Y-6645031D02*
X-6063556Y-6616460D01*
X-6063556Y-6616460D02*
X-6073080Y-6568841D01*
X-6073080Y-6568841D02*
X-6073080Y-6530746D01*
X-6073080Y-6530746D02*
X-6063556Y-6483127D01*
X-6063556Y-6483127D02*
X-6054032Y-6454555D01*
X-6054032Y-6454555D02*
X-6044508Y-6435508D01*
X-6044508Y-6435508D02*
X-6025461Y-6406936D01*
X-6025461Y-6406936D02*
X-6015937Y-6397412D01*
X-5854032Y-6425984D02*
X-5892128Y-6425984D01*
X-5892128Y-6425984D02*
X-5911175Y-6435508D01*
X-5911175Y-6435508D02*
X-5920699Y-6445031D01*
X-5920699Y-6445031D02*
X-5939747Y-6473603D01*
X-5939747Y-6473603D02*
X-5949270Y-6511698D01*
X-5949270Y-6511698D02*
X-5949270Y-6587888D01*
X-5949270Y-6587888D02*
X-5939747Y-6606936D01*
X-5939747Y-6606936D02*
X-5930223Y-6616460D01*
X-5930223Y-6616460D02*
X-5911175Y-6625984D01*
X-5911175Y-6625984D02*
X-5873080Y-6625984D01*
X-5873080Y-6625984D02*
X-5854032Y-6616460D01*
X-5854032Y-6616460D02*
X-5844508Y-6606936D01*
X-5844508Y-6606936D02*
X-5834985Y-6587888D01*
X-5834985Y-6587888D02*
X-5834985Y-6540269D01*
X-5834985Y-6540269D02*
X-5844508Y-6521222D01*
X-5844508Y-6521222D02*
X-5854032Y-6511698D01*
X-5854032Y-6511698D02*
X-5873080Y-6502174D01*
X-5873080Y-6502174D02*
X-5911175Y-6502174D01*
X-5911175Y-6502174D02*
X-5930223Y-6511698D01*
X-5930223Y-6511698D02*
X-5939747Y-6521222D01*
X-5939747Y-6521222D02*
X-5949270Y-6540269D01*
X-5596889Y-6625984D02*
X-5596889Y-6425984D01*
X-5511175Y-6625984D02*
X-5511175Y-6521222D01*
X-5511175Y-6521222D02*
X-5520699Y-6502174D01*
X-5520699Y-6502174D02*
X-5539747Y-6492650D01*
X-5539747Y-6492650D02*
X-5568318Y-6492650D01*
X-5568318Y-6492650D02*
X-5587366Y-6502174D01*
X-5587366Y-6502174D02*
X-5596889Y-6511698D01*
X-5387366Y-6625984D02*
X-5406413Y-6616460D01*
X-5406413Y-6616460D02*
X-5415937Y-6606936D01*
X-5415937Y-6606936D02*
X-5425461Y-6587888D01*
X-5425461Y-6587888D02*
X-5425461Y-6530746D01*
X-5425461Y-6530746D02*
X-5415937Y-6511698D01*
X-5415937Y-6511698D02*
X-5406413Y-6502174D01*
X-5406413Y-6502174D02*
X-5387366Y-6492650D01*
X-5387366Y-6492650D02*
X-5358794Y-6492650D01*
X-5358794Y-6492650D02*
X-5339747Y-6502174D01*
X-5339747Y-6502174D02*
X-5330223Y-6511698D01*
X-5330223Y-6511698D02*
X-5320699Y-6530746D01*
X-5320699Y-6530746D02*
X-5320699Y-6587888D01*
X-5320699Y-6587888D02*
X-5330223Y-6606936D01*
X-5330223Y-6606936D02*
X-5339747Y-6616460D01*
X-5339747Y-6616460D02*
X-5358794Y-6625984D01*
X-5358794Y-6625984D02*
X-5387366Y-6625984D01*
X-5206413Y-6625984D02*
X-5225461Y-6616460D01*
X-5225461Y-6616460D02*
X-5234985Y-6597412D01*
X-5234985Y-6597412D02*
X-5234985Y-6425984D01*
X-5054032Y-6616460D02*
X-5073080Y-6625984D01*
X-5073080Y-6625984D02*
X-5111175Y-6625984D01*
X-5111175Y-6625984D02*
X-5130223Y-6616460D01*
X-5130223Y-6616460D02*
X-5139747Y-6597412D01*
X-5139747Y-6597412D02*
X-5139747Y-6521222D01*
X-5139747Y-6521222D02*
X-5130223Y-6502174D01*
X-5130223Y-6502174D02*
X-5111175Y-6492650D01*
X-5111175Y-6492650D02*
X-5073080Y-6492650D01*
X-5073080Y-6492650D02*
X-5054032Y-6502174D01*
X-5054032Y-6502174D02*
X-5044508Y-6521222D01*
X-5044508Y-6521222D02*
X-5044508Y-6540269D01*
X-5044508Y-6540269D02*
X-5139747Y-6559317D01*
X-4968318Y-6616460D02*
X-4949270Y-6625984D01*
X-4949270Y-6625984D02*
X-4911175Y-6625984D01*
X-4911175Y-6625984D02*
X-4892127Y-6616460D01*
X-4892127Y-6616460D02*
X-4882604Y-6597412D01*
X-4882604Y-6597412D02*
X-4882604Y-6587888D01*
X-4882604Y-6587888D02*
X-4892127Y-6568841D01*
X-4892127Y-6568841D02*
X-4911175Y-6559317D01*
X-4911175Y-6559317D02*
X-4939747Y-6559317D01*
X-4939747Y-6559317D02*
X-4958794Y-6549793D01*
X-4958794Y-6549793D02*
X-4968318Y-6530746D01*
X-4968318Y-6530746D02*
X-4968318Y-6521222D01*
X-4968318Y-6521222D02*
X-4958794Y-6502174D01*
X-4958794Y-6502174D02*
X-4939747Y-6492650D01*
X-4939747Y-6492650D02*
X-4911175Y-6492650D01*
X-4911175Y-6492650D02*
X-4892127Y-6502174D01*
X-4815937Y-6702174D02*
X-4806413Y-6692650D01*
X-4806413Y-6692650D02*
X-4787366Y-6664079D01*
X-4787366Y-6664079D02*
X-4777842Y-6645031D01*
X-4777842Y-6645031D02*
X-4768318Y-6616460D01*
X-4768318Y-6616460D02*
X-4758794Y-6568841D01*
X-4758794Y-6568841D02*
X-4758794Y-6530746D01*
X-4758794Y-6530746D02*
X-4768318Y-6483127D01*
X-4768318Y-6483127D02*
X-4777842Y-6454555D01*
X-4777842Y-6454555D02*
X-4787366Y-6435508D01*
X-4787366Y-6435508D02*
X-4806413Y-6406936D01*
X-4806413Y-6406936D02*
X-4815937Y-6397412D01*
M02*
